<?xml version="1.0" encoding="utf-8" standalone="no"?>
<!DOCTYPE svg PUBLIC "-//W3C//DTD SVG 1.1//EN"
  "http://www.w3.org/Graphics/SVG/1.1/DTD/svg11.dtd">
<svg xmlns:xlink="http://www.w3.org/1999/xlink" width="432pt" height="288pt" viewBox="0 0 432 288" xmlns="http://www.w3.org/2000/svg" version="1.1">
 <metadata>
  <rdf:RDF xmlns:dc="http://purl.org/dc/elements/1.1/" xmlns:cc="http://creativecommons.org/ns#" xmlns:rdf="http://www.w3.org/1999/02/22-rdf-syntax-ns#">
   <cc:Work>
    <dc:type rdf:resource="http://purl.org/dc/dcmitype/StillImage"/>
    <dc:date>2022-07-22T04:05:59.859720</dc:date>
    <dc:format>image/svg+xml</dc:format>
    <dc:creator>
     <cc:Agent>
      <dc:title>Matplotlib v3.5.1, https://matplotlib.org/</dc:title>
     </cc:Agent>
    </dc:creator>
   </cc:Work>
  </rdf:RDF>
 </metadata>
 <defs>
  <style type="text/css">*{stroke-linejoin: round; stroke-linecap: butt}</style>
 </defs>
 <g id="figure_1">
  <g id="patch_1">
   <path d="M 0 288 
L 432 288 
L 432 0 
L 0 0 
L 0 288 
z
" style="fill: none"/>
  </g>
  <g id="axes_1">
   <g id="patch_2">
    <path d="M 54 252 
L 388.8 252 
L 388.8 34.56 
L 54 34.56 
z
" style="fill: #ffffff"/>
   </g>
   <g id="matplotlib.axis_1">
    <g id="xtick_1">
     <g id="line2d_1">
      <defs>
       <path id="m87fb9777df" d="M 0 0 
L 0 3.5 
" style="stroke: #000000; stroke-width: 0.8"/>
      </defs>
      <g>
       <use xlink:href="#m87fb9777df" x="54" y="252" style="stroke: #000000; stroke-width: 0.8"/>
      </g>
     </g>
     <g id="text_1">
      <!-- 0 -->
      <g transform="translate(50.81875 266.598437)scale(0.1 -0.1)">
       <defs>
        <path id="DejaVuSans-30" d="M 2034 4250 
Q 1547 4250 1301 3770 
Q 1056 3291 1056 2328 
Q 1056 1369 1301 889 
Q 1547 409 2034 409 
Q 2525 409 2770 889 
Q 3016 1369 3016 2328 
Q 3016 3291 2770 3770 
Q 2525 4250 2034 4250 
z
M 2034 4750 
Q 2819 4750 3233 4129 
Q 3647 3509 3647 2328 
Q 3647 1150 3233 529 
Q 2819 -91 2034 -91 
Q 1250 -91 836 529 
Q 422 1150 422 2328 
Q 422 3509 836 4129 
Q 1250 4750 2034 4750 
z
" transform="scale(0.015625)"/>
       </defs>
       <use xlink:href="#DejaVuSans-30"/>
      </g>
     </g>
    </g>
    <g id="xtick_2">
     <g id="line2d_2">
      <g>
       <use xlink:href="#m87fb9777df" x="120.96" y="252" style="stroke: #000000; stroke-width: 0.8"/>
      </g>
     </g>
     <g id="text_2">
      <!-- 20 -->
      <g transform="translate(114.5975 266.598437)scale(0.1 -0.1)">
       <defs>
        <path id="DejaVuSans-32" d="M 1228 531 
L 3431 531 
L 3431 0 
L 469 0 
L 469 531 
Q 828 903 1448 1529 
Q 2069 2156 2228 2338 
Q 2531 2678 2651 2914 
Q 2772 3150 2772 3378 
Q 2772 3750 2511 3984 
Q 2250 4219 1831 4219 
Q 1534 4219 1204 4116 
Q 875 4013 500 3803 
L 500 4441 
Q 881 4594 1212 4672 
Q 1544 4750 1819 4750 
Q 2544 4750 2975 4387 
Q 3406 4025 3406 3419 
Q 3406 3131 3298 2873 
Q 3191 2616 2906 2266 
Q 2828 2175 2409 1742 
Q 1991 1309 1228 531 
z
" transform="scale(0.015625)"/>
       </defs>
       <use xlink:href="#DejaVuSans-32"/>
       <use xlink:href="#DejaVuSans-30" x="63.623047"/>
      </g>
     </g>
    </g>
    <g id="xtick_3">
     <g id="line2d_3">
      <g>
       <use xlink:href="#m87fb9777df" x="187.92" y="252" style="stroke: #000000; stroke-width: 0.8"/>
      </g>
     </g>
     <g id="text_3">
      <!-- 40 -->
      <g transform="translate(181.5575 266.598437)scale(0.1 -0.1)">
       <defs>
        <path id="DejaVuSans-34" d="M 2419 4116 
L 825 1625 
L 2419 1625 
L 2419 4116 
z
M 2253 4666 
L 3047 4666 
L 3047 1625 
L 3713 1625 
L 3713 1100 
L 3047 1100 
L 3047 0 
L 2419 0 
L 2419 1100 
L 313 1100 
L 313 1709 
L 2253 4666 
z
" transform="scale(0.015625)"/>
       </defs>
       <use xlink:href="#DejaVuSans-34"/>
       <use xlink:href="#DejaVuSans-30" x="63.623047"/>
      </g>
     </g>
    </g>
    <g id="xtick_4">
     <g id="line2d_4">
      <g>
       <use xlink:href="#m87fb9777df" x="254.88" y="252" style="stroke: #000000; stroke-width: 0.8"/>
      </g>
     </g>
     <g id="text_4">
      <!-- 60 -->
      <g transform="translate(248.5175 266.598437)scale(0.1 -0.1)">
       <defs>
        <path id="DejaVuSans-36" d="M 2113 2584 
Q 1688 2584 1439 2293 
Q 1191 2003 1191 1497 
Q 1191 994 1439 701 
Q 1688 409 2113 409 
Q 2538 409 2786 701 
Q 3034 994 3034 1497 
Q 3034 2003 2786 2293 
Q 2538 2584 2113 2584 
z
M 3366 4563 
L 3366 3988 
Q 3128 4100 2886 4159 
Q 2644 4219 2406 4219 
Q 1781 4219 1451 3797 
Q 1122 3375 1075 2522 
Q 1259 2794 1537 2939 
Q 1816 3084 2150 3084 
Q 2853 3084 3261 2657 
Q 3669 2231 3669 1497 
Q 3669 778 3244 343 
Q 2819 -91 2113 -91 
Q 1303 -91 875 529 
Q 447 1150 447 2328 
Q 447 3434 972 4092 
Q 1497 4750 2381 4750 
Q 2619 4750 2861 4703 
Q 3103 4656 3366 4563 
z
" transform="scale(0.015625)"/>
       </defs>
       <use xlink:href="#DejaVuSans-36"/>
       <use xlink:href="#DejaVuSans-30" x="63.623047"/>
      </g>
     </g>
    </g>
    <g id="xtick_5">
     <g id="line2d_5">
      <g>
       <use xlink:href="#m87fb9777df" x="321.84" y="252" style="stroke: #000000; stroke-width: 0.8"/>
      </g>
     </g>
     <g id="text_5">
      <!-- 80 -->
      <g transform="translate(315.4775 266.598437)scale(0.1 -0.1)">
       <defs>
        <path id="DejaVuSans-38" d="M 2034 2216 
Q 1584 2216 1326 1975 
Q 1069 1734 1069 1313 
Q 1069 891 1326 650 
Q 1584 409 2034 409 
Q 2484 409 2743 651 
Q 3003 894 3003 1313 
Q 3003 1734 2745 1975 
Q 2488 2216 2034 2216 
z
M 1403 2484 
Q 997 2584 770 2862 
Q 544 3141 544 3541 
Q 544 4100 942 4425 
Q 1341 4750 2034 4750 
Q 2731 4750 3128 4425 
Q 3525 4100 3525 3541 
Q 3525 3141 3298 2862 
Q 3072 2584 2669 2484 
Q 3125 2378 3379 2068 
Q 3634 1759 3634 1313 
Q 3634 634 3220 271 
Q 2806 -91 2034 -91 
Q 1263 -91 848 271 
Q 434 634 434 1313 
Q 434 1759 690 2068 
Q 947 2378 1403 2484 
z
M 1172 3481 
Q 1172 3119 1398 2916 
Q 1625 2713 2034 2713 
Q 2441 2713 2670 2916 
Q 2900 3119 2900 3481 
Q 2900 3844 2670 4047 
Q 2441 4250 2034 4250 
Q 1625 4250 1398 4047 
Q 1172 3844 1172 3481 
z
" transform="scale(0.015625)"/>
       </defs>
       <use xlink:href="#DejaVuSans-38"/>
       <use xlink:href="#DejaVuSans-30" x="63.623047"/>
      </g>
     </g>
    </g>
    <g id="xtick_6">
     <g id="line2d_6">
      <g>
       <use xlink:href="#m87fb9777df" x="388.8" y="252" style="stroke: #000000; stroke-width: 0.8"/>
      </g>
     </g>
     <g id="text_6">
      <!-- 100 -->
      <g transform="translate(379.25625 266.598437)scale(0.1 -0.1)">
       <defs>
        <path id="DejaVuSans-31" d="M 794 531 
L 1825 531 
L 1825 4091 
L 703 3866 
L 703 4441 
L 1819 4666 
L 2450 4666 
L 2450 531 
L 3481 531 
L 3481 0 
L 794 0 
L 794 531 
z
" transform="scale(0.015625)"/>
       </defs>
       <use xlink:href="#DejaVuSans-31"/>
       <use xlink:href="#DejaVuSans-30" x="63.623047"/>
       <use xlink:href="#DejaVuSans-30" x="127.246094"/>
      </g>
     </g>
    </g>
    <g id="text_7">
     <!-- Days -->
     <g transform="translate(208.921875 280.276563)scale(0.1 -0.1)">
      <defs>
       <path id="DejaVuSans-44" d="M 1259 4147 
L 1259 519 
L 2022 519 
Q 2988 519 3436 956 
Q 3884 1394 3884 2338 
Q 3884 3275 3436 3711 
Q 2988 4147 2022 4147 
L 1259 4147 
z
M 628 4666 
L 1925 4666 
Q 3281 4666 3915 4102 
Q 4550 3538 4550 2338 
Q 4550 1131 3912 565 
Q 3275 0 1925 0 
L 628 0 
L 628 4666 
z
" transform="scale(0.015625)"/>
       <path id="DejaVuSans-61" d="M 2194 1759 
Q 1497 1759 1228 1600 
Q 959 1441 959 1056 
Q 959 750 1161 570 
Q 1363 391 1709 391 
Q 2188 391 2477 730 
Q 2766 1069 2766 1631 
L 2766 1759 
L 2194 1759 
z
M 3341 1997 
L 3341 0 
L 2766 0 
L 2766 531 
Q 2569 213 2275 61 
Q 1981 -91 1556 -91 
Q 1019 -91 701 211 
Q 384 513 384 1019 
Q 384 1609 779 1909 
Q 1175 2209 1959 2209 
L 2766 2209 
L 2766 2266 
Q 2766 2663 2505 2880 
Q 2244 3097 1772 3097 
Q 1472 3097 1187 3025 
Q 903 2953 641 2809 
L 641 3341 
Q 956 3463 1253 3523 
Q 1550 3584 1831 3584 
Q 2591 3584 2966 3190 
Q 3341 2797 3341 1997 
z
" transform="scale(0.015625)"/>
       <path id="DejaVuSans-79" d="M 2059 -325 
Q 1816 -950 1584 -1140 
Q 1353 -1331 966 -1331 
L 506 -1331 
L 506 -850 
L 844 -850 
Q 1081 -850 1212 -737 
Q 1344 -625 1503 -206 
L 1606 56 
L 191 3500 
L 800 3500 
L 1894 763 
L 2988 3500 
L 3597 3500 
L 2059 -325 
z
" transform="scale(0.015625)"/>
       <path id="DejaVuSans-73" d="M 2834 3397 
L 2834 2853 
Q 2591 2978 2328 3040 
Q 2066 3103 1784 3103 
Q 1356 3103 1142 2972 
Q 928 2841 928 2578 
Q 928 2378 1081 2264 
Q 1234 2150 1697 2047 
L 1894 2003 
Q 2506 1872 2764 1633 
Q 3022 1394 3022 966 
Q 3022 478 2636 193 
Q 2250 -91 1575 -91 
Q 1294 -91 989 -36 
Q 684 19 347 128 
L 347 722 
Q 666 556 975 473 
Q 1284 391 1588 391 
Q 1994 391 2212 530 
Q 2431 669 2431 922 
Q 2431 1156 2273 1281 
Q 2116 1406 1581 1522 
L 1381 1569 
Q 847 1681 609 1914 
Q 372 2147 372 2553 
Q 372 3047 722 3315 
Q 1072 3584 1716 3584 
Q 2034 3584 2315 3537 
Q 2597 3491 2834 3397 
z
" transform="scale(0.015625)"/>
      </defs>
      <use xlink:href="#DejaVuSans-44"/>
      <use xlink:href="#DejaVuSans-61" x="77.001953"/>
      <use xlink:href="#DejaVuSans-79" x="138.28125"/>
      <use xlink:href="#DejaVuSans-73" x="197.460938"/>
     </g>
    </g>
   </g>
   <g id="matplotlib.axis_2">
    <g id="ytick_1">
     <g id="line2d_7">
      <defs>
       <path id="maf222a755a" d="M 0 0 
L -3.5 0 
" style="stroke: #000000; stroke-width: 0.8"/>
      </defs>
      <g>
       <use xlink:href="#maf222a755a" x="54" y="252" style="stroke: #000000; stroke-width: 0.8"/>
      </g>
     </g>
     <g id="text_8">
      <!-- 1.0 -->
      <g transform="translate(31.096875 255.799219)scale(0.1 -0.1)">
       <defs>
        <path id="DejaVuSans-2e" d="M 684 794 
L 1344 794 
L 1344 0 
L 684 0 
L 684 794 
z
" transform="scale(0.015625)"/>
       </defs>
       <use xlink:href="#DejaVuSans-31"/>
       <use xlink:href="#DejaVuSans-2e" x="63.623047"/>
       <use xlink:href="#DejaVuSans-30" x="95.410156"/>
      </g>
     </g>
    </g>
    <g id="ytick_2">
     <g id="line2d_8">
      <g>
       <use xlink:href="#maf222a755a" x="54" y="215.76" style="stroke: #000000; stroke-width: 0.8"/>
      </g>
     </g>
     <g id="text_9">
      <!-- 1.5 -->
      <g transform="translate(31.096875 219.559219)scale(0.1 -0.1)">
       <defs>
        <path id="DejaVuSans-35" d="M 691 4666 
L 3169 4666 
L 3169 4134 
L 1269 4134 
L 1269 2991 
Q 1406 3038 1543 3061 
Q 1681 3084 1819 3084 
Q 2600 3084 3056 2656 
Q 3513 2228 3513 1497 
Q 3513 744 3044 326 
Q 2575 -91 1722 -91 
Q 1428 -91 1123 -41 
Q 819 9 494 109 
L 494 744 
Q 775 591 1075 516 
Q 1375 441 1709 441 
Q 2250 441 2565 725 
Q 2881 1009 2881 1497 
Q 2881 1984 2565 2268 
Q 2250 2553 1709 2553 
Q 1456 2553 1204 2497 
Q 953 2441 691 2322 
L 691 4666 
z
" transform="scale(0.015625)"/>
       </defs>
       <use xlink:href="#DejaVuSans-31"/>
       <use xlink:href="#DejaVuSans-2e" x="63.623047"/>
       <use xlink:href="#DejaVuSans-35" x="95.410156"/>
      </g>
     </g>
    </g>
    <g id="ytick_3">
     <g id="line2d_9">
      <g>
       <use xlink:href="#maf222a755a" x="54" y="179.52" style="stroke: #000000; stroke-width: 0.8"/>
      </g>
     </g>
     <g id="text_10">
      <!-- 2.0 -->
      <g transform="translate(31.096875 183.319219)scale(0.1 -0.1)">
       <use xlink:href="#DejaVuSans-32"/>
       <use xlink:href="#DejaVuSans-2e" x="63.623047"/>
       <use xlink:href="#DejaVuSans-30" x="95.410156"/>
      </g>
     </g>
    </g>
    <g id="ytick_4">
     <g id="line2d_10">
      <g>
       <use xlink:href="#maf222a755a" x="54" y="143.28" style="stroke: #000000; stroke-width: 0.8"/>
      </g>
     </g>
     <g id="text_11">
      <!-- 2.5 -->
      <g transform="translate(31.096875 147.079219)scale(0.1 -0.1)">
       <use xlink:href="#DejaVuSans-32"/>
       <use xlink:href="#DejaVuSans-2e" x="63.623047"/>
       <use xlink:href="#DejaVuSans-35" x="95.410156"/>
      </g>
     </g>
    </g>
    <g id="ytick_5">
     <g id="line2d_11">
      <g>
       <use xlink:href="#maf222a755a" x="54" y="107.04" style="stroke: #000000; stroke-width: 0.8"/>
      </g>
     </g>
     <g id="text_12">
      <!-- 3.0 -->
      <g transform="translate(31.096875 110.839219)scale(0.1 -0.1)">
       <defs>
        <path id="DejaVuSans-33" d="M 2597 2516 
Q 3050 2419 3304 2112 
Q 3559 1806 3559 1356 
Q 3559 666 3084 287 
Q 2609 -91 1734 -91 
Q 1441 -91 1130 -33 
Q 819 25 488 141 
L 488 750 
Q 750 597 1062 519 
Q 1375 441 1716 441 
Q 2309 441 2620 675 
Q 2931 909 2931 1356 
Q 2931 1769 2642 2001 
Q 2353 2234 1838 2234 
L 1294 2234 
L 1294 2753 
L 1863 2753 
Q 2328 2753 2575 2939 
Q 2822 3125 2822 3475 
Q 2822 3834 2567 4026 
Q 2313 4219 1838 4219 
Q 1578 4219 1281 4162 
Q 984 4106 628 3988 
L 628 4550 
Q 988 4650 1302 4700 
Q 1616 4750 1894 4750 
Q 2613 4750 3031 4423 
Q 3450 4097 3450 3541 
Q 3450 3153 3228 2886 
Q 3006 2619 2597 2516 
z
" transform="scale(0.015625)"/>
       </defs>
       <use xlink:href="#DejaVuSans-33"/>
       <use xlink:href="#DejaVuSans-2e" x="63.623047"/>
       <use xlink:href="#DejaVuSans-30" x="95.410156"/>
      </g>
     </g>
    </g>
    <g id="ytick_6">
     <g id="line2d_12">
      <g>
       <use xlink:href="#maf222a755a" x="54" y="70.8" style="stroke: #000000; stroke-width: 0.8"/>
      </g>
     </g>
     <g id="text_13">
      <!-- 3.5 -->
      <g transform="translate(31.096875 74.599219)scale(0.1 -0.1)">
       <use xlink:href="#DejaVuSans-33"/>
       <use xlink:href="#DejaVuSans-2e" x="63.623047"/>
       <use xlink:href="#DejaVuSans-35" x="95.410156"/>
      </g>
     </g>
    </g>
    <g id="ytick_7">
     <g id="line2d_13">
      <g>
       <use xlink:href="#maf222a755a" x="54" y="34.56" style="stroke: #000000; stroke-width: 0.8"/>
      </g>
     </g>
     <g id="text_14">
      <!-- 4.0 -->
      <g transform="translate(31.096875 38.359219)scale(0.1 -0.1)">
       <use xlink:href="#DejaVuSans-34"/>
       <use xlink:href="#DejaVuSans-2e" x="63.623047"/>
       <use xlink:href="#DejaVuSans-30" x="95.410156"/>
      </g>
     </g>
    </g>
    <g id="text_15">
     <!-- Cumulative error rate (%) -->
     <g transform="translate(25.017187 207.495625)rotate(-90)scale(0.1 -0.1)">
      <defs>
       <path id="DejaVuSans-43" d="M 4122 4306 
L 4122 3641 
Q 3803 3938 3442 4084 
Q 3081 4231 2675 4231 
Q 1875 4231 1450 3742 
Q 1025 3253 1025 2328 
Q 1025 1406 1450 917 
Q 1875 428 2675 428 
Q 3081 428 3442 575 
Q 3803 722 4122 1019 
L 4122 359 
Q 3791 134 3420 21 
Q 3050 -91 2638 -91 
Q 1578 -91 968 557 
Q 359 1206 359 2328 
Q 359 3453 968 4101 
Q 1578 4750 2638 4750 
Q 3056 4750 3426 4639 
Q 3797 4528 4122 4306 
z
" transform="scale(0.015625)"/>
       <path id="DejaVuSans-75" d="M 544 1381 
L 544 3500 
L 1119 3500 
L 1119 1403 
Q 1119 906 1312 657 
Q 1506 409 1894 409 
Q 2359 409 2629 706 
Q 2900 1003 2900 1516 
L 2900 3500 
L 3475 3500 
L 3475 0 
L 2900 0 
L 2900 538 
Q 2691 219 2414 64 
Q 2138 -91 1772 -91 
Q 1169 -91 856 284 
Q 544 659 544 1381 
z
M 1991 3584 
L 1991 3584 
z
" transform="scale(0.015625)"/>
       <path id="DejaVuSans-6d" d="M 3328 2828 
Q 3544 3216 3844 3400 
Q 4144 3584 4550 3584 
Q 5097 3584 5394 3201 
Q 5691 2819 5691 2113 
L 5691 0 
L 5113 0 
L 5113 2094 
Q 5113 2597 4934 2840 
Q 4756 3084 4391 3084 
Q 3944 3084 3684 2787 
Q 3425 2491 3425 1978 
L 3425 0 
L 2847 0 
L 2847 2094 
Q 2847 2600 2669 2842 
Q 2491 3084 2119 3084 
Q 1678 3084 1418 2786 
Q 1159 2488 1159 1978 
L 1159 0 
L 581 0 
L 581 3500 
L 1159 3500 
L 1159 2956 
Q 1356 3278 1631 3431 
Q 1906 3584 2284 3584 
Q 2666 3584 2933 3390 
Q 3200 3197 3328 2828 
z
" transform="scale(0.015625)"/>
       <path id="DejaVuSans-6c" d="M 603 4863 
L 1178 4863 
L 1178 0 
L 603 0 
L 603 4863 
z
" transform="scale(0.015625)"/>
       <path id="DejaVuSans-74" d="M 1172 4494 
L 1172 3500 
L 2356 3500 
L 2356 3053 
L 1172 3053 
L 1172 1153 
Q 1172 725 1289 603 
Q 1406 481 1766 481 
L 2356 481 
L 2356 0 
L 1766 0 
Q 1100 0 847 248 
Q 594 497 594 1153 
L 594 3053 
L 172 3053 
L 172 3500 
L 594 3500 
L 594 4494 
L 1172 4494 
z
" transform="scale(0.015625)"/>
       <path id="DejaVuSans-69" d="M 603 3500 
L 1178 3500 
L 1178 0 
L 603 0 
L 603 3500 
z
M 603 4863 
L 1178 4863 
L 1178 4134 
L 603 4134 
L 603 4863 
z
" transform="scale(0.015625)"/>
       <path id="DejaVuSans-76" d="M 191 3500 
L 800 3500 
L 1894 563 
L 2988 3500 
L 3597 3500 
L 2284 0 
L 1503 0 
L 191 3500 
z
" transform="scale(0.015625)"/>
       <path id="DejaVuSans-65" d="M 3597 1894 
L 3597 1613 
L 953 1613 
Q 991 1019 1311 708 
Q 1631 397 2203 397 
Q 2534 397 2845 478 
Q 3156 559 3463 722 
L 3463 178 
Q 3153 47 2828 -22 
Q 2503 -91 2169 -91 
Q 1331 -91 842 396 
Q 353 884 353 1716 
Q 353 2575 817 3079 
Q 1281 3584 2069 3584 
Q 2775 3584 3186 3129 
Q 3597 2675 3597 1894 
z
M 3022 2063 
Q 3016 2534 2758 2815 
Q 2500 3097 2075 3097 
Q 1594 3097 1305 2825 
Q 1016 2553 972 2059 
L 3022 2063 
z
" transform="scale(0.015625)"/>
       <path id="DejaVuSans-20" transform="scale(0.015625)"/>
       <path id="DejaVuSans-72" d="M 2631 2963 
Q 2534 3019 2420 3045 
Q 2306 3072 2169 3072 
Q 1681 3072 1420 2755 
Q 1159 2438 1159 1844 
L 1159 0 
L 581 0 
L 581 3500 
L 1159 3500 
L 1159 2956 
Q 1341 3275 1631 3429 
Q 1922 3584 2338 3584 
Q 2397 3584 2469 3576 
Q 2541 3569 2628 3553 
L 2631 2963 
z
" transform="scale(0.015625)"/>
       <path id="DejaVuSans-6f" d="M 1959 3097 
Q 1497 3097 1228 2736 
Q 959 2375 959 1747 
Q 959 1119 1226 758 
Q 1494 397 1959 397 
Q 2419 397 2687 759 
Q 2956 1122 2956 1747 
Q 2956 2369 2687 2733 
Q 2419 3097 1959 3097 
z
M 1959 3584 
Q 2709 3584 3137 3096 
Q 3566 2609 3566 1747 
Q 3566 888 3137 398 
Q 2709 -91 1959 -91 
Q 1206 -91 779 398 
Q 353 888 353 1747 
Q 353 2609 779 3096 
Q 1206 3584 1959 3584 
z
" transform="scale(0.015625)"/>
       <path id="DejaVuSans-28" d="M 1984 4856 
Q 1566 4138 1362 3434 
Q 1159 2731 1159 2009 
Q 1159 1288 1364 580 
Q 1569 -128 1984 -844 
L 1484 -844 
Q 1016 -109 783 600 
Q 550 1309 550 2009 
Q 550 2706 781 3412 
Q 1013 4119 1484 4856 
L 1984 4856 
z
" transform="scale(0.015625)"/>
       <path id="DejaVuSans-25" d="M 4653 2053 
Q 4381 2053 4226 1822 
Q 4072 1591 4072 1178 
Q 4072 772 4226 539 
Q 4381 306 4653 306 
Q 4919 306 5073 539 
Q 5228 772 5228 1178 
Q 5228 1588 5073 1820 
Q 4919 2053 4653 2053 
z
M 4653 2450 
Q 5147 2450 5437 2106 
Q 5728 1763 5728 1178 
Q 5728 594 5436 251 
Q 5144 -91 4653 -91 
Q 4153 -91 3862 251 
Q 3572 594 3572 1178 
Q 3572 1766 3864 2108 
Q 4156 2450 4653 2450 
z
M 1428 4353 
Q 1159 4353 1004 4120 
Q 850 3888 850 3481 
Q 850 3069 1003 2837 
Q 1156 2606 1428 2606 
Q 1700 2606 1854 2837 
Q 2009 3069 2009 3481 
Q 2009 3884 1853 4118 
Q 1697 4353 1428 4353 
z
M 4250 4750 
L 4750 4750 
L 1831 -91 
L 1331 -91 
L 4250 4750 
z
M 1428 4750 
Q 1922 4750 2215 4408 
Q 2509 4066 2509 3481 
Q 2509 2891 2217 2550 
Q 1925 2209 1428 2209 
Q 931 2209 642 2551 
Q 353 2894 353 3481 
Q 353 4063 643 4406 
Q 934 4750 1428 4750 
z
" transform="scale(0.015625)"/>
       <path id="DejaVuSans-29" d="M 513 4856 
L 1013 4856 
Q 1481 4119 1714 3412 
Q 1947 2706 1947 2009 
Q 1947 1309 1714 600 
Q 1481 -109 1013 -844 
L 513 -844 
Q 928 -128 1133 580 
Q 1338 1288 1338 2009 
Q 1338 2731 1133 3434 
Q 928 4138 513 4856 
z
" transform="scale(0.015625)"/>
      </defs>
      <use xlink:href="#DejaVuSans-43"/>
      <use xlink:href="#DejaVuSans-75" x="69.824219"/>
      <use xlink:href="#DejaVuSans-6d" x="133.203125"/>
      <use xlink:href="#DejaVuSans-75" x="230.615234"/>
      <use xlink:href="#DejaVuSans-6c" x="293.994141"/>
      <use xlink:href="#DejaVuSans-61" x="321.777344"/>
      <use xlink:href="#DejaVuSans-74" x="383.056641"/>
      <use xlink:href="#DejaVuSans-69" x="422.265625"/>
      <use xlink:href="#DejaVuSans-76" x="450.048828"/>
      <use xlink:href="#DejaVuSans-65" x="509.228516"/>
      <use xlink:href="#DejaVuSans-20" x="570.751953"/>
      <use xlink:href="#DejaVuSans-65" x="602.539062"/>
      <use xlink:href="#DejaVuSans-72" x="664.0625"/>
      <use xlink:href="#DejaVuSans-72" x="703.425781"/>
      <use xlink:href="#DejaVuSans-6f" x="742.289062"/>
      <use xlink:href="#DejaVuSans-72" x="803.470703"/>
      <use xlink:href="#DejaVuSans-20" x="844.583984"/>
      <use xlink:href="#DejaVuSans-72" x="876.371094"/>
      <use xlink:href="#DejaVuSans-61" x="917.484375"/>
      <use xlink:href="#DejaVuSans-74" x="978.763672"/>
      <use xlink:href="#DejaVuSans-65" x="1017.972656"/>
      <use xlink:href="#DejaVuSans-20" x="1079.496094"/>
      <use xlink:href="#DejaVuSans-28" x="1111.283203"/>
      <use xlink:href="#DejaVuSans-25" x="1150.296875"/>
      <use xlink:href="#DejaVuSans-29" x="1245.316406"/>
     </g>
    </g>
   </g>
   <g id="line2d_14">
    <path d="M 54 43.048132 
L 57.348 71.612127 
L 60.696 95.09048 
L 64.044 114.160027 
L 67.392 129.430315 
L 70.74 141.448525 
L 74.088 150.704133 
L 77.436 157.633337 
L 80.784 162.623241 
L 84.132 166.015816 
L 87.48 168.11164 
L 90.828 169.173427 
L 94.176 169.42935 
L 97.524 169.076164 
L 100.872 168.282145 
L 104.22 167.189841 
L 107.568 165.918648 
L 110.916 164.567217 
L 114.264 163.2157 
L 117.612 161.927836 
L 120.96 160.752892 
L 124.308 159.727457 
L 127.656 158.877102 
L 131.004 158.217909 
L 134.352 157.75787 
L 137.7 157.498175 
L 141.048 157.434383 
L 144.396 157.557482 
L 147.744 157.854851 
L 151.092 158.311127 
L 154.44 158.908974 
L 157.788 159.629768 
L 161.136 160.454209 
L 164.484 161.362837 
L 167.832 162.336501 
L 171.18 163.356736 
L 174.528 164.406097 
L 177.876 165.468424 
L 181.224 166.529054 
L 184.572 167.574985 
L 187.92 168.594997 
L 191.268 169.57972 
L 194.616 170.521677 
L 197.964 171.415285 
L 201.312 172.256822 
L 204.66 173.044374 
L 208.008 173.777751 
L 211.356 174.458386 
L 214.704 175.089211 
L 218.052 175.67452 
L 221.4 176.219819 
L 224.748 176.731669 
L 228.096 177.217513 
L 231.444 177.685505 
L 234.792 178.144336 
L 238.14 178.603054 
L 241.488 179.070888 
L 244.836 179.55708 
L 248.184 180.07071 
L 251.532 180.620541 
L 254.88 181.214861 
L 258.228 181.861345 
L 261.576 182.566915 
L 264.924 183.337624 
L 268.272 184.178545 
L 271.62 185.093678 
L 274.968 186.085871 
L 278.316 187.156752 
L 281.664 188.306686 
L 285.012 189.534739 
L 288.36 190.838661 
L 291.708 192.214891 
L 295.056 193.658573 
L 298.404 195.163588 
L 301.752 196.722611 
L 305.1 198.327173 
L 308.448 199.967744 
L 311.796 201.633834 
L 315.144 203.314107 
L 318.492 204.9965 
L 321.84 206.668371 
L 325.188 208.316642 
L 328.536 209.927966 
L 331.884 211.488895 
L 335.232 212.986057 
L 338.58 214.406342 
L 341.928 215.737088 
L 345.276 216.966279 
L 348.624 218.082729 
L 351.972 219.076278 
L 355.32 219.937978 
L 358.668 220.660275 
L 362.016 221.237183 
L 365.364 221.664445 
L 368.712 221.939684 
L 372.06 222.062537 
L 375.408 222.034768 
L 378.756 221.860358 
L 382.104 221.545575 
L 385.452 221.099011 
L 388.8 220.531588 
L 392.148 219.856527 
L 395.496 219.089283 
L 398.844 218.247429 
L 402.192 217.3505 
L 405.54 216.419785 
L 408.888 215.47806 
L 412.236 214.549263 
L 415.584 213.658112 
L 418.932 212.829643 
L 422.28 212.088686 
L 425.628 211.459256 
L 428.976 210.963866 
L 432.324 210.622749 
L 433 210.588472 
" clip-path="url(#pefcfce90bc)" style="fill: none; stroke: #ff0000; stroke-width: 1.5; stroke-linecap: square"/>
    <defs>
     <path id="m918b92981a" d="M -0 3 
L 3 -3 
L -3 -3 
z
" style="stroke: #ff0000; stroke-linejoin: miter"/>
    </defs>
    <g clip-path="url(#pefcfce90bc)">
     <use xlink:href="#m918b92981a" x="54" y="43.048132" style="fill: #ff0000; stroke: #ff0000; stroke-linejoin: miter"/>
     <use xlink:href="#m918b92981a" x="70.74" y="141.448525" style="fill: #ff0000; stroke: #ff0000; stroke-linejoin: miter"/>
     <use xlink:href="#m918b92981a" x="87.48" y="168.11164" style="fill: #ff0000; stroke: #ff0000; stroke-linejoin: miter"/>
     <use xlink:href="#m918b92981a" x="104.22" y="167.189841" style="fill: #ff0000; stroke: #ff0000; stroke-linejoin: miter"/>
     <use xlink:href="#m918b92981a" x="120.96" y="160.752892" style="fill: #ff0000; stroke: #ff0000; stroke-linejoin: miter"/>
     <use xlink:href="#m918b92981a" x="137.7" y="157.498175" style="fill: #ff0000; stroke: #ff0000; stroke-linejoin: miter"/>
     <use xlink:href="#m918b92981a" x="154.44" y="158.908974" style="fill: #ff0000; stroke: #ff0000; stroke-linejoin: miter"/>
     <use xlink:href="#m918b92981a" x="171.18" y="163.356736" style="fill: #ff0000; stroke: #ff0000; stroke-linejoin: miter"/>
     <use xlink:href="#m918b92981a" x="187.92" y="168.594997" style="fill: #ff0000; stroke: #ff0000; stroke-linejoin: miter"/>
     <use xlink:href="#m918b92981a" x="204.66" y="173.044374" style="fill: #ff0000; stroke: #ff0000; stroke-linejoin: miter"/>
     <use xlink:href="#m918b92981a" x="221.4" y="176.219819" style="fill: #ff0000; stroke: #ff0000; stroke-linejoin: miter"/>
     <use xlink:href="#m918b92981a" x="238.14" y="178.603054" style="fill: #ff0000; stroke: #ff0000; stroke-linejoin: miter"/>
     <use xlink:href="#m918b92981a" x="254.88" y="181.214861" style="fill: #ff0000; stroke: #ff0000; stroke-linejoin: miter"/>
     <use xlink:href="#m918b92981a" x="271.62" y="185.093678" style="fill: #ff0000; stroke: #ff0000; stroke-linejoin: miter"/>
     <use xlink:href="#m918b92981a" x="288.36" y="190.838661" style="fill: #ff0000; stroke: #ff0000; stroke-linejoin: miter"/>
     <use xlink:href="#m918b92981a" x="305.1" y="198.327173" style="fill: #ff0000; stroke: #ff0000; stroke-linejoin: miter"/>
     <use xlink:href="#m918b92981a" x="321.84" y="206.668371" style="fill: #ff0000; stroke: #ff0000; stroke-linejoin: miter"/>
     <use xlink:href="#m918b92981a" x="338.58" y="214.406342" style="fill: #ff0000; stroke: #ff0000; stroke-linejoin: miter"/>
     <use xlink:href="#m918b92981a" x="355.32" y="219.937978" style="fill: #ff0000; stroke: #ff0000; stroke-linejoin: miter"/>
     <use xlink:href="#m918b92981a" x="372.06" y="222.062537" style="fill: #ff0000; stroke: #ff0000; stroke-linejoin: miter"/>
     <use xlink:href="#m918b92981a" x="388.8" y="220.531588" style="fill: #ff0000; stroke: #ff0000; stroke-linejoin: miter"/>
     <use xlink:href="#m918b92981a" x="405.54" y="216.419785" style="fill: #ff0000; stroke: #ff0000; stroke-linejoin: miter"/>
     <use xlink:href="#m918b92981a" x="422.28" y="212.088686" style="fill: #ff0000; stroke: #ff0000; stroke-linejoin: miter"/>
     <use xlink:href="#m918b92981a" x="439.02" y="210.467553" style="fill: #ff0000; stroke: #ff0000; stroke-linejoin: miter"/>
    </g>
   </g>
   <g id="line2d_15">
    <path d="M 54 22.459328 
L 57.348 51.672478 
L 60.696 75.771405 
L 64.044 95.466092 
L 67.392 111.391228 
L 70.74 124.112113 
L 74.088 134.130235 
L 77.436 141.888533 
L 80.784 147.77636 
L 84.132 152.134163 
L 87.48 155.257869 
L 90.828 157.403014 
L 94.176 158.788608 
L 97.524 159.600749 
L 100.872 159.996001 
L 104.22 160.104539 
L 107.568 160.033079 
L 110.916 159.867587 
L 114.264 159.6758 
L 117.612 159.509541 
L 120.96 159.406857 
L 124.308 159.393983 
L 127.656 159.487129 
L 131.004 159.694121 
L 134.352 160.015878 
L 137.7 160.447759 
L 141.048 160.980763 
L 144.396 161.602607 
L 147.744 162.298682 
L 151.092 163.052896 
L 154.44 163.848407 
L 157.788 164.668262 
L 161.136 165.495938 
L 164.484 166.315796 
L 167.832 167.113458 
L 171.18 167.876104 
L 174.528 168.592706 
L 177.876 169.254193 
L 181.224 169.853562 
L 184.572 170.385937 
L 187.92 170.848576 
L 191.268 171.240843 
L 194.616 171.564133 
L 197.964 171.821775 
L 201.312 172.018896 
L 204.66 172.162268 
L 208.008 172.26013 
L 211.356 172.321996 
L 214.704 172.358449 
L 218.052 172.380927 
L 221.4 172.401501 
L 224.748 172.432651 
L 228.096 172.487043 
L 231.444 172.577305 
L 234.792 172.715817 
L 238.14 172.914496 
L 241.488 173.184603 
L 244.836 173.536555 
L 248.184 173.979751 
L 251.532 174.522419 
L 254.88 175.171477 
L 258.228 175.932406 
L 261.576 176.809154 
L 264.924 177.804053 
L 268.272 178.917759 
L 271.62 180.149213 
L 274.968 181.495629 
L 278.316 182.952494 
L 281.664 184.513604 
L 285.012 186.171109 
L 288.36 187.915592 
L 291.708 189.736162 
L 295.056 191.62057 
L 298.404 193.555343 
L 301.752 195.525942 
L 305.1 197.516935 
L 308.448 199.512181 
L 311.796 201.495042 
L 315.144 203.448591 
L 318.492 205.355846 
L 321.84 207.200007 
L 325.188 208.964693 
L 328.536 210.634197 
L 331.884 212.19373 
L 335.232 213.629674 
L 338.58 214.929816 
L 341.928 216.083592 
L 345.276 217.08231 
L 348.624 217.919354 
L 351.972 218.590382 
L 355.32 219.093491 
L 358.668 219.429363 
L 362.016 219.601372 
L 365.364 219.615665 
L 368.712 219.481195 
L 372.06 219.209716 
L 375.408 218.815721 
L 378.756 218.316335 
L 382.104 217.731133 
L 385.452 217.081909 
L 388.8 216.392361 
L 392.148 215.687699 
L 395.496 214.99418 
L 398.844 214.338537 
L 402.192 213.747326 
L 405.54 213.246159 
L 408.888 212.858835 
L 412.236 212.606347 
L 415.584 212.505769 
L 418.932 212.569013 
L 422.28 212.801437 
L 425.628 213.200323 
L 428.976 213.75318 
L 432.324 214.435899 
L 433 214.592347 
" clip-path="url(#pefcfce90bc)" style="fill: none; stroke: #008000; stroke-width: 1.5; stroke-linecap: square"/>
    <defs>
     <path id="m02f71bcb50" d="M 0 3 
C 0.795609 3 1.55874 2.683901 2.12132 2.12132 
C 2.683901 1.55874 3 0.795609 3 0 
C 3 -0.795609 2.683901 -1.55874 2.12132 -2.12132 
C 1.55874 -2.683901 0.795609 -3 0 -3 
C -0.795609 -3 -1.55874 -2.683901 -2.12132 -2.12132 
C -2.683901 -1.55874 -3 -0.795609 -3 0 
C -3 0.795609 -2.683901 1.55874 -2.12132 2.12132 
C -1.55874 2.683901 -0.795609 3 0 3 
z
" style="stroke: #008000"/>
    </defs>
    <g clip-path="url(#pefcfce90bc)">
     <use xlink:href="#m02f71bcb50" x="54" y="22.459328" style="fill: #008000; stroke: #008000"/>
     <use xlink:href="#m02f71bcb50" x="70.74" y="124.112113" style="fill: #008000; stroke: #008000"/>
     <use xlink:href="#m02f71bcb50" x="87.48" y="155.257869" style="fill: #008000; stroke: #008000"/>
     <use xlink:href="#m02f71bcb50" x="104.22" y="160.104539" style="fill: #008000; stroke: #008000"/>
     <use xlink:href="#m02f71bcb50" x="120.96" y="159.406857" style="fill: #008000; stroke: #008000"/>
     <use xlink:href="#m02f71bcb50" x="137.7" y="160.447759" style="fill: #008000; stroke: #008000"/>
     <use xlink:href="#m02f71bcb50" x="154.44" y="163.848407" style="fill: #008000; stroke: #008000"/>
     <use xlink:href="#m02f71bcb50" x="171.18" y="167.876104" style="fill: #008000; stroke: #008000"/>
     <use xlink:href="#m02f71bcb50" x="187.92" y="170.848576" style="fill: #008000; stroke: #008000"/>
     <use xlink:href="#m02f71bcb50" x="204.66" y="172.162268" style="fill: #008000; stroke: #008000"/>
     <use xlink:href="#m02f71bcb50" x="221.4" y="172.401501" style="fill: #008000; stroke: #008000"/>
     <use xlink:href="#m02f71bcb50" x="238.14" y="172.914496" style="fill: #008000; stroke: #008000"/>
     <use xlink:href="#m02f71bcb50" x="254.88" y="175.171477" style="fill: #008000; stroke: #008000"/>
     <use xlink:href="#m02f71bcb50" x="271.62" y="180.149213" style="fill: #008000; stroke: #008000"/>
     <use xlink:href="#m02f71bcb50" x="288.36" y="187.915592" style="fill: #008000; stroke: #008000"/>
     <use xlink:href="#m02f71bcb50" x="305.1" y="197.516935" style="fill: #008000; stroke: #008000"/>
     <use xlink:href="#m02f71bcb50" x="321.84" y="207.200007" style="fill: #008000; stroke: #008000"/>
     <use xlink:href="#m02f71bcb50" x="338.58" y="214.929816" style="fill: #008000; stroke: #008000"/>
     <use xlink:href="#m02f71bcb50" x="355.32" y="219.093491" style="fill: #008000; stroke: #008000"/>
     <use xlink:href="#m02f71bcb50" x="372.06" y="219.209716" style="fill: #008000; stroke: #008000"/>
     <use xlink:href="#m02f71bcb50" x="388.8" y="216.392361" style="fill: #008000; stroke: #008000"/>
     <use xlink:href="#m02f71bcb50" x="405.54" y="213.246159" style="fill: #008000; stroke: #008000"/>
     <use xlink:href="#m02f71bcb50" x="422.28" y="212.801437" style="fill: #008000; stroke: #008000"/>
     <use xlink:href="#m02f71bcb50" x="439.02" y="216.024092" style="fill: #008000; stroke: #008000"/>
    </g>
   </g>
   <g id="line2d_16">
    <path d="M 56.283234 -1 
L 57.348 11.994028 
L 60.696 45.525189 
L 64.044 72.720245 
L 67.392 94.468927 
L 70.74 111.567742 
L 74.088 124.727145 
L 77.436 134.578327 
L 80.784 141.679631 
L 84.132 146.522606 
L 87.48 149.537714 
L 90.828 151.099706 
L 94.176 151.532667 
L 97.524 151.11476 
L 100.872 150.082664 
L 104.22 148.635729 
L 107.568 146.939851 
L 110.916 145.131084 
L 114.264 143.319002 
L 117.612 141.589809 
L 120.96 140.009227 
L 124.308 138.62515 
L 127.656 137.4701 
L 131.004 136.563465 
L 134.352 135.913556 
L 137.7 135.519476 
L 141.048 135.372819 
L 144.396 135.459194 
L 147.744 135.75961 
L 151.092 136.251693 
L 154.44 136.910786 
L 157.788 137.710898 
L 161.136 138.625544 
L 164.484 139.628465 
L 167.832 140.694242 
L 171.18 141.798808 
L 174.528 142.919867 
L 177.876 144.037232 
L 181.224 145.133079 
L 184.572 146.192129 
L 187.92 147.201768 
L 191.268 148.152098 
L 194.616 149.035945 
L 197.964 149.848812 
L 201.312 150.588785 
L 204.66 151.256413 
L 208.008 151.854545 
L 211.356 152.388139 
L 214.704 152.864061 
L 218.052 153.290845 
L 221.4 153.678457 
L 224.748 154.038035 
L 228.096 154.381635 
L 231.444 154.721956 
L 234.792 155.072087 
L 238.14 155.445241 
L 241.488 155.854501 
L 244.836 156.312575 
L 248.184 156.831565 
L 251.532 157.422745 
L 254.88 158.096362 
L 258.228 158.861446 
L 261.576 159.725647 
L 264.924 160.695093 
L 268.272 161.774268 
L 271.62 162.96591 
L 274.968 164.270946 
L 278.316 165.688437 
L 281.664 167.215557 
L 285.012 168.847601 
L 288.36 170.578009 
L 291.708 172.398423 
L 295.056 174.298769 
L 298.404 176.26736 
L 301.752 178.291025 
L 305.1 180.355263 
L 308.448 182.444412 
L 311.796 184.541848 
L 315.144 186.630194 
L 318.492 188.691548 
L 321.84 190.707729 
L 325.188 192.660531 
L 328.536 194.531986 
L 331.884 196.304644 
L 335.232 197.961839 
L 338.58 199.487978 
L 341.928 200.868807 
L 345.276 202.091687 
L 348.624 203.14585 
L 351.972 204.022649 
L 355.32 204.715783 
L 358.668 205.221507 
L 362.016 205.538811 
L 365.364 205.669567 
L 368.712 205.618643 
L 372.06 205.393972 
L 375.408 205.006576 
L 378.756 204.470535 
L 382.104 203.8029 
L 385.452 203.023539 
L 388.8 202.154912 
L 392.148 201.221772 
L 395.496 200.250775 
L 398.844 199.270009 
L 402.192 198.308412 
L 405.54 197.395095 
L 408.888 196.55855 
L 412.236 195.825731 
L 415.584 195.221013 
L 418.932 194.765013 
L 422.28 194.473262 
L 425.628 194.354725 
L 428.976 194.410164 
L 432.324 194.630315 
L 433 194.703728 
" clip-path="url(#pefcfce90bc)" style="fill: none; stroke-dasharray: 5.55,2.4; stroke-dashoffset: 0; stroke: #bf00bf; stroke-width: 1.5"/>
    <defs>
     <path id="mbddc9eaf3b" d="M 0 -3 
L -3 3 
L 3 3 
z
" style="stroke: #bf00bf; stroke-linejoin: miter"/>
    </defs>
    <g clip-path="url(#pefcfce90bc)">
     <use xlink:href="#mbddc9eaf3b" x="57.321473" y="-1" style="fill: #bf00bf; stroke: #bf00bf; stroke-linejoin: miter"/>
     <use xlink:href="#mbddc9eaf3b" x="70.74" y="111.567742" style="fill: #bf00bf; stroke: #bf00bf; stroke-linejoin: miter"/>
     <use xlink:href="#mbddc9eaf3b" x="87.48" y="149.537714" style="fill: #bf00bf; stroke: #bf00bf; stroke-linejoin: miter"/>
     <use xlink:href="#mbddc9eaf3b" x="104.22" y="148.635729" style="fill: #bf00bf; stroke: #bf00bf; stroke-linejoin: miter"/>
     <use xlink:href="#mbddc9eaf3b" x="120.96" y="140.009227" style="fill: #bf00bf; stroke: #bf00bf; stroke-linejoin: miter"/>
     <use xlink:href="#mbddc9eaf3b" x="137.7" y="135.519476" style="fill: #bf00bf; stroke: #bf00bf; stroke-linejoin: miter"/>
     <use xlink:href="#mbddc9eaf3b" x="154.44" y="136.910786" style="fill: #bf00bf; stroke: #bf00bf; stroke-linejoin: miter"/>
     <use xlink:href="#mbddc9eaf3b" x="171.18" y="141.798808" style="fill: #bf00bf; stroke: #bf00bf; stroke-linejoin: miter"/>
     <use xlink:href="#mbddc9eaf3b" x="187.92" y="147.201768" style="fill: #bf00bf; stroke: #bf00bf; stroke-linejoin: miter"/>
     <use xlink:href="#mbddc9eaf3b" x="204.66" y="151.256413" style="fill: #bf00bf; stroke: #bf00bf; stroke-linejoin: miter"/>
     <use xlink:href="#mbddc9eaf3b" x="221.4" y="153.678457" style="fill: #bf00bf; stroke: #bf00bf; stroke-linejoin: miter"/>
     <use xlink:href="#mbddc9eaf3b" x="238.14" y="155.445241" style="fill: #bf00bf; stroke: #bf00bf; stroke-linejoin: miter"/>
     <use xlink:href="#mbddc9eaf3b" x="254.88" y="158.096362" style="fill: #bf00bf; stroke: #bf00bf; stroke-linejoin: miter"/>
     <use xlink:href="#mbddc9eaf3b" x="271.62" y="162.96591" style="fill: #bf00bf; stroke: #bf00bf; stroke-linejoin: miter"/>
     <use xlink:href="#mbddc9eaf3b" x="288.36" y="170.578009" style="fill: #bf00bf; stroke: #bf00bf; stroke-linejoin: miter"/>
     <use xlink:href="#mbddc9eaf3b" x="305.1" y="180.355263" style="fill: #bf00bf; stroke: #bf00bf; stroke-linejoin: miter"/>
     <use xlink:href="#mbddc9eaf3b" x="321.84" y="190.707729" style="fill: #bf00bf; stroke: #bf00bf; stroke-linejoin: miter"/>
     <use xlink:href="#mbddc9eaf3b" x="338.58" y="199.487978" style="fill: #bf00bf; stroke: #bf00bf; stroke-linejoin: miter"/>
     <use xlink:href="#mbddc9eaf3b" x="355.32" y="204.715783" style="fill: #bf00bf; stroke: #bf00bf; stroke-linejoin: miter"/>
     <use xlink:href="#mbddc9eaf3b" x="372.06" y="205.393972" style="fill: #bf00bf; stroke: #bf00bf; stroke-linejoin: miter"/>
     <use xlink:href="#mbddc9eaf3b" x="388.8" y="202.154912" style="fill: #bf00bf; stroke: #bf00bf; stroke-linejoin: miter"/>
     <use xlink:href="#mbddc9eaf3b" x="405.54" y="197.395095" style="fill: #bf00bf; stroke: #bf00bf; stroke-linejoin: miter"/>
     <use xlink:href="#mbddc9eaf3b" x="422.28" y="194.473262" style="fill: #bf00bf; stroke: #bf00bf; stroke-linejoin: miter"/>
     <use xlink:href="#mbddc9eaf3b" x="439.02" y="195.465454" style="fill: #bf00bf; stroke: #bf00bf; stroke-linejoin: miter"/>
    </g>
   </g>
   <g id="line2d_17">
    <path d="M 54 36.10686 
L 57.348 64.002307 
L 60.696 87.003222 
L 64.044 105.783386 
L 67.392 120.946047 
L 70.74 133.029342 
L 74.088 142.511453 
L 77.436 149.81546 
L 80.784 155.313938 
L 84.132 159.33328 
L 87.48 162.157775 
L 90.828 164.033435 
L 94.176 165.171594 
L 97.524 165.75227 
L 100.872 165.927324 
L 104.22 165.823397 
L 107.568 165.544649 
L 110.916 165.175313 
L 114.264 164.782054 
L 117.612 164.416157 
L 120.96 164.115547 
L 124.308 163.906644 
L 127.656 163.806065 
L 131.004 163.822184 
L 134.352 163.956543 
L 137.7 164.205144 
L 141.048 164.5596 
L 144.396 165.00818 
L 147.744 165.536734 
L 151.092 166.129514 
L 154.44 166.769897 
L 157.788 167.44101 
L 161.136 168.126271 
L 164.484 168.809844 
L 167.832 169.477023 
L 171.18 170.114538 
L 174.528 170.710802 
L 177.876 171.25609 
L 181.224 171.742667 
L 184.572 172.164866 
L 187.92 172.519113 
L 191.268 172.803922 
L 194.616 173.019836 
L 197.964 173.169353 
L 201.312 173.256809 
L 204.66 173.288239 
L 208.008 173.271224 
L 211.356 173.214709 
L 214.704 173.128812 
L 218.052 173.024625 
L 221.4 172.913998 
L 224.748 172.809327 
L 228.096 172.723333 
L 231.444 172.668847 
L 234.792 172.658591 
L 238.14 172.704971 
L 241.488 172.819872 
L 244.836 173.014467 
L 248.184 173.299033 
L 251.532 173.682786 
L 254.88 174.17372 
L 258.228 174.778477 
L 261.576 175.502219 
L 264.924 176.348531 
L 268.272 177.319336 
L 271.62 178.414831 
L 274.968 179.633447 
L 278.316 180.971832 
L 281.664 182.424845 
L 285.012 183.985585 
L 288.36 185.645436 
L 291.708 187.394134 
L 295.056 189.219853 
L 298.404 191.109321 
L 301.752 193.047946 
L 305.1 195.01997 
L 308.448 197.008635 
L 311.796 198.996378 
L 315.144 200.965026 
L 318.492 202.896026 
L 321.84 204.77067 
L 325.188 206.570351 
L 328.536 208.27681 
L 331.884 209.87241 
L 335.232 211.340404 
L 338.58 212.665209 
L 341.928 213.832689 
L 345.276 214.830429 
L 348.624 215.648011 
L 351.972 216.277274 
L 355.32 216.712584 
L 358.668 216.951065 
L 362.016 216.992839 
L 365.364 216.841231 
L 368.712 216.502952 
L 372.06 215.988266 
L 375.408 215.311112 
L 378.756 214.489198 
L 382.104 213.544058 
L 385.452 212.50106 
L 388.8 211.389368 
L 392.148 210.24185 
L 395.496 209.094931 
L 398.844 207.98838 
L 402.192 206.965028 
L 405.54 206.070415 
L 408.888 205.35236 
L 412.236 204.860436 
L 415.584 204.645371 
L 418.932 204.758337 
L 422.28 205.250144 
L 425.628 206.170324 
L 428.976 207.566102 
L 432.324 209.48124 
L 433 209.98067 
" clip-path="url(#pefcfce90bc)" style="fill: none; stroke-dasharray: 5.55,2.4; stroke-dashoffset: 0; stroke: #0000ff; stroke-width: 1.5"/>
    <defs>
     <path id="m46343e25c0" d="M -3 3 
L 3 -3 
M -3 -3 
L 3 3 
" style="stroke: #0000ff"/>
    </defs>
    <g clip-path="url(#pefcfce90bc)">
     <use xlink:href="#m46343e25c0" x="54" y="36.10686" style="fill: #0000ff; stroke: #0000ff"/>
     <use xlink:href="#m46343e25c0" x="70.74" y="133.029342" style="fill: #0000ff; stroke: #0000ff"/>
     <use xlink:href="#m46343e25c0" x="87.48" y="162.157775" style="fill: #0000ff; stroke: #0000ff"/>
     <use xlink:href="#m46343e25c0" x="104.22" y="165.823397" style="fill: #0000ff; stroke: #0000ff"/>
     <use xlink:href="#m46343e25c0" x="120.96" y="164.115547" style="fill: #0000ff; stroke: #0000ff"/>
     <use xlink:href="#m46343e25c0" x="137.7" y="164.205144" style="fill: #0000ff; stroke: #0000ff"/>
     <use xlink:href="#m46343e25c0" x="154.44" y="166.769897" style="fill: #0000ff; stroke: #0000ff"/>
     <use xlink:href="#m46343e25c0" x="171.18" y="170.114538" style="fill: #0000ff; stroke: #0000ff"/>
     <use xlink:href="#m46343e25c0" x="187.92" y="172.519113" style="fill: #0000ff; stroke: #0000ff"/>
     <use xlink:href="#m46343e25c0" x="204.66" y="173.288239" style="fill: #0000ff; stroke: #0000ff"/>
     <use xlink:href="#m46343e25c0" x="221.4" y="172.913998" style="fill: #0000ff; stroke: #0000ff"/>
     <use xlink:href="#m46343e25c0" x="238.14" y="172.704971" style="fill: #0000ff; stroke: #0000ff"/>
     <use xlink:href="#m46343e25c0" x="254.88" y="174.17372" style="fill: #0000ff; stroke: #0000ff"/>
     <use xlink:href="#m46343e25c0" x="271.62" y="178.414831" style="fill: #0000ff; stroke: #0000ff"/>
     <use xlink:href="#m46343e25c0" x="288.36" y="185.645436" style="fill: #0000ff; stroke: #0000ff"/>
     <use xlink:href="#m46343e25c0" x="305.1" y="195.01997" style="fill: #0000ff; stroke: #0000ff"/>
     <use xlink:href="#m46343e25c0" x="321.84" y="204.77067" style="fill: #0000ff; stroke: #0000ff"/>
     <use xlink:href="#m46343e25c0" x="338.58" y="212.665209" style="fill: #0000ff; stroke: #0000ff"/>
     <use xlink:href="#m46343e25c0" x="355.32" y="216.712584" style="fill: #0000ff; stroke: #0000ff"/>
     <use xlink:href="#m46343e25c0" x="372.06" y="215.988266" style="fill: #0000ff; stroke: #0000ff"/>
     <use xlink:href="#m46343e25c0" x="388.8" y="211.389368" style="fill: #0000ff; stroke: #0000ff"/>
     <use xlink:href="#m46343e25c0" x="405.54" y="206.070415" style="fill: #0000ff; stroke: #0000ff"/>
     <use xlink:href="#m46343e25c0" x="422.28" y="205.250144" style="fill: #0000ff; stroke: #0000ff"/>
     <use xlink:href="#m46343e25c0" x="439.02" y="215.019496" style="fill: #0000ff; stroke: #0000ff"/>
    </g>
   </g>
   <g id="patch_3">
    <path d="M 54 252 
L 54 34.56 
" style="fill: none; stroke: #000000; stroke-width: 0.8; stroke-linejoin: miter; stroke-linecap: square"/>
   </g>
   <g id="patch_4">
    <path d="M 388.8 252 
L 388.8 34.56 
" style="fill: none; stroke: #000000; stroke-width: 0.8; stroke-linejoin: miter; stroke-linecap: square"/>
   </g>
   <g id="patch_5">
    <path d="M 54 252 
L 388.8 252 
" style="fill: none; stroke: #000000; stroke-width: 0.8; stroke-linejoin: miter; stroke-linecap: square"/>
   </g>
   <g id="patch_6">
    <path d="M 54 34.56 
L 388.8 34.56 
" style="fill: none; stroke: #000000; stroke-width: 0.8; stroke-linejoin: miter; stroke-linecap: square"/>
   </g>
   <g id="text_16">
    <!-- Experiment 3 (fixed-feature) with batch size 4 -->
    <g transform="translate(83.205 28.56)scale(0.12 -0.12)">
     <defs>
      <path id="DejaVuSans-45" d="M 628 4666 
L 3578 4666 
L 3578 4134 
L 1259 4134 
L 1259 2753 
L 3481 2753 
L 3481 2222 
L 1259 2222 
L 1259 531 
L 3634 531 
L 3634 0 
L 628 0 
L 628 4666 
z
" transform="scale(0.015625)"/>
      <path id="DejaVuSans-78" d="M 3513 3500 
L 2247 1797 
L 3578 0 
L 2900 0 
L 1881 1375 
L 863 0 
L 184 0 
L 1544 1831 
L 300 3500 
L 978 3500 
L 1906 2253 
L 2834 3500 
L 3513 3500 
z
" transform="scale(0.015625)"/>
      <path id="DejaVuSans-70" d="M 1159 525 
L 1159 -1331 
L 581 -1331 
L 581 3500 
L 1159 3500 
L 1159 2969 
Q 1341 3281 1617 3432 
Q 1894 3584 2278 3584 
Q 2916 3584 3314 3078 
Q 3713 2572 3713 1747 
Q 3713 922 3314 415 
Q 2916 -91 2278 -91 
Q 1894 -91 1617 61 
Q 1341 213 1159 525 
z
M 3116 1747 
Q 3116 2381 2855 2742 
Q 2594 3103 2138 3103 
Q 1681 3103 1420 2742 
Q 1159 2381 1159 1747 
Q 1159 1113 1420 752 
Q 1681 391 2138 391 
Q 2594 391 2855 752 
Q 3116 1113 3116 1747 
z
" transform="scale(0.015625)"/>
      <path id="DejaVuSans-6e" d="M 3513 2113 
L 3513 0 
L 2938 0 
L 2938 2094 
Q 2938 2591 2744 2837 
Q 2550 3084 2163 3084 
Q 1697 3084 1428 2787 
Q 1159 2491 1159 1978 
L 1159 0 
L 581 0 
L 581 3500 
L 1159 3500 
L 1159 2956 
Q 1366 3272 1645 3428 
Q 1925 3584 2291 3584 
Q 2894 3584 3203 3211 
Q 3513 2838 3513 2113 
z
" transform="scale(0.015625)"/>
      <path id="DejaVuSans-66" d="M 2375 4863 
L 2375 4384 
L 1825 4384 
Q 1516 4384 1395 4259 
Q 1275 4134 1275 3809 
L 1275 3500 
L 2222 3500 
L 2222 3053 
L 1275 3053 
L 1275 0 
L 697 0 
L 697 3053 
L 147 3053 
L 147 3500 
L 697 3500 
L 697 3744 
Q 697 4328 969 4595 
Q 1241 4863 1831 4863 
L 2375 4863 
z
" transform="scale(0.015625)"/>
      <path id="DejaVuSans-64" d="M 2906 2969 
L 2906 4863 
L 3481 4863 
L 3481 0 
L 2906 0 
L 2906 525 
Q 2725 213 2448 61 
Q 2172 -91 1784 -91 
Q 1150 -91 751 415 
Q 353 922 353 1747 
Q 353 2572 751 3078 
Q 1150 3584 1784 3584 
Q 2172 3584 2448 3432 
Q 2725 3281 2906 2969 
z
M 947 1747 
Q 947 1113 1208 752 
Q 1469 391 1925 391 
Q 2381 391 2643 752 
Q 2906 1113 2906 1747 
Q 2906 2381 2643 2742 
Q 2381 3103 1925 3103 
Q 1469 3103 1208 2742 
Q 947 2381 947 1747 
z
" transform="scale(0.015625)"/>
      <path id="DejaVuSans-2d" d="M 313 2009 
L 1997 2009 
L 1997 1497 
L 313 1497 
L 313 2009 
z
" transform="scale(0.015625)"/>
      <path id="DejaVuSans-77" d="M 269 3500 
L 844 3500 
L 1563 769 
L 2278 3500 
L 2956 3500 
L 3675 769 
L 4391 3500 
L 4966 3500 
L 4050 0 
L 3372 0 
L 2619 2869 
L 1863 0 
L 1184 0 
L 269 3500 
z
" transform="scale(0.015625)"/>
      <path id="DejaVuSans-68" d="M 3513 2113 
L 3513 0 
L 2938 0 
L 2938 2094 
Q 2938 2591 2744 2837 
Q 2550 3084 2163 3084 
Q 1697 3084 1428 2787 
Q 1159 2491 1159 1978 
L 1159 0 
L 581 0 
L 581 4863 
L 1159 4863 
L 1159 2956 
Q 1366 3272 1645 3428 
Q 1925 3584 2291 3584 
Q 2894 3584 3203 3211 
Q 3513 2838 3513 2113 
z
" transform="scale(0.015625)"/>
      <path id="DejaVuSans-62" d="M 3116 1747 
Q 3116 2381 2855 2742 
Q 2594 3103 2138 3103 
Q 1681 3103 1420 2742 
Q 1159 2381 1159 1747 
Q 1159 1113 1420 752 
Q 1681 391 2138 391 
Q 2594 391 2855 752 
Q 3116 1113 3116 1747 
z
M 1159 2969 
Q 1341 3281 1617 3432 
Q 1894 3584 2278 3584 
Q 2916 3584 3314 3078 
Q 3713 2572 3713 1747 
Q 3713 922 3314 415 
Q 2916 -91 2278 -91 
Q 1894 -91 1617 61 
Q 1341 213 1159 525 
L 1159 0 
L 581 0 
L 581 4863 
L 1159 4863 
L 1159 2969 
z
" transform="scale(0.015625)"/>
      <path id="DejaVuSans-63" d="M 3122 3366 
L 3122 2828 
Q 2878 2963 2633 3030 
Q 2388 3097 2138 3097 
Q 1578 3097 1268 2742 
Q 959 2388 959 1747 
Q 959 1106 1268 751 
Q 1578 397 2138 397 
Q 2388 397 2633 464 
Q 2878 531 3122 666 
L 3122 134 
Q 2881 22 2623 -34 
Q 2366 -91 2075 -91 
Q 1284 -91 818 406 
Q 353 903 353 1747 
Q 353 2603 823 3093 
Q 1294 3584 2113 3584 
Q 2378 3584 2631 3529 
Q 2884 3475 3122 3366 
z
" transform="scale(0.015625)"/>
      <path id="DejaVuSans-7a" d="M 353 3500 
L 3084 3500 
L 3084 2975 
L 922 459 
L 3084 459 
L 3084 0 
L 275 0 
L 275 525 
L 2438 3041 
L 353 3041 
L 353 3500 
z
" transform="scale(0.015625)"/>
     </defs>
     <use xlink:href="#DejaVuSans-45"/>
     <use xlink:href="#DejaVuSans-78" x="63.183594"/>
     <use xlink:href="#DejaVuSans-70" x="122.363281"/>
     <use xlink:href="#DejaVuSans-65" x="185.839844"/>
     <use xlink:href="#DejaVuSans-72" x="247.363281"/>
     <use xlink:href="#DejaVuSans-69" x="288.476562"/>
     <use xlink:href="#DejaVuSans-6d" x="316.259766"/>
     <use xlink:href="#DejaVuSans-65" x="413.671875"/>
     <use xlink:href="#DejaVuSans-6e" x="475.195312"/>
     <use xlink:href="#DejaVuSans-74" x="538.574219"/>
     <use xlink:href="#DejaVuSans-20" x="577.783203"/>
     <use xlink:href="#DejaVuSans-33" x="609.570312"/>
     <use xlink:href="#DejaVuSans-20" x="673.193359"/>
     <use xlink:href="#DejaVuSans-28" x="704.980469"/>
     <use xlink:href="#DejaVuSans-66" x="743.994141"/>
     <use xlink:href="#DejaVuSans-69" x="779.199219"/>
     <use xlink:href="#DejaVuSans-78" x="806.982422"/>
     <use xlink:href="#DejaVuSans-65" x="863.037109"/>
     <use xlink:href="#DejaVuSans-64" x="924.560547"/>
     <use xlink:href="#DejaVuSans-2d" x="988.037109"/>
     <use xlink:href="#DejaVuSans-66" x="1024.121094"/>
     <use xlink:href="#DejaVuSans-65" x="1059.326172"/>
     <use xlink:href="#DejaVuSans-61" x="1120.849609"/>
     <use xlink:href="#DejaVuSans-74" x="1182.128906"/>
     <use xlink:href="#DejaVuSans-75" x="1221.337891"/>
     <use xlink:href="#DejaVuSans-72" x="1284.716797"/>
     <use xlink:href="#DejaVuSans-65" x="1323.580078"/>
     <use xlink:href="#DejaVuSans-29" x="1385.103516"/>
     <use xlink:href="#DejaVuSans-20" x="1424.117188"/>
     <use xlink:href="#DejaVuSans-77" x="1455.904297"/>
     <use xlink:href="#DejaVuSans-69" x="1537.691406"/>
     <use xlink:href="#DejaVuSans-74" x="1565.474609"/>
     <use xlink:href="#DejaVuSans-68" x="1604.683594"/>
     <use xlink:href="#DejaVuSans-20" x="1668.0625"/>
     <use xlink:href="#DejaVuSans-62" x="1699.849609"/>
     <use xlink:href="#DejaVuSans-61" x="1763.326172"/>
     <use xlink:href="#DejaVuSans-74" x="1824.605469"/>
     <use xlink:href="#DejaVuSans-63" x="1863.814453"/>
     <use xlink:href="#DejaVuSans-68" x="1918.794922"/>
     <use xlink:href="#DejaVuSans-20" x="1982.173828"/>
     <use xlink:href="#DejaVuSans-73" x="2013.960938"/>
     <use xlink:href="#DejaVuSans-69" x="2066.060547"/>
     <use xlink:href="#DejaVuSans-7a" x="2093.84375"/>
     <use xlink:href="#DejaVuSans-65" x="2146.333984"/>
     <use xlink:href="#DejaVuSans-20" x="2207.857422"/>
     <use xlink:href="#DejaVuSans-34" x="2239.644531"/>
    </g>
   </g>
   <g id="legend_1">
    <g id="patch_7">
     <path d="M 277.528125 101.2725 
L 381.8 101.2725 
Q 383.8 101.2725 383.8 99.2725 
L 383.8 41.56 
Q 383.8 39.56 381.8 39.56 
L 277.528125 39.56 
Q 275.528125 39.56 275.528125 41.56 
L 275.528125 99.2725 
Q 275.528125 101.2725 277.528125 101.2725 
z
" style="fill: #ffffff; opacity: 0.8; stroke: #cccccc; stroke-linejoin: miter"/>
    </g>
    <g id="line2d_18">
     <path d="M 279.528125 47.658437 
L 289.528125 47.658437 
L 299.528125 47.658437 
" style="fill: none; stroke: #ff0000; stroke-width: 1.5; stroke-linecap: square"/>
     <g>
      <use xlink:href="#m918b92981a" x="289.528125" y="47.658437" style="fill: #ff0000; stroke: #ff0000; stroke-linejoin: miter"/>
     </g>
    </g>
    <g id="text_17">
     <!-- PA -->
     <g transform="translate(307.528125 51.158437)scale(0.1 -0.1)">
      <defs>
       <path id="DejaVuSans-50" d="M 1259 4147 
L 1259 2394 
L 2053 2394 
Q 2494 2394 2734 2622 
Q 2975 2850 2975 3272 
Q 2975 3691 2734 3919 
Q 2494 4147 2053 4147 
L 1259 4147 
z
M 628 4666 
L 2053 4666 
Q 2838 4666 3239 4311 
Q 3641 3956 3641 3272 
Q 3641 2581 3239 2228 
Q 2838 1875 2053 1875 
L 1259 1875 
L 1259 0 
L 628 0 
L 628 4666 
z
" transform="scale(0.015625)"/>
       <path id="DejaVuSans-41" d="M 2188 4044 
L 1331 1722 
L 3047 1722 
L 2188 4044 
z
M 1831 4666 
L 2547 4666 
L 4325 0 
L 3669 0 
L 3244 1197 
L 1141 1197 
L 716 0 
L 50 0 
L 1831 4666 
z
" transform="scale(0.015625)"/>
      </defs>
      <use xlink:href="#DejaVuSans-50"/>
      <use xlink:href="#DejaVuSans-41" x="53.927734"/>
     </g>
    </g>
    <g id="line2d_19">
     <path d="M 279.528125 62.336562 
L 289.528125 62.336562 
L 299.528125 62.336562 
" style="fill: none; stroke: #008000; stroke-width: 1.5; stroke-linecap: square"/>
     <g>
      <use xlink:href="#m02f71bcb50" x="289.528125" y="62.336562" style="fill: #008000; stroke: #008000"/>
     </g>
    </g>
    <g id="text_18">
     <!-- Perceptron -->
     <g transform="translate(307.528125 65.836562)scale(0.1 -0.1)">
      <use xlink:href="#DejaVuSans-50"/>
      <use xlink:href="#DejaVuSans-65" x="56.677734"/>
      <use xlink:href="#DejaVuSans-72" x="118.201172"/>
      <use xlink:href="#DejaVuSans-63" x="157.064453"/>
      <use xlink:href="#DejaVuSans-65" x="212.044922"/>
      <use xlink:href="#DejaVuSans-70" x="273.568359"/>
      <use xlink:href="#DejaVuSans-74" x="337.044922"/>
      <use xlink:href="#DejaVuSans-72" x="376.253906"/>
      <use xlink:href="#DejaVuSans-6f" x="415.117188"/>
      <use xlink:href="#DejaVuSans-6e" x="476.298828"/>
     </g>
    </g>
    <g id="line2d_20">
     <path d="M 279.528125 77.014687 
L 289.528125 77.014687 
L 299.528125 77.014687 
" style="fill: none; stroke-dasharray: 5.55,2.4; stroke-dashoffset: 0; stroke: #bf00bf; stroke-width: 1.5"/>
     <g>
      <use xlink:href="#mbddc9eaf3b" x="289.528125" y="77.014687" style="fill: #bf00bf; stroke: #bf00bf; stroke-linejoin: miter"/>
     </g>
    </g>
    <g id="text_19">
     <!-- PA (fixed) -->
     <g transform="translate(307.528125 80.514687)scale(0.1 -0.1)">
      <use xlink:href="#DejaVuSans-50"/>
      <use xlink:href="#DejaVuSans-41" x="53.927734"/>
      <use xlink:href="#DejaVuSans-20" x="122.335938"/>
      <use xlink:href="#DejaVuSans-28" x="154.123047"/>
      <use xlink:href="#DejaVuSans-66" x="193.136719"/>
      <use xlink:href="#DejaVuSans-69" x="228.341797"/>
      <use xlink:href="#DejaVuSans-78" x="256.125"/>
      <use xlink:href="#DejaVuSans-65" x="312.179688"/>
      <use xlink:href="#DejaVuSans-64" x="373.703125"/>
      <use xlink:href="#DejaVuSans-29" x="437.179688"/>
     </g>
    </g>
    <g id="line2d_21">
     <path d="M 279.528125 91.692813 
L 289.528125 91.692813 
L 299.528125 91.692813 
" style="fill: none; stroke-dasharray: 5.55,2.4; stroke-dashoffset: 0; stroke: #0000ff; stroke-width: 1.5"/>
     <g>
      <use xlink:href="#m46343e25c0" x="289.528125" y="91.692813" style="fill: #0000ff; stroke: #0000ff"/>
     </g>
    </g>
    <g id="text_20">
     <!-- Percep. (fixed) -->
     <g transform="translate(307.528125 95.192813)scale(0.1 -0.1)">
      <use xlink:href="#DejaVuSans-50"/>
      <use xlink:href="#DejaVuSans-65" x="56.677734"/>
      <use xlink:href="#DejaVuSans-72" x="118.201172"/>
      <use xlink:href="#DejaVuSans-63" x="157.064453"/>
      <use xlink:href="#DejaVuSans-65" x="212.044922"/>
      <use xlink:href="#DejaVuSans-70" x="273.568359"/>
      <use xlink:href="#DejaVuSans-2e" x="337.044922"/>
      <use xlink:href="#DejaVuSans-20" x="368.832031"/>
      <use xlink:href="#DejaVuSans-28" x="400.619141"/>
      <use xlink:href="#DejaVuSans-66" x="439.632812"/>
      <use xlink:href="#DejaVuSans-69" x="474.837891"/>
      <use xlink:href="#DejaVuSans-78" x="502.621094"/>
      <use xlink:href="#DejaVuSans-65" x="558.675781"/>
      <use xlink:href="#DejaVuSans-64" x="620.199219"/>
      <use xlink:href="#DejaVuSans-29" x="683.675781"/>
     </g>
    </g>
   </g>
  </g>
 </g>
 <defs>
  <clipPath id="pefcfce90bc">
   <rect x="54" y="34.56" width="334.8" height="217.44"/>
  </clipPath>
 </defs>
</svg>
