<?xml version="1.0" encoding="utf-8" standalone="no"?>
<!DOCTYPE svg PUBLIC "-//W3C//DTD SVG 1.1//EN"
  "http://www.w3.org/Graphics/SVG/1.1/DTD/svg11.dtd">
<svg xmlns:xlink="http://www.w3.org/1999/xlink" width="432pt" height="288pt" viewBox="0 0 432 288" xmlns="http://www.w3.org/2000/svg" version="1.1">
 <metadata>
  <rdf:RDF xmlns:dc="http://purl.org/dc/elements/1.1/" xmlns:cc="http://creativecommons.org/ns#" xmlns:rdf="http://www.w3.org/1999/02/22-rdf-syntax-ns#">
   <cc:Work>
    <dc:type rdf:resource="http://purl.org/dc/dcmitype/StillImage"/>
    <dc:date>2022-07-19T18:15:26.445478</dc:date>
    <dc:format>image/svg+xml</dc:format>
    <dc:creator>
     <cc:Agent>
      <dc:title>Matplotlib v3.5.1, https://matplotlib.org/</dc:title>
     </cc:Agent>
    </dc:creator>
   </cc:Work>
  </rdf:RDF>
 </metadata>
 <defs>
  <style type="text/css">*{stroke-linejoin: round; stroke-linecap: butt}</style>
 </defs>
 <g id="figure_1">
  <g id="patch_1">
   <path d="M 0 288 
L 432 288 
L 432 0 
L 0 0 
L 0 288 
z
" style="fill: none"/>
  </g>
  <g id="axes_1">
   <g id="patch_2">
    <path d="M 54 252 
L 388.8 252 
L 388.8 34.56 
L 54 34.56 
z
" style="fill: #ffffff"/>
   </g>
   <g id="matplotlib.axis_1">
    <g id="xtick_1">
     <g id="line2d_1">
      <defs>
       <path id="m560306f8a0" d="M 0 0 
L 0 3.5 
" style="stroke: #000000; stroke-width: 0.8"/>
      </defs>
      <g>
       <use xlink:href="#m560306f8a0" x="54" y="252" style="stroke: #000000; stroke-width: 0.8"/>
      </g>
     </g>
     <g id="text_1">
      <!-- 0 -->
      <g transform="translate(50.81875 266.598437)scale(0.1 -0.1)">
       <defs>
        <path id="DejaVuSans-30" d="M 2034 4250 
Q 1547 4250 1301 3770 
Q 1056 3291 1056 2328 
Q 1056 1369 1301 889 
Q 1547 409 2034 409 
Q 2525 409 2770 889 
Q 3016 1369 3016 2328 
Q 3016 3291 2770 3770 
Q 2525 4250 2034 4250 
z
M 2034 4750 
Q 2819 4750 3233 4129 
Q 3647 3509 3647 2328 
Q 3647 1150 3233 529 
Q 2819 -91 2034 -91 
Q 1250 -91 836 529 
Q 422 1150 422 2328 
Q 422 3509 836 4129 
Q 1250 4750 2034 4750 
z
" transform="scale(0.015625)"/>
       </defs>
       <use xlink:href="#DejaVuSans-30"/>
      </g>
     </g>
    </g>
    <g id="xtick_2">
     <g id="line2d_2">
      <g>
       <use xlink:href="#m560306f8a0" x="120.96" y="252" style="stroke: #000000; stroke-width: 0.8"/>
      </g>
     </g>
     <g id="text_2">
      <!-- 20 -->
      <g transform="translate(114.5975 266.598437)scale(0.1 -0.1)">
       <defs>
        <path id="DejaVuSans-32" d="M 1228 531 
L 3431 531 
L 3431 0 
L 469 0 
L 469 531 
Q 828 903 1448 1529 
Q 2069 2156 2228 2338 
Q 2531 2678 2651 2914 
Q 2772 3150 2772 3378 
Q 2772 3750 2511 3984 
Q 2250 4219 1831 4219 
Q 1534 4219 1204 4116 
Q 875 4013 500 3803 
L 500 4441 
Q 881 4594 1212 4672 
Q 1544 4750 1819 4750 
Q 2544 4750 2975 4387 
Q 3406 4025 3406 3419 
Q 3406 3131 3298 2873 
Q 3191 2616 2906 2266 
Q 2828 2175 2409 1742 
Q 1991 1309 1228 531 
z
" transform="scale(0.015625)"/>
       </defs>
       <use xlink:href="#DejaVuSans-32"/>
       <use xlink:href="#DejaVuSans-30" x="63.623047"/>
      </g>
     </g>
    </g>
    <g id="xtick_3">
     <g id="line2d_3">
      <g>
       <use xlink:href="#m560306f8a0" x="187.92" y="252" style="stroke: #000000; stroke-width: 0.8"/>
      </g>
     </g>
     <g id="text_3">
      <!-- 40 -->
      <g transform="translate(181.5575 266.598437)scale(0.1 -0.1)">
       <defs>
        <path id="DejaVuSans-34" d="M 2419 4116 
L 825 1625 
L 2419 1625 
L 2419 4116 
z
M 2253 4666 
L 3047 4666 
L 3047 1625 
L 3713 1625 
L 3713 1100 
L 3047 1100 
L 3047 0 
L 2419 0 
L 2419 1100 
L 313 1100 
L 313 1709 
L 2253 4666 
z
" transform="scale(0.015625)"/>
       </defs>
       <use xlink:href="#DejaVuSans-34"/>
       <use xlink:href="#DejaVuSans-30" x="63.623047"/>
      </g>
     </g>
    </g>
    <g id="xtick_4">
     <g id="line2d_4">
      <g>
       <use xlink:href="#m560306f8a0" x="254.88" y="252" style="stroke: #000000; stroke-width: 0.8"/>
      </g>
     </g>
     <g id="text_4">
      <!-- 60 -->
      <g transform="translate(248.5175 266.598437)scale(0.1 -0.1)">
       <defs>
        <path id="DejaVuSans-36" d="M 2113 2584 
Q 1688 2584 1439 2293 
Q 1191 2003 1191 1497 
Q 1191 994 1439 701 
Q 1688 409 2113 409 
Q 2538 409 2786 701 
Q 3034 994 3034 1497 
Q 3034 2003 2786 2293 
Q 2538 2584 2113 2584 
z
M 3366 4563 
L 3366 3988 
Q 3128 4100 2886 4159 
Q 2644 4219 2406 4219 
Q 1781 4219 1451 3797 
Q 1122 3375 1075 2522 
Q 1259 2794 1537 2939 
Q 1816 3084 2150 3084 
Q 2853 3084 3261 2657 
Q 3669 2231 3669 1497 
Q 3669 778 3244 343 
Q 2819 -91 2113 -91 
Q 1303 -91 875 529 
Q 447 1150 447 2328 
Q 447 3434 972 4092 
Q 1497 4750 2381 4750 
Q 2619 4750 2861 4703 
Q 3103 4656 3366 4563 
z
" transform="scale(0.015625)"/>
       </defs>
       <use xlink:href="#DejaVuSans-36"/>
       <use xlink:href="#DejaVuSans-30" x="63.623047"/>
      </g>
     </g>
    </g>
    <g id="xtick_5">
     <g id="line2d_5">
      <g>
       <use xlink:href="#m560306f8a0" x="321.84" y="252" style="stroke: #000000; stroke-width: 0.8"/>
      </g>
     </g>
     <g id="text_5">
      <!-- 80 -->
      <g transform="translate(315.4775 266.598437)scale(0.1 -0.1)">
       <defs>
        <path id="DejaVuSans-38" d="M 2034 2216 
Q 1584 2216 1326 1975 
Q 1069 1734 1069 1313 
Q 1069 891 1326 650 
Q 1584 409 2034 409 
Q 2484 409 2743 651 
Q 3003 894 3003 1313 
Q 3003 1734 2745 1975 
Q 2488 2216 2034 2216 
z
M 1403 2484 
Q 997 2584 770 2862 
Q 544 3141 544 3541 
Q 544 4100 942 4425 
Q 1341 4750 2034 4750 
Q 2731 4750 3128 4425 
Q 3525 4100 3525 3541 
Q 3525 3141 3298 2862 
Q 3072 2584 2669 2484 
Q 3125 2378 3379 2068 
Q 3634 1759 3634 1313 
Q 3634 634 3220 271 
Q 2806 -91 2034 -91 
Q 1263 -91 848 271 
Q 434 634 434 1313 
Q 434 1759 690 2068 
Q 947 2378 1403 2484 
z
M 1172 3481 
Q 1172 3119 1398 2916 
Q 1625 2713 2034 2713 
Q 2441 2713 2670 2916 
Q 2900 3119 2900 3481 
Q 2900 3844 2670 4047 
Q 2441 4250 2034 4250 
Q 1625 4250 1398 4047 
Q 1172 3844 1172 3481 
z
" transform="scale(0.015625)"/>
       </defs>
       <use xlink:href="#DejaVuSans-38"/>
       <use xlink:href="#DejaVuSans-30" x="63.623047"/>
      </g>
     </g>
    </g>
    <g id="xtick_6">
     <g id="line2d_6">
      <g>
       <use xlink:href="#m560306f8a0" x="388.8" y="252" style="stroke: #000000; stroke-width: 0.8"/>
      </g>
     </g>
     <g id="text_6">
      <!-- 100 -->
      <g transform="translate(379.25625 266.598437)scale(0.1 -0.1)">
       <defs>
        <path id="DejaVuSans-31" d="M 794 531 
L 1825 531 
L 1825 4091 
L 703 3866 
L 703 4441 
L 1819 4666 
L 2450 4666 
L 2450 531 
L 3481 531 
L 3481 0 
L 794 0 
L 794 531 
z
" transform="scale(0.015625)"/>
       </defs>
       <use xlink:href="#DejaVuSans-31"/>
       <use xlink:href="#DejaVuSans-30" x="63.623047"/>
       <use xlink:href="#DejaVuSans-30" x="127.246094"/>
      </g>
     </g>
    </g>
    <g id="text_7">
     <!-- Days -->
     <g transform="translate(208.921875 280.276563)scale(0.1 -0.1)">
      <defs>
       <path id="DejaVuSans-44" d="M 1259 4147 
L 1259 519 
L 2022 519 
Q 2988 519 3436 956 
Q 3884 1394 3884 2338 
Q 3884 3275 3436 3711 
Q 2988 4147 2022 4147 
L 1259 4147 
z
M 628 4666 
L 1925 4666 
Q 3281 4666 3915 4102 
Q 4550 3538 4550 2338 
Q 4550 1131 3912 565 
Q 3275 0 1925 0 
L 628 0 
L 628 4666 
z
" transform="scale(0.015625)"/>
       <path id="DejaVuSans-61" d="M 2194 1759 
Q 1497 1759 1228 1600 
Q 959 1441 959 1056 
Q 959 750 1161 570 
Q 1363 391 1709 391 
Q 2188 391 2477 730 
Q 2766 1069 2766 1631 
L 2766 1759 
L 2194 1759 
z
M 3341 1997 
L 3341 0 
L 2766 0 
L 2766 531 
Q 2569 213 2275 61 
Q 1981 -91 1556 -91 
Q 1019 -91 701 211 
Q 384 513 384 1019 
Q 384 1609 779 1909 
Q 1175 2209 1959 2209 
L 2766 2209 
L 2766 2266 
Q 2766 2663 2505 2880 
Q 2244 3097 1772 3097 
Q 1472 3097 1187 3025 
Q 903 2953 641 2809 
L 641 3341 
Q 956 3463 1253 3523 
Q 1550 3584 1831 3584 
Q 2591 3584 2966 3190 
Q 3341 2797 3341 1997 
z
" transform="scale(0.015625)"/>
       <path id="DejaVuSans-79" d="M 2059 -325 
Q 1816 -950 1584 -1140 
Q 1353 -1331 966 -1331 
L 506 -1331 
L 506 -850 
L 844 -850 
Q 1081 -850 1212 -737 
Q 1344 -625 1503 -206 
L 1606 56 
L 191 3500 
L 800 3500 
L 1894 763 
L 2988 3500 
L 3597 3500 
L 2059 -325 
z
" transform="scale(0.015625)"/>
       <path id="DejaVuSans-73" d="M 2834 3397 
L 2834 2853 
Q 2591 2978 2328 3040 
Q 2066 3103 1784 3103 
Q 1356 3103 1142 2972 
Q 928 2841 928 2578 
Q 928 2378 1081 2264 
Q 1234 2150 1697 2047 
L 1894 2003 
Q 2506 1872 2764 1633 
Q 3022 1394 3022 966 
Q 3022 478 2636 193 
Q 2250 -91 1575 -91 
Q 1294 -91 989 -36 
Q 684 19 347 128 
L 347 722 
Q 666 556 975 473 
Q 1284 391 1588 391 
Q 1994 391 2212 530 
Q 2431 669 2431 922 
Q 2431 1156 2273 1281 
Q 2116 1406 1581 1522 
L 1381 1569 
Q 847 1681 609 1914 
Q 372 2147 372 2553 
Q 372 3047 722 3315 
Q 1072 3584 1716 3584 
Q 2034 3584 2315 3537 
Q 2597 3491 2834 3397 
z
" transform="scale(0.015625)"/>
      </defs>
      <use xlink:href="#DejaVuSans-44"/>
      <use xlink:href="#DejaVuSans-61" x="77.001953"/>
      <use xlink:href="#DejaVuSans-79" x="138.28125"/>
      <use xlink:href="#DejaVuSans-73" x="197.460938"/>
     </g>
    </g>
   </g>
   <g id="matplotlib.axis_2">
    <g id="ytick_1">
     <g id="line2d_7">
      <defs>
       <path id="mabf0b3b3de" d="M 0 0 
L -3.5 0 
" style="stroke: #000000; stroke-width: 0.8"/>
      </defs>
      <g>
       <use xlink:href="#mabf0b3b3de" x="54" y="210.967594" style="stroke: #000000; stroke-width: 0.8"/>
      </g>
     </g>
     <g id="text_8">
      <!-- 1.5 -->
      <g transform="translate(31.096875 214.766813)scale(0.1 -0.1)">
       <defs>
        <path id="DejaVuSans-2e" d="M 684 794 
L 1344 794 
L 1344 0 
L 684 0 
L 684 794 
z
" transform="scale(0.015625)"/>
        <path id="DejaVuSans-35" d="M 691 4666 
L 3169 4666 
L 3169 4134 
L 1269 4134 
L 1269 2991 
Q 1406 3038 1543 3061 
Q 1681 3084 1819 3084 
Q 2600 3084 3056 2656 
Q 3513 2228 3513 1497 
Q 3513 744 3044 326 
Q 2575 -91 1722 -91 
Q 1428 -91 1123 -41 
Q 819 9 494 109 
L 494 744 
Q 775 591 1075 516 
Q 1375 441 1709 441 
Q 2250 441 2565 725 
Q 2881 1009 2881 1497 
Q 2881 1984 2565 2268 
Q 2250 2553 1709 2553 
Q 1456 2553 1204 2497 
Q 953 2441 691 2322 
L 691 4666 
z
" transform="scale(0.015625)"/>
       </defs>
       <use xlink:href="#DejaVuSans-31"/>
       <use xlink:href="#DejaVuSans-2e" x="63.623047"/>
       <use xlink:href="#DejaVuSans-35" x="95.410156"/>
      </g>
     </g>
    </g>
    <g id="ytick_2">
     <g id="line2d_8">
      <g>
       <use xlink:href="#mabf0b3b3de" x="54" y="165.034492" style="stroke: #000000; stroke-width: 0.8"/>
      </g>
     </g>
     <g id="text_9">
      <!-- 2.0 -->
      <g transform="translate(31.096875 168.83371)scale(0.1 -0.1)">
       <use xlink:href="#DejaVuSans-32"/>
       <use xlink:href="#DejaVuSans-2e" x="63.623047"/>
       <use xlink:href="#DejaVuSans-30" x="95.410156"/>
      </g>
     </g>
    </g>
    <g id="ytick_3">
     <g id="line2d_9">
      <g>
       <use xlink:href="#mabf0b3b3de" x="54" y="119.101389" style="stroke: #000000; stroke-width: 0.8"/>
      </g>
     </g>
     <g id="text_10">
      <!-- 2.5 -->
      <g transform="translate(31.096875 122.900608)scale(0.1 -0.1)">
       <use xlink:href="#DejaVuSans-32"/>
       <use xlink:href="#DejaVuSans-2e" x="63.623047"/>
       <use xlink:href="#DejaVuSans-35" x="95.410156"/>
      </g>
     </g>
    </g>
    <g id="ytick_4">
     <g id="line2d_10">
      <g>
       <use xlink:href="#mabf0b3b3de" x="54" y="73.168286" style="stroke: #000000; stroke-width: 0.8"/>
      </g>
     </g>
     <g id="text_11">
      <!-- 3.0 -->
      <g transform="translate(31.096875 76.967505)scale(0.1 -0.1)">
       <defs>
        <path id="DejaVuSans-33" d="M 2597 2516 
Q 3050 2419 3304 2112 
Q 3559 1806 3559 1356 
Q 3559 666 3084 287 
Q 2609 -91 1734 -91 
Q 1441 -91 1130 -33 
Q 819 25 488 141 
L 488 750 
Q 750 597 1062 519 
Q 1375 441 1716 441 
Q 2309 441 2620 675 
Q 2931 909 2931 1356 
Q 2931 1769 2642 2001 
Q 2353 2234 1838 2234 
L 1294 2234 
L 1294 2753 
L 1863 2753 
Q 2328 2753 2575 2939 
Q 2822 3125 2822 3475 
Q 2822 3834 2567 4026 
Q 2313 4219 1838 4219 
Q 1578 4219 1281 4162 
Q 984 4106 628 3988 
L 628 4550 
Q 988 4650 1302 4700 
Q 1616 4750 1894 4750 
Q 2613 4750 3031 4423 
Q 3450 4097 3450 3541 
Q 3450 3153 3228 2886 
Q 3006 2619 2597 2516 
z
" transform="scale(0.015625)"/>
       </defs>
       <use xlink:href="#DejaVuSans-33"/>
       <use xlink:href="#DejaVuSans-2e" x="63.623047"/>
       <use xlink:href="#DejaVuSans-30" x="95.410156"/>
      </g>
     </g>
    </g>
    <g id="text_12">
     <!-- Cumulative error rate (%) -->
     <g transform="translate(25.017187 207.495625)rotate(-90)scale(0.1 -0.1)">
      <defs>
       <path id="DejaVuSans-43" d="M 4122 4306 
L 4122 3641 
Q 3803 3938 3442 4084 
Q 3081 4231 2675 4231 
Q 1875 4231 1450 3742 
Q 1025 3253 1025 2328 
Q 1025 1406 1450 917 
Q 1875 428 2675 428 
Q 3081 428 3442 575 
Q 3803 722 4122 1019 
L 4122 359 
Q 3791 134 3420 21 
Q 3050 -91 2638 -91 
Q 1578 -91 968 557 
Q 359 1206 359 2328 
Q 359 3453 968 4101 
Q 1578 4750 2638 4750 
Q 3056 4750 3426 4639 
Q 3797 4528 4122 4306 
z
" transform="scale(0.015625)"/>
       <path id="DejaVuSans-75" d="M 544 1381 
L 544 3500 
L 1119 3500 
L 1119 1403 
Q 1119 906 1312 657 
Q 1506 409 1894 409 
Q 2359 409 2629 706 
Q 2900 1003 2900 1516 
L 2900 3500 
L 3475 3500 
L 3475 0 
L 2900 0 
L 2900 538 
Q 2691 219 2414 64 
Q 2138 -91 1772 -91 
Q 1169 -91 856 284 
Q 544 659 544 1381 
z
M 1991 3584 
L 1991 3584 
z
" transform="scale(0.015625)"/>
       <path id="DejaVuSans-6d" d="M 3328 2828 
Q 3544 3216 3844 3400 
Q 4144 3584 4550 3584 
Q 5097 3584 5394 3201 
Q 5691 2819 5691 2113 
L 5691 0 
L 5113 0 
L 5113 2094 
Q 5113 2597 4934 2840 
Q 4756 3084 4391 3084 
Q 3944 3084 3684 2787 
Q 3425 2491 3425 1978 
L 3425 0 
L 2847 0 
L 2847 2094 
Q 2847 2600 2669 2842 
Q 2491 3084 2119 3084 
Q 1678 3084 1418 2786 
Q 1159 2488 1159 1978 
L 1159 0 
L 581 0 
L 581 3500 
L 1159 3500 
L 1159 2956 
Q 1356 3278 1631 3431 
Q 1906 3584 2284 3584 
Q 2666 3584 2933 3390 
Q 3200 3197 3328 2828 
z
" transform="scale(0.015625)"/>
       <path id="DejaVuSans-6c" d="M 603 4863 
L 1178 4863 
L 1178 0 
L 603 0 
L 603 4863 
z
" transform="scale(0.015625)"/>
       <path id="DejaVuSans-74" d="M 1172 4494 
L 1172 3500 
L 2356 3500 
L 2356 3053 
L 1172 3053 
L 1172 1153 
Q 1172 725 1289 603 
Q 1406 481 1766 481 
L 2356 481 
L 2356 0 
L 1766 0 
Q 1100 0 847 248 
Q 594 497 594 1153 
L 594 3053 
L 172 3053 
L 172 3500 
L 594 3500 
L 594 4494 
L 1172 4494 
z
" transform="scale(0.015625)"/>
       <path id="DejaVuSans-69" d="M 603 3500 
L 1178 3500 
L 1178 0 
L 603 0 
L 603 3500 
z
M 603 4863 
L 1178 4863 
L 1178 4134 
L 603 4134 
L 603 4863 
z
" transform="scale(0.015625)"/>
       <path id="DejaVuSans-76" d="M 191 3500 
L 800 3500 
L 1894 563 
L 2988 3500 
L 3597 3500 
L 2284 0 
L 1503 0 
L 191 3500 
z
" transform="scale(0.015625)"/>
       <path id="DejaVuSans-65" d="M 3597 1894 
L 3597 1613 
L 953 1613 
Q 991 1019 1311 708 
Q 1631 397 2203 397 
Q 2534 397 2845 478 
Q 3156 559 3463 722 
L 3463 178 
Q 3153 47 2828 -22 
Q 2503 -91 2169 -91 
Q 1331 -91 842 396 
Q 353 884 353 1716 
Q 353 2575 817 3079 
Q 1281 3584 2069 3584 
Q 2775 3584 3186 3129 
Q 3597 2675 3597 1894 
z
M 3022 2063 
Q 3016 2534 2758 2815 
Q 2500 3097 2075 3097 
Q 1594 3097 1305 2825 
Q 1016 2553 972 2059 
L 3022 2063 
z
" transform="scale(0.015625)"/>
       <path id="DejaVuSans-20" transform="scale(0.015625)"/>
       <path id="DejaVuSans-72" d="M 2631 2963 
Q 2534 3019 2420 3045 
Q 2306 3072 2169 3072 
Q 1681 3072 1420 2755 
Q 1159 2438 1159 1844 
L 1159 0 
L 581 0 
L 581 3500 
L 1159 3500 
L 1159 2956 
Q 1341 3275 1631 3429 
Q 1922 3584 2338 3584 
Q 2397 3584 2469 3576 
Q 2541 3569 2628 3553 
L 2631 2963 
z
" transform="scale(0.015625)"/>
       <path id="DejaVuSans-6f" d="M 1959 3097 
Q 1497 3097 1228 2736 
Q 959 2375 959 1747 
Q 959 1119 1226 758 
Q 1494 397 1959 397 
Q 2419 397 2687 759 
Q 2956 1122 2956 1747 
Q 2956 2369 2687 2733 
Q 2419 3097 1959 3097 
z
M 1959 3584 
Q 2709 3584 3137 3096 
Q 3566 2609 3566 1747 
Q 3566 888 3137 398 
Q 2709 -91 1959 -91 
Q 1206 -91 779 398 
Q 353 888 353 1747 
Q 353 2609 779 3096 
Q 1206 3584 1959 3584 
z
" transform="scale(0.015625)"/>
       <path id="DejaVuSans-28" d="M 1984 4856 
Q 1566 4138 1362 3434 
Q 1159 2731 1159 2009 
Q 1159 1288 1364 580 
Q 1569 -128 1984 -844 
L 1484 -844 
Q 1016 -109 783 600 
Q 550 1309 550 2009 
Q 550 2706 781 3412 
Q 1013 4119 1484 4856 
L 1984 4856 
z
" transform="scale(0.015625)"/>
       <path id="DejaVuSans-25" d="M 4653 2053 
Q 4381 2053 4226 1822 
Q 4072 1591 4072 1178 
Q 4072 772 4226 539 
Q 4381 306 4653 306 
Q 4919 306 5073 539 
Q 5228 772 5228 1178 
Q 5228 1588 5073 1820 
Q 4919 2053 4653 2053 
z
M 4653 2450 
Q 5147 2450 5437 2106 
Q 5728 1763 5728 1178 
Q 5728 594 5436 251 
Q 5144 -91 4653 -91 
Q 4153 -91 3862 251 
Q 3572 594 3572 1178 
Q 3572 1766 3864 2108 
Q 4156 2450 4653 2450 
z
M 1428 4353 
Q 1159 4353 1004 4120 
Q 850 3888 850 3481 
Q 850 3069 1003 2837 
Q 1156 2606 1428 2606 
Q 1700 2606 1854 2837 
Q 2009 3069 2009 3481 
Q 2009 3884 1853 4118 
Q 1697 4353 1428 4353 
z
M 4250 4750 
L 4750 4750 
L 1831 -91 
L 1331 -91 
L 4250 4750 
z
M 1428 4750 
Q 1922 4750 2215 4408 
Q 2509 4066 2509 3481 
Q 2509 2891 2217 2550 
Q 1925 2209 1428 2209 
Q 931 2209 642 2551 
Q 353 2894 353 3481 
Q 353 4063 643 4406 
Q 934 4750 1428 4750 
z
" transform="scale(0.015625)"/>
       <path id="DejaVuSans-29" d="M 513 4856 
L 1013 4856 
Q 1481 4119 1714 3412 
Q 1947 2706 1947 2009 
Q 1947 1309 1714 600 
Q 1481 -109 1013 -844 
L 513 -844 
Q 928 -128 1133 580 
Q 1338 1288 1338 2009 
Q 1338 2731 1133 3434 
Q 928 4138 513 4856 
z
" transform="scale(0.015625)"/>
      </defs>
      <use xlink:href="#DejaVuSans-43"/>
      <use xlink:href="#DejaVuSans-75" x="69.824219"/>
      <use xlink:href="#DejaVuSans-6d" x="133.203125"/>
      <use xlink:href="#DejaVuSans-75" x="230.615234"/>
      <use xlink:href="#DejaVuSans-6c" x="293.994141"/>
      <use xlink:href="#DejaVuSans-61" x="321.777344"/>
      <use xlink:href="#DejaVuSans-74" x="383.056641"/>
      <use xlink:href="#DejaVuSans-69" x="422.265625"/>
      <use xlink:href="#DejaVuSans-76" x="450.048828"/>
      <use xlink:href="#DejaVuSans-65" x="509.228516"/>
      <use xlink:href="#DejaVuSans-20" x="570.751953"/>
      <use xlink:href="#DejaVuSans-65" x="602.539062"/>
      <use xlink:href="#DejaVuSans-72" x="664.0625"/>
      <use xlink:href="#DejaVuSans-72" x="703.425781"/>
      <use xlink:href="#DejaVuSans-6f" x="742.289062"/>
      <use xlink:href="#DejaVuSans-72" x="803.470703"/>
      <use xlink:href="#DejaVuSans-20" x="844.583984"/>
      <use xlink:href="#DejaVuSans-72" x="876.371094"/>
      <use xlink:href="#DejaVuSans-61" x="917.484375"/>
      <use xlink:href="#DejaVuSans-74" x="978.763672"/>
      <use xlink:href="#DejaVuSans-65" x="1017.972656"/>
      <use xlink:href="#DejaVuSans-20" x="1079.496094"/>
      <use xlink:href="#DejaVuSans-28" x="1111.283203"/>
      <use xlink:href="#DejaVuSans-25" x="1150.296875"/>
      <use xlink:href="#DejaVuSans-29" x="1245.316406"/>
     </g>
    </g>
   </g>
   <g id="line2d_11">
    <path d="M 54 97.550199 
L 57.348 109.3507 
L 60.696 121.012318 
L 64.044 132.212619 
L 67.392 142.698067 
L 70.74 152.276213 
L 74.088 160.808425 
L 77.436 168.203148 
L 80.784 174.409663 
L 84.132 179.412335 
L 87.48 183.22531 
L 90.828 185.887658 
L 94.176 187.458932 
L 97.524 188.015123 
L 100.872 187.644997 
L 104.22 186.446786 
L 107.568 184.525221 
L 110.916 181.988893 
L 114.264 178.947902 
L 117.612 175.511812 
L 120.96 171.787858 
L 124.308 167.879414 
L 127.656 163.884697 
L 131.004 159.895687 
L 134.352 155.997259 
L 137.7 152.266493 
L 141.048 148.772177 
L 144.396 145.574454 
L 147.744 142.724629 
L 151.092 140.265102 
L 154.44 138.229435 
L 157.788 136.642514 
L 161.136 135.520816 
L 164.484 134.872769 
L 167.832 134.699173 
L 171.18 134.993697 
L 174.528 135.743427 
L 177.876 136.929457 
L 181.224 138.52752 
L 184.572 140.508642 
L 187.92 142.839816 
L 191.268 145.484687 
L 194.616 148.404238 
L 197.964 151.557476 
L 201.312 154.902102 
L 204.66 158.395167 
L 208.008 161.993708 
L 211.356 165.655347 
L 214.704 169.338868 
L 218.052 173.004746 
L 221.4 176.615648 
L 224.748 180.13687 
L 228.096 183.536744 
L 231.444 186.786985 
L 234.792 189.862983 
L 238.14 192.744045 
L 241.488 195.413577 
L 244.836 197.859212 
L 248.184 200.072874 
L 251.532 202.050787 
L 254.88 203.793429 
L 258.228 205.305423 
L 261.576 206.595377 
L 264.924 207.675664 
L 268.272 208.562156 
L 271.62 209.273902 
L 274.968 209.832766 
L 278.316 210.263012 
L 281.664 210.59086 
L 285.012 210.843995 
L 288.36 211.051058 
L 291.708 211.241096 
L 295.056 211.443007 
L 298.404 211.68496 
L 301.752 211.993809 
L 305.1 212.394511 
L 308.448 212.909546 
L 311.796 213.558348 
L 315.144 214.356765 
L 318.492 215.316548 
L 321.84 216.44487 
L 325.188 217.743911 
L 328.536 219.210488 
L 331.884 220.83576 
L 335.232 222.605011 
L 338.58 224.497529 
L 341.928 226.486581 
L 345.276 228.539508 
L 348.624 230.617945 
L 351.972 232.678183 
L 355.32 234.671682 
L 358.668 236.545756 
L 362.016 238.244436 
L 365.364 239.70953 
L 368.712 240.881896 
L 372.06 241.702941 
L 375.408 242.116364 
L 378.756 242.070156 
L 382.104 241.518883 
L 385.452 240.426251 
L 388.8 238.767995 
L 392.148 236.535089 
L 395.496 233.73731 
L 398.844 230.407161 
L 402.192 226.604189 
L 405.54 222.419708 
L 408.888 217.98194 
L 412.236 213.46162 
L 415.584 209.078054 
L 418.932 205.105673 
L 422.28 201.881106 
L 425.628 199.810778 
L 428.976 199.37907 
L 432.324 201.157064 
L 433 202.096927 
" clip-path="url(#p53a9735d2e)" style="fill: none; stroke: #ff0000; stroke-width: 1.5; stroke-linecap: square"/>
    <defs>
     <path id="m0dcd447d38" d="M -0 3 
L 3 -3 
L -3 -3 
z
" style="stroke: #ff0000; stroke-linejoin: miter"/>
    </defs>
    <g clip-path="url(#p53a9735d2e)">
     <use xlink:href="#m0dcd447d38" x="54" y="97.550199" style="fill: #ff0000; stroke: #ff0000; stroke-linejoin: miter"/>
     <use xlink:href="#m0dcd447d38" x="70.74" y="152.276213" style="fill: #ff0000; stroke: #ff0000; stroke-linejoin: miter"/>
     <use xlink:href="#m0dcd447d38" x="87.48" y="183.22531" style="fill: #ff0000; stroke: #ff0000; stroke-linejoin: miter"/>
     <use xlink:href="#m0dcd447d38" x="104.22" y="186.446786" style="fill: #ff0000; stroke: #ff0000; stroke-linejoin: miter"/>
     <use xlink:href="#m0dcd447d38" x="120.96" y="171.787858" style="fill: #ff0000; stroke: #ff0000; stroke-linejoin: miter"/>
     <use xlink:href="#m0dcd447d38" x="137.7" y="152.266493" style="fill: #ff0000; stroke: #ff0000; stroke-linejoin: miter"/>
     <use xlink:href="#m0dcd447d38" x="154.44" y="138.229435" style="fill: #ff0000; stroke: #ff0000; stroke-linejoin: miter"/>
     <use xlink:href="#m0dcd447d38" x="171.18" y="134.993697" style="fill: #ff0000; stroke: #ff0000; stroke-linejoin: miter"/>
     <use xlink:href="#m0dcd447d38" x="187.92" y="142.839816" style="fill: #ff0000; stroke: #ff0000; stroke-linejoin: miter"/>
     <use xlink:href="#m0dcd447d38" x="204.66" y="158.395167" style="fill: #ff0000; stroke: #ff0000; stroke-linejoin: miter"/>
     <use xlink:href="#m0dcd447d38" x="221.4" y="176.615648" style="fill: #ff0000; stroke: #ff0000; stroke-linejoin: miter"/>
     <use xlink:href="#m0dcd447d38" x="238.14" y="192.744045" style="fill: #ff0000; stroke: #ff0000; stroke-linejoin: miter"/>
     <use xlink:href="#m0dcd447d38" x="254.88" y="203.793429" style="fill: #ff0000; stroke: #ff0000; stroke-linejoin: miter"/>
     <use xlink:href="#m0dcd447d38" x="271.62" y="209.273902" style="fill: #ff0000; stroke: #ff0000; stroke-linejoin: miter"/>
     <use xlink:href="#m0dcd447d38" x="288.36" y="211.051058" style="fill: #ff0000; stroke: #ff0000; stroke-linejoin: miter"/>
     <use xlink:href="#m0dcd447d38" x="305.1" y="212.394511" style="fill: #ff0000; stroke: #ff0000; stroke-linejoin: miter"/>
     <use xlink:href="#m0dcd447d38" x="321.84" y="216.44487" style="fill: #ff0000; stroke: #ff0000; stroke-linejoin: miter"/>
     <use xlink:href="#m0dcd447d38" x="338.58" y="224.497529" style="fill: #ff0000; stroke: #ff0000; stroke-linejoin: miter"/>
     <use xlink:href="#m0dcd447d38" x="355.32" y="234.671682" style="fill: #ff0000; stroke: #ff0000; stroke-linejoin: miter"/>
     <use xlink:href="#m0dcd447d38" x="372.06" y="241.702941" style="fill: #ff0000; stroke: #ff0000; stroke-linejoin: miter"/>
     <use xlink:href="#m0dcd447d38" x="388.8" y="238.767995" style="fill: #ff0000; stroke: #ff0000; stroke-linejoin: miter"/>
     <use xlink:href="#m0dcd447d38" x="405.54" y="222.419708" style="fill: #ff0000; stroke: #ff0000; stroke-linejoin: miter"/>
     <use xlink:href="#m0dcd447d38" x="422.28" y="201.881106" style="fill: #ff0000; stroke: #ff0000; stroke-linejoin: miter"/>
     <use xlink:href="#m0dcd447d38" x="439.02" y="214.116688" style="fill: #ff0000; stroke: #ff0000; stroke-linejoin: miter"/>
    </g>
   </g>
   <g id="line2d_12">
    <path d="M 54 51.310922 
L 57.348 69.587641 
L 60.696 86.445562 
L 64.044 101.799675 
L 67.392 115.601035 
L 70.74 127.832087 
L 74.088 138.502338 
L 77.436 147.64437 
L 80.784 155.310164 
L 84.132 161.567732 
L 87.48 166.498036 
L 90.828 170.192191 
L 94.176 172.748919 
L 97.524 174.27226 
L 100.872 174.869518 
L 104.22 174.649432 
L 107.568 173.720551 
L 110.916 172.18982 
L 114.264 170.161339 
L 117.612 167.735312 
L 120.96 165.007152 
L 124.308 162.06674 
L 127.656 158.997829 
L 131.004 155.877582 
L 134.352 152.776231 
L 137.7 149.75685 
L 141.048 146.875226 
L 144.396 144.179837 
L 147.744 141.711903 
L 151.092 139.505518 
L 154.44 137.587859 
L 157.788 135.97944 
L 161.136 134.694438 
L 164.484 133.741046 
L 167.832 133.121884 
L 171.18 132.834424 
L 174.528 132.871456 
L 177.876 133.221567 
L 181.224 133.869629 
L 184.572 134.797307 
L 187.92 135.983558 
L 191.268 137.40514 
L 194.616 139.037102 
L 197.964 140.853272 
L 201.312 142.826729 
L 204.66 144.930253 
L 208.008 147.136752 
L 211.356 149.419672 
L 214.704 151.753368 
L 218.052 154.113453 
L 221.4 156.477106 
L 224.748 158.823354 
L 228.096 161.13331 
L 231.444 163.390376 
L 234.792 165.580408 
L 238.14 167.691836 
L 241.488 169.715753 
L 244.836 171.645954 
L 248.184 173.478937 
L 251.532 175.21387 
L 254.88 176.852512 
L 258.228 178.399097 
L 261.576 179.860182 
L 264.924 181.244461 
L 268.272 182.562544 
L 271.62 183.826703 
L 274.968 185.050592 
L 278.316 186.248943 
L 281.664 187.43723 
L 285.012 188.631327 
L 288.36 189.847139 
L 291.708 191.100223 
L 295.056 192.405411 
L 298.404 193.776416 
L 301.752 195.225451 
L 305.1 196.762848 
L 308.448 198.396695 
L 311.796 200.132489 
L 315.144 201.972812 
L 318.492 203.917041 
L 321.84 205.961093 
L 325.188 208.097216 
L 328.536 210.31383 
L 331.884 212.595432 
L 335.232 214.92256 
L 338.58 217.271841 
L 341.928 219.616117 
L 345.276 221.924666 
L 348.624 224.163526 
L 351.972 226.295924 
L 355.32 228.282834 
L 358.668 230.08366 
L 362.016 231.657058 
L 365.364 232.961919 
L 368.712 233.958503 
L 372.06 234.609752 
L 375.408 234.882787 
L 378.756 234.750604 
L 382.104 234.193971 
L 385.452 233.203556 
L 388.8 231.782281 
L 392.148 229.947925 
L 395.496 227.735986 
L 398.844 225.20282 
L 402.192 222.429058 
L 405.54 219.523337 
L 408.888 216.626333 
L 412.236 213.915136 
L 415.584 211.607962 
L 418.932 209.969229 
L 422.28 209.31501 
L 425.628 210.018876 
L 428.976 212.518149 
L 432.324 217.320579 
L 433 218.873457 
" clip-path="url(#p53a9735d2e)" style="fill: none; stroke: #008000; stroke-width: 1.5; stroke-linecap: square"/>
    <defs>
     <path id="maf31ec7194" d="M 0 3 
C 0.795609 3 1.55874 2.683901 2.12132 2.12132 
C 2.683901 1.55874 3 0.795609 3 0 
C 3 -0.795609 2.683901 -1.55874 2.12132 -2.12132 
C 1.55874 -2.683901 0.795609 -3 0 -3 
C -0.795609 -3 -1.55874 -2.683901 -2.12132 -2.12132 
C -2.683901 -1.55874 -3 -0.795609 -3 0 
C -3 0.795609 -2.683901 1.55874 -2.12132 2.12132 
C -1.55874 2.683901 -0.795609 3 0 3 
z
" style="stroke: #008000"/>
    </defs>
    <g clip-path="url(#p53a9735d2e)">
     <use xlink:href="#maf31ec7194" x="54" y="51.310922" style="fill: #008000; stroke: #008000"/>
     <use xlink:href="#maf31ec7194" x="70.74" y="127.832087" style="fill: #008000; stroke: #008000"/>
     <use xlink:href="#maf31ec7194" x="87.48" y="166.498036" style="fill: #008000; stroke: #008000"/>
     <use xlink:href="#maf31ec7194" x="104.22" y="174.649432" style="fill: #008000; stroke: #008000"/>
     <use xlink:href="#maf31ec7194" x="120.96" y="165.007152" style="fill: #008000; stroke: #008000"/>
     <use xlink:href="#maf31ec7194" x="137.7" y="149.75685" style="fill: #008000; stroke: #008000"/>
     <use xlink:href="#maf31ec7194" x="154.44" y="137.587859" style="fill: #008000; stroke: #008000"/>
     <use xlink:href="#maf31ec7194" x="171.18" y="132.834424" style="fill: #008000; stroke: #008000"/>
     <use xlink:href="#maf31ec7194" x="187.92" y="135.983558" style="fill: #008000; stroke: #008000"/>
     <use xlink:href="#maf31ec7194" x="204.66" y="144.930253" style="fill: #008000; stroke: #008000"/>
     <use xlink:href="#maf31ec7194" x="221.4" y="156.477106" style="fill: #008000; stroke: #008000"/>
     <use xlink:href="#maf31ec7194" x="238.14" y="167.691836" style="fill: #008000; stroke: #008000"/>
     <use xlink:href="#maf31ec7194" x="254.88" y="176.852512" style="fill: #008000; stroke: #008000"/>
     <use xlink:href="#maf31ec7194" x="271.62" y="183.826703" style="fill: #008000; stroke: #008000"/>
     <use xlink:href="#maf31ec7194" x="288.36" y="189.847139" style="fill: #008000; stroke: #008000"/>
     <use xlink:href="#maf31ec7194" x="305.1" y="196.762848" style="fill: #008000; stroke: #008000"/>
     <use xlink:href="#maf31ec7194" x="321.84" y="205.961093" style="fill: #008000; stroke: #008000"/>
     <use xlink:href="#maf31ec7194" x="338.58" y="217.271841" style="fill: #008000; stroke: #008000"/>
     <use xlink:href="#maf31ec7194" x="355.32" y="228.282834" style="fill: #008000; stroke: #008000"/>
     <use xlink:href="#maf31ec7194" x="372.06" y="234.609752" style="fill: #008000; stroke: #008000"/>
     <use xlink:href="#maf31ec7194" x="388.8" y="231.782281" style="fill: #008000; stroke: #008000"/>
     <use xlink:href="#maf31ec7194" x="405.54" y="219.523337" style="fill: #008000; stroke: #008000"/>
     <use xlink:href="#maf31ec7194" x="422.28" y="209.31501" style="fill: #008000; stroke: #008000"/>
     <use xlink:href="#maf31ec7194" x="439.02" y="236.26122" style="fill: #008000; stroke: #008000"/>
    </g>
   </g>
   <g id="line2d_13">
    <path d="M 54 50.347572 
L 57.348 77.16922 
L 60.696 99.150276 
L 64.044 116.772509 
L 67.392 130.497087 
L 70.74 140.763599 
L 74.088 147.989276 
L 77.436 152.568384 
L 80.784 154.871796 
L 84.132 155.246721 
L 87.48 154.016582 
L 90.828 151.481036 
L 94.176 147.916116 
L 97.524 143.574503 
L 100.872 138.685901 
L 104.22 133.457518 
L 107.568 128.074632 
L 110.916 122.70125 
L 114.264 117.480834 
L 117.612 112.537101 
L 120.96 107.974875 
L 124.308 103.880997 
L 127.656 100.325272 
L 131.004 97.361465 
L 134.352 95.02831 
L 137.7 93.350559 
L 141.048 92.340035 
L 144.396 91.996707 
L 147.744 92.30976 
L 151.092 93.258672 
L 154.44 94.814284 
L 157.788 96.93985 
L 161.136 99.592088 
L 164.484 102.722193 
L 167.832 106.276838 
L 171.18 110.199139 
L 174.528 114.429589 
L 177.876 118.906958 
L 181.224 123.569148 
L 184.572 128.354013 
L 187.92 133.200125 
L 191.268 138.047499 
L 194.616 142.838261 
L 197.964 147.517269 
L 201.312 152.032675 
L 204.66 156.336438 
L 208.008 160.38477 
L 211.356 164.13853 
L 214.704 167.563561 
L 218.052 170.630959 
L 221.4 173.317291 
L 224.748 175.604747 
L 228.096 177.481235 
L 231.444 178.940416 
L 234.792 179.981679 
L 238.14 180.610062 
L 241.488 180.836113 
L 244.836 180.675697 
L 248.184 180.149751 
L 251.532 179.283987 
L 254.88 178.108547 
L 258.228 176.657606 
L 261.576 174.968943 
L 264.924 173.083458 
L 268.272 171.044661 
L 271.62 168.898123 
L 274.968 166.690896 
L 278.316 164.470911 
L 281.664 162.28635 
L 285.012 160.185 
L 288.36 158.213602 
L 291.708 156.417179 
L 295.056 154.838378 
L 298.404 153.516798 
L 301.752 152.488343 
L 305.1 151.78458 
L 308.448 151.432119 
L 311.796 151.452026 
L 315.144 151.859267 
L 318.492 152.662193 
L 321.84 153.862078 
L 325.188 155.452709 
L 328.536 157.420043 
L 331.884 159.741936 
L 335.232 162.387955 
L 338.58 165.319274 
L 341.928 168.488674 
L 345.276 171.840646 
L 348.624 175.311616 
L 351.972 178.830286 
L 355.32 182.318127 
L 358.668 185.690001 
L 362.016 188.854953 
L 365.364 191.71716 
L 368.712 194.177067 
L 372.06 196.132707 
L 375.408 197.481219 
L 378.756 198.120585 
L 382.104 197.951586 
L 385.452 196.879997 
L 388.8 194.819025 
L 392.148 191.692016 
L 395.496 187.435431 
L 398.844 182.002107 
L 402.192 175.364826 
L 405.54 167.520191 
L 408.888 158.492836 
L 412.236 148.339969 
L 415.584 137.156283 
" clip-path="url(#p53a9735d2e)" style="fill: none; stroke-dasharray: 5.55,2.4; stroke-dashoffset: 0; stroke: #0000ff; stroke-width: 1.5"/>
    <defs>
     <path id="m7a06ba1117" d="M -3 3 
L 3 -3 
M -3 -3 
L 3 3 
" style="stroke: #0000ff"/>
    </defs>
    <g clip-path="url(#p53a9735d2e)">
     <use xlink:href="#m7a06ba1117" x="54" y="50.347572" style="fill: #0000ff; stroke: #0000ff"/>
     <use xlink:href="#m7a06ba1117" x="70.74" y="140.763599" style="fill: #0000ff; stroke: #0000ff"/>
     <use xlink:href="#m7a06ba1117" x="87.48" y="154.016582" style="fill: #0000ff; stroke: #0000ff"/>
     <use xlink:href="#m7a06ba1117" x="104.22" y="133.457518" style="fill: #0000ff; stroke: #0000ff"/>
     <use xlink:href="#m7a06ba1117" x="120.96" y="107.974875" style="fill: #0000ff; stroke: #0000ff"/>
     <use xlink:href="#m7a06ba1117" x="137.7" y="93.350559" style="fill: #0000ff; stroke: #0000ff"/>
     <use xlink:href="#m7a06ba1117" x="154.44" y="94.814284" style="fill: #0000ff; stroke: #0000ff"/>
     <use xlink:href="#m7a06ba1117" x="171.18" y="110.199139" style="fill: #0000ff; stroke: #0000ff"/>
     <use xlink:href="#m7a06ba1117" x="187.92" y="133.200125" style="fill: #0000ff; stroke: #0000ff"/>
     <use xlink:href="#m7a06ba1117" x="204.66" y="156.336438" style="fill: #0000ff; stroke: #0000ff"/>
     <use xlink:href="#m7a06ba1117" x="221.4" y="173.317291" style="fill: #0000ff; stroke: #0000ff"/>
     <use xlink:href="#m7a06ba1117" x="238.14" y="180.610062" style="fill: #0000ff; stroke: #0000ff"/>
     <use xlink:href="#m7a06ba1117" x="254.88" y="178.108547" style="fill: #0000ff; stroke: #0000ff"/>
     <use xlink:href="#m7a06ba1117" x="271.62" y="168.898123" style="fill: #0000ff; stroke: #0000ff"/>
     <use xlink:href="#m7a06ba1117" x="288.36" y="158.213602" style="fill: #0000ff; stroke: #0000ff"/>
     <use xlink:href="#m7a06ba1117" x="305.1" y="151.78458" style="fill: #0000ff; stroke: #0000ff"/>
     <use xlink:href="#m7a06ba1117" x="321.84" y="153.862078" style="fill: #0000ff; stroke: #0000ff"/>
     <use xlink:href="#m7a06ba1117" x="338.58" y="165.319274" style="fill: #0000ff; stroke: #0000ff"/>
     <use xlink:href="#m7a06ba1117" x="355.32" y="182.318127" style="fill: #0000ff; stroke: #0000ff"/>
     <use xlink:href="#m7a06ba1117" x="372.06" y="196.132707" style="fill: #0000ff; stroke: #0000ff"/>
     <use xlink:href="#m7a06ba1117" x="388.8" y="194.819025" style="fill: #0000ff; stroke: #0000ff"/>
     <use xlink:href="#m7a06ba1117" x="405.54" y="167.520191" style="fill: #0000ff; stroke: #0000ff"/>
    </g>
   </g>
   <g id="line2d_14">
    <path d="M 54 44.443636 
L 57.348 55.425121 
L 60.696 66.52359 
L 64.044 77.359099 
L 67.392 87.631088 
L 70.74 97.109258 
L 74.088 105.625109 
L 77.436 113.064096 
L 80.784 119.358383 
L 84.132 124.48017 
L 87.48 128.435563 
L 90.828 131.258965 
L 94.176 133.007958 
L 97.524 133.758659 
L 100.872 133.60152 
L 104.22 132.637551 
L 107.568 130.974939 
L 110.916 128.726055 
L 114.264 126.004805 
L 117.612 122.924321 
L 120.96 119.594969 
L 124.308 116.122648 
L 127.656 112.607359 
L 131.004 109.142038 
L 134.352 105.811623 
L 137.7 102.692335 
L 141.048 99.851165 
L 144.396 97.345548 
L 147.744 95.223203 
L 151.092 93.522121 
L 154.44 92.270699 
L 157.788 91.487991 
L 161.136 91.184071 
L 164.484 91.360486 
L 167.832 92.010797 
L 171.18 93.121186 
L 174.528 94.671119 
L 177.876 96.634061 
L 181.224 98.978216 
L 184.572 101.667304 
L 187.92 104.661342 
L 191.268 107.917436 
L 194.616 111.39057 
L 197.964 115.034379 
L 201.312 118.801911 
L 204.66 122.646354 
L 208.008 126.521736 
L 211.356 130.383584 
L 214.704 134.189537 
L 218.052 137.899915 
L 221.4 141.478228 
L 224.748 144.891631 
L 228.096 148.111317 
L 231.444 151.112846 
L 234.792 153.876409 
L 238.14 156.387022 
L 241.488 158.634653 
L 244.836 160.614279 
L 248.184 162.325873 
L 251.532 163.774318 
L 254.88 164.969262 
L 258.228 165.924897 
L 261.576 166.659675 
L 264.924 167.195968 
L 268.272 167.559658 
L 271.62 167.779684 
L 274.968 167.887527 
L 278.316 167.916657 
L 281.664 167.90193 
L 285.012 167.878962 
L 288.36 167.883458 
L 291.708 167.950536 
L 295.056 168.114024 
L 298.404 168.405755 
L 301.752 168.854863 
L 305.1 169.487094 
L 308.448 170.324131 
L 311.796 171.382955 
L 315.144 172.675245 
L 318.492 174.206832 
L 321.84 175.977216 
L 325.188 177.979161 
L 328.536 180.198381 
L 331.884 182.613328 
L 335.232 185.195092 
L 338.58 187.907445 
L 341.928 190.707015 
L 345.276 193.543639 
L 348.624 196.360879 
L 351.972 199.096747 
L 355.32 201.684627 
L 358.668 204.054442 
L 362.016 206.134056 
L 365.364 207.850952 
L 368.712 209.13419 
L 372.06 209.916676 
L 375.408 210.137753 
L 378.756 209.746142 
L 382.104 208.703252 
L 385.452 206.986877 
L 388.8 204.595314 
L 392.148 201.551912 
L 395.496 197.910081 
L 398.844 193.758786 
L 402.192 189.228557 
L 405.54 184.498022 
L 408.888 179.801008 
L 412.236 175.43423 
L 415.584 171.765584 
L 418.932 169.243094 
L 422.28 168.404518 
L 425.628 169.887655 
L 428.976 174.441383 
L 432.324 182.937442 
L 433 185.652259 
" clip-path="url(#p53a9735d2e)" style="fill: none; stroke-dasharray: 5.55,2.4; stroke-dashoffset: 0; stroke: #bf00bf; stroke-width: 1.5"/>
    <defs>
     <path id="mc5e65d16a8" d="M 0 -3 
L -3 3 
L 3 3 
z
" style="stroke: #bf00bf; stroke-linejoin: miter"/>
    </defs>
    <g clip-path="url(#p53a9735d2e)">
     <use xlink:href="#mc5e65d16a8" x="54" y="44.443636" style="fill: #bf00bf; stroke: #bf00bf; stroke-linejoin: miter"/>
     <use xlink:href="#mc5e65d16a8" x="70.74" y="97.109258" style="fill: #bf00bf; stroke: #bf00bf; stroke-linejoin: miter"/>
     <use xlink:href="#mc5e65d16a8" x="87.48" y="128.435563" style="fill: #bf00bf; stroke: #bf00bf; stroke-linejoin: miter"/>
     <use xlink:href="#mc5e65d16a8" x="104.22" y="132.637551" style="fill: #bf00bf; stroke: #bf00bf; stroke-linejoin: miter"/>
     <use xlink:href="#mc5e65d16a8" x="120.96" y="119.594969" style="fill: #bf00bf; stroke: #bf00bf; stroke-linejoin: miter"/>
     <use xlink:href="#mc5e65d16a8" x="137.7" y="102.692335" style="fill: #bf00bf; stroke: #bf00bf; stroke-linejoin: miter"/>
     <use xlink:href="#mc5e65d16a8" x="154.44" y="92.270699" style="fill: #bf00bf; stroke: #bf00bf; stroke-linejoin: miter"/>
     <use xlink:href="#mc5e65d16a8" x="171.18" y="93.121186" style="fill: #bf00bf; stroke: #bf00bf; stroke-linejoin: miter"/>
     <use xlink:href="#mc5e65d16a8" x="187.92" y="104.661342" style="fill: #bf00bf; stroke: #bf00bf; stroke-linejoin: miter"/>
     <use xlink:href="#mc5e65d16a8" x="204.66" y="122.646354" style="fill: #bf00bf; stroke: #bf00bf; stroke-linejoin: miter"/>
     <use xlink:href="#mc5e65d16a8" x="221.4" y="141.478228" style="fill: #bf00bf; stroke: #bf00bf; stroke-linejoin: miter"/>
     <use xlink:href="#mc5e65d16a8" x="238.14" y="156.387022" style="fill: #bf00bf; stroke: #bf00bf; stroke-linejoin: miter"/>
     <use xlink:href="#mc5e65d16a8" x="254.88" y="164.969262" style="fill: #bf00bf; stroke: #bf00bf; stroke-linejoin: miter"/>
     <use xlink:href="#mc5e65d16a8" x="271.62" y="167.779684" style="fill: #bf00bf; stroke: #bf00bf; stroke-linejoin: miter"/>
     <use xlink:href="#mc5e65d16a8" x="288.36" y="167.883458" style="fill: #bf00bf; stroke: #bf00bf; stroke-linejoin: miter"/>
     <use xlink:href="#mc5e65d16a8" x="305.1" y="169.487094" style="fill: #bf00bf; stroke: #bf00bf; stroke-linejoin: miter"/>
     <use xlink:href="#mc5e65d16a8" x="321.84" y="175.977216" style="fill: #bf00bf; stroke: #bf00bf; stroke-linejoin: miter"/>
     <use xlink:href="#mc5e65d16a8" x="338.58" y="187.907445" style="fill: #bf00bf; stroke: #bf00bf; stroke-linejoin: miter"/>
     <use xlink:href="#mc5e65d16a8" x="355.32" y="201.684627" style="fill: #bf00bf; stroke: #bf00bf; stroke-linejoin: miter"/>
     <use xlink:href="#mc5e65d16a8" x="372.06" y="209.916676" style="fill: #bf00bf; stroke: #bf00bf; stroke-linejoin: miter"/>
     <use xlink:href="#mc5e65d16a8" x="388.8" y="204.595314" style="fill: #bf00bf; stroke: #bf00bf; stroke-linejoin: miter"/>
     <use xlink:href="#mc5e65d16a8" x="405.54" y="184.498022" style="fill: #bf00bf; stroke: #bf00bf; stroke-linejoin: miter"/>
     <use xlink:href="#mc5e65d16a8" x="422.28" y="168.404518" style="fill: #bf00bf; stroke: #bf00bf; stroke-linejoin: miter"/>
    </g>
   </g>
   <g id="patch_3">
    <path d="M 54 252 
L 54 34.56 
" style="fill: none; stroke: #000000; stroke-width: 0.8; stroke-linejoin: miter; stroke-linecap: square"/>
   </g>
   <g id="patch_4">
    <path d="M 388.8 252 
L 388.8 34.56 
" style="fill: none; stroke: #000000; stroke-width: 0.8; stroke-linejoin: miter; stroke-linecap: square"/>
   </g>
   <g id="patch_5">
    <path d="M 54 252 
L 388.8 252 
" style="fill: none; stroke: #000000; stroke-width: 0.8; stroke-linejoin: miter; stroke-linecap: square"/>
   </g>
   <g id="patch_6">
    <path d="M 54 34.56 
L 388.8 34.56 
" style="fill: none; stroke: #000000; stroke-width: 0.8; stroke-linejoin: miter; stroke-linecap: square"/>
   </g>
   <g id="text_13">
    <!-- Experiment 3 (interval) with batch size 4000 -->
    <g transform="translate(87.345 28.56)scale(0.12 -0.12)">
     <defs>
      <path id="DejaVuSans-45" d="M 628 4666 
L 3578 4666 
L 3578 4134 
L 1259 4134 
L 1259 2753 
L 3481 2753 
L 3481 2222 
L 1259 2222 
L 1259 531 
L 3634 531 
L 3634 0 
L 628 0 
L 628 4666 
z
" transform="scale(0.015625)"/>
      <path id="DejaVuSans-78" d="M 3513 3500 
L 2247 1797 
L 3578 0 
L 2900 0 
L 1881 1375 
L 863 0 
L 184 0 
L 1544 1831 
L 300 3500 
L 978 3500 
L 1906 2253 
L 2834 3500 
L 3513 3500 
z
" transform="scale(0.015625)"/>
      <path id="DejaVuSans-70" d="M 1159 525 
L 1159 -1331 
L 581 -1331 
L 581 3500 
L 1159 3500 
L 1159 2969 
Q 1341 3281 1617 3432 
Q 1894 3584 2278 3584 
Q 2916 3584 3314 3078 
Q 3713 2572 3713 1747 
Q 3713 922 3314 415 
Q 2916 -91 2278 -91 
Q 1894 -91 1617 61 
Q 1341 213 1159 525 
z
M 3116 1747 
Q 3116 2381 2855 2742 
Q 2594 3103 2138 3103 
Q 1681 3103 1420 2742 
Q 1159 2381 1159 1747 
Q 1159 1113 1420 752 
Q 1681 391 2138 391 
Q 2594 391 2855 752 
Q 3116 1113 3116 1747 
z
" transform="scale(0.015625)"/>
      <path id="DejaVuSans-6e" d="M 3513 2113 
L 3513 0 
L 2938 0 
L 2938 2094 
Q 2938 2591 2744 2837 
Q 2550 3084 2163 3084 
Q 1697 3084 1428 2787 
Q 1159 2491 1159 1978 
L 1159 0 
L 581 0 
L 581 3500 
L 1159 3500 
L 1159 2956 
Q 1366 3272 1645 3428 
Q 1925 3584 2291 3584 
Q 2894 3584 3203 3211 
Q 3513 2838 3513 2113 
z
" transform="scale(0.015625)"/>
      <path id="DejaVuSans-77" d="M 269 3500 
L 844 3500 
L 1563 769 
L 2278 3500 
L 2956 3500 
L 3675 769 
L 4391 3500 
L 4966 3500 
L 4050 0 
L 3372 0 
L 2619 2869 
L 1863 0 
L 1184 0 
L 269 3500 
z
" transform="scale(0.015625)"/>
      <path id="DejaVuSans-68" d="M 3513 2113 
L 3513 0 
L 2938 0 
L 2938 2094 
Q 2938 2591 2744 2837 
Q 2550 3084 2163 3084 
Q 1697 3084 1428 2787 
Q 1159 2491 1159 1978 
L 1159 0 
L 581 0 
L 581 4863 
L 1159 4863 
L 1159 2956 
Q 1366 3272 1645 3428 
Q 1925 3584 2291 3584 
Q 2894 3584 3203 3211 
Q 3513 2838 3513 2113 
z
" transform="scale(0.015625)"/>
      <path id="DejaVuSans-62" d="M 3116 1747 
Q 3116 2381 2855 2742 
Q 2594 3103 2138 3103 
Q 1681 3103 1420 2742 
Q 1159 2381 1159 1747 
Q 1159 1113 1420 752 
Q 1681 391 2138 391 
Q 2594 391 2855 752 
Q 3116 1113 3116 1747 
z
M 1159 2969 
Q 1341 3281 1617 3432 
Q 1894 3584 2278 3584 
Q 2916 3584 3314 3078 
Q 3713 2572 3713 1747 
Q 3713 922 3314 415 
Q 2916 -91 2278 -91 
Q 1894 -91 1617 61 
Q 1341 213 1159 525 
L 1159 0 
L 581 0 
L 581 4863 
L 1159 4863 
L 1159 2969 
z
" transform="scale(0.015625)"/>
      <path id="DejaVuSans-63" d="M 3122 3366 
L 3122 2828 
Q 2878 2963 2633 3030 
Q 2388 3097 2138 3097 
Q 1578 3097 1268 2742 
Q 959 2388 959 1747 
Q 959 1106 1268 751 
Q 1578 397 2138 397 
Q 2388 397 2633 464 
Q 2878 531 3122 666 
L 3122 134 
Q 2881 22 2623 -34 
Q 2366 -91 2075 -91 
Q 1284 -91 818 406 
Q 353 903 353 1747 
Q 353 2603 823 3093 
Q 1294 3584 2113 3584 
Q 2378 3584 2631 3529 
Q 2884 3475 3122 3366 
z
" transform="scale(0.015625)"/>
      <path id="DejaVuSans-7a" d="M 353 3500 
L 3084 3500 
L 3084 2975 
L 922 459 
L 3084 459 
L 3084 0 
L 275 0 
L 275 525 
L 2438 3041 
L 353 3041 
L 353 3500 
z
" transform="scale(0.015625)"/>
     </defs>
     <use xlink:href="#DejaVuSans-45"/>
     <use xlink:href="#DejaVuSans-78" x="63.183594"/>
     <use xlink:href="#DejaVuSans-70" x="122.363281"/>
     <use xlink:href="#DejaVuSans-65" x="185.839844"/>
     <use xlink:href="#DejaVuSans-72" x="247.363281"/>
     <use xlink:href="#DejaVuSans-69" x="288.476562"/>
     <use xlink:href="#DejaVuSans-6d" x="316.259766"/>
     <use xlink:href="#DejaVuSans-65" x="413.671875"/>
     <use xlink:href="#DejaVuSans-6e" x="475.195312"/>
     <use xlink:href="#DejaVuSans-74" x="538.574219"/>
     <use xlink:href="#DejaVuSans-20" x="577.783203"/>
     <use xlink:href="#DejaVuSans-33" x="609.570312"/>
     <use xlink:href="#DejaVuSans-20" x="673.193359"/>
     <use xlink:href="#DejaVuSans-28" x="704.980469"/>
     <use xlink:href="#DejaVuSans-69" x="743.994141"/>
     <use xlink:href="#DejaVuSans-6e" x="771.777344"/>
     <use xlink:href="#DejaVuSans-74" x="835.15625"/>
     <use xlink:href="#DejaVuSans-65" x="874.365234"/>
     <use xlink:href="#DejaVuSans-72" x="935.888672"/>
     <use xlink:href="#DejaVuSans-76" x="977.001953"/>
     <use xlink:href="#DejaVuSans-61" x="1036.181641"/>
     <use xlink:href="#DejaVuSans-6c" x="1097.460938"/>
     <use xlink:href="#DejaVuSans-29" x="1125.244141"/>
     <use xlink:href="#DejaVuSans-20" x="1164.257812"/>
     <use xlink:href="#DejaVuSans-77" x="1196.044922"/>
     <use xlink:href="#DejaVuSans-69" x="1277.832031"/>
     <use xlink:href="#DejaVuSans-74" x="1305.615234"/>
     <use xlink:href="#DejaVuSans-68" x="1344.824219"/>
     <use xlink:href="#DejaVuSans-20" x="1408.203125"/>
     <use xlink:href="#DejaVuSans-62" x="1439.990234"/>
     <use xlink:href="#DejaVuSans-61" x="1503.466797"/>
     <use xlink:href="#DejaVuSans-74" x="1564.746094"/>
     <use xlink:href="#DejaVuSans-63" x="1603.955078"/>
     <use xlink:href="#DejaVuSans-68" x="1658.935547"/>
     <use xlink:href="#DejaVuSans-20" x="1722.314453"/>
     <use xlink:href="#DejaVuSans-73" x="1754.101562"/>
     <use xlink:href="#DejaVuSans-69" x="1806.201172"/>
     <use xlink:href="#DejaVuSans-7a" x="1833.984375"/>
     <use xlink:href="#DejaVuSans-65" x="1886.474609"/>
     <use xlink:href="#DejaVuSans-20" x="1947.998047"/>
     <use xlink:href="#DejaVuSans-34" x="1979.785156"/>
     <use xlink:href="#DejaVuSans-30" x="2043.408203"/>
     <use xlink:href="#DejaVuSans-30" x="2107.03125"/>
     <use xlink:href="#DejaVuSans-30" x="2170.654297"/>
    </g>
   </g>
   <g id="legend_1">
    <g id="patch_7">
     <path d="M 285.720312 101.2725 
L 381.8 101.2725 
Q 383.8 101.2725 383.8 99.2725 
L 383.8 41.56 
Q 383.8 39.56 381.8 39.56 
L 285.720312 39.56 
Q 283.720312 39.56 283.720312 41.56 
L 283.720312 99.2725 
Q 283.720312 101.2725 285.720312 101.2725 
z
" style="fill: #ffffff; opacity: 0.8; stroke: #cccccc; stroke-linejoin: miter"/>
    </g>
    <g id="line2d_15">
     <path d="M 287.720312 47.658437 
L 297.720312 47.658437 
L 307.720312 47.658437 
" style="fill: none; stroke: #ff0000; stroke-width: 1.5; stroke-linecap: square"/>
     <g>
      <use xlink:href="#m0dcd447d38" x="297.720312" y="47.658437" style="fill: #ff0000; stroke: #ff0000; stroke-linejoin: miter"/>
     </g>
    </g>
    <g id="text_14">
     <!-- PA -->
     <g transform="translate(315.720312 51.158437)scale(0.1 -0.1)">
      <defs>
       <path id="DejaVuSans-50" d="M 1259 4147 
L 1259 2394 
L 2053 2394 
Q 2494 2394 2734 2622 
Q 2975 2850 2975 3272 
Q 2975 3691 2734 3919 
Q 2494 4147 2053 4147 
L 1259 4147 
z
M 628 4666 
L 2053 4666 
Q 2838 4666 3239 4311 
Q 3641 3956 3641 3272 
Q 3641 2581 3239 2228 
Q 2838 1875 2053 1875 
L 1259 1875 
L 1259 0 
L 628 0 
L 628 4666 
z
" transform="scale(0.015625)"/>
       <path id="DejaVuSans-41" d="M 2188 4044 
L 1331 1722 
L 3047 1722 
L 2188 4044 
z
M 1831 4666 
L 2547 4666 
L 4325 0 
L 3669 0 
L 3244 1197 
L 1141 1197 
L 716 0 
L 50 0 
L 1831 4666 
z
" transform="scale(0.015625)"/>
      </defs>
      <use xlink:href="#DejaVuSans-50"/>
      <use xlink:href="#DejaVuSans-41" x="53.927734"/>
     </g>
    </g>
    <g id="line2d_16">
     <path d="M 287.720312 62.336562 
L 297.720312 62.336562 
L 307.720312 62.336562 
" style="fill: none; stroke: #008000; stroke-width: 1.5; stroke-linecap: square"/>
     <g>
      <use xlink:href="#maf31ec7194" x="297.720312" y="62.336562" style="fill: #008000; stroke: #008000"/>
     </g>
    </g>
    <g id="text_15">
     <!-- Perceptron -->
     <g transform="translate(315.720312 65.836562)scale(0.1 -0.1)">
      <use xlink:href="#DejaVuSans-50"/>
      <use xlink:href="#DejaVuSans-65" x="56.677734"/>
      <use xlink:href="#DejaVuSans-72" x="118.201172"/>
      <use xlink:href="#DejaVuSans-63" x="157.064453"/>
      <use xlink:href="#DejaVuSans-65" x="212.044922"/>
      <use xlink:href="#DejaVuSans-70" x="273.568359"/>
      <use xlink:href="#DejaVuSans-74" x="337.044922"/>
      <use xlink:href="#DejaVuSans-72" x="376.253906"/>
      <use xlink:href="#DejaVuSans-6f" x="415.117188"/>
      <use xlink:href="#DejaVuSans-6e" x="476.298828"/>
     </g>
    </g>
    <g id="line2d_17">
     <path d="M 287.720312 77.014687 
L 297.720312 77.014687 
L 307.720312 77.014687 
" style="fill: none; stroke-dasharray: 5.55,2.4; stroke-dashoffset: 0; stroke: #0000ff; stroke-width: 1.5"/>
     <g>
      <use xlink:href="#m7a06ba1117" x="297.720312" y="77.014687" style="fill: #0000ff; stroke: #0000ff"/>
     </g>
    </g>
    <g id="text_16">
     <!-- Percep. (int.) -->
     <g transform="translate(315.720312 80.514687)scale(0.1 -0.1)">
      <use xlink:href="#DejaVuSans-50"/>
      <use xlink:href="#DejaVuSans-65" x="56.677734"/>
      <use xlink:href="#DejaVuSans-72" x="118.201172"/>
      <use xlink:href="#DejaVuSans-63" x="157.064453"/>
      <use xlink:href="#DejaVuSans-65" x="212.044922"/>
      <use xlink:href="#DejaVuSans-70" x="273.568359"/>
      <use xlink:href="#DejaVuSans-2e" x="337.044922"/>
      <use xlink:href="#DejaVuSans-20" x="368.832031"/>
      <use xlink:href="#DejaVuSans-28" x="400.619141"/>
      <use xlink:href="#DejaVuSans-69" x="439.632812"/>
      <use xlink:href="#DejaVuSans-6e" x="467.416016"/>
      <use xlink:href="#DejaVuSans-74" x="530.794922"/>
      <use xlink:href="#DejaVuSans-2e" x="570.003906"/>
      <use xlink:href="#DejaVuSans-29" x="601.791016"/>
     </g>
    </g>
    <g id="line2d_18">
     <path d="M 287.720312 91.692813 
L 297.720312 91.692813 
L 307.720312 91.692813 
" style="fill: none; stroke-dasharray: 5.55,2.4; stroke-dashoffset: 0; stroke: #bf00bf; stroke-width: 1.5"/>
     <g>
      <use xlink:href="#mc5e65d16a8" x="297.720312" y="91.692813" style="fill: #bf00bf; stroke: #bf00bf; stroke-linejoin: miter"/>
     </g>
    </g>
    <g id="text_17">
     <!-- PA (int.) -->
     <g transform="translate(315.720312 95.192813)scale(0.1 -0.1)">
      <use xlink:href="#DejaVuSans-50"/>
      <use xlink:href="#DejaVuSans-41" x="53.927734"/>
      <use xlink:href="#DejaVuSans-20" x="122.335938"/>
      <use xlink:href="#DejaVuSans-28" x="154.123047"/>
      <use xlink:href="#DejaVuSans-69" x="193.136719"/>
      <use xlink:href="#DejaVuSans-6e" x="220.919922"/>
      <use xlink:href="#DejaVuSans-74" x="284.298828"/>
      <use xlink:href="#DejaVuSans-2e" x="323.507812"/>
      <use xlink:href="#DejaVuSans-29" x="355.294922"/>
     </g>
    </g>
   </g>
  </g>
 </g>
 <defs>
  <clipPath id="p53a9735d2e">
   <rect x="54" y="34.56" width="334.8" height="217.44"/>
  </clipPath>
 </defs>
</svg>
