<?xml version="1.0" encoding="utf-8" standalone="no"?>
<!DOCTYPE svg PUBLIC "-//W3C//DTD SVG 1.1//EN"
  "http://www.w3.org/Graphics/SVG/1.1/DTD/svg11.dtd">
<svg xmlns:xlink="http://www.w3.org/1999/xlink" width="432pt" height="288pt" viewBox="0 0 432 288" xmlns="http://www.w3.org/2000/svg" version="1.1">
 <metadata>
  <rdf:RDF xmlns:dc="http://purl.org/dc/elements/1.1/" xmlns:cc="http://creativecommons.org/ns#" xmlns:rdf="http://www.w3.org/1999/02/22-rdf-syntax-ns#">
   <cc:Work>
    <dc:type rdf:resource="http://purl.org/dc/dcmitype/StillImage"/>
    <dc:date>2022-07-19T18:09:49.648669</dc:date>
    <dc:format>image/svg+xml</dc:format>
    <dc:creator>
     <cc:Agent>
      <dc:title>Matplotlib v3.5.1, https://matplotlib.org/</dc:title>
     </cc:Agent>
    </dc:creator>
   </cc:Work>
  </rdf:RDF>
 </metadata>
 <defs>
  <style type="text/css">*{stroke-linejoin: round; stroke-linecap: butt}</style>
 </defs>
 <g id="figure_1">
  <g id="patch_1">
   <path d="M 0 288 
L 432 288 
L 432 0 
L 0 0 
L 0 288 
z
" style="fill: none"/>
  </g>
  <g id="axes_1">
   <g id="patch_2">
    <path d="M 54 252 
L 388.8 252 
L 388.8 34.56 
L 54 34.56 
z
" style="fill: #ffffff"/>
   </g>
   <g id="matplotlib.axis_1">
    <g id="xtick_1">
     <g id="line2d_1">
      <defs>
       <path id="ma159957221" d="M 0 0 
L 0 3.5 
" style="stroke: #000000; stroke-width: 0.8"/>
      </defs>
      <g>
       <use xlink:href="#ma159957221" x="54" y="252" style="stroke: #000000; stroke-width: 0.8"/>
      </g>
     </g>
     <g id="text_1">
      <!-- 0 -->
      <g transform="translate(50.81875 266.598437)scale(0.1 -0.1)">
       <defs>
        <path id="DejaVuSans-30" d="M 2034 4250 
Q 1547 4250 1301 3770 
Q 1056 3291 1056 2328 
Q 1056 1369 1301 889 
Q 1547 409 2034 409 
Q 2525 409 2770 889 
Q 3016 1369 3016 2328 
Q 3016 3291 2770 3770 
Q 2525 4250 2034 4250 
z
M 2034 4750 
Q 2819 4750 3233 4129 
Q 3647 3509 3647 2328 
Q 3647 1150 3233 529 
Q 2819 -91 2034 -91 
Q 1250 -91 836 529 
Q 422 1150 422 2328 
Q 422 3509 836 4129 
Q 1250 4750 2034 4750 
z
" transform="scale(0.015625)"/>
       </defs>
       <use xlink:href="#DejaVuSans-30"/>
      </g>
     </g>
    </g>
    <g id="xtick_2">
     <g id="line2d_2">
      <g>
       <use xlink:href="#ma159957221" x="120.96" y="252" style="stroke: #000000; stroke-width: 0.8"/>
      </g>
     </g>
     <g id="text_2">
      <!-- 20 -->
      <g transform="translate(114.5975 266.598437)scale(0.1 -0.1)">
       <defs>
        <path id="DejaVuSans-32" d="M 1228 531 
L 3431 531 
L 3431 0 
L 469 0 
L 469 531 
Q 828 903 1448 1529 
Q 2069 2156 2228 2338 
Q 2531 2678 2651 2914 
Q 2772 3150 2772 3378 
Q 2772 3750 2511 3984 
Q 2250 4219 1831 4219 
Q 1534 4219 1204 4116 
Q 875 4013 500 3803 
L 500 4441 
Q 881 4594 1212 4672 
Q 1544 4750 1819 4750 
Q 2544 4750 2975 4387 
Q 3406 4025 3406 3419 
Q 3406 3131 3298 2873 
Q 3191 2616 2906 2266 
Q 2828 2175 2409 1742 
Q 1991 1309 1228 531 
z
" transform="scale(0.015625)"/>
       </defs>
       <use xlink:href="#DejaVuSans-32"/>
       <use xlink:href="#DejaVuSans-30" x="63.623047"/>
      </g>
     </g>
    </g>
    <g id="xtick_3">
     <g id="line2d_3">
      <g>
       <use xlink:href="#ma159957221" x="187.92" y="252" style="stroke: #000000; stroke-width: 0.8"/>
      </g>
     </g>
     <g id="text_3">
      <!-- 40 -->
      <g transform="translate(181.5575 266.598437)scale(0.1 -0.1)">
       <defs>
        <path id="DejaVuSans-34" d="M 2419 4116 
L 825 1625 
L 2419 1625 
L 2419 4116 
z
M 2253 4666 
L 3047 4666 
L 3047 1625 
L 3713 1625 
L 3713 1100 
L 3047 1100 
L 3047 0 
L 2419 0 
L 2419 1100 
L 313 1100 
L 313 1709 
L 2253 4666 
z
" transform="scale(0.015625)"/>
       </defs>
       <use xlink:href="#DejaVuSans-34"/>
       <use xlink:href="#DejaVuSans-30" x="63.623047"/>
      </g>
     </g>
    </g>
    <g id="xtick_4">
     <g id="line2d_4">
      <g>
       <use xlink:href="#ma159957221" x="254.88" y="252" style="stroke: #000000; stroke-width: 0.8"/>
      </g>
     </g>
     <g id="text_4">
      <!-- 60 -->
      <g transform="translate(248.5175 266.598437)scale(0.1 -0.1)">
       <defs>
        <path id="DejaVuSans-36" d="M 2113 2584 
Q 1688 2584 1439 2293 
Q 1191 2003 1191 1497 
Q 1191 994 1439 701 
Q 1688 409 2113 409 
Q 2538 409 2786 701 
Q 3034 994 3034 1497 
Q 3034 2003 2786 2293 
Q 2538 2584 2113 2584 
z
M 3366 4563 
L 3366 3988 
Q 3128 4100 2886 4159 
Q 2644 4219 2406 4219 
Q 1781 4219 1451 3797 
Q 1122 3375 1075 2522 
Q 1259 2794 1537 2939 
Q 1816 3084 2150 3084 
Q 2853 3084 3261 2657 
Q 3669 2231 3669 1497 
Q 3669 778 3244 343 
Q 2819 -91 2113 -91 
Q 1303 -91 875 529 
Q 447 1150 447 2328 
Q 447 3434 972 4092 
Q 1497 4750 2381 4750 
Q 2619 4750 2861 4703 
Q 3103 4656 3366 4563 
z
" transform="scale(0.015625)"/>
       </defs>
       <use xlink:href="#DejaVuSans-36"/>
       <use xlink:href="#DejaVuSans-30" x="63.623047"/>
      </g>
     </g>
    </g>
    <g id="xtick_5">
     <g id="line2d_5">
      <g>
       <use xlink:href="#ma159957221" x="321.84" y="252" style="stroke: #000000; stroke-width: 0.8"/>
      </g>
     </g>
     <g id="text_5">
      <!-- 80 -->
      <g transform="translate(315.4775 266.598437)scale(0.1 -0.1)">
       <defs>
        <path id="DejaVuSans-38" d="M 2034 2216 
Q 1584 2216 1326 1975 
Q 1069 1734 1069 1313 
Q 1069 891 1326 650 
Q 1584 409 2034 409 
Q 2484 409 2743 651 
Q 3003 894 3003 1313 
Q 3003 1734 2745 1975 
Q 2488 2216 2034 2216 
z
M 1403 2484 
Q 997 2584 770 2862 
Q 544 3141 544 3541 
Q 544 4100 942 4425 
Q 1341 4750 2034 4750 
Q 2731 4750 3128 4425 
Q 3525 4100 3525 3541 
Q 3525 3141 3298 2862 
Q 3072 2584 2669 2484 
Q 3125 2378 3379 2068 
Q 3634 1759 3634 1313 
Q 3634 634 3220 271 
Q 2806 -91 2034 -91 
Q 1263 -91 848 271 
Q 434 634 434 1313 
Q 434 1759 690 2068 
Q 947 2378 1403 2484 
z
M 1172 3481 
Q 1172 3119 1398 2916 
Q 1625 2713 2034 2713 
Q 2441 2713 2670 2916 
Q 2900 3119 2900 3481 
Q 2900 3844 2670 4047 
Q 2441 4250 2034 4250 
Q 1625 4250 1398 4047 
Q 1172 3844 1172 3481 
z
" transform="scale(0.015625)"/>
       </defs>
       <use xlink:href="#DejaVuSans-38"/>
       <use xlink:href="#DejaVuSans-30" x="63.623047"/>
      </g>
     </g>
    </g>
    <g id="xtick_6">
     <g id="line2d_6">
      <g>
       <use xlink:href="#ma159957221" x="388.8" y="252" style="stroke: #000000; stroke-width: 0.8"/>
      </g>
     </g>
     <g id="text_6">
      <!-- 100 -->
      <g transform="translate(379.25625 266.598437)scale(0.1 -0.1)">
       <defs>
        <path id="DejaVuSans-31" d="M 794 531 
L 1825 531 
L 1825 4091 
L 703 3866 
L 703 4441 
L 1819 4666 
L 2450 4666 
L 2450 531 
L 3481 531 
L 3481 0 
L 794 0 
L 794 531 
z
" transform="scale(0.015625)"/>
       </defs>
       <use xlink:href="#DejaVuSans-31"/>
       <use xlink:href="#DejaVuSans-30" x="63.623047"/>
       <use xlink:href="#DejaVuSans-30" x="127.246094"/>
      </g>
     </g>
    </g>
    <g id="text_7">
     <!-- Days -->
     <g transform="translate(208.921875 280.276563)scale(0.1 -0.1)">
      <defs>
       <path id="DejaVuSans-44" d="M 1259 4147 
L 1259 519 
L 2022 519 
Q 2988 519 3436 956 
Q 3884 1394 3884 2338 
Q 3884 3275 3436 3711 
Q 2988 4147 2022 4147 
L 1259 4147 
z
M 628 4666 
L 1925 4666 
Q 3281 4666 3915 4102 
Q 4550 3538 4550 2338 
Q 4550 1131 3912 565 
Q 3275 0 1925 0 
L 628 0 
L 628 4666 
z
" transform="scale(0.015625)"/>
       <path id="DejaVuSans-61" d="M 2194 1759 
Q 1497 1759 1228 1600 
Q 959 1441 959 1056 
Q 959 750 1161 570 
Q 1363 391 1709 391 
Q 2188 391 2477 730 
Q 2766 1069 2766 1631 
L 2766 1759 
L 2194 1759 
z
M 3341 1997 
L 3341 0 
L 2766 0 
L 2766 531 
Q 2569 213 2275 61 
Q 1981 -91 1556 -91 
Q 1019 -91 701 211 
Q 384 513 384 1019 
Q 384 1609 779 1909 
Q 1175 2209 1959 2209 
L 2766 2209 
L 2766 2266 
Q 2766 2663 2505 2880 
Q 2244 3097 1772 3097 
Q 1472 3097 1187 3025 
Q 903 2953 641 2809 
L 641 3341 
Q 956 3463 1253 3523 
Q 1550 3584 1831 3584 
Q 2591 3584 2966 3190 
Q 3341 2797 3341 1997 
z
" transform="scale(0.015625)"/>
       <path id="DejaVuSans-79" d="M 2059 -325 
Q 1816 -950 1584 -1140 
Q 1353 -1331 966 -1331 
L 506 -1331 
L 506 -850 
L 844 -850 
Q 1081 -850 1212 -737 
Q 1344 -625 1503 -206 
L 1606 56 
L 191 3500 
L 800 3500 
L 1894 763 
L 2988 3500 
L 3597 3500 
L 2059 -325 
z
" transform="scale(0.015625)"/>
       <path id="DejaVuSans-73" d="M 2834 3397 
L 2834 2853 
Q 2591 2978 2328 3040 
Q 2066 3103 1784 3103 
Q 1356 3103 1142 2972 
Q 928 2841 928 2578 
Q 928 2378 1081 2264 
Q 1234 2150 1697 2047 
L 1894 2003 
Q 2506 1872 2764 1633 
Q 3022 1394 3022 966 
Q 3022 478 2636 193 
Q 2250 -91 1575 -91 
Q 1294 -91 989 -36 
Q 684 19 347 128 
L 347 722 
Q 666 556 975 473 
Q 1284 391 1588 391 
Q 1994 391 2212 530 
Q 2431 669 2431 922 
Q 2431 1156 2273 1281 
Q 2116 1406 1581 1522 
L 1381 1569 
Q 847 1681 609 1914 
Q 372 2147 372 2553 
Q 372 3047 722 3315 
Q 1072 3584 1716 3584 
Q 2034 3584 2315 3537 
Q 2597 3491 2834 3397 
z
" transform="scale(0.015625)"/>
      </defs>
      <use xlink:href="#DejaVuSans-44"/>
      <use xlink:href="#DejaVuSans-61" x="77.001953"/>
      <use xlink:href="#DejaVuSans-79" x="138.28125"/>
      <use xlink:href="#DejaVuSans-73" x="197.460938"/>
     </g>
    </g>
   </g>
   <g id="matplotlib.axis_2">
    <g id="ytick_1">
     <g id="line2d_7">
      <defs>
       <path id="md34cf15acc" d="M 0 0 
L -3.5 0 
" style="stroke: #000000; stroke-width: 0.8"/>
      </defs>
      <g>
       <use xlink:href="#md34cf15acc" x="54" y="219.735898" style="stroke: #000000; stroke-width: 0.8"/>
      </g>
     </g>
     <g id="text_8">
      <!-- 1.5 -->
      <g transform="translate(31.096875 223.535117)scale(0.1 -0.1)">
       <defs>
        <path id="DejaVuSans-2e" d="M 684 794 
L 1344 794 
L 1344 0 
L 684 0 
L 684 794 
z
" transform="scale(0.015625)"/>
        <path id="DejaVuSans-35" d="M 691 4666 
L 3169 4666 
L 3169 4134 
L 1269 4134 
L 1269 2991 
Q 1406 3038 1543 3061 
Q 1681 3084 1819 3084 
Q 2600 3084 3056 2656 
Q 3513 2228 3513 1497 
Q 3513 744 3044 326 
Q 2575 -91 1722 -91 
Q 1428 -91 1123 -41 
Q 819 9 494 109 
L 494 744 
Q 775 591 1075 516 
Q 1375 441 1709 441 
Q 2250 441 2565 725 
Q 2881 1009 2881 1497 
Q 2881 1984 2565 2268 
Q 2250 2553 1709 2553 
Q 1456 2553 1204 2497 
Q 953 2441 691 2322 
L 691 4666 
z
" transform="scale(0.015625)"/>
       </defs>
       <use xlink:href="#DejaVuSans-31"/>
       <use xlink:href="#DejaVuSans-2e" x="63.623047"/>
       <use xlink:href="#DejaVuSans-35" x="95.410156"/>
      </g>
     </g>
    </g>
    <g id="ytick_2">
     <g id="line2d_8">
      <g>
       <use xlink:href="#md34cf15acc" x="54" y="181.272672" style="stroke: #000000; stroke-width: 0.8"/>
      </g>
     </g>
     <g id="text_9">
      <!-- 2.0 -->
      <g transform="translate(31.096875 185.07189)scale(0.1 -0.1)">
       <use xlink:href="#DejaVuSans-32"/>
       <use xlink:href="#DejaVuSans-2e" x="63.623047"/>
       <use xlink:href="#DejaVuSans-30" x="95.410156"/>
      </g>
     </g>
    </g>
    <g id="ytick_3">
     <g id="line2d_9">
      <g>
       <use xlink:href="#md34cf15acc" x="54" y="142.809446" style="stroke: #000000; stroke-width: 0.8"/>
      </g>
     </g>
     <g id="text_10">
      <!-- 2.5 -->
      <g transform="translate(31.096875 146.608664)scale(0.1 -0.1)">
       <use xlink:href="#DejaVuSans-32"/>
       <use xlink:href="#DejaVuSans-2e" x="63.623047"/>
       <use xlink:href="#DejaVuSans-35" x="95.410156"/>
      </g>
     </g>
    </g>
    <g id="ytick_4">
     <g id="line2d_10">
      <g>
       <use xlink:href="#md34cf15acc" x="54" y="104.346219" style="stroke: #000000; stroke-width: 0.8"/>
      </g>
     </g>
     <g id="text_11">
      <!-- 3.0 -->
      <g transform="translate(31.096875 108.145438)scale(0.1 -0.1)">
       <defs>
        <path id="DejaVuSans-33" d="M 2597 2516 
Q 3050 2419 3304 2112 
Q 3559 1806 3559 1356 
Q 3559 666 3084 287 
Q 2609 -91 1734 -91 
Q 1441 -91 1130 -33 
Q 819 25 488 141 
L 488 750 
Q 750 597 1062 519 
Q 1375 441 1716 441 
Q 2309 441 2620 675 
Q 2931 909 2931 1356 
Q 2931 1769 2642 2001 
Q 2353 2234 1838 2234 
L 1294 2234 
L 1294 2753 
L 1863 2753 
Q 2328 2753 2575 2939 
Q 2822 3125 2822 3475 
Q 2822 3834 2567 4026 
Q 2313 4219 1838 4219 
Q 1578 4219 1281 4162 
Q 984 4106 628 3988 
L 628 4550 
Q 988 4650 1302 4700 
Q 1616 4750 1894 4750 
Q 2613 4750 3031 4423 
Q 3450 4097 3450 3541 
Q 3450 3153 3228 2886 
Q 3006 2619 2597 2516 
z
" transform="scale(0.015625)"/>
       </defs>
       <use xlink:href="#DejaVuSans-33"/>
       <use xlink:href="#DejaVuSans-2e" x="63.623047"/>
       <use xlink:href="#DejaVuSans-30" x="95.410156"/>
      </g>
     </g>
    </g>
    <g id="ytick_5">
     <g id="line2d_11">
      <g>
       <use xlink:href="#md34cf15acc" x="54" y="65.882993" style="stroke: #000000; stroke-width: 0.8"/>
      </g>
     </g>
     <g id="text_12">
      <!-- 3.5 -->
      <g transform="translate(31.096875 69.682212)scale(0.1 -0.1)">
       <use xlink:href="#DejaVuSans-33"/>
       <use xlink:href="#DejaVuSans-2e" x="63.623047"/>
       <use xlink:href="#DejaVuSans-35" x="95.410156"/>
      </g>
     </g>
    </g>
    <g id="text_13">
     <!-- Cumulative error rate (%) -->
     <g transform="translate(25.017187 207.495625)rotate(-90)scale(0.1 -0.1)">
      <defs>
       <path id="DejaVuSans-43" d="M 4122 4306 
L 4122 3641 
Q 3803 3938 3442 4084 
Q 3081 4231 2675 4231 
Q 1875 4231 1450 3742 
Q 1025 3253 1025 2328 
Q 1025 1406 1450 917 
Q 1875 428 2675 428 
Q 3081 428 3442 575 
Q 3803 722 4122 1019 
L 4122 359 
Q 3791 134 3420 21 
Q 3050 -91 2638 -91 
Q 1578 -91 968 557 
Q 359 1206 359 2328 
Q 359 3453 968 4101 
Q 1578 4750 2638 4750 
Q 3056 4750 3426 4639 
Q 3797 4528 4122 4306 
z
" transform="scale(0.015625)"/>
       <path id="DejaVuSans-75" d="M 544 1381 
L 544 3500 
L 1119 3500 
L 1119 1403 
Q 1119 906 1312 657 
Q 1506 409 1894 409 
Q 2359 409 2629 706 
Q 2900 1003 2900 1516 
L 2900 3500 
L 3475 3500 
L 3475 0 
L 2900 0 
L 2900 538 
Q 2691 219 2414 64 
Q 2138 -91 1772 -91 
Q 1169 -91 856 284 
Q 544 659 544 1381 
z
M 1991 3584 
L 1991 3584 
z
" transform="scale(0.015625)"/>
       <path id="DejaVuSans-6d" d="M 3328 2828 
Q 3544 3216 3844 3400 
Q 4144 3584 4550 3584 
Q 5097 3584 5394 3201 
Q 5691 2819 5691 2113 
L 5691 0 
L 5113 0 
L 5113 2094 
Q 5113 2597 4934 2840 
Q 4756 3084 4391 3084 
Q 3944 3084 3684 2787 
Q 3425 2491 3425 1978 
L 3425 0 
L 2847 0 
L 2847 2094 
Q 2847 2600 2669 2842 
Q 2491 3084 2119 3084 
Q 1678 3084 1418 2786 
Q 1159 2488 1159 1978 
L 1159 0 
L 581 0 
L 581 3500 
L 1159 3500 
L 1159 2956 
Q 1356 3278 1631 3431 
Q 1906 3584 2284 3584 
Q 2666 3584 2933 3390 
Q 3200 3197 3328 2828 
z
" transform="scale(0.015625)"/>
       <path id="DejaVuSans-6c" d="M 603 4863 
L 1178 4863 
L 1178 0 
L 603 0 
L 603 4863 
z
" transform="scale(0.015625)"/>
       <path id="DejaVuSans-74" d="M 1172 4494 
L 1172 3500 
L 2356 3500 
L 2356 3053 
L 1172 3053 
L 1172 1153 
Q 1172 725 1289 603 
Q 1406 481 1766 481 
L 2356 481 
L 2356 0 
L 1766 0 
Q 1100 0 847 248 
Q 594 497 594 1153 
L 594 3053 
L 172 3053 
L 172 3500 
L 594 3500 
L 594 4494 
L 1172 4494 
z
" transform="scale(0.015625)"/>
       <path id="DejaVuSans-69" d="M 603 3500 
L 1178 3500 
L 1178 0 
L 603 0 
L 603 3500 
z
M 603 4863 
L 1178 4863 
L 1178 4134 
L 603 4134 
L 603 4863 
z
" transform="scale(0.015625)"/>
       <path id="DejaVuSans-76" d="M 191 3500 
L 800 3500 
L 1894 563 
L 2988 3500 
L 3597 3500 
L 2284 0 
L 1503 0 
L 191 3500 
z
" transform="scale(0.015625)"/>
       <path id="DejaVuSans-65" d="M 3597 1894 
L 3597 1613 
L 953 1613 
Q 991 1019 1311 708 
Q 1631 397 2203 397 
Q 2534 397 2845 478 
Q 3156 559 3463 722 
L 3463 178 
Q 3153 47 2828 -22 
Q 2503 -91 2169 -91 
Q 1331 -91 842 396 
Q 353 884 353 1716 
Q 353 2575 817 3079 
Q 1281 3584 2069 3584 
Q 2775 3584 3186 3129 
Q 3597 2675 3597 1894 
z
M 3022 2063 
Q 3016 2534 2758 2815 
Q 2500 3097 2075 3097 
Q 1594 3097 1305 2825 
Q 1016 2553 972 2059 
L 3022 2063 
z
" transform="scale(0.015625)"/>
       <path id="DejaVuSans-20" transform="scale(0.015625)"/>
       <path id="DejaVuSans-72" d="M 2631 2963 
Q 2534 3019 2420 3045 
Q 2306 3072 2169 3072 
Q 1681 3072 1420 2755 
Q 1159 2438 1159 1844 
L 1159 0 
L 581 0 
L 581 3500 
L 1159 3500 
L 1159 2956 
Q 1341 3275 1631 3429 
Q 1922 3584 2338 3584 
Q 2397 3584 2469 3576 
Q 2541 3569 2628 3553 
L 2631 2963 
z
" transform="scale(0.015625)"/>
       <path id="DejaVuSans-6f" d="M 1959 3097 
Q 1497 3097 1228 2736 
Q 959 2375 959 1747 
Q 959 1119 1226 758 
Q 1494 397 1959 397 
Q 2419 397 2687 759 
Q 2956 1122 2956 1747 
Q 2956 2369 2687 2733 
Q 2419 3097 1959 3097 
z
M 1959 3584 
Q 2709 3584 3137 3096 
Q 3566 2609 3566 1747 
Q 3566 888 3137 398 
Q 2709 -91 1959 -91 
Q 1206 -91 779 398 
Q 353 888 353 1747 
Q 353 2609 779 3096 
Q 1206 3584 1959 3584 
z
" transform="scale(0.015625)"/>
       <path id="DejaVuSans-28" d="M 1984 4856 
Q 1566 4138 1362 3434 
Q 1159 2731 1159 2009 
Q 1159 1288 1364 580 
Q 1569 -128 1984 -844 
L 1484 -844 
Q 1016 -109 783 600 
Q 550 1309 550 2009 
Q 550 2706 781 3412 
Q 1013 4119 1484 4856 
L 1984 4856 
z
" transform="scale(0.015625)"/>
       <path id="DejaVuSans-25" d="M 4653 2053 
Q 4381 2053 4226 1822 
Q 4072 1591 4072 1178 
Q 4072 772 4226 539 
Q 4381 306 4653 306 
Q 4919 306 5073 539 
Q 5228 772 5228 1178 
Q 5228 1588 5073 1820 
Q 4919 2053 4653 2053 
z
M 4653 2450 
Q 5147 2450 5437 2106 
Q 5728 1763 5728 1178 
Q 5728 594 5436 251 
Q 5144 -91 4653 -91 
Q 4153 -91 3862 251 
Q 3572 594 3572 1178 
Q 3572 1766 3864 2108 
Q 4156 2450 4653 2450 
z
M 1428 4353 
Q 1159 4353 1004 4120 
Q 850 3888 850 3481 
Q 850 3069 1003 2837 
Q 1156 2606 1428 2606 
Q 1700 2606 1854 2837 
Q 2009 3069 2009 3481 
Q 2009 3884 1853 4118 
Q 1697 4353 1428 4353 
z
M 4250 4750 
L 4750 4750 
L 1831 -91 
L 1331 -91 
L 4250 4750 
z
M 1428 4750 
Q 1922 4750 2215 4408 
Q 2509 4066 2509 3481 
Q 2509 2891 2217 2550 
Q 1925 2209 1428 2209 
Q 931 2209 642 2551 
Q 353 2894 353 3481 
Q 353 4063 643 4406 
Q 934 4750 1428 4750 
z
" transform="scale(0.015625)"/>
       <path id="DejaVuSans-29" d="M 513 4856 
L 1013 4856 
Q 1481 4119 1714 3412 
Q 1947 2706 1947 2009 
Q 1947 1309 1714 600 
Q 1481 -109 1013 -844 
L 513 -844 
Q 928 -128 1133 580 
Q 1338 1288 1338 2009 
Q 1338 2731 1133 3434 
Q 928 4138 513 4856 
z
" transform="scale(0.015625)"/>
      </defs>
      <use xlink:href="#DejaVuSans-43"/>
      <use xlink:href="#DejaVuSans-75" x="69.824219"/>
      <use xlink:href="#DejaVuSans-6d" x="133.203125"/>
      <use xlink:href="#DejaVuSans-75" x="230.615234"/>
      <use xlink:href="#DejaVuSans-6c" x="293.994141"/>
      <use xlink:href="#DejaVuSans-61" x="321.777344"/>
      <use xlink:href="#DejaVuSans-74" x="383.056641"/>
      <use xlink:href="#DejaVuSans-69" x="422.265625"/>
      <use xlink:href="#DejaVuSans-76" x="450.048828"/>
      <use xlink:href="#DejaVuSans-65" x="509.228516"/>
      <use xlink:href="#DejaVuSans-20" x="570.751953"/>
      <use xlink:href="#DejaVuSans-65" x="602.539062"/>
      <use xlink:href="#DejaVuSans-72" x="664.0625"/>
      <use xlink:href="#DejaVuSans-72" x="703.425781"/>
      <use xlink:href="#DejaVuSans-6f" x="742.289062"/>
      <use xlink:href="#DejaVuSans-72" x="803.470703"/>
      <use xlink:href="#DejaVuSans-20" x="844.583984"/>
      <use xlink:href="#DejaVuSans-72" x="876.371094"/>
      <use xlink:href="#DejaVuSans-61" x="917.484375"/>
      <use xlink:href="#DejaVuSans-74" x="978.763672"/>
      <use xlink:href="#DejaVuSans-65" x="1017.972656"/>
      <use xlink:href="#DejaVuSans-20" x="1079.496094"/>
      <use xlink:href="#DejaVuSans-28" x="1111.283203"/>
      <use xlink:href="#DejaVuSans-25" x="1150.296875"/>
      <use xlink:href="#DejaVuSans-29" x="1245.316406"/>
     </g>
    </g>
   </g>
   <g id="line2d_12">
    <path d="M 54 123.533415 
L 57.348 135.956578 
L 60.696 146.885839 
L 64.044 156.419609 
L 67.392 164.655998 
L 70.74 171.692188 
L 74.088 177.623872 
L 77.436 182.544751 
L 80.784 186.546098 
L 84.132 189.716362 
L 87.48 192.14084 
L 90.828 193.901388 
L 94.176 195.076183 
L 97.524 195.739529 
L 100.872 195.961699 
L 104.22 195.808822 
L 107.568 195.342803 
L 110.916 194.621275 
L 114.264 193.697586 
L 117.612 192.62081 
L 120.96 191.435788 
L 124.308 190.183193 
L 127.656 188.899612 
L 131.004 187.617656 
L 134.352 186.366082 
L 137.7 185.169931 
L 141.048 184.050687 
L 144.396 183.026437 
L 147.744 182.112049 
L 151.092 181.319361 
L 154.44 180.657368 
L 157.788 180.132424 
L 161.136 179.748441 
L 164.484 179.507094 
L 167.832 179.408031 
L 171.18 179.449071 
L 174.528 179.626417 
L 177.876 179.93485 
L 181.224 180.367933 
L 184.572 180.918203 
L 187.92 181.57736 
L 191.268 182.336445 
L 194.616 183.186019 
L 197.964 184.116328 
L 201.312 185.117456 
L 204.66 186.179479 
L 208.008 187.292599 
L 211.356 188.447271 
L 214.704 189.634318 
L 218.052 190.84504 
L 221.4 192.071301 
L 224.748 193.305613 
L 228.096 194.5412 
L 231.444 195.772061 
L 234.792 196.993006 
L 238.14 198.19969 
L 241.488 199.388633 
L 244.836 200.557222 
L 248.184 201.70371 
L 251.532 202.827194 
L 254.88 203.927587 
L 258.228 205.005581 
L 261.576 206.062589 
L 264.924 207.100692 
L 268.272 208.122561 
L 271.62 209.131384 
L 274.968 210.130773 
L 278.316 211.124671 
L 281.664 212.117252 
L 285.012 213.11281 
L 288.36 214.115652 
L 291.708 215.129977 
L 295.056 216.159763 
L 298.404 217.208646 
L 301.752 218.279798 
L 305.1 219.375812 
L 308.448 220.498588 
L 311.796 221.649215 
L 315.144 222.827874 
L 318.492 224.033732 
L 321.84 225.264853 
L 325.188 226.518123 
L 328.536 227.789179 
L 331.884 229.072353 
L 335.232 230.360641 
L 338.58 231.64568 
L 341.928 232.917745 
L 345.276 234.165779 
L 348.624 235.377433 
L 351.972 236.539142 
L 355.32 237.636224 
L 358.668 238.653017 
L 362.016 239.573039 
L 365.364 240.379195 
L 368.712 241.054016 
L 372.06 241.579938 
L 375.408 241.93963 
L 378.756 242.116364 
L 382.104 242.094436 
L 385.452 241.85964 
L 388.8 241.399796 
L 392.148 240.705336 
L 395.496 239.76995 
L 398.844 238.591301 
L 402.192 237.1718 
L 405.54 235.519461 
L 408.888 233.648822 
L 412.236 231.581945 
L 415.584 229.349505 
L 418.932 226.99195 
L 422.28 224.56076 
L 425.628 222.119792 
L 428.976 219.746727 
L 432.324 217.534604 
L 433 217.142667 
" clip-path="url(#p313e2a75cb)" style="fill: none; stroke: #ff0000; stroke-width: 1.5; stroke-linecap: square"/>
    <defs>
     <path id="mc9b365c1ad" d="M -0 3 
L 3 -3 
L -3 -3 
z
" style="stroke: #ff0000; stroke-linejoin: miter"/>
    </defs>
    <g clip-path="url(#p313e2a75cb)">
     <use xlink:href="#mc9b365c1ad" x="54" y="123.533415" style="fill: #ff0000; stroke: #ff0000; stroke-linejoin: miter"/>
     <use xlink:href="#mc9b365c1ad" x="70.74" y="171.692188" style="fill: #ff0000; stroke: #ff0000; stroke-linejoin: miter"/>
     <use xlink:href="#mc9b365c1ad" x="87.48" y="192.14084" style="fill: #ff0000; stroke: #ff0000; stroke-linejoin: miter"/>
     <use xlink:href="#mc9b365c1ad" x="104.22" y="195.808822" style="fill: #ff0000; stroke: #ff0000; stroke-linejoin: miter"/>
     <use xlink:href="#mc9b365c1ad" x="120.96" y="191.435788" style="fill: #ff0000; stroke: #ff0000; stroke-linejoin: miter"/>
     <use xlink:href="#mc9b365c1ad" x="137.7" y="185.169931" style="fill: #ff0000; stroke: #ff0000; stroke-linejoin: miter"/>
     <use xlink:href="#mc9b365c1ad" x="154.44" y="180.657368" style="fill: #ff0000; stroke: #ff0000; stroke-linejoin: miter"/>
     <use xlink:href="#mc9b365c1ad" x="171.18" y="179.449071" style="fill: #ff0000; stroke: #ff0000; stroke-linejoin: miter"/>
     <use xlink:href="#mc9b365c1ad" x="187.92" y="181.57736" style="fill: #ff0000; stroke: #ff0000; stroke-linejoin: miter"/>
     <use xlink:href="#mc9b365c1ad" x="204.66" y="186.179479" style="fill: #ff0000; stroke: #ff0000; stroke-linejoin: miter"/>
     <use xlink:href="#mc9b365c1ad" x="221.4" y="192.071301" style="fill: #ff0000; stroke: #ff0000; stroke-linejoin: miter"/>
     <use xlink:href="#mc9b365c1ad" x="238.14" y="198.19969" style="fill: #ff0000; stroke: #ff0000; stroke-linejoin: miter"/>
     <use xlink:href="#mc9b365c1ad" x="254.88" y="203.927587" style="fill: #ff0000; stroke: #ff0000; stroke-linejoin: miter"/>
     <use xlink:href="#mc9b365c1ad" x="271.62" y="209.131384" style="fill: #ff0000; stroke: #ff0000; stroke-linejoin: miter"/>
     <use xlink:href="#mc9b365c1ad" x="288.36" y="214.115652" style="fill: #ff0000; stroke: #ff0000; stroke-linejoin: miter"/>
     <use xlink:href="#mc9b365c1ad" x="305.1" y="219.375812" style="fill: #ff0000; stroke: #ff0000; stroke-linejoin: miter"/>
     <use xlink:href="#mc9b365c1ad" x="321.84" y="225.264853" style="fill: #ff0000; stroke: #ff0000; stroke-linejoin: miter"/>
     <use xlink:href="#mc9b365c1ad" x="338.58" y="231.64568" style="fill: #ff0000; stroke: #ff0000; stroke-linejoin: miter"/>
     <use xlink:href="#mc9b365c1ad" x="355.32" y="237.636224" style="fill: #ff0000; stroke: #ff0000; stroke-linejoin: miter"/>
     <use xlink:href="#mc9b365c1ad" x="372.06" y="241.579938" style="fill: #ff0000; stroke: #ff0000; stroke-linejoin: miter"/>
     <use xlink:href="#mc9b365c1ad" x="388.8" y="241.399796" style="fill: #ff0000; stroke: #ff0000; stroke-linejoin: miter"/>
     <use xlink:href="#mc9b365c1ad" x="405.54" y="235.519461" style="fill: #ff0000; stroke: #ff0000; stroke-linejoin: miter"/>
     <use xlink:href="#mc9b365c1ad" x="422.28" y="224.56076" style="fill: #ff0000; stroke: #ff0000; stroke-linejoin: miter"/>
     <use xlink:href="#mc9b365c1ad" x="439.02" y="214.052137" style="fill: #ff0000; stroke: #ff0000; stroke-linejoin: miter"/>
    </g>
   </g>
   <g id="line2d_13">
    <path d="M 54 83.392525 
L 57.348 102.220825 
L 60.696 118.177288 
L 64.044 131.614061 
L 67.392 142.849354 
L 70.74 152.169889 
L 74.088 159.833224 
L 77.436 166.06996 
L 80.784 171.085828 
L 84.132 175.063672 
L 87.48 178.165315 
L 90.828 180.533332 
L 94.176 182.29271 
L 97.524 183.552422 
L 100.872 184.406897 
L 104.22 184.93741 
L 107.568 185.213375 
L 110.916 185.29356 
L 114.264 185.227219 
L 117.612 185.05515 
L 120.96 184.810669 
L 124.308 184.520526 
L 127.656 184.205743 
L 131.004 183.882386 
L 134.352 183.562282 
L 137.7 183.25367 
L 141.048 182.961791 
L 144.396 182.689439 
L 147.744 182.437439 
L 151.092 182.205095 
L 154.44 181.990578 
L 157.788 181.79128 
L 161.136 181.604116 
L 164.484 181.425796 
L 167.832 181.253052 
L 171.18 181.082839 
L 174.528 180.912497 
L 177.876 180.739882 
L 181.224 180.563474 
L 184.572 180.382454 
L 187.92 180.196761 
L 191.268 180.007124 
L 194.616 179.815072 
L 197.964 179.62293 
L 201.312 179.433797 
L 204.66 179.251503 
L 208.008 179.080565 
L 211.356 178.926119 
L 214.704 178.793846 
L 218.052 178.689897 
L 221.4 178.620795 
L 224.748 178.59335 
L 228.096 178.61455 
L 231.444 178.69147 
L 234.792 178.831157 
L 238.14 179.040536 
L 241.488 179.326295 
L 244.836 179.694794 
L 248.184 180.151956 
L 251.532 180.703175 
L 254.88 181.353223 
L 258.228 182.106163 
L 261.576 182.965269 
L 264.924 183.932954 
L 268.272 185.0107 
L 271.62 186.199006 
L 274.968 187.497333 
L 278.316 188.904068 
L 281.664 190.416496 
L 285.012 192.030775 
L 288.36 193.741933 
L 291.708 195.543867 
L 295.056 197.429356 
L 298.404 199.39009 
L 301.752 201.416702 
L 305.1 203.498818 
L 308.448 205.625117 
L 311.796 207.783403 
L 315.144 209.960689 
L 318.492 212.143291 
L 321.84 214.316934 
L 325.188 216.466872 
L 328.536 218.578013 
L 331.884 220.635063 
L 335.232 222.622671 
L 338.58 224.52559 
L 341.928 226.328845 
L 345.276 228.017911 
L 348.624 229.5789 
L 351.972 230.998747 
L 355.32 232.265418 
L 358.668 233.368109 
L 362.016 234.297461 
L 365.364 235.045772 
L 368.712 235.607218 
L 372.06 235.978073 
L 375.408 236.156927 
L 378.756 236.144916 
L 382.104 235.945937 
L 385.452 235.566873 
L 388.8 235.017802 
L 392.148 234.312215 
L 395.496 233.46722 
L 398.844 232.503739 
L 402.192 231.446695 
L 405.54 230.325197 
L 408.888 229.172702 
L 412.236 228.027168 
L 415.584 226.931197 
L 418.932 225.932149 
L 422.28 225.08225 
L 425.628 224.43867 
L 428.976 224.063584 
L 432.324 224.024205 
L 433 224.098627 
" clip-path="url(#p313e2a75cb)" style="fill: none; stroke: #008000; stroke-width: 1.5; stroke-linecap: square"/>
    <defs>
     <path id="m9f651444e3" d="M 0 3 
C 0.795609 3 1.55874 2.683901 2.12132 2.12132 
C 2.683901 1.55874 3 0.795609 3 0 
C 3 -0.795609 2.683901 -1.55874 2.12132 -2.12132 
C 1.55874 -2.683901 0.795609 -3 0 -3 
C -0.795609 -3 -1.55874 -2.683901 -2.12132 -2.12132 
C -2.683901 -1.55874 -3 -0.795609 -3 0 
C -3 0.795609 -2.683901 1.55874 -2.12132 2.12132 
C -1.55874 2.683901 -0.795609 3 0 3 
z
" style="stroke: #008000"/>
    </defs>
    <g clip-path="url(#p313e2a75cb)">
     <use xlink:href="#m9f651444e3" x="54" y="83.392525" style="fill: #008000; stroke: #008000"/>
     <use xlink:href="#m9f651444e3" x="70.74" y="152.169889" style="fill: #008000; stroke: #008000"/>
     <use xlink:href="#m9f651444e3" x="87.48" y="178.165315" style="fill: #008000; stroke: #008000"/>
     <use xlink:href="#m9f651444e3" x="104.22" y="184.93741" style="fill: #008000; stroke: #008000"/>
     <use xlink:href="#m9f651444e3" x="120.96" y="184.810669" style="fill: #008000; stroke: #008000"/>
     <use xlink:href="#m9f651444e3" x="137.7" y="183.25367" style="fill: #008000; stroke: #008000"/>
     <use xlink:href="#m9f651444e3" x="154.44" y="181.990578" style="fill: #008000; stroke: #008000"/>
     <use xlink:href="#m9f651444e3" x="171.18" y="181.082839" style="fill: #008000; stroke: #008000"/>
     <use xlink:href="#m9f651444e3" x="187.92" y="180.196761" style="fill: #008000; stroke: #008000"/>
     <use xlink:href="#m9f651444e3" x="204.66" y="179.251503" style="fill: #008000; stroke: #008000"/>
     <use xlink:href="#m9f651444e3" x="221.4" y="178.620795" style="fill: #008000; stroke: #008000"/>
     <use xlink:href="#m9f651444e3" x="238.14" y="179.040536" style="fill: #008000; stroke: #008000"/>
     <use xlink:href="#m9f651444e3" x="254.88" y="181.353223" style="fill: #008000; stroke: #008000"/>
     <use xlink:href="#m9f651444e3" x="271.62" y="186.199006" style="fill: #008000; stroke: #008000"/>
     <use xlink:href="#m9f651444e3" x="288.36" y="193.741933" style="fill: #008000; stroke: #008000"/>
     <use xlink:href="#m9f651444e3" x="305.1" y="203.498818" style="fill: #008000; stroke: #008000"/>
     <use xlink:href="#m9f651444e3" x="321.84" y="214.316934" style="fill: #008000; stroke: #008000"/>
     <use xlink:href="#m9f651444e3" x="338.58" y="224.52559" style="fill: #008000; stroke: #008000"/>
     <use xlink:href="#m9f651444e3" x="355.32" y="232.265418" style="fill: #008000; stroke: #008000"/>
     <use xlink:href="#m9f651444e3" x="372.06" y="235.978073" style="fill: #008000; stroke: #008000"/>
     <use xlink:href="#m9f651444e3" x="388.8" y="235.017802" style="fill: #008000; stroke: #008000"/>
     <use xlink:href="#m9f651444e3" x="405.54" y="230.325197" style="fill: #008000; stroke: #008000"/>
     <use xlink:href="#m9f651444e3" x="422.28" y="225.08225" style="fill: #008000; stroke: #008000"/>
     <use xlink:href="#m9f651444e3" x="439.02" y="225.246628" style="fill: #008000; stroke: #008000"/>
    </g>
   </g>
   <g id="line2d_14">
    <path d="M 54 61.245436 
L 57.348 85.402602 
L 60.696 105.812839 
L 64.044 122.905987 
L 67.392 137.07491 
L 70.74 148.677845 
L 74.088 158.040636 
L 77.436 165.458888 
L 80.784 171.199999 
L 84.132 175.505118 
L 87.48 178.591001 
L 90.828 180.65177 
L 94.176 181.860605 
L 97.524 182.371329 
L 100.872 182.319928 
L 104.22 181.82598 
L 107.568 180.994019 
L 110.916 179.914809 
L 114.264 178.666564 
L 117.612 177.316078 
L 120.96 175.919811 
L 124.308 174.524886 
L 127.656 173.170043 
L 131.004 171.886521 
L 134.352 170.698883 
L 137.7 169.625794 
L 141.048 168.680729 
L 144.396 167.872646 
L 147.744 167.206596 
L 151.092 166.684296 
L 154.44 166.304646 
L 157.788 166.06421 
L 161.136 165.957651 
L 164.484 165.97813 
L 167.832 166.117664 
L 171.18 166.367445 
L 174.528 166.718132 
L 177.876 167.160105 
L 181.224 167.683689 
L 184.572 168.279351 
L 187.92 168.937862 
L 191.268 169.650449 
L 194.616 170.4089 
L 197.964 171.20567 
L 201.312 172.033946 
L 204.66 172.887707 
L 208.008 173.761753 
L 211.356 174.651728 
L 214.704 175.554122 
L 218.052 176.466259 
L 221.4 177.386273 
L 224.748 178.31307 
L 228.096 179.246288 
L 231.444 180.186237 
L 234.792 181.133836 
L 238.14 182.090544 
L 241.488 183.058287 
L 244.836 184.039374 
L 248.184 185.036415 
L 251.532 186.052234 
L 254.88 187.089784 
L 258.228 188.152055 
L 261.576 189.241985 
L 264.924 190.362378 
L 268.272 191.515814 
L 271.62 192.704568 
L 274.968 193.930531 
L 278.316 195.195136 
L 281.664 196.499287 
L 285.012 197.843295 
L 288.36 199.22682 
L 291.708 200.648821 
L 295.056 202.10751 
L 298.404 203.600317 
L 301.752 205.123863 
L 305.1 206.67394 
L 308.448 208.245501 
L 311.796 209.832661 
L 315.144 211.428709 
L 318.492 213.026123 
L 321.84 214.616604 
L 325.188 216.191119 
L 328.536 217.73995 
L 331.884 219.252761 
L 335.232 220.71867 
L 338.58 222.12634 
L 341.928 223.46407 
L 345.276 224.719913 
L 348.624 225.88179 
L 351.972 226.937626 
L 355.32 227.875495 
L 358.668 228.683771 
L 362.016 229.351301 
L 365.364 229.867578 
L 368.712 230.222929 
L 372.06 230.408717 
L 375.408 230.417551 
L 378.756 230.243501 
L 382.104 229.882332 
L 385.452 229.331739 
L 388.8 228.591595 
L 392.148 227.66421 
L 395.496 226.55459 
L 398.844 225.27071 
L 402.192 223.823793 
L 405.54 222.228595 
L 408.888 220.503692 
L 412.236 218.671777 
L 415.584 216.75996 
L 418.932 214.800072 
L 422.28 212.828966 
L 425.628 210.888832 
L 428.976 209.027501 
L 432.324 207.298758 
L 433 206.988599 
" clip-path="url(#p313e2a75cb)" style="fill: none; stroke-dasharray: 5.55,2.4; stroke-dashoffset: 0; stroke: #bf00bf; stroke-width: 1.5"/>
    <defs>
     <path id="m2666ba748e" d="M 0 -3 
L -3 3 
L 3 3 
z
" style="stroke: #bf00bf; stroke-linejoin: miter"/>
    </defs>
    <g clip-path="url(#p313e2a75cb)">
     <use xlink:href="#m2666ba748e" x="54" y="61.245436" style="fill: #bf00bf; stroke: #bf00bf; stroke-linejoin: miter"/>
     <use xlink:href="#m2666ba748e" x="70.74" y="148.677845" style="fill: #bf00bf; stroke: #bf00bf; stroke-linejoin: miter"/>
     <use xlink:href="#m2666ba748e" x="87.48" y="178.591001" style="fill: #bf00bf; stroke: #bf00bf; stroke-linejoin: miter"/>
     <use xlink:href="#m2666ba748e" x="104.22" y="181.82598" style="fill: #bf00bf; stroke: #bf00bf; stroke-linejoin: miter"/>
     <use xlink:href="#m2666ba748e" x="120.96" y="175.919811" style="fill: #bf00bf; stroke: #bf00bf; stroke-linejoin: miter"/>
     <use xlink:href="#m2666ba748e" x="137.7" y="169.625794" style="fill: #bf00bf; stroke: #bf00bf; stroke-linejoin: miter"/>
     <use xlink:href="#m2666ba748e" x="154.44" y="166.304646" style="fill: #bf00bf; stroke: #bf00bf; stroke-linejoin: miter"/>
     <use xlink:href="#m2666ba748e" x="171.18" y="166.367445" style="fill: #bf00bf; stroke: #bf00bf; stroke-linejoin: miter"/>
     <use xlink:href="#m2666ba748e" x="187.92" y="168.937862" style="fill: #bf00bf; stroke: #bf00bf; stroke-linejoin: miter"/>
     <use xlink:href="#m2666ba748e" x="204.66" y="172.887707" style="fill: #bf00bf; stroke: #bf00bf; stroke-linejoin: miter"/>
     <use xlink:href="#m2666ba748e" x="221.4" y="177.386273" style="fill: #bf00bf; stroke: #bf00bf; stroke-linejoin: miter"/>
     <use xlink:href="#m2666ba748e" x="238.14" y="182.090544" style="fill: #bf00bf; stroke: #bf00bf; stroke-linejoin: miter"/>
     <use xlink:href="#m2666ba748e" x="254.88" y="187.089784" style="fill: #bf00bf; stroke: #bf00bf; stroke-linejoin: miter"/>
     <use xlink:href="#m2666ba748e" x="271.62" y="192.704568" style="fill: #bf00bf; stroke: #bf00bf; stroke-linejoin: miter"/>
     <use xlink:href="#m2666ba748e" x="288.36" y="199.22682" style="fill: #bf00bf; stroke: #bf00bf; stroke-linejoin: miter"/>
     <use xlink:href="#m2666ba748e" x="305.1" y="206.67394" style="fill: #bf00bf; stroke: #bf00bf; stroke-linejoin: miter"/>
     <use xlink:href="#m2666ba748e" x="321.84" y="214.616604" style="fill: #bf00bf; stroke: #bf00bf; stroke-linejoin: miter"/>
     <use xlink:href="#m2666ba748e" x="338.58" y="222.12634" style="fill: #bf00bf; stroke: #bf00bf; stroke-linejoin: miter"/>
     <use xlink:href="#m2666ba748e" x="355.32" y="227.875495" style="fill: #bf00bf; stroke: #bf00bf; stroke-linejoin: miter"/>
     <use xlink:href="#m2666ba748e" x="372.06" y="230.408717" style="fill: #bf00bf; stroke: #bf00bf; stroke-linejoin: miter"/>
     <use xlink:href="#m2666ba748e" x="388.8" y="228.591595" style="fill: #bf00bf; stroke: #bf00bf; stroke-linejoin: miter"/>
     <use xlink:href="#m2666ba748e" x="405.54" y="222.228595" style="fill: #bf00bf; stroke: #bf00bf; stroke-linejoin: miter"/>
     <use xlink:href="#m2666ba748e" x="422.28" y="212.828966" style="fill: #bf00bf; stroke: #bf00bf; stroke-linejoin: miter"/>
     <use xlink:href="#m2666ba748e" x="439.02" y="204.485787" style="fill: #bf00bf; stroke: #bf00bf; stroke-linejoin: miter"/>
    </g>
   </g>
   <g id="line2d_15">
    <path d="M 54 44.443636 
L 57.348 73.550954 
L 60.696 97.720394 
L 64.044 117.611331 
L 67.392 133.814176 
L 70.74 146.855805 
L 74.088 157.2047 
L 77.436 165.275793 
L 80.784 171.435021 
L 84.132 176.003623 
L 87.48 179.262164 
L 90.828 181.454313 
L 94.176 182.790378 
L 97.524 183.45061 
L 100.872 183.588279 
L 104.22 183.332545 
L 107.568 182.791117 
L 110.916 182.052723 
L 114.264 181.189382 
L 117.612 180.258513 
L 120.96 179.304858 
L 124.308 178.362257 
L 127.656 177.455258 
L 131.004 176.600588 
L 134.352 175.808478 
L 137.7 175.083869 
L 141.048 174.427477 
L 144.396 173.83676 
L 147.744 173.306757 
L 151.092 172.830839 
L 154.44 172.401352 
L 157.788 172.010177 
L 161.136 171.649201 
L 164.484 171.310716 
L 167.832 170.987735 
L 171.18 170.674256 
L 174.528 170.365451 
L 177.876 170.057807 
L 181.224 169.749216 
L 184.572 169.439014 
L 187.92 169.127988 
L 191.268 168.818336 
L 194.616 168.513602 
L 197.964 168.218583 
L 201.312 167.939208 
L 204.66 167.682402 
L 208.008 167.45593 
L 211.356 167.268233 
L 214.704 167.128249 
L 218.052 167.045229 
L 221.4 167.028556 
L 224.748 167.087559 
L 228.096 167.231325 
L 231.444 167.468523 
L 234.792 167.807236 
L 238.14 168.254792 
L 241.488 168.817615 
L 244.836 169.50109 
L 248.184 170.309434 
L 251.532 171.245589 
L 254.88 172.311131 
L 258.228 173.506197 
L 261.576 174.829429 
L 264.924 176.277939 
L 268.272 177.847293 
L 271.62 179.53152 
L 274.968 181.323134 
L 278.316 183.213179 
L 281.664 185.1913 
L 285.012 187.245824 
L 288.36 189.36387 
L 291.708 191.531469 
L 295.056 193.733706 
L 298.404 195.954883 
L 301.752 198.178682 
L 305.1 200.388364 
L 308.448 202.566956 
L 311.796 204.697469 
L 315.144 206.763112 
L 318.492 208.747515 
L 321.84 210.634956 
L 325.188 212.410592 
L 328.536 214.060683 
L 331.884 215.572817 
L 335.232 216.936123 
L 338.58 218.141477 
L 341.928 219.181692 
L 345.276 220.051689 
L 348.624 220.748651 
L 351.972 221.272146 
L 355.32 221.624227 
L 358.668 221.809489 
L 362.016 221.835096 
L 365.364 221.710762 
L 368.712 221.448685 
L 372.06 221.063423 
L 375.408 220.571721 
L 378.756 219.992265 
L 382.104 219.345377 
L 385.452 218.652623 
L 388.8 217.936354 
L 392.148 217.219147 
L 395.496 216.523166 
L 398.844 215.86941 
L 402.192 215.276867 
L 405.54 214.761548 
L 408.888 214.335402 
L 412.236 214.005108 
L 415.584 213.770724 
L 418.932 213.624206 
L 422.28 213.547769 
L 425.628 213.512091 
L 428.976 213.474355 
L 432.324 213.376114 
L 433 213.328637 
" clip-path="url(#p313e2a75cb)" style="fill: none; stroke-dasharray: 5.55,2.4; stroke-dashoffset: 0; stroke: #0000ff; stroke-width: 1.5"/>
    <defs>
     <path id="md6fcf786c1" d="M -3 3 
L 3 -3 
M -3 -3 
L 3 3 
" style="stroke: #0000ff"/>
    </defs>
    <g clip-path="url(#p313e2a75cb)">
     <use xlink:href="#md6fcf786c1" x="54" y="44.443636" style="fill: #0000ff; stroke: #0000ff"/>
     <use xlink:href="#md6fcf786c1" x="70.74" y="146.855805" style="fill: #0000ff; stroke: #0000ff"/>
     <use xlink:href="#md6fcf786c1" x="87.48" y="179.262164" style="fill: #0000ff; stroke: #0000ff"/>
     <use xlink:href="#md6fcf786c1" x="104.22" y="183.332545" style="fill: #0000ff; stroke: #0000ff"/>
     <use xlink:href="#md6fcf786c1" x="120.96" y="179.304858" style="fill: #0000ff; stroke: #0000ff"/>
     <use xlink:href="#md6fcf786c1" x="137.7" y="175.083869" style="fill: #0000ff; stroke: #0000ff"/>
     <use xlink:href="#md6fcf786c1" x="154.44" y="172.401352" style="fill: #0000ff; stroke: #0000ff"/>
     <use xlink:href="#md6fcf786c1" x="171.18" y="170.674256" style="fill: #0000ff; stroke: #0000ff"/>
     <use xlink:href="#md6fcf786c1" x="187.92" y="169.127988" style="fill: #0000ff; stroke: #0000ff"/>
     <use xlink:href="#md6fcf786c1" x="204.66" y="167.682402" style="fill: #0000ff; stroke: #0000ff"/>
     <use xlink:href="#md6fcf786c1" x="221.4" y="167.028556" style="fill: #0000ff; stroke: #0000ff"/>
     <use xlink:href="#md6fcf786c1" x="238.14" y="168.254792" style="fill: #0000ff; stroke: #0000ff"/>
     <use xlink:href="#md6fcf786c1" x="254.88" y="172.311131" style="fill: #0000ff; stroke: #0000ff"/>
     <use xlink:href="#md6fcf786c1" x="271.62" y="179.53152" style="fill: #0000ff; stroke: #0000ff"/>
     <use xlink:href="#md6fcf786c1" x="288.36" y="189.36387" style="fill: #0000ff; stroke: #0000ff"/>
     <use xlink:href="#md6fcf786c1" x="305.1" y="200.388364" style="fill: #0000ff; stroke: #0000ff"/>
     <use xlink:href="#md6fcf786c1" x="321.84" y="210.634956" style="fill: #0000ff; stroke: #0000ff"/>
     <use xlink:href="#md6fcf786c1" x="338.58" y="218.141477" style="fill: #0000ff; stroke: #0000ff"/>
     <use xlink:href="#md6fcf786c1" x="355.32" y="221.624227" style="fill: #0000ff; stroke: #0000ff"/>
     <use xlink:href="#md6fcf786c1" x="372.06" y="221.063423" style="fill: #0000ff; stroke: #0000ff"/>
     <use xlink:href="#md6fcf786c1" x="388.8" y="217.936354" style="fill: #0000ff; stroke: #0000ff"/>
     <use xlink:href="#md6fcf786c1" x="405.54" y="214.761548" style="fill: #0000ff; stroke: #0000ff"/>
     <use xlink:href="#md6fcf786c1" x="422.28" y="213.547769" style="fill: #0000ff; stroke: #0000ff"/>
     <use xlink:href="#md6fcf786c1" x="439.02" y="212.672103" style="fill: #0000ff; stroke: #0000ff"/>
    </g>
   </g>
   <g id="patch_3">
    <path d="M 54 252 
L 54 34.56 
" style="fill: none; stroke: #000000; stroke-width: 0.8; stroke-linejoin: miter; stroke-linecap: square"/>
   </g>
   <g id="patch_4">
    <path d="M 388.8 252 
L 388.8 34.56 
" style="fill: none; stroke: #000000; stroke-width: 0.8; stroke-linejoin: miter; stroke-linecap: square"/>
   </g>
   <g id="patch_5">
    <path d="M 54 252 
L 388.8 252 
" style="fill: none; stroke: #000000; stroke-width: 0.8; stroke-linejoin: miter; stroke-linecap: square"/>
   </g>
   <g id="patch_6">
    <path d="M 54 34.56 
L 388.8 34.56 
" style="fill: none; stroke: #000000; stroke-width: 0.8; stroke-linejoin: miter; stroke-linecap: square"/>
   </g>
   <g id="text_14">
    <!-- Experiment 3 (fixed-feature) with batch size 4000 -->
    <g transform="translate(71.7525 28.56)scale(0.12 -0.12)">
     <defs>
      <path id="DejaVuSans-45" d="M 628 4666 
L 3578 4666 
L 3578 4134 
L 1259 4134 
L 1259 2753 
L 3481 2753 
L 3481 2222 
L 1259 2222 
L 1259 531 
L 3634 531 
L 3634 0 
L 628 0 
L 628 4666 
z
" transform="scale(0.015625)"/>
      <path id="DejaVuSans-78" d="M 3513 3500 
L 2247 1797 
L 3578 0 
L 2900 0 
L 1881 1375 
L 863 0 
L 184 0 
L 1544 1831 
L 300 3500 
L 978 3500 
L 1906 2253 
L 2834 3500 
L 3513 3500 
z
" transform="scale(0.015625)"/>
      <path id="DejaVuSans-70" d="M 1159 525 
L 1159 -1331 
L 581 -1331 
L 581 3500 
L 1159 3500 
L 1159 2969 
Q 1341 3281 1617 3432 
Q 1894 3584 2278 3584 
Q 2916 3584 3314 3078 
Q 3713 2572 3713 1747 
Q 3713 922 3314 415 
Q 2916 -91 2278 -91 
Q 1894 -91 1617 61 
Q 1341 213 1159 525 
z
M 3116 1747 
Q 3116 2381 2855 2742 
Q 2594 3103 2138 3103 
Q 1681 3103 1420 2742 
Q 1159 2381 1159 1747 
Q 1159 1113 1420 752 
Q 1681 391 2138 391 
Q 2594 391 2855 752 
Q 3116 1113 3116 1747 
z
" transform="scale(0.015625)"/>
      <path id="DejaVuSans-6e" d="M 3513 2113 
L 3513 0 
L 2938 0 
L 2938 2094 
Q 2938 2591 2744 2837 
Q 2550 3084 2163 3084 
Q 1697 3084 1428 2787 
Q 1159 2491 1159 1978 
L 1159 0 
L 581 0 
L 581 3500 
L 1159 3500 
L 1159 2956 
Q 1366 3272 1645 3428 
Q 1925 3584 2291 3584 
Q 2894 3584 3203 3211 
Q 3513 2838 3513 2113 
z
" transform="scale(0.015625)"/>
      <path id="DejaVuSans-66" d="M 2375 4863 
L 2375 4384 
L 1825 4384 
Q 1516 4384 1395 4259 
Q 1275 4134 1275 3809 
L 1275 3500 
L 2222 3500 
L 2222 3053 
L 1275 3053 
L 1275 0 
L 697 0 
L 697 3053 
L 147 3053 
L 147 3500 
L 697 3500 
L 697 3744 
Q 697 4328 969 4595 
Q 1241 4863 1831 4863 
L 2375 4863 
z
" transform="scale(0.015625)"/>
      <path id="DejaVuSans-64" d="M 2906 2969 
L 2906 4863 
L 3481 4863 
L 3481 0 
L 2906 0 
L 2906 525 
Q 2725 213 2448 61 
Q 2172 -91 1784 -91 
Q 1150 -91 751 415 
Q 353 922 353 1747 
Q 353 2572 751 3078 
Q 1150 3584 1784 3584 
Q 2172 3584 2448 3432 
Q 2725 3281 2906 2969 
z
M 947 1747 
Q 947 1113 1208 752 
Q 1469 391 1925 391 
Q 2381 391 2643 752 
Q 2906 1113 2906 1747 
Q 2906 2381 2643 2742 
Q 2381 3103 1925 3103 
Q 1469 3103 1208 2742 
Q 947 2381 947 1747 
z
" transform="scale(0.015625)"/>
      <path id="DejaVuSans-2d" d="M 313 2009 
L 1997 2009 
L 1997 1497 
L 313 1497 
L 313 2009 
z
" transform="scale(0.015625)"/>
      <path id="DejaVuSans-77" d="M 269 3500 
L 844 3500 
L 1563 769 
L 2278 3500 
L 2956 3500 
L 3675 769 
L 4391 3500 
L 4966 3500 
L 4050 0 
L 3372 0 
L 2619 2869 
L 1863 0 
L 1184 0 
L 269 3500 
z
" transform="scale(0.015625)"/>
      <path id="DejaVuSans-68" d="M 3513 2113 
L 3513 0 
L 2938 0 
L 2938 2094 
Q 2938 2591 2744 2837 
Q 2550 3084 2163 3084 
Q 1697 3084 1428 2787 
Q 1159 2491 1159 1978 
L 1159 0 
L 581 0 
L 581 4863 
L 1159 4863 
L 1159 2956 
Q 1366 3272 1645 3428 
Q 1925 3584 2291 3584 
Q 2894 3584 3203 3211 
Q 3513 2838 3513 2113 
z
" transform="scale(0.015625)"/>
      <path id="DejaVuSans-62" d="M 3116 1747 
Q 3116 2381 2855 2742 
Q 2594 3103 2138 3103 
Q 1681 3103 1420 2742 
Q 1159 2381 1159 1747 
Q 1159 1113 1420 752 
Q 1681 391 2138 391 
Q 2594 391 2855 752 
Q 3116 1113 3116 1747 
z
M 1159 2969 
Q 1341 3281 1617 3432 
Q 1894 3584 2278 3584 
Q 2916 3584 3314 3078 
Q 3713 2572 3713 1747 
Q 3713 922 3314 415 
Q 2916 -91 2278 -91 
Q 1894 -91 1617 61 
Q 1341 213 1159 525 
L 1159 0 
L 581 0 
L 581 4863 
L 1159 4863 
L 1159 2969 
z
" transform="scale(0.015625)"/>
      <path id="DejaVuSans-63" d="M 3122 3366 
L 3122 2828 
Q 2878 2963 2633 3030 
Q 2388 3097 2138 3097 
Q 1578 3097 1268 2742 
Q 959 2388 959 1747 
Q 959 1106 1268 751 
Q 1578 397 2138 397 
Q 2388 397 2633 464 
Q 2878 531 3122 666 
L 3122 134 
Q 2881 22 2623 -34 
Q 2366 -91 2075 -91 
Q 1284 -91 818 406 
Q 353 903 353 1747 
Q 353 2603 823 3093 
Q 1294 3584 2113 3584 
Q 2378 3584 2631 3529 
Q 2884 3475 3122 3366 
z
" transform="scale(0.015625)"/>
      <path id="DejaVuSans-7a" d="M 353 3500 
L 3084 3500 
L 3084 2975 
L 922 459 
L 3084 459 
L 3084 0 
L 275 0 
L 275 525 
L 2438 3041 
L 353 3041 
L 353 3500 
z
" transform="scale(0.015625)"/>
     </defs>
     <use xlink:href="#DejaVuSans-45"/>
     <use xlink:href="#DejaVuSans-78" x="63.183594"/>
     <use xlink:href="#DejaVuSans-70" x="122.363281"/>
     <use xlink:href="#DejaVuSans-65" x="185.839844"/>
     <use xlink:href="#DejaVuSans-72" x="247.363281"/>
     <use xlink:href="#DejaVuSans-69" x="288.476562"/>
     <use xlink:href="#DejaVuSans-6d" x="316.259766"/>
     <use xlink:href="#DejaVuSans-65" x="413.671875"/>
     <use xlink:href="#DejaVuSans-6e" x="475.195312"/>
     <use xlink:href="#DejaVuSans-74" x="538.574219"/>
     <use xlink:href="#DejaVuSans-20" x="577.783203"/>
     <use xlink:href="#DejaVuSans-33" x="609.570312"/>
     <use xlink:href="#DejaVuSans-20" x="673.193359"/>
     <use xlink:href="#DejaVuSans-28" x="704.980469"/>
     <use xlink:href="#DejaVuSans-66" x="743.994141"/>
     <use xlink:href="#DejaVuSans-69" x="779.199219"/>
     <use xlink:href="#DejaVuSans-78" x="806.982422"/>
     <use xlink:href="#DejaVuSans-65" x="863.037109"/>
     <use xlink:href="#DejaVuSans-64" x="924.560547"/>
     <use xlink:href="#DejaVuSans-2d" x="988.037109"/>
     <use xlink:href="#DejaVuSans-66" x="1024.121094"/>
     <use xlink:href="#DejaVuSans-65" x="1059.326172"/>
     <use xlink:href="#DejaVuSans-61" x="1120.849609"/>
     <use xlink:href="#DejaVuSans-74" x="1182.128906"/>
     <use xlink:href="#DejaVuSans-75" x="1221.337891"/>
     <use xlink:href="#DejaVuSans-72" x="1284.716797"/>
     <use xlink:href="#DejaVuSans-65" x="1323.580078"/>
     <use xlink:href="#DejaVuSans-29" x="1385.103516"/>
     <use xlink:href="#DejaVuSans-20" x="1424.117188"/>
     <use xlink:href="#DejaVuSans-77" x="1455.904297"/>
     <use xlink:href="#DejaVuSans-69" x="1537.691406"/>
     <use xlink:href="#DejaVuSans-74" x="1565.474609"/>
     <use xlink:href="#DejaVuSans-68" x="1604.683594"/>
     <use xlink:href="#DejaVuSans-20" x="1668.0625"/>
     <use xlink:href="#DejaVuSans-62" x="1699.849609"/>
     <use xlink:href="#DejaVuSans-61" x="1763.326172"/>
     <use xlink:href="#DejaVuSans-74" x="1824.605469"/>
     <use xlink:href="#DejaVuSans-63" x="1863.814453"/>
     <use xlink:href="#DejaVuSans-68" x="1918.794922"/>
     <use xlink:href="#DejaVuSans-20" x="1982.173828"/>
     <use xlink:href="#DejaVuSans-73" x="2013.960938"/>
     <use xlink:href="#DejaVuSans-69" x="2066.060547"/>
     <use xlink:href="#DejaVuSans-7a" x="2093.84375"/>
     <use xlink:href="#DejaVuSans-65" x="2146.333984"/>
     <use xlink:href="#DejaVuSans-20" x="2207.857422"/>
     <use xlink:href="#DejaVuSans-34" x="2239.644531"/>
     <use xlink:href="#DejaVuSans-30" x="2303.267578"/>
     <use xlink:href="#DejaVuSans-30" x="2366.890625"/>
     <use xlink:href="#DejaVuSans-30" x="2430.513672"/>
    </g>
   </g>
   <g id="legend_1">
    <g id="patch_7">
     <path d="M 277.528125 101.2725 
L 381.8 101.2725 
Q 383.8 101.2725 383.8 99.2725 
L 383.8 41.56 
Q 383.8 39.56 381.8 39.56 
L 277.528125 39.56 
Q 275.528125 39.56 275.528125 41.56 
L 275.528125 99.2725 
Q 275.528125 101.2725 277.528125 101.2725 
z
" style="fill: #ffffff; opacity: 0.8; stroke: #cccccc; stroke-linejoin: miter"/>
    </g>
    <g id="line2d_16">
     <path d="M 279.528125 47.658437 
L 289.528125 47.658437 
L 299.528125 47.658437 
" style="fill: none; stroke: #ff0000; stroke-width: 1.5; stroke-linecap: square"/>
     <g>
      <use xlink:href="#mc9b365c1ad" x="289.528125" y="47.658437" style="fill: #ff0000; stroke: #ff0000; stroke-linejoin: miter"/>
     </g>
    </g>
    <g id="text_15">
     <!-- PA -->
     <g transform="translate(307.528125 51.158437)scale(0.1 -0.1)">
      <defs>
       <path id="DejaVuSans-50" d="M 1259 4147 
L 1259 2394 
L 2053 2394 
Q 2494 2394 2734 2622 
Q 2975 2850 2975 3272 
Q 2975 3691 2734 3919 
Q 2494 4147 2053 4147 
L 1259 4147 
z
M 628 4666 
L 2053 4666 
Q 2838 4666 3239 4311 
Q 3641 3956 3641 3272 
Q 3641 2581 3239 2228 
Q 2838 1875 2053 1875 
L 1259 1875 
L 1259 0 
L 628 0 
L 628 4666 
z
" transform="scale(0.015625)"/>
       <path id="DejaVuSans-41" d="M 2188 4044 
L 1331 1722 
L 3047 1722 
L 2188 4044 
z
M 1831 4666 
L 2547 4666 
L 4325 0 
L 3669 0 
L 3244 1197 
L 1141 1197 
L 716 0 
L 50 0 
L 1831 4666 
z
" transform="scale(0.015625)"/>
      </defs>
      <use xlink:href="#DejaVuSans-50"/>
      <use xlink:href="#DejaVuSans-41" x="53.927734"/>
     </g>
    </g>
    <g id="line2d_17">
     <path d="M 279.528125 62.336562 
L 289.528125 62.336562 
L 299.528125 62.336562 
" style="fill: none; stroke: #008000; stroke-width: 1.5; stroke-linecap: square"/>
     <g>
      <use xlink:href="#m9f651444e3" x="289.528125" y="62.336562" style="fill: #008000; stroke: #008000"/>
     </g>
    </g>
    <g id="text_16">
     <!-- Perceptron -->
     <g transform="translate(307.528125 65.836562)scale(0.1 -0.1)">
      <use xlink:href="#DejaVuSans-50"/>
      <use xlink:href="#DejaVuSans-65" x="56.677734"/>
      <use xlink:href="#DejaVuSans-72" x="118.201172"/>
      <use xlink:href="#DejaVuSans-63" x="157.064453"/>
      <use xlink:href="#DejaVuSans-65" x="212.044922"/>
      <use xlink:href="#DejaVuSans-70" x="273.568359"/>
      <use xlink:href="#DejaVuSans-74" x="337.044922"/>
      <use xlink:href="#DejaVuSans-72" x="376.253906"/>
      <use xlink:href="#DejaVuSans-6f" x="415.117188"/>
      <use xlink:href="#DejaVuSans-6e" x="476.298828"/>
     </g>
    </g>
    <g id="line2d_18">
     <path d="M 279.528125 77.014687 
L 289.528125 77.014687 
L 299.528125 77.014687 
" style="fill: none; stroke-dasharray: 5.55,2.4; stroke-dashoffset: 0; stroke: #bf00bf; stroke-width: 1.5"/>
     <g>
      <use xlink:href="#m2666ba748e" x="289.528125" y="77.014687" style="fill: #bf00bf; stroke: #bf00bf; stroke-linejoin: miter"/>
     </g>
    </g>
    <g id="text_17">
     <!-- PA (fixed) -->
     <g transform="translate(307.528125 80.514687)scale(0.1 -0.1)">
      <use xlink:href="#DejaVuSans-50"/>
      <use xlink:href="#DejaVuSans-41" x="53.927734"/>
      <use xlink:href="#DejaVuSans-20" x="122.335938"/>
      <use xlink:href="#DejaVuSans-28" x="154.123047"/>
      <use xlink:href="#DejaVuSans-66" x="193.136719"/>
      <use xlink:href="#DejaVuSans-69" x="228.341797"/>
      <use xlink:href="#DejaVuSans-78" x="256.125"/>
      <use xlink:href="#DejaVuSans-65" x="312.179688"/>
      <use xlink:href="#DejaVuSans-64" x="373.703125"/>
      <use xlink:href="#DejaVuSans-29" x="437.179688"/>
     </g>
    </g>
    <g id="line2d_19">
     <path d="M 279.528125 91.692813 
L 289.528125 91.692813 
L 299.528125 91.692813 
" style="fill: none; stroke-dasharray: 5.55,2.4; stroke-dashoffset: 0; stroke: #0000ff; stroke-width: 1.5"/>
     <g>
      <use xlink:href="#md6fcf786c1" x="289.528125" y="91.692813" style="fill: #0000ff; stroke: #0000ff"/>
     </g>
    </g>
    <g id="text_18">
     <!-- Percep. (fixed) -->
     <g transform="translate(307.528125 95.192813)scale(0.1 -0.1)">
      <use xlink:href="#DejaVuSans-50"/>
      <use xlink:href="#DejaVuSans-65" x="56.677734"/>
      <use xlink:href="#DejaVuSans-72" x="118.201172"/>
      <use xlink:href="#DejaVuSans-63" x="157.064453"/>
      <use xlink:href="#DejaVuSans-65" x="212.044922"/>
      <use xlink:href="#DejaVuSans-70" x="273.568359"/>
      <use xlink:href="#DejaVuSans-2e" x="337.044922"/>
      <use xlink:href="#DejaVuSans-20" x="368.832031"/>
      <use xlink:href="#DejaVuSans-28" x="400.619141"/>
      <use xlink:href="#DejaVuSans-66" x="439.632812"/>
      <use xlink:href="#DejaVuSans-69" x="474.837891"/>
      <use xlink:href="#DejaVuSans-78" x="502.621094"/>
      <use xlink:href="#DejaVuSans-65" x="558.675781"/>
      <use xlink:href="#DejaVuSans-64" x="620.199219"/>
      <use xlink:href="#DejaVuSans-29" x="683.675781"/>
     </g>
    </g>
   </g>
  </g>
 </g>
 <defs>
  <clipPath id="p313e2a75cb">
   <rect x="54" y="34.56" width="334.8" height="217.44"/>
  </clipPath>
 </defs>
</svg>
