<?xml version="1.0" encoding="utf-8" standalone="no"?>
<!DOCTYPE svg PUBLIC "-//W3C//DTD SVG 1.1//EN"
  "http://www.w3.org/Graphics/SVG/1.1/DTD/svg11.dtd">
<svg xmlns:xlink="http://www.w3.org/1999/xlink" width="432pt" height="288pt" viewBox="0 0 432 288" xmlns="http://www.w3.org/2000/svg" version="1.1">
 <metadata>
  <rdf:RDF xmlns:dc="http://purl.org/dc/elements/1.1/" xmlns:cc="http://creativecommons.org/ns#" xmlns:rdf="http://www.w3.org/1999/02/22-rdf-syntax-ns#">
   <cc:Work>
    <dc:type rdf:resource="http://purl.org/dc/dcmitype/StillImage"/>
    <dc:date>2022-07-20T11:15:47.043954</dc:date>
    <dc:format>image/svg+xml</dc:format>
    <dc:creator>
     <cc:Agent>
      <dc:title>Matplotlib v3.5.1, https://matplotlib.org/</dc:title>
     </cc:Agent>
    </dc:creator>
   </cc:Work>
  </rdf:RDF>
 </metadata>
 <defs>
  <style type="text/css">*{stroke-linejoin: round; stroke-linecap: butt}</style>
 </defs>
 <g id="figure_1">
  <g id="patch_1">
   <path d="M 0 288 
L 432 288 
L 432 0 
L 0 0 
L 0 288 
z
" style="fill: none"/>
  </g>
  <g id="axes_1">
   <g id="patch_2">
    <path d="M 54 252 
L 388.8 252 
L 388.8 34.56 
L 54 34.56 
z
" style="fill: #ffffff"/>
   </g>
   <g id="matplotlib.axis_1">
    <g id="xtick_1">
     <g id="line2d_1">
      <defs>
       <path id="mf080e44a94" d="M 0 0 
L 0 3.5 
" style="stroke: #000000; stroke-width: 0.8"/>
      </defs>
      <g>
       <use xlink:href="#mf080e44a94" x="54" y="252" style="stroke: #000000; stroke-width: 0.8"/>
      </g>
     </g>
     <g id="text_1">
      <!-- 0 -->
      <g transform="translate(50.81875 266.598437)scale(0.1 -0.1)">
       <defs>
        <path id="DejaVuSans-30" d="M 2034 4250 
Q 1547 4250 1301 3770 
Q 1056 3291 1056 2328 
Q 1056 1369 1301 889 
Q 1547 409 2034 409 
Q 2525 409 2770 889 
Q 3016 1369 3016 2328 
Q 3016 3291 2770 3770 
Q 2525 4250 2034 4250 
z
M 2034 4750 
Q 2819 4750 3233 4129 
Q 3647 3509 3647 2328 
Q 3647 1150 3233 529 
Q 2819 -91 2034 -91 
Q 1250 -91 836 529 
Q 422 1150 422 2328 
Q 422 3509 836 4129 
Q 1250 4750 2034 4750 
z
" transform="scale(0.015625)"/>
       </defs>
       <use xlink:href="#DejaVuSans-30"/>
      </g>
     </g>
    </g>
    <g id="xtick_2">
     <g id="line2d_2">
      <g>
       <use xlink:href="#mf080e44a94" x="120.96" y="252" style="stroke: #000000; stroke-width: 0.8"/>
      </g>
     </g>
     <g id="text_2">
      <!-- 20 -->
      <g transform="translate(114.5975 266.598437)scale(0.1 -0.1)">
       <defs>
        <path id="DejaVuSans-32" d="M 1228 531 
L 3431 531 
L 3431 0 
L 469 0 
L 469 531 
Q 828 903 1448 1529 
Q 2069 2156 2228 2338 
Q 2531 2678 2651 2914 
Q 2772 3150 2772 3378 
Q 2772 3750 2511 3984 
Q 2250 4219 1831 4219 
Q 1534 4219 1204 4116 
Q 875 4013 500 3803 
L 500 4441 
Q 881 4594 1212 4672 
Q 1544 4750 1819 4750 
Q 2544 4750 2975 4387 
Q 3406 4025 3406 3419 
Q 3406 3131 3298 2873 
Q 3191 2616 2906 2266 
Q 2828 2175 2409 1742 
Q 1991 1309 1228 531 
z
" transform="scale(0.015625)"/>
       </defs>
       <use xlink:href="#DejaVuSans-32"/>
       <use xlink:href="#DejaVuSans-30" x="63.623047"/>
      </g>
     </g>
    </g>
    <g id="xtick_3">
     <g id="line2d_3">
      <g>
       <use xlink:href="#mf080e44a94" x="187.92" y="252" style="stroke: #000000; stroke-width: 0.8"/>
      </g>
     </g>
     <g id="text_3">
      <!-- 40 -->
      <g transform="translate(181.5575 266.598437)scale(0.1 -0.1)">
       <defs>
        <path id="DejaVuSans-34" d="M 2419 4116 
L 825 1625 
L 2419 1625 
L 2419 4116 
z
M 2253 4666 
L 3047 4666 
L 3047 1625 
L 3713 1625 
L 3713 1100 
L 3047 1100 
L 3047 0 
L 2419 0 
L 2419 1100 
L 313 1100 
L 313 1709 
L 2253 4666 
z
" transform="scale(0.015625)"/>
       </defs>
       <use xlink:href="#DejaVuSans-34"/>
       <use xlink:href="#DejaVuSans-30" x="63.623047"/>
      </g>
     </g>
    </g>
    <g id="xtick_4">
     <g id="line2d_4">
      <g>
       <use xlink:href="#mf080e44a94" x="254.88" y="252" style="stroke: #000000; stroke-width: 0.8"/>
      </g>
     </g>
     <g id="text_4">
      <!-- 60 -->
      <g transform="translate(248.5175 266.598437)scale(0.1 -0.1)">
       <defs>
        <path id="DejaVuSans-36" d="M 2113 2584 
Q 1688 2584 1439 2293 
Q 1191 2003 1191 1497 
Q 1191 994 1439 701 
Q 1688 409 2113 409 
Q 2538 409 2786 701 
Q 3034 994 3034 1497 
Q 3034 2003 2786 2293 
Q 2538 2584 2113 2584 
z
M 3366 4563 
L 3366 3988 
Q 3128 4100 2886 4159 
Q 2644 4219 2406 4219 
Q 1781 4219 1451 3797 
Q 1122 3375 1075 2522 
Q 1259 2794 1537 2939 
Q 1816 3084 2150 3084 
Q 2853 3084 3261 2657 
Q 3669 2231 3669 1497 
Q 3669 778 3244 343 
Q 2819 -91 2113 -91 
Q 1303 -91 875 529 
Q 447 1150 447 2328 
Q 447 3434 972 4092 
Q 1497 4750 2381 4750 
Q 2619 4750 2861 4703 
Q 3103 4656 3366 4563 
z
" transform="scale(0.015625)"/>
       </defs>
       <use xlink:href="#DejaVuSans-36"/>
       <use xlink:href="#DejaVuSans-30" x="63.623047"/>
      </g>
     </g>
    </g>
    <g id="xtick_5">
     <g id="line2d_5">
      <g>
       <use xlink:href="#mf080e44a94" x="321.84" y="252" style="stroke: #000000; stroke-width: 0.8"/>
      </g>
     </g>
     <g id="text_5">
      <!-- 80 -->
      <g transform="translate(315.4775 266.598437)scale(0.1 -0.1)">
       <defs>
        <path id="DejaVuSans-38" d="M 2034 2216 
Q 1584 2216 1326 1975 
Q 1069 1734 1069 1313 
Q 1069 891 1326 650 
Q 1584 409 2034 409 
Q 2484 409 2743 651 
Q 3003 894 3003 1313 
Q 3003 1734 2745 1975 
Q 2488 2216 2034 2216 
z
M 1403 2484 
Q 997 2584 770 2862 
Q 544 3141 544 3541 
Q 544 4100 942 4425 
Q 1341 4750 2034 4750 
Q 2731 4750 3128 4425 
Q 3525 4100 3525 3541 
Q 3525 3141 3298 2862 
Q 3072 2584 2669 2484 
Q 3125 2378 3379 2068 
Q 3634 1759 3634 1313 
Q 3634 634 3220 271 
Q 2806 -91 2034 -91 
Q 1263 -91 848 271 
Q 434 634 434 1313 
Q 434 1759 690 2068 
Q 947 2378 1403 2484 
z
M 1172 3481 
Q 1172 3119 1398 2916 
Q 1625 2713 2034 2713 
Q 2441 2713 2670 2916 
Q 2900 3119 2900 3481 
Q 2900 3844 2670 4047 
Q 2441 4250 2034 4250 
Q 1625 4250 1398 4047 
Q 1172 3844 1172 3481 
z
" transform="scale(0.015625)"/>
       </defs>
       <use xlink:href="#DejaVuSans-38"/>
       <use xlink:href="#DejaVuSans-30" x="63.623047"/>
      </g>
     </g>
    </g>
    <g id="xtick_6">
     <g id="line2d_6">
      <g>
       <use xlink:href="#mf080e44a94" x="388.8" y="252" style="stroke: #000000; stroke-width: 0.8"/>
      </g>
     </g>
     <g id="text_6">
      <!-- 100 -->
      <g transform="translate(379.25625 266.598437)scale(0.1 -0.1)">
       <defs>
        <path id="DejaVuSans-31" d="M 794 531 
L 1825 531 
L 1825 4091 
L 703 3866 
L 703 4441 
L 1819 4666 
L 2450 4666 
L 2450 531 
L 3481 531 
L 3481 0 
L 794 0 
L 794 531 
z
" transform="scale(0.015625)"/>
       </defs>
       <use xlink:href="#DejaVuSans-31"/>
       <use xlink:href="#DejaVuSans-30" x="63.623047"/>
       <use xlink:href="#DejaVuSans-30" x="127.246094"/>
      </g>
     </g>
    </g>
    <g id="text_7">
     <!-- Days -->
     <g transform="translate(208.921875 280.276563)scale(0.1 -0.1)">
      <defs>
       <path id="DejaVuSans-44" d="M 1259 4147 
L 1259 519 
L 2022 519 
Q 2988 519 3436 956 
Q 3884 1394 3884 2338 
Q 3884 3275 3436 3711 
Q 2988 4147 2022 4147 
L 1259 4147 
z
M 628 4666 
L 1925 4666 
Q 3281 4666 3915 4102 
Q 4550 3538 4550 2338 
Q 4550 1131 3912 565 
Q 3275 0 1925 0 
L 628 0 
L 628 4666 
z
" transform="scale(0.015625)"/>
       <path id="DejaVuSans-61" d="M 2194 1759 
Q 1497 1759 1228 1600 
Q 959 1441 959 1056 
Q 959 750 1161 570 
Q 1363 391 1709 391 
Q 2188 391 2477 730 
Q 2766 1069 2766 1631 
L 2766 1759 
L 2194 1759 
z
M 3341 1997 
L 3341 0 
L 2766 0 
L 2766 531 
Q 2569 213 2275 61 
Q 1981 -91 1556 -91 
Q 1019 -91 701 211 
Q 384 513 384 1019 
Q 384 1609 779 1909 
Q 1175 2209 1959 2209 
L 2766 2209 
L 2766 2266 
Q 2766 2663 2505 2880 
Q 2244 3097 1772 3097 
Q 1472 3097 1187 3025 
Q 903 2953 641 2809 
L 641 3341 
Q 956 3463 1253 3523 
Q 1550 3584 1831 3584 
Q 2591 3584 2966 3190 
Q 3341 2797 3341 1997 
z
" transform="scale(0.015625)"/>
       <path id="DejaVuSans-79" d="M 2059 -325 
Q 1816 -950 1584 -1140 
Q 1353 -1331 966 -1331 
L 506 -1331 
L 506 -850 
L 844 -850 
Q 1081 -850 1212 -737 
Q 1344 -625 1503 -206 
L 1606 56 
L 191 3500 
L 800 3500 
L 1894 763 
L 2988 3500 
L 3597 3500 
L 2059 -325 
z
" transform="scale(0.015625)"/>
       <path id="DejaVuSans-73" d="M 2834 3397 
L 2834 2853 
Q 2591 2978 2328 3040 
Q 2066 3103 1784 3103 
Q 1356 3103 1142 2972 
Q 928 2841 928 2578 
Q 928 2378 1081 2264 
Q 1234 2150 1697 2047 
L 1894 2003 
Q 2506 1872 2764 1633 
Q 3022 1394 3022 966 
Q 3022 478 2636 193 
Q 2250 -91 1575 -91 
Q 1294 -91 989 -36 
Q 684 19 347 128 
L 347 722 
Q 666 556 975 473 
Q 1284 391 1588 391 
Q 1994 391 2212 530 
Q 2431 669 2431 922 
Q 2431 1156 2273 1281 
Q 2116 1406 1581 1522 
L 1381 1569 
Q 847 1681 609 1914 
Q 372 2147 372 2553 
Q 372 3047 722 3315 
Q 1072 3584 1716 3584 
Q 2034 3584 2315 3537 
Q 2597 3491 2834 3397 
z
" transform="scale(0.015625)"/>
      </defs>
      <use xlink:href="#DejaVuSans-44"/>
      <use xlink:href="#DejaVuSans-61" x="77.001953"/>
      <use xlink:href="#DejaVuSans-79" x="138.28125"/>
      <use xlink:href="#DejaVuSans-73" x="197.460938"/>
     </g>
    </g>
   </g>
   <g id="matplotlib.axis_2">
    <g id="ytick_1">
     <g id="line2d_7">
      <defs>
       <path id="m5cbc971190" d="M 0 0 
L -3.5 0 
" style="stroke: #000000; stroke-width: 0.8"/>
      </defs>
      <g>
       <use xlink:href="#m5cbc971190" x="54" y="252" style="stroke: #000000; stroke-width: 0.8"/>
      </g>
     </g>
     <g id="text_8">
      <!-- 1.0 -->
      <g transform="translate(31.096875 255.799219)scale(0.1 -0.1)">
       <defs>
        <path id="DejaVuSans-2e" d="M 684 794 
L 1344 794 
L 1344 0 
L 684 0 
L 684 794 
z
" transform="scale(0.015625)"/>
       </defs>
       <use xlink:href="#DejaVuSans-31"/>
       <use xlink:href="#DejaVuSans-2e" x="63.623047"/>
       <use xlink:href="#DejaVuSans-30" x="95.410156"/>
      </g>
     </g>
    </g>
    <g id="ytick_2">
     <g id="line2d_8">
      <g>
       <use xlink:href="#m5cbc971190" x="54" y="215.76" style="stroke: #000000; stroke-width: 0.8"/>
      </g>
     </g>
     <g id="text_9">
      <!-- 1.5 -->
      <g transform="translate(31.096875 219.559219)scale(0.1 -0.1)">
       <defs>
        <path id="DejaVuSans-35" d="M 691 4666 
L 3169 4666 
L 3169 4134 
L 1269 4134 
L 1269 2991 
Q 1406 3038 1543 3061 
Q 1681 3084 1819 3084 
Q 2600 3084 3056 2656 
Q 3513 2228 3513 1497 
Q 3513 744 3044 326 
Q 2575 -91 1722 -91 
Q 1428 -91 1123 -41 
Q 819 9 494 109 
L 494 744 
Q 775 591 1075 516 
Q 1375 441 1709 441 
Q 2250 441 2565 725 
Q 2881 1009 2881 1497 
Q 2881 1984 2565 2268 
Q 2250 2553 1709 2553 
Q 1456 2553 1204 2497 
Q 953 2441 691 2322 
L 691 4666 
z
" transform="scale(0.015625)"/>
       </defs>
       <use xlink:href="#DejaVuSans-31"/>
       <use xlink:href="#DejaVuSans-2e" x="63.623047"/>
       <use xlink:href="#DejaVuSans-35" x="95.410156"/>
      </g>
     </g>
    </g>
    <g id="ytick_3">
     <g id="line2d_9">
      <g>
       <use xlink:href="#m5cbc971190" x="54" y="179.52" style="stroke: #000000; stroke-width: 0.8"/>
      </g>
     </g>
     <g id="text_10">
      <!-- 2.0 -->
      <g transform="translate(31.096875 183.319219)scale(0.1 -0.1)">
       <use xlink:href="#DejaVuSans-32"/>
       <use xlink:href="#DejaVuSans-2e" x="63.623047"/>
       <use xlink:href="#DejaVuSans-30" x="95.410156"/>
      </g>
     </g>
    </g>
    <g id="ytick_4">
     <g id="line2d_10">
      <g>
       <use xlink:href="#m5cbc971190" x="54" y="143.28" style="stroke: #000000; stroke-width: 0.8"/>
      </g>
     </g>
     <g id="text_11">
      <!-- 2.5 -->
      <g transform="translate(31.096875 147.079219)scale(0.1 -0.1)">
       <use xlink:href="#DejaVuSans-32"/>
       <use xlink:href="#DejaVuSans-2e" x="63.623047"/>
       <use xlink:href="#DejaVuSans-35" x="95.410156"/>
      </g>
     </g>
    </g>
    <g id="ytick_5">
     <g id="line2d_11">
      <g>
       <use xlink:href="#m5cbc971190" x="54" y="107.04" style="stroke: #000000; stroke-width: 0.8"/>
      </g>
     </g>
     <g id="text_12">
      <!-- 3.0 -->
      <g transform="translate(31.096875 110.839219)scale(0.1 -0.1)">
       <defs>
        <path id="DejaVuSans-33" d="M 2597 2516 
Q 3050 2419 3304 2112 
Q 3559 1806 3559 1356 
Q 3559 666 3084 287 
Q 2609 -91 1734 -91 
Q 1441 -91 1130 -33 
Q 819 25 488 141 
L 488 750 
Q 750 597 1062 519 
Q 1375 441 1716 441 
Q 2309 441 2620 675 
Q 2931 909 2931 1356 
Q 2931 1769 2642 2001 
Q 2353 2234 1838 2234 
L 1294 2234 
L 1294 2753 
L 1863 2753 
Q 2328 2753 2575 2939 
Q 2822 3125 2822 3475 
Q 2822 3834 2567 4026 
Q 2313 4219 1838 4219 
Q 1578 4219 1281 4162 
Q 984 4106 628 3988 
L 628 4550 
Q 988 4650 1302 4700 
Q 1616 4750 1894 4750 
Q 2613 4750 3031 4423 
Q 3450 4097 3450 3541 
Q 3450 3153 3228 2886 
Q 3006 2619 2597 2516 
z
" transform="scale(0.015625)"/>
       </defs>
       <use xlink:href="#DejaVuSans-33"/>
       <use xlink:href="#DejaVuSans-2e" x="63.623047"/>
       <use xlink:href="#DejaVuSans-30" x="95.410156"/>
      </g>
     </g>
    </g>
    <g id="ytick_6">
     <g id="line2d_12">
      <g>
       <use xlink:href="#m5cbc971190" x="54" y="70.8" style="stroke: #000000; stroke-width: 0.8"/>
      </g>
     </g>
     <g id="text_13">
      <!-- 3.5 -->
      <g transform="translate(31.096875 74.599219)scale(0.1 -0.1)">
       <use xlink:href="#DejaVuSans-33"/>
       <use xlink:href="#DejaVuSans-2e" x="63.623047"/>
       <use xlink:href="#DejaVuSans-35" x="95.410156"/>
      </g>
     </g>
    </g>
    <g id="ytick_7">
     <g id="line2d_13">
      <g>
       <use xlink:href="#m5cbc971190" x="54" y="34.56" style="stroke: #000000; stroke-width: 0.8"/>
      </g>
     </g>
     <g id="text_14">
      <!-- 4.0 -->
      <g transform="translate(31.096875 38.359219)scale(0.1 -0.1)">
       <use xlink:href="#DejaVuSans-34"/>
       <use xlink:href="#DejaVuSans-2e" x="63.623047"/>
       <use xlink:href="#DejaVuSans-30" x="95.410156"/>
      </g>
     </g>
    </g>
    <g id="text_15">
     <!-- Cumulative error rate (%) -->
     <g transform="translate(25.017187 207.495625)rotate(-90)scale(0.1 -0.1)">
      <defs>
       <path id="DejaVuSans-43" d="M 4122 4306 
L 4122 3641 
Q 3803 3938 3442 4084 
Q 3081 4231 2675 4231 
Q 1875 4231 1450 3742 
Q 1025 3253 1025 2328 
Q 1025 1406 1450 917 
Q 1875 428 2675 428 
Q 3081 428 3442 575 
Q 3803 722 4122 1019 
L 4122 359 
Q 3791 134 3420 21 
Q 3050 -91 2638 -91 
Q 1578 -91 968 557 
Q 359 1206 359 2328 
Q 359 3453 968 4101 
Q 1578 4750 2638 4750 
Q 3056 4750 3426 4639 
Q 3797 4528 4122 4306 
z
" transform="scale(0.015625)"/>
       <path id="DejaVuSans-75" d="M 544 1381 
L 544 3500 
L 1119 3500 
L 1119 1403 
Q 1119 906 1312 657 
Q 1506 409 1894 409 
Q 2359 409 2629 706 
Q 2900 1003 2900 1516 
L 2900 3500 
L 3475 3500 
L 3475 0 
L 2900 0 
L 2900 538 
Q 2691 219 2414 64 
Q 2138 -91 1772 -91 
Q 1169 -91 856 284 
Q 544 659 544 1381 
z
M 1991 3584 
L 1991 3584 
z
" transform="scale(0.015625)"/>
       <path id="DejaVuSans-6d" d="M 3328 2828 
Q 3544 3216 3844 3400 
Q 4144 3584 4550 3584 
Q 5097 3584 5394 3201 
Q 5691 2819 5691 2113 
L 5691 0 
L 5113 0 
L 5113 2094 
Q 5113 2597 4934 2840 
Q 4756 3084 4391 3084 
Q 3944 3084 3684 2787 
Q 3425 2491 3425 1978 
L 3425 0 
L 2847 0 
L 2847 2094 
Q 2847 2600 2669 2842 
Q 2491 3084 2119 3084 
Q 1678 3084 1418 2786 
Q 1159 2488 1159 1978 
L 1159 0 
L 581 0 
L 581 3500 
L 1159 3500 
L 1159 2956 
Q 1356 3278 1631 3431 
Q 1906 3584 2284 3584 
Q 2666 3584 2933 3390 
Q 3200 3197 3328 2828 
z
" transform="scale(0.015625)"/>
       <path id="DejaVuSans-6c" d="M 603 4863 
L 1178 4863 
L 1178 0 
L 603 0 
L 603 4863 
z
" transform="scale(0.015625)"/>
       <path id="DejaVuSans-74" d="M 1172 4494 
L 1172 3500 
L 2356 3500 
L 2356 3053 
L 1172 3053 
L 1172 1153 
Q 1172 725 1289 603 
Q 1406 481 1766 481 
L 2356 481 
L 2356 0 
L 1766 0 
Q 1100 0 847 248 
Q 594 497 594 1153 
L 594 3053 
L 172 3053 
L 172 3500 
L 594 3500 
L 594 4494 
L 1172 4494 
z
" transform="scale(0.015625)"/>
       <path id="DejaVuSans-69" d="M 603 3500 
L 1178 3500 
L 1178 0 
L 603 0 
L 603 3500 
z
M 603 4863 
L 1178 4863 
L 1178 4134 
L 603 4134 
L 603 4863 
z
" transform="scale(0.015625)"/>
       <path id="DejaVuSans-76" d="M 191 3500 
L 800 3500 
L 1894 563 
L 2988 3500 
L 3597 3500 
L 2284 0 
L 1503 0 
L 191 3500 
z
" transform="scale(0.015625)"/>
       <path id="DejaVuSans-65" d="M 3597 1894 
L 3597 1613 
L 953 1613 
Q 991 1019 1311 708 
Q 1631 397 2203 397 
Q 2534 397 2845 478 
Q 3156 559 3463 722 
L 3463 178 
Q 3153 47 2828 -22 
Q 2503 -91 2169 -91 
Q 1331 -91 842 396 
Q 353 884 353 1716 
Q 353 2575 817 3079 
Q 1281 3584 2069 3584 
Q 2775 3584 3186 3129 
Q 3597 2675 3597 1894 
z
M 3022 2063 
Q 3016 2534 2758 2815 
Q 2500 3097 2075 3097 
Q 1594 3097 1305 2825 
Q 1016 2553 972 2059 
L 3022 2063 
z
" transform="scale(0.015625)"/>
       <path id="DejaVuSans-20" transform="scale(0.015625)"/>
       <path id="DejaVuSans-72" d="M 2631 2963 
Q 2534 3019 2420 3045 
Q 2306 3072 2169 3072 
Q 1681 3072 1420 2755 
Q 1159 2438 1159 1844 
L 1159 0 
L 581 0 
L 581 3500 
L 1159 3500 
L 1159 2956 
Q 1341 3275 1631 3429 
Q 1922 3584 2338 3584 
Q 2397 3584 2469 3576 
Q 2541 3569 2628 3553 
L 2631 2963 
z
" transform="scale(0.015625)"/>
       <path id="DejaVuSans-6f" d="M 1959 3097 
Q 1497 3097 1228 2736 
Q 959 2375 959 1747 
Q 959 1119 1226 758 
Q 1494 397 1959 397 
Q 2419 397 2687 759 
Q 2956 1122 2956 1747 
Q 2956 2369 2687 2733 
Q 2419 3097 1959 3097 
z
M 1959 3584 
Q 2709 3584 3137 3096 
Q 3566 2609 3566 1747 
Q 3566 888 3137 398 
Q 2709 -91 1959 -91 
Q 1206 -91 779 398 
Q 353 888 353 1747 
Q 353 2609 779 3096 
Q 1206 3584 1959 3584 
z
" transform="scale(0.015625)"/>
       <path id="DejaVuSans-28" d="M 1984 4856 
Q 1566 4138 1362 3434 
Q 1159 2731 1159 2009 
Q 1159 1288 1364 580 
Q 1569 -128 1984 -844 
L 1484 -844 
Q 1016 -109 783 600 
Q 550 1309 550 2009 
Q 550 2706 781 3412 
Q 1013 4119 1484 4856 
L 1984 4856 
z
" transform="scale(0.015625)"/>
       <path id="DejaVuSans-25" d="M 4653 2053 
Q 4381 2053 4226 1822 
Q 4072 1591 4072 1178 
Q 4072 772 4226 539 
Q 4381 306 4653 306 
Q 4919 306 5073 539 
Q 5228 772 5228 1178 
Q 5228 1588 5073 1820 
Q 4919 2053 4653 2053 
z
M 4653 2450 
Q 5147 2450 5437 2106 
Q 5728 1763 5728 1178 
Q 5728 594 5436 251 
Q 5144 -91 4653 -91 
Q 4153 -91 3862 251 
Q 3572 594 3572 1178 
Q 3572 1766 3864 2108 
Q 4156 2450 4653 2450 
z
M 1428 4353 
Q 1159 4353 1004 4120 
Q 850 3888 850 3481 
Q 850 3069 1003 2837 
Q 1156 2606 1428 2606 
Q 1700 2606 1854 2837 
Q 2009 3069 2009 3481 
Q 2009 3884 1853 4118 
Q 1697 4353 1428 4353 
z
M 4250 4750 
L 4750 4750 
L 1831 -91 
L 1331 -91 
L 4250 4750 
z
M 1428 4750 
Q 1922 4750 2215 4408 
Q 2509 4066 2509 3481 
Q 2509 2891 2217 2550 
Q 1925 2209 1428 2209 
Q 931 2209 642 2551 
Q 353 2894 353 3481 
Q 353 4063 643 4406 
Q 934 4750 1428 4750 
z
" transform="scale(0.015625)"/>
       <path id="DejaVuSans-29" d="M 513 4856 
L 1013 4856 
Q 1481 4119 1714 3412 
Q 1947 2706 1947 2009 
Q 1947 1309 1714 600 
Q 1481 -109 1013 -844 
L 513 -844 
Q 928 -128 1133 580 
Q 1338 1288 1338 2009 
Q 1338 2731 1133 3434 
Q 928 4138 513 4856 
z
" transform="scale(0.015625)"/>
      </defs>
      <use xlink:href="#DejaVuSans-43"/>
      <use xlink:href="#DejaVuSans-75" x="69.824219"/>
      <use xlink:href="#DejaVuSans-6d" x="133.203125"/>
      <use xlink:href="#DejaVuSans-75" x="230.615234"/>
      <use xlink:href="#DejaVuSans-6c" x="293.994141"/>
      <use xlink:href="#DejaVuSans-61" x="321.777344"/>
      <use xlink:href="#DejaVuSans-74" x="383.056641"/>
      <use xlink:href="#DejaVuSans-69" x="422.265625"/>
      <use xlink:href="#DejaVuSans-76" x="450.048828"/>
      <use xlink:href="#DejaVuSans-65" x="509.228516"/>
      <use xlink:href="#DejaVuSans-20" x="570.751953"/>
      <use xlink:href="#DejaVuSans-65" x="602.539062"/>
      <use xlink:href="#DejaVuSans-72" x="664.0625"/>
      <use xlink:href="#DejaVuSans-72" x="703.425781"/>
      <use xlink:href="#DejaVuSans-6f" x="742.289062"/>
      <use xlink:href="#DejaVuSans-72" x="803.470703"/>
      <use xlink:href="#DejaVuSans-20" x="844.583984"/>
      <use xlink:href="#DejaVuSans-72" x="876.371094"/>
      <use xlink:href="#DejaVuSans-61" x="917.484375"/>
      <use xlink:href="#DejaVuSans-74" x="978.763672"/>
      <use xlink:href="#DejaVuSans-65" x="1017.972656"/>
      <use xlink:href="#DejaVuSans-20" x="1079.496094"/>
      <use xlink:href="#DejaVuSans-28" x="1111.283203"/>
      <use xlink:href="#DejaVuSans-25" x="1150.296875"/>
      <use xlink:href="#DejaVuSans-29" x="1245.316406"/>
     </g>
    </g>
   </g>
   <g id="line2d_14">
    <path d="M 54 120.331545 
L 57.348 126.541098 
L 60.696 132.580022 
L 64.044 138.298605 
L 67.392 143.582941 
L 70.74 148.35055 
L 74.088 152.546329 
L 77.436 156.138819 
L 80.784 159.116769 
L 84.132 161.485983 
L 87.48 163.266442 
L 90.828 164.489681 
L 94.176 165.196414 
L 97.524 165.434392 
L 100.872 165.256475 
L 104.22 164.71892 
L 107.568 163.879863 
L 110.916 162.797979 
L 114.264 161.531325 
L 117.612 160.13634 
L 120.96 158.667 
L 124.308 157.174107 
L 127.656 155.704722 
L 131.004 154.301707 
L 134.352 153.003388 
L 137.7 151.843317 
L 141.048 150.850127 
L 144.396 150.047478 
L 147.744 149.454072 
L 151.092 149.083746 
L 154.44 148.94562 
L 157.788 149.044301 
L 161.136 149.380136 
L 164.484 149.949499 
L 167.832 150.745123 
L 171.18 151.756444 
L 174.528 152.96998 
L 177.876 154.369717 
L 181.224 155.937512 
L 184.572 157.653491 
L 187.92 159.49646 
L 191.268 161.444304 
L 194.616 163.474378 
L 197.964 165.563888 
L 201.312 167.690258 
L 204.66 169.831472 
L 208.008 171.966399 
L 211.356 174.075091 
L 214.704 176.139054 
L 218.052 178.141489 
L 221.4 180.067505 
L 224.748 181.904294 
L 228.096 183.641271 
L 231.444 185.27019 
L 234.792 186.785209 
L 238.14 188.18293 
L 241.488 189.462396 
L 244.836 190.625057 
L 248.184 191.674696 
L 251.532 192.617324 
L 254.88 193.461038 
L 258.228 194.215846 
L 261.576 194.893468 
L 264.924 195.507098 
L 268.272 196.071151 
L 271.62 196.600972 
L 274.968 197.112538 
L 278.316 197.622133 
L 281.664 198.146011 
L 285.012 198.70005 
L 288.36 199.299394 
L 291.708 199.958096 
L 295.056 200.688766 
L 298.404 201.502219 
L 301.752 202.407139 
L 305.1 203.40976 
L 308.448 204.513573 
L 311.796 205.719053 
L 315.144 207.023436 
L 318.492 208.420525 
L 321.84 209.900554 
L 325.188 211.450104 
L 328.536 213.052084 
L 331.884 214.685784 
L 335.232 216.327012 
L 338.58 217.948308 
L 341.928 219.519271 
L 345.276 221.006977 
L 348.624 222.376523 
L 351.972 223.591688 
L 355.32 224.615738 
L 358.668 225.412364 
L 362.016 225.946786 
L 365.364 226.187017 
L 368.712 226.10531 
L 372.06 225.679782 
L 375.408 224.896254 
L 378.756 223.750287 
L 382.104 222.249455 
L 385.452 220.415851 
L 388.8 218.288834 
L 392.148 215.928053 
L 395.496 213.416735 
L 398.844 210.865273 
L 402.192 208.415106 
L 405.54 206.242926 
L 408.888 204.565217 
L 412.236 203.643133 
L 415.584 203.78775 
L 418.932 205.365688 
L 422.28 208.805129 
L 425.628 214.602246 
L 428.976 223.328054 
" clip-path="url(#p29dabeb0de)" style="fill: none; stroke: #ff0000; stroke-width: 1.5; stroke-linecap: square"/>
    <defs>
     <path id="mdd2a398691" d="M -0 3 
L 3 -3 
L -3 -3 
z
" style="stroke: #ff0000; stroke-linejoin: miter"/>
    </defs>
    <g clip-path="url(#p29dabeb0de)">
     <use xlink:href="#mdd2a398691" x="54" y="120.331545" style="fill: #ff0000; stroke: #ff0000; stroke-linejoin: miter"/>
     <use xlink:href="#mdd2a398691" x="70.74" y="148.35055" style="fill: #ff0000; stroke: #ff0000; stroke-linejoin: miter"/>
     <use xlink:href="#mdd2a398691" x="87.48" y="163.266442" style="fill: #ff0000; stroke: #ff0000; stroke-linejoin: miter"/>
     <use xlink:href="#mdd2a398691" x="104.22" y="164.71892" style="fill: #ff0000; stroke: #ff0000; stroke-linejoin: miter"/>
     <use xlink:href="#mdd2a398691" x="120.96" y="158.667" style="fill: #ff0000; stroke: #ff0000; stroke-linejoin: miter"/>
     <use xlink:href="#mdd2a398691" x="137.7" y="151.843317" style="fill: #ff0000; stroke: #ff0000; stroke-linejoin: miter"/>
     <use xlink:href="#mdd2a398691" x="154.44" y="148.94562" style="fill: #ff0000; stroke: #ff0000; stroke-linejoin: miter"/>
     <use xlink:href="#mdd2a398691" x="171.18" y="151.756444" style="fill: #ff0000; stroke: #ff0000; stroke-linejoin: miter"/>
     <use xlink:href="#mdd2a398691" x="187.92" y="159.49646" style="fill: #ff0000; stroke: #ff0000; stroke-linejoin: miter"/>
     <use xlink:href="#mdd2a398691" x="204.66" y="169.831472" style="fill: #ff0000; stroke: #ff0000; stroke-linejoin: miter"/>
     <use xlink:href="#mdd2a398691" x="221.4" y="180.067505" style="fill: #ff0000; stroke: #ff0000; stroke-linejoin: miter"/>
     <use xlink:href="#mdd2a398691" x="238.14" y="188.18293" style="fill: #ff0000; stroke: #ff0000; stroke-linejoin: miter"/>
     <use xlink:href="#mdd2a398691" x="254.88" y="193.461038" style="fill: #ff0000; stroke: #ff0000; stroke-linejoin: miter"/>
     <use xlink:href="#mdd2a398691" x="271.62" y="196.600972" style="fill: #ff0000; stroke: #ff0000; stroke-linejoin: miter"/>
     <use xlink:href="#mdd2a398691" x="288.36" y="199.299394" style="fill: #ff0000; stroke: #ff0000; stroke-linejoin: miter"/>
     <use xlink:href="#mdd2a398691" x="305.1" y="203.40976" style="fill: #ff0000; stroke: #ff0000; stroke-linejoin: miter"/>
     <use xlink:href="#mdd2a398691" x="321.84" y="209.900554" style="fill: #ff0000; stroke: #ff0000; stroke-linejoin: miter"/>
     <use xlink:href="#mdd2a398691" x="338.58" y="217.948308" style="fill: #ff0000; stroke: #ff0000; stroke-linejoin: miter"/>
     <use xlink:href="#mdd2a398691" x="355.32" y="224.615738" style="fill: #ff0000; stroke: #ff0000; stroke-linejoin: miter"/>
     <use xlink:href="#mdd2a398691" x="372.06" y="225.679782" style="fill: #ff0000; stroke: #ff0000; stroke-linejoin: miter"/>
     <use xlink:href="#mdd2a398691" x="388.8" y="218.288834" style="fill: #ff0000; stroke: #ff0000; stroke-linejoin: miter"/>
     <use xlink:href="#mdd2a398691" x="405.54" y="206.242926" style="fill: #ff0000; stroke: #ff0000; stroke-linejoin: miter"/>
     <use xlink:href="#mdd2a398691" x="422.28" y="208.805129" style="fill: #ff0000; stroke: #ff0000; stroke-linejoin: miter"/>
    </g>
   </g>
   <g id="line2d_15">
    <path d="M 54 130.240917 
L 57.348 128.026113 
L 60.696 127.7709 
L 64.044 128.982534 
L 67.392 131.242857 
L 70.74 134.200781 
L 74.088 137.565287 
L 77.436 141.0989 
L 80.784 144.611632 
L 84.132 147.955357 
L 87.48 151.018621 
L 90.828 153.721846 
L 94.176 156.012925 
L 97.524 157.863181 
L 100.872 159.263673 
L 104.22 160.221839 
L 107.568 160.758452 
L 110.916 160.904864 
L 114.264 160.700551 
L 117.612 160.190901 
L 120.96 159.425273 
L 124.308 158.455272 
L 127.656 157.333264 
L 131.004 156.111078 
L 134.352 154.838915 
L 137.7 153.564425 
L 141.048 152.33196 
L 144.396 151.181971 
L 147.744 150.150551 
L 151.092 149.269103 
L 154.44 148.564129 
L 157.788 148.057125 
L 161.136 147.764566 
L 164.484 147.697985 
L 167.832 147.864121 
L 171.18 148.265132 
L 174.528 148.89887 
L 177.876 149.759201 
L 181.224 150.836364 
L 184.572 152.117364 
L 187.92 153.586383 
L 191.268 155.225221 
L 194.616 157.013731 
L 197.964 158.930274 
L 201.312 160.952157 
L 204.66 163.056077 
L 208.008 165.218544 
L 211.356 167.416289 
L 214.704 169.626652 
L 218.052 171.827942 
L 221.4 173.999768 
L 224.748 176.123342 
L 228.096 178.181742 
L 231.444 180.160138 
L 234.792 182.045982 
L 238.14 183.829153 
L 241.488 185.502067 
L 244.836 187.059734 
L 248.184 188.499779 
L 251.532 189.822422 
L 254.88 191.030403 
L 258.228 192.128884 
L 261.576 193.125293 
L 264.924 194.029135 
L 268.272 194.851775 
L 271.62 195.60617 
L 274.968 196.306582 
L 278.316 196.968257 
L 281.664 197.60708 
L 285.012 198.239211 
L 288.36 198.8807 
L 291.708 199.547096 
L 295.056 200.253045 
L 298.404 201.011888 
L 301.752 201.835266 
L 305.1 202.732735 
L 308.448 203.7114 
L 311.796 204.775571 
L 315.144 205.92646 
L 318.492 207.161909 
L 321.84 208.476175 
L 325.188 209.859772 
L 328.536 211.299376 
L 331.884 212.777809 
L 335.232 214.274116 
L 338.58 215.763728 
L 341.928 217.218745 
L 345.276 218.608326 
L 348.624 219.899221 
L 351.972 221.056439 
L 355.32 222.044071 
L 358.668 222.826285 
L 362.016 223.368502 
L 365.364 223.638755 
L 368.712 223.609278 
L 372.06 223.258295 
L 375.408 222.572062 
L 378.756 221.547157 
L 382.104 220.193034 
L 385.452 218.534871 
L 388.8 216.616706 
L 392.148 214.504902 
L 395.496 212.291938 
L 398.844 210.100555 
L 402.192 208.088275 
L 405.54 206.452301 
L 408.888 205.43483 
L 412.236 205.328786 
L 415.584 206.484009 
L 418.932 209.313895 
L 422.28 214.302533 
L 425.628 222.012345 
L 428.976 233.09225 
" clip-path="url(#p29dabeb0de)" style="fill: none; stroke: #008000; stroke-width: 1.5; stroke-linecap: square"/>
    <defs>
     <path id="m01203e2f6c" d="M 0 3 
C 0.795609 3 1.55874 2.683901 2.12132 2.12132 
C 2.683901 1.55874 3 0.795609 3 0 
C 3 -0.795609 2.683901 -1.55874 2.12132 -2.12132 
C 1.55874 -2.683901 0.795609 -3 0 -3 
C -0.795609 -3 -1.55874 -2.683901 -2.12132 -2.12132 
C -2.683901 -1.55874 -3 -0.795609 -3 0 
C -3 0.795609 -2.683901 1.55874 -2.12132 2.12132 
C -1.55874 2.683901 -0.795609 3 0 3 
z
" style="stroke: #008000"/>
    </defs>
    <g clip-path="url(#p29dabeb0de)">
     <use xlink:href="#m01203e2f6c" x="54" y="130.240917" style="fill: #008000; stroke: #008000"/>
     <use xlink:href="#m01203e2f6c" x="70.74" y="134.200781" style="fill: #008000; stroke: #008000"/>
     <use xlink:href="#m01203e2f6c" x="87.48" y="151.018621" style="fill: #008000; stroke: #008000"/>
     <use xlink:href="#m01203e2f6c" x="104.22" y="160.221839" style="fill: #008000; stroke: #008000"/>
     <use xlink:href="#m01203e2f6c" x="120.96" y="159.425273" style="fill: #008000; stroke: #008000"/>
     <use xlink:href="#m01203e2f6c" x="137.7" y="153.564425" style="fill: #008000; stroke: #008000"/>
     <use xlink:href="#m01203e2f6c" x="154.44" y="148.564129" style="fill: #008000; stroke: #008000"/>
     <use xlink:href="#m01203e2f6c" x="171.18" y="148.265132" style="fill: #008000; stroke: #008000"/>
     <use xlink:href="#m01203e2f6c" x="187.92" y="153.586383" style="fill: #008000; stroke: #008000"/>
     <use xlink:href="#m01203e2f6c" x="204.66" y="163.056077" style="fill: #008000; stroke: #008000"/>
     <use xlink:href="#m01203e2f6c" x="221.4" y="173.999768" style="fill: #008000; stroke: #008000"/>
     <use xlink:href="#m01203e2f6c" x="238.14" y="183.829153" style="fill: #008000; stroke: #008000"/>
     <use xlink:href="#m01203e2f6c" x="254.88" y="191.030403" style="fill: #008000; stroke: #008000"/>
     <use xlink:href="#m01203e2f6c" x="271.62" y="195.60617" style="fill: #008000; stroke: #008000"/>
     <use xlink:href="#m01203e2f6c" x="288.36" y="198.8807" style="fill: #008000; stroke: #008000"/>
     <use xlink:href="#m01203e2f6c" x="305.1" y="202.732735" style="fill: #008000; stroke: #008000"/>
     <use xlink:href="#m01203e2f6c" x="321.84" y="208.476175" style="fill: #008000; stroke: #008000"/>
     <use xlink:href="#m01203e2f6c" x="338.58" y="215.763728" style="fill: #008000; stroke: #008000"/>
     <use xlink:href="#m01203e2f6c" x="355.32" y="222.044071" style="fill: #008000; stroke: #008000"/>
     <use xlink:href="#m01203e2f6c" x="372.06" y="223.258295" style="fill: #008000; stroke: #008000"/>
     <use xlink:href="#m01203e2f6c" x="388.8" y="216.616706" style="fill: #008000; stroke: #008000"/>
     <use xlink:href="#m01203e2f6c" x="405.54" y="206.452301" style="fill: #008000; stroke: #008000"/>
     <use xlink:href="#m01203e2f6c" x="422.28" y="214.302533" style="fill: #008000; stroke: #008000"/>
    </g>
   </g>
   <g id="line2d_16">
    <path d="M 54 156.959215 
L 57.348 161.15432 
L 60.696 164.122888 
L 64.044 166.051276 
L 67.392 167.105877 
L 70.74 167.434648 
L 74.088 167.168555 
L 77.436 166.422947 
L 80.784 165.298851 
L 84.132 163.884205 
L 87.48 162.255013 
L 90.828 160.47644 
L 94.176 158.60384 
L 97.524 156.683723 
L 100.872 154.754662 
L 104.22 152.848138 
L 107.568 150.989337 
L 110.916 149.197885 
L 114.264 147.488535 
L 117.612 145.871804 
L 120.96 144.354563 
L 124.308 142.940573 
L 127.656 141.630992 
L 131.004 140.424819 
L 134.352 139.319318 
L 137.7 138.31039 
L 141.048 137.392908 
L 144.396 136.561028 
L 147.744 135.808449 
L 151.092 135.12866 
L 154.44 134.515138 
L 157.788 133.961535 
L 161.136 133.461822 
L 164.484 133.010419 
L 167.832 132.602295 
L 171.18 132.233051 
L 174.528 131.898972 
L 177.876 131.597072 
L 181.224 131.325113 
L 184.572 131.081606 
L 187.92 130.865806 
L 191.268 130.677684 
L 194.616 130.517888 
L 197.964 130.387698 
L 201.312 130.288967 
L 204.66 130.22405 
L 208.008 130.195735 
L 211.356 130.207157 
L 214.704 130.261716 
L 218.052 130.362985 
L 221.4 130.514617 
L 224.748 130.720251 
L 228.096 130.983418 
L 231.444 131.307443 
L 234.792 131.695355 
L 238.14 132.149795 
L 241.488 132.672926 
L 244.836 133.266351 
L 248.184 133.931038 
L 251.532 134.66724 
L 254.88 135.474436 
L 258.228 136.351272 
L 261.576 137.295509 
L 264.924 138.303984 
L 268.272 139.372583 
L 271.62 140.496217 
L 274.968 141.668818 
L 278.316 142.88334 
L 281.664 144.131777 
L 285.012 145.405195 
L 288.36 146.693772 
L 291.708 147.98686 
L 295.056 149.273057 
L 298.404 150.540295 
L 301.752 151.775946 
L 305.1 152.966941 
L 308.448 154.099913 
L 311.796 155.161346 
L 315.144 156.137749 
L 318.492 157.015852 
L 321.84 157.782806 
L 325.188 158.426416 
L 328.536 158.935387 
L 331.884 159.299585 
L 335.232 159.510324 
L 338.58 159.560669 
L 341.928 159.445758 
L 345.276 159.163145 
L 348.624 158.713162 
L 351.972 158.099299 
L 355.32 157.328609 
L 358.668 156.41213 
L 362.016 155.365319 
L 365.364 154.208523 
L 368.712 152.967452 
L 372.06 151.673685 
L 375.408 150.365184 
L 378.756 149.086839 
L 382.104 147.891022 
L 385.452 146.838167 
L 388.8 145.997363 
L 392.148 145.446973 
L 395.496 145.27526 
L 398.844 145.581046 
L 402.192 146.474372 
L 405.54 148.077187 
L 408.888 150.524052 
" clip-path="url(#p29dabeb0de)" style="fill: none; stroke-dasharray: 5.55,2.4; stroke-dashoffset: 0; stroke: #0000ff; stroke-width: 1.5"/>
    <defs>
     <path id="med2b6ffbe3" d="M -3 3 
L 3 -3 
M -3 -3 
L 3 3 
" style="stroke: #0000ff"/>
    </defs>
    <g clip-path="url(#p29dabeb0de)">
     <use xlink:href="#med2b6ffbe3" x="54" y="156.959215" style="fill: #0000ff; stroke: #0000ff"/>
     <use xlink:href="#med2b6ffbe3" x="70.74" y="167.434648" style="fill: #0000ff; stroke: #0000ff"/>
     <use xlink:href="#med2b6ffbe3" x="87.48" y="162.255013" style="fill: #0000ff; stroke: #0000ff"/>
     <use xlink:href="#med2b6ffbe3" x="104.22" y="152.848138" style="fill: #0000ff; stroke: #0000ff"/>
     <use xlink:href="#med2b6ffbe3" x="120.96" y="144.354563" style="fill: #0000ff; stroke: #0000ff"/>
     <use xlink:href="#med2b6ffbe3" x="137.7" y="138.31039" style="fill: #0000ff; stroke: #0000ff"/>
     <use xlink:href="#med2b6ffbe3" x="154.44" y="134.515138" style="fill: #0000ff; stroke: #0000ff"/>
     <use xlink:href="#med2b6ffbe3" x="171.18" y="132.233051" style="fill: #0000ff; stroke: #0000ff"/>
     <use xlink:href="#med2b6ffbe3" x="187.92" y="130.865806" style="fill: #0000ff; stroke: #0000ff"/>
     <use xlink:href="#med2b6ffbe3" x="204.66" y="130.22405" style="fill: #0000ff; stroke: #0000ff"/>
     <use xlink:href="#med2b6ffbe3" x="221.4" y="130.514617" style="fill: #0000ff; stroke: #0000ff"/>
     <use xlink:href="#med2b6ffbe3" x="238.14" y="132.149795" style="fill: #0000ff; stroke: #0000ff"/>
     <use xlink:href="#med2b6ffbe3" x="254.88" y="135.474436" style="fill: #0000ff; stroke: #0000ff"/>
     <use xlink:href="#med2b6ffbe3" x="271.62" y="140.496217" style="fill: #0000ff; stroke: #0000ff"/>
     <use xlink:href="#med2b6ffbe3" x="288.36" y="146.693772" style="fill: #0000ff; stroke: #0000ff"/>
     <use xlink:href="#med2b6ffbe3" x="305.1" y="152.966941" style="fill: #0000ff; stroke: #0000ff"/>
     <use xlink:href="#med2b6ffbe3" x="321.84" y="157.782806" style="fill: #0000ff; stroke: #0000ff"/>
     <use xlink:href="#med2b6ffbe3" x="338.58" y="159.560669" style="fill: #0000ff; stroke: #0000ff"/>
     <use xlink:href="#med2b6ffbe3" x="355.32" y="157.328609" style="fill: #0000ff; stroke: #0000ff"/>
     <use xlink:href="#med2b6ffbe3" x="372.06" y="151.673685" style="fill: #0000ff; stroke: #0000ff"/>
     <use xlink:href="#med2b6ffbe3" x="388.8" y="145.997363" style="fill: #0000ff; stroke: #0000ff"/>
     <use xlink:href="#med2b6ffbe3" x="405.54" y="148.077187" style="fill: #0000ff; stroke: #0000ff"/>
    </g>
   </g>
   <g id="patch_3">
    <path d="M 54 252 
L 54 34.56 
" style="fill: none; stroke: #000000; stroke-width: 0.8; stroke-linejoin: miter; stroke-linecap: square"/>
   </g>
   <g id="patch_4">
    <path d="M 388.8 252 
L 388.8 34.56 
" style="fill: none; stroke: #000000; stroke-width: 0.8; stroke-linejoin: miter; stroke-linecap: square"/>
   </g>
   <g id="patch_5">
    <path d="M 54 252 
L 388.8 252 
" style="fill: none; stroke: #000000; stroke-width: 0.8; stroke-linejoin: miter; stroke-linecap: square"/>
   </g>
   <g id="patch_6">
    <path d="M 54 34.56 
L 388.8 34.56 
" style="fill: none; stroke: #000000; stroke-width: 0.8; stroke-linejoin: miter; stroke-linecap: square"/>
   </g>
   <g id="text_16">
    <!-- Experiment 2 with batch size 4 -->
    <g transform="translate(128.26125 28.56)scale(0.12 -0.12)">
     <defs>
      <path id="DejaVuSans-45" d="M 628 4666 
L 3578 4666 
L 3578 4134 
L 1259 4134 
L 1259 2753 
L 3481 2753 
L 3481 2222 
L 1259 2222 
L 1259 531 
L 3634 531 
L 3634 0 
L 628 0 
L 628 4666 
z
" transform="scale(0.015625)"/>
      <path id="DejaVuSans-78" d="M 3513 3500 
L 2247 1797 
L 3578 0 
L 2900 0 
L 1881 1375 
L 863 0 
L 184 0 
L 1544 1831 
L 300 3500 
L 978 3500 
L 1906 2253 
L 2834 3500 
L 3513 3500 
z
" transform="scale(0.015625)"/>
      <path id="DejaVuSans-70" d="M 1159 525 
L 1159 -1331 
L 581 -1331 
L 581 3500 
L 1159 3500 
L 1159 2969 
Q 1341 3281 1617 3432 
Q 1894 3584 2278 3584 
Q 2916 3584 3314 3078 
Q 3713 2572 3713 1747 
Q 3713 922 3314 415 
Q 2916 -91 2278 -91 
Q 1894 -91 1617 61 
Q 1341 213 1159 525 
z
M 3116 1747 
Q 3116 2381 2855 2742 
Q 2594 3103 2138 3103 
Q 1681 3103 1420 2742 
Q 1159 2381 1159 1747 
Q 1159 1113 1420 752 
Q 1681 391 2138 391 
Q 2594 391 2855 752 
Q 3116 1113 3116 1747 
z
" transform="scale(0.015625)"/>
      <path id="DejaVuSans-6e" d="M 3513 2113 
L 3513 0 
L 2938 0 
L 2938 2094 
Q 2938 2591 2744 2837 
Q 2550 3084 2163 3084 
Q 1697 3084 1428 2787 
Q 1159 2491 1159 1978 
L 1159 0 
L 581 0 
L 581 3500 
L 1159 3500 
L 1159 2956 
Q 1366 3272 1645 3428 
Q 1925 3584 2291 3584 
Q 2894 3584 3203 3211 
Q 3513 2838 3513 2113 
z
" transform="scale(0.015625)"/>
      <path id="DejaVuSans-77" d="M 269 3500 
L 844 3500 
L 1563 769 
L 2278 3500 
L 2956 3500 
L 3675 769 
L 4391 3500 
L 4966 3500 
L 4050 0 
L 3372 0 
L 2619 2869 
L 1863 0 
L 1184 0 
L 269 3500 
z
" transform="scale(0.015625)"/>
      <path id="DejaVuSans-68" d="M 3513 2113 
L 3513 0 
L 2938 0 
L 2938 2094 
Q 2938 2591 2744 2837 
Q 2550 3084 2163 3084 
Q 1697 3084 1428 2787 
Q 1159 2491 1159 1978 
L 1159 0 
L 581 0 
L 581 4863 
L 1159 4863 
L 1159 2956 
Q 1366 3272 1645 3428 
Q 1925 3584 2291 3584 
Q 2894 3584 3203 3211 
Q 3513 2838 3513 2113 
z
" transform="scale(0.015625)"/>
      <path id="DejaVuSans-62" d="M 3116 1747 
Q 3116 2381 2855 2742 
Q 2594 3103 2138 3103 
Q 1681 3103 1420 2742 
Q 1159 2381 1159 1747 
Q 1159 1113 1420 752 
Q 1681 391 2138 391 
Q 2594 391 2855 752 
Q 3116 1113 3116 1747 
z
M 1159 2969 
Q 1341 3281 1617 3432 
Q 1894 3584 2278 3584 
Q 2916 3584 3314 3078 
Q 3713 2572 3713 1747 
Q 3713 922 3314 415 
Q 2916 -91 2278 -91 
Q 1894 -91 1617 61 
Q 1341 213 1159 525 
L 1159 0 
L 581 0 
L 581 4863 
L 1159 4863 
L 1159 2969 
z
" transform="scale(0.015625)"/>
      <path id="DejaVuSans-63" d="M 3122 3366 
L 3122 2828 
Q 2878 2963 2633 3030 
Q 2388 3097 2138 3097 
Q 1578 3097 1268 2742 
Q 959 2388 959 1747 
Q 959 1106 1268 751 
Q 1578 397 2138 397 
Q 2388 397 2633 464 
Q 2878 531 3122 666 
L 3122 134 
Q 2881 22 2623 -34 
Q 2366 -91 2075 -91 
Q 1284 -91 818 406 
Q 353 903 353 1747 
Q 353 2603 823 3093 
Q 1294 3584 2113 3584 
Q 2378 3584 2631 3529 
Q 2884 3475 3122 3366 
z
" transform="scale(0.015625)"/>
      <path id="DejaVuSans-7a" d="M 353 3500 
L 3084 3500 
L 3084 2975 
L 922 459 
L 3084 459 
L 3084 0 
L 275 0 
L 275 525 
L 2438 3041 
L 353 3041 
L 353 3500 
z
" transform="scale(0.015625)"/>
     </defs>
     <use xlink:href="#DejaVuSans-45"/>
     <use xlink:href="#DejaVuSans-78" x="63.183594"/>
     <use xlink:href="#DejaVuSans-70" x="122.363281"/>
     <use xlink:href="#DejaVuSans-65" x="185.839844"/>
     <use xlink:href="#DejaVuSans-72" x="247.363281"/>
     <use xlink:href="#DejaVuSans-69" x="288.476562"/>
     <use xlink:href="#DejaVuSans-6d" x="316.259766"/>
     <use xlink:href="#DejaVuSans-65" x="413.671875"/>
     <use xlink:href="#DejaVuSans-6e" x="475.195312"/>
     <use xlink:href="#DejaVuSans-74" x="538.574219"/>
     <use xlink:href="#DejaVuSans-20" x="577.783203"/>
     <use xlink:href="#DejaVuSans-32" x="609.570312"/>
     <use xlink:href="#DejaVuSans-20" x="673.193359"/>
     <use xlink:href="#DejaVuSans-77" x="704.980469"/>
     <use xlink:href="#DejaVuSans-69" x="786.767578"/>
     <use xlink:href="#DejaVuSans-74" x="814.550781"/>
     <use xlink:href="#DejaVuSans-68" x="853.759766"/>
     <use xlink:href="#DejaVuSans-20" x="917.138672"/>
     <use xlink:href="#DejaVuSans-62" x="948.925781"/>
     <use xlink:href="#DejaVuSans-61" x="1012.402344"/>
     <use xlink:href="#DejaVuSans-74" x="1073.681641"/>
     <use xlink:href="#DejaVuSans-63" x="1112.890625"/>
     <use xlink:href="#DejaVuSans-68" x="1167.871094"/>
     <use xlink:href="#DejaVuSans-20" x="1231.25"/>
     <use xlink:href="#DejaVuSans-73" x="1263.037109"/>
     <use xlink:href="#DejaVuSans-69" x="1315.136719"/>
     <use xlink:href="#DejaVuSans-7a" x="1342.919922"/>
     <use xlink:href="#DejaVuSans-65" x="1395.410156"/>
     <use xlink:href="#DejaVuSans-20" x="1456.933594"/>
     <use xlink:href="#DejaVuSans-34" x="1488.720703"/>
    </g>
   </g>
   <g id="legend_1">
    <g id="patch_7">
     <path d="M 295.83125 86.594375 
L 381.8 86.594375 
Q 383.8 86.594375 383.8 84.594375 
L 383.8 41.56 
Q 383.8 39.56 381.8 39.56 
L 295.83125 39.56 
Q 293.83125 39.56 293.83125 41.56 
L 293.83125 84.594375 
Q 293.83125 86.594375 295.83125 86.594375 
z
" style="fill: #ffffff; opacity: 0.8; stroke: #cccccc; stroke-linejoin: miter"/>
    </g>
    <g id="line2d_17">
     <path d="M 297.83125 47.658438 
L 307.83125 47.658438 
L 317.83125 47.658438 
" style="fill: none; stroke: #ff0000; stroke-width: 1.5; stroke-linecap: square"/>
     <g>
      <use xlink:href="#mdd2a398691" x="307.83125" y="47.658438" style="fill: #ff0000; stroke: #ff0000; stroke-linejoin: miter"/>
     </g>
    </g>
    <g id="text_17">
     <!-- PA -->
     <g transform="translate(325.83125 51.158438)scale(0.1 -0.1)">
      <defs>
       <path id="DejaVuSans-50" d="M 1259 4147 
L 1259 2394 
L 2053 2394 
Q 2494 2394 2734 2622 
Q 2975 2850 2975 3272 
Q 2975 3691 2734 3919 
Q 2494 4147 2053 4147 
L 1259 4147 
z
M 628 4666 
L 2053 4666 
Q 2838 4666 3239 4311 
Q 3641 3956 3641 3272 
Q 3641 2581 3239 2228 
Q 2838 1875 2053 1875 
L 1259 1875 
L 1259 0 
L 628 0 
L 628 4666 
z
" transform="scale(0.015625)"/>
       <path id="DejaVuSans-41" d="M 2188 4044 
L 1331 1722 
L 3047 1722 
L 2188 4044 
z
M 1831 4666 
L 2547 4666 
L 4325 0 
L 3669 0 
L 3244 1197 
L 1141 1197 
L 716 0 
L 50 0 
L 1831 4666 
z
" transform="scale(0.015625)"/>
      </defs>
      <use xlink:href="#DejaVuSans-50"/>
      <use xlink:href="#DejaVuSans-41" x="53.927734"/>
     </g>
    </g>
    <g id="line2d_18">
     <path d="M 297.83125 62.336563 
L 307.83125 62.336563 
L 317.83125 62.336563 
" style="fill: none; stroke: #008000; stroke-width: 1.5; stroke-linecap: square"/>
     <g>
      <use xlink:href="#m01203e2f6c" x="307.83125" y="62.336563" style="fill: #008000; stroke: #008000"/>
     </g>
    </g>
    <g id="text_18">
     <!-- Perceptron -->
     <g transform="translate(325.83125 65.836563)scale(0.1 -0.1)">
      <use xlink:href="#DejaVuSans-50"/>
      <use xlink:href="#DejaVuSans-65" x="56.677734"/>
      <use xlink:href="#DejaVuSans-72" x="118.201172"/>
      <use xlink:href="#DejaVuSans-63" x="157.064453"/>
      <use xlink:href="#DejaVuSans-65" x="212.044922"/>
      <use xlink:href="#DejaVuSans-70" x="273.568359"/>
      <use xlink:href="#DejaVuSans-74" x="337.044922"/>
      <use xlink:href="#DejaVuSans-72" x="376.253906"/>
      <use xlink:href="#DejaVuSans-6f" x="415.117188"/>
      <use xlink:href="#DejaVuSans-6e" x="476.298828"/>
     </g>
    </g>
    <g id="line2d_19">
     <path d="M 297.83125 77.014688 
L 307.83125 77.014688 
L 317.83125 77.014688 
" style="fill: none; stroke-dasharray: 5.55,2.4; stroke-dashoffset: 0; stroke: #0000ff; stroke-width: 1.5"/>
     <g>
      <use xlink:href="#med2b6ffbe3" x="307.83125" y="77.014688" style="fill: #0000ff; stroke: #0000ff"/>
     </g>
    </g>
    <g id="text_19">
     <!-- LRsgd -->
     <g transform="translate(325.83125 80.514688)scale(0.1 -0.1)">
      <defs>
       <path id="DejaVuSans-4c" d="M 628 4666 
L 1259 4666 
L 1259 531 
L 3531 531 
L 3531 0 
L 628 0 
L 628 4666 
z
" transform="scale(0.015625)"/>
       <path id="DejaVuSans-52" d="M 2841 2188 
Q 3044 2119 3236 1894 
Q 3428 1669 3622 1275 
L 4263 0 
L 3584 0 
L 2988 1197 
Q 2756 1666 2539 1819 
Q 2322 1972 1947 1972 
L 1259 1972 
L 1259 0 
L 628 0 
L 628 4666 
L 2053 4666 
Q 2853 4666 3247 4331 
Q 3641 3997 3641 3322 
Q 3641 2881 3436 2590 
Q 3231 2300 2841 2188 
z
M 1259 4147 
L 1259 2491 
L 2053 2491 
Q 2509 2491 2742 2702 
Q 2975 2913 2975 3322 
Q 2975 3731 2742 3939 
Q 2509 4147 2053 4147 
L 1259 4147 
z
" transform="scale(0.015625)"/>
       <path id="DejaVuSans-67" d="M 2906 1791 
Q 2906 2416 2648 2759 
Q 2391 3103 1925 3103 
Q 1463 3103 1205 2759 
Q 947 2416 947 1791 
Q 947 1169 1205 825 
Q 1463 481 1925 481 
Q 2391 481 2648 825 
Q 2906 1169 2906 1791 
z
M 3481 434 
Q 3481 -459 3084 -895 
Q 2688 -1331 1869 -1331 
Q 1566 -1331 1297 -1286 
Q 1028 -1241 775 -1147 
L 775 -588 
Q 1028 -725 1275 -790 
Q 1522 -856 1778 -856 
Q 2344 -856 2625 -561 
Q 2906 -266 2906 331 
L 2906 616 
Q 2728 306 2450 153 
Q 2172 0 1784 0 
Q 1141 0 747 490 
Q 353 981 353 1791 
Q 353 2603 747 3093 
Q 1141 3584 1784 3584 
Q 2172 3584 2450 3431 
Q 2728 3278 2906 2969 
L 2906 3500 
L 3481 3500 
L 3481 434 
z
" transform="scale(0.015625)"/>
       <path id="DejaVuSans-64" d="M 2906 2969 
L 2906 4863 
L 3481 4863 
L 3481 0 
L 2906 0 
L 2906 525 
Q 2725 213 2448 61 
Q 2172 -91 1784 -91 
Q 1150 -91 751 415 
Q 353 922 353 1747 
Q 353 2572 751 3078 
Q 1150 3584 1784 3584 
Q 2172 3584 2448 3432 
Q 2725 3281 2906 2969 
z
M 947 1747 
Q 947 1113 1208 752 
Q 1469 391 1925 391 
Q 2381 391 2643 752 
Q 2906 1113 2906 1747 
Q 2906 2381 2643 2742 
Q 2381 3103 1925 3103 
Q 1469 3103 1208 2742 
Q 947 2381 947 1747 
z
" transform="scale(0.015625)"/>
      </defs>
      <use xlink:href="#DejaVuSans-4c"/>
      <use xlink:href="#DejaVuSans-52" x="55.712891"/>
      <use xlink:href="#DejaVuSans-73" x="125.195312"/>
      <use xlink:href="#DejaVuSans-67" x="177.294922"/>
      <use xlink:href="#DejaVuSans-64" x="240.771484"/>
     </g>
    </g>
   </g>
  </g>
 </g>
 <defs>
  <clipPath id="p29dabeb0de">
   <rect x="54" y="34.56" width="334.8" height="217.44"/>
  </clipPath>
 </defs>
</svg>
