<?xml version="1.0" encoding="utf-8" standalone="no"?>
<!DOCTYPE svg PUBLIC "-//W3C//DTD SVG 1.1//EN"
  "http://www.w3.org/Graphics/SVG/1.1/DTD/svg11.dtd">
<svg xmlns:xlink="http://www.w3.org/1999/xlink" width="432pt" height="288pt" viewBox="0 0 432 288" xmlns="http://www.w3.org/2000/svg" version="1.1">
 <metadata>
  <rdf:RDF xmlns:dc="http://purl.org/dc/elements/1.1/" xmlns:cc="http://creativecommons.org/ns#" xmlns:rdf="http://www.w3.org/1999/02/22-rdf-syntax-ns#">
   <cc:Work>
    <dc:type rdf:resource="http://purl.org/dc/dcmitype/StillImage"/>
    <dc:date>2022-07-19T17:55:35.213437</dc:date>
    <dc:format>image/svg+xml</dc:format>
    <dc:creator>
     <cc:Agent>
      <dc:title>Matplotlib v3.5.1, https://matplotlib.org/</dc:title>
     </cc:Agent>
    </dc:creator>
   </cc:Work>
  </rdf:RDF>
 </metadata>
 <defs>
  <style type="text/css">*{stroke-linejoin: round; stroke-linecap: butt}</style>
 </defs>
 <g id="figure_1">
  <g id="patch_1">
   <path d="M 0 288 
L 432 288 
L 432 0 
L 0 0 
L 0 288 
z
" style="fill: none"/>
  </g>
  <g id="axes_1">
   <g id="patch_2">
    <path d="M 54 252 
L 388.8 252 
L 388.8 34.56 
L 54 34.56 
z
" style="fill: #ffffff"/>
   </g>
   <g id="matplotlib.axis_1">
    <g id="xtick_1">
     <g id="line2d_1">
      <defs>
       <path id="m659f8c3a77" d="M 0 0 
L 0 3.5 
" style="stroke: #000000; stroke-width: 0.8"/>
      </defs>
      <g>
       <use xlink:href="#m659f8c3a77" x="54" y="252" style="stroke: #000000; stroke-width: 0.8"/>
      </g>
     </g>
     <g id="text_1">
      <!-- 0 -->
      <g transform="translate(50.81875 266.598437)scale(0.1 -0.1)">
       <defs>
        <path id="DejaVuSans-30" d="M 2034 4250 
Q 1547 4250 1301 3770 
Q 1056 3291 1056 2328 
Q 1056 1369 1301 889 
Q 1547 409 2034 409 
Q 2525 409 2770 889 
Q 3016 1369 3016 2328 
Q 3016 3291 2770 3770 
Q 2525 4250 2034 4250 
z
M 2034 4750 
Q 2819 4750 3233 4129 
Q 3647 3509 3647 2328 
Q 3647 1150 3233 529 
Q 2819 -91 2034 -91 
Q 1250 -91 836 529 
Q 422 1150 422 2328 
Q 422 3509 836 4129 
Q 1250 4750 2034 4750 
z
" transform="scale(0.015625)"/>
       </defs>
       <use xlink:href="#DejaVuSans-30"/>
      </g>
     </g>
    </g>
    <g id="xtick_2">
     <g id="line2d_2">
      <g>
       <use xlink:href="#m659f8c3a77" x="120.96" y="252" style="stroke: #000000; stroke-width: 0.8"/>
      </g>
     </g>
     <g id="text_2">
      <!-- 20 -->
      <g transform="translate(114.5975 266.598437)scale(0.1 -0.1)">
       <defs>
        <path id="DejaVuSans-32" d="M 1228 531 
L 3431 531 
L 3431 0 
L 469 0 
L 469 531 
Q 828 903 1448 1529 
Q 2069 2156 2228 2338 
Q 2531 2678 2651 2914 
Q 2772 3150 2772 3378 
Q 2772 3750 2511 3984 
Q 2250 4219 1831 4219 
Q 1534 4219 1204 4116 
Q 875 4013 500 3803 
L 500 4441 
Q 881 4594 1212 4672 
Q 1544 4750 1819 4750 
Q 2544 4750 2975 4387 
Q 3406 4025 3406 3419 
Q 3406 3131 3298 2873 
Q 3191 2616 2906 2266 
Q 2828 2175 2409 1742 
Q 1991 1309 1228 531 
z
" transform="scale(0.015625)"/>
       </defs>
       <use xlink:href="#DejaVuSans-32"/>
       <use xlink:href="#DejaVuSans-30" x="63.623047"/>
      </g>
     </g>
    </g>
    <g id="xtick_3">
     <g id="line2d_3">
      <g>
       <use xlink:href="#m659f8c3a77" x="187.92" y="252" style="stroke: #000000; stroke-width: 0.8"/>
      </g>
     </g>
     <g id="text_3">
      <!-- 40 -->
      <g transform="translate(181.5575 266.598437)scale(0.1 -0.1)">
       <defs>
        <path id="DejaVuSans-34" d="M 2419 4116 
L 825 1625 
L 2419 1625 
L 2419 4116 
z
M 2253 4666 
L 3047 4666 
L 3047 1625 
L 3713 1625 
L 3713 1100 
L 3047 1100 
L 3047 0 
L 2419 0 
L 2419 1100 
L 313 1100 
L 313 1709 
L 2253 4666 
z
" transform="scale(0.015625)"/>
       </defs>
       <use xlink:href="#DejaVuSans-34"/>
       <use xlink:href="#DejaVuSans-30" x="63.623047"/>
      </g>
     </g>
    </g>
    <g id="xtick_4">
     <g id="line2d_4">
      <g>
       <use xlink:href="#m659f8c3a77" x="254.88" y="252" style="stroke: #000000; stroke-width: 0.8"/>
      </g>
     </g>
     <g id="text_4">
      <!-- 60 -->
      <g transform="translate(248.5175 266.598437)scale(0.1 -0.1)">
       <defs>
        <path id="DejaVuSans-36" d="M 2113 2584 
Q 1688 2584 1439 2293 
Q 1191 2003 1191 1497 
Q 1191 994 1439 701 
Q 1688 409 2113 409 
Q 2538 409 2786 701 
Q 3034 994 3034 1497 
Q 3034 2003 2786 2293 
Q 2538 2584 2113 2584 
z
M 3366 4563 
L 3366 3988 
Q 3128 4100 2886 4159 
Q 2644 4219 2406 4219 
Q 1781 4219 1451 3797 
Q 1122 3375 1075 2522 
Q 1259 2794 1537 2939 
Q 1816 3084 2150 3084 
Q 2853 3084 3261 2657 
Q 3669 2231 3669 1497 
Q 3669 778 3244 343 
Q 2819 -91 2113 -91 
Q 1303 -91 875 529 
Q 447 1150 447 2328 
Q 447 3434 972 4092 
Q 1497 4750 2381 4750 
Q 2619 4750 2861 4703 
Q 3103 4656 3366 4563 
z
" transform="scale(0.015625)"/>
       </defs>
       <use xlink:href="#DejaVuSans-36"/>
       <use xlink:href="#DejaVuSans-30" x="63.623047"/>
      </g>
     </g>
    </g>
    <g id="xtick_5">
     <g id="line2d_5">
      <g>
       <use xlink:href="#m659f8c3a77" x="321.84" y="252" style="stroke: #000000; stroke-width: 0.8"/>
      </g>
     </g>
     <g id="text_5">
      <!-- 80 -->
      <g transform="translate(315.4775 266.598437)scale(0.1 -0.1)">
       <defs>
        <path id="DejaVuSans-38" d="M 2034 2216 
Q 1584 2216 1326 1975 
Q 1069 1734 1069 1313 
Q 1069 891 1326 650 
Q 1584 409 2034 409 
Q 2484 409 2743 651 
Q 3003 894 3003 1313 
Q 3003 1734 2745 1975 
Q 2488 2216 2034 2216 
z
M 1403 2484 
Q 997 2584 770 2862 
Q 544 3141 544 3541 
Q 544 4100 942 4425 
Q 1341 4750 2034 4750 
Q 2731 4750 3128 4425 
Q 3525 4100 3525 3541 
Q 3525 3141 3298 2862 
Q 3072 2584 2669 2484 
Q 3125 2378 3379 2068 
Q 3634 1759 3634 1313 
Q 3634 634 3220 271 
Q 2806 -91 2034 -91 
Q 1263 -91 848 271 
Q 434 634 434 1313 
Q 434 1759 690 2068 
Q 947 2378 1403 2484 
z
M 1172 3481 
Q 1172 3119 1398 2916 
Q 1625 2713 2034 2713 
Q 2441 2713 2670 2916 
Q 2900 3119 2900 3481 
Q 2900 3844 2670 4047 
Q 2441 4250 2034 4250 
Q 1625 4250 1398 4047 
Q 1172 3844 1172 3481 
z
" transform="scale(0.015625)"/>
       </defs>
       <use xlink:href="#DejaVuSans-38"/>
       <use xlink:href="#DejaVuSans-30" x="63.623047"/>
      </g>
     </g>
    </g>
    <g id="xtick_6">
     <g id="line2d_6">
      <g>
       <use xlink:href="#m659f8c3a77" x="388.8" y="252" style="stroke: #000000; stroke-width: 0.8"/>
      </g>
     </g>
     <g id="text_6">
      <!-- 100 -->
      <g transform="translate(379.25625 266.598437)scale(0.1 -0.1)">
       <defs>
        <path id="DejaVuSans-31" d="M 794 531 
L 1825 531 
L 1825 4091 
L 703 3866 
L 703 4441 
L 1819 4666 
L 2450 4666 
L 2450 531 
L 3481 531 
L 3481 0 
L 794 0 
L 794 531 
z
" transform="scale(0.015625)"/>
       </defs>
       <use xlink:href="#DejaVuSans-31"/>
       <use xlink:href="#DejaVuSans-30" x="63.623047"/>
       <use xlink:href="#DejaVuSans-30" x="127.246094"/>
      </g>
     </g>
    </g>
    <g id="text_7">
     <!-- Days -->
     <g transform="translate(208.921875 280.276563)scale(0.1 -0.1)">
      <defs>
       <path id="DejaVuSans-44" d="M 1259 4147 
L 1259 519 
L 2022 519 
Q 2988 519 3436 956 
Q 3884 1394 3884 2338 
Q 3884 3275 3436 3711 
Q 2988 4147 2022 4147 
L 1259 4147 
z
M 628 4666 
L 1925 4666 
Q 3281 4666 3915 4102 
Q 4550 3538 4550 2338 
Q 4550 1131 3912 565 
Q 3275 0 1925 0 
L 628 0 
L 628 4666 
z
" transform="scale(0.015625)"/>
       <path id="DejaVuSans-61" d="M 2194 1759 
Q 1497 1759 1228 1600 
Q 959 1441 959 1056 
Q 959 750 1161 570 
Q 1363 391 1709 391 
Q 2188 391 2477 730 
Q 2766 1069 2766 1631 
L 2766 1759 
L 2194 1759 
z
M 3341 1997 
L 3341 0 
L 2766 0 
L 2766 531 
Q 2569 213 2275 61 
Q 1981 -91 1556 -91 
Q 1019 -91 701 211 
Q 384 513 384 1019 
Q 384 1609 779 1909 
Q 1175 2209 1959 2209 
L 2766 2209 
L 2766 2266 
Q 2766 2663 2505 2880 
Q 2244 3097 1772 3097 
Q 1472 3097 1187 3025 
Q 903 2953 641 2809 
L 641 3341 
Q 956 3463 1253 3523 
Q 1550 3584 1831 3584 
Q 2591 3584 2966 3190 
Q 3341 2797 3341 1997 
z
" transform="scale(0.015625)"/>
       <path id="DejaVuSans-79" d="M 2059 -325 
Q 1816 -950 1584 -1140 
Q 1353 -1331 966 -1331 
L 506 -1331 
L 506 -850 
L 844 -850 
Q 1081 -850 1212 -737 
Q 1344 -625 1503 -206 
L 1606 56 
L 191 3500 
L 800 3500 
L 1894 763 
L 2988 3500 
L 3597 3500 
L 2059 -325 
z
" transform="scale(0.015625)"/>
       <path id="DejaVuSans-73" d="M 2834 3397 
L 2834 2853 
Q 2591 2978 2328 3040 
Q 2066 3103 1784 3103 
Q 1356 3103 1142 2972 
Q 928 2841 928 2578 
Q 928 2378 1081 2264 
Q 1234 2150 1697 2047 
L 1894 2003 
Q 2506 1872 2764 1633 
Q 3022 1394 3022 966 
Q 3022 478 2636 193 
Q 2250 -91 1575 -91 
Q 1294 -91 989 -36 
Q 684 19 347 128 
L 347 722 
Q 666 556 975 473 
Q 1284 391 1588 391 
Q 1994 391 2212 530 
Q 2431 669 2431 922 
Q 2431 1156 2273 1281 
Q 2116 1406 1581 1522 
L 1381 1569 
Q 847 1681 609 1914 
Q 372 2147 372 2553 
Q 372 3047 722 3315 
Q 1072 3584 1716 3584 
Q 2034 3584 2315 3537 
Q 2597 3491 2834 3397 
z
" transform="scale(0.015625)"/>
      </defs>
      <use xlink:href="#DejaVuSans-44"/>
      <use xlink:href="#DejaVuSans-61" x="77.001953"/>
      <use xlink:href="#DejaVuSans-79" x="138.28125"/>
      <use xlink:href="#DejaVuSans-73" x="197.460938"/>
     </g>
    </g>
   </g>
   <g id="matplotlib.axis_2">
    <g id="ytick_1">
     <g id="line2d_7">
      <defs>
       <path id="m962d3b5bbd" d="M 0 0 
L -3.5 0 
" style="stroke: #000000; stroke-width: 0.8"/>
      </defs>
      <g>
       <use xlink:href="#m962d3b5bbd" x="54" y="252" style="stroke: #000000; stroke-width: 0.8"/>
      </g>
     </g>
     <g id="text_8">
      <!-- 1.0 -->
      <g transform="translate(31.096875 255.799219)scale(0.1 -0.1)">
       <defs>
        <path id="DejaVuSans-2e" d="M 684 794 
L 1344 794 
L 1344 0 
L 684 0 
L 684 794 
z
" transform="scale(0.015625)"/>
       </defs>
       <use xlink:href="#DejaVuSans-31"/>
       <use xlink:href="#DejaVuSans-2e" x="63.623047"/>
       <use xlink:href="#DejaVuSans-30" x="95.410156"/>
      </g>
     </g>
    </g>
    <g id="ytick_2">
     <g id="line2d_8">
      <g>
       <use xlink:href="#m962d3b5bbd" x="54" y="215.76" style="stroke: #000000; stroke-width: 0.8"/>
      </g>
     </g>
     <g id="text_9">
      <!-- 1.5 -->
      <g transform="translate(31.096875 219.559219)scale(0.1 -0.1)">
       <defs>
        <path id="DejaVuSans-35" d="M 691 4666 
L 3169 4666 
L 3169 4134 
L 1269 4134 
L 1269 2991 
Q 1406 3038 1543 3061 
Q 1681 3084 1819 3084 
Q 2600 3084 3056 2656 
Q 3513 2228 3513 1497 
Q 3513 744 3044 326 
Q 2575 -91 1722 -91 
Q 1428 -91 1123 -41 
Q 819 9 494 109 
L 494 744 
Q 775 591 1075 516 
Q 1375 441 1709 441 
Q 2250 441 2565 725 
Q 2881 1009 2881 1497 
Q 2881 1984 2565 2268 
Q 2250 2553 1709 2553 
Q 1456 2553 1204 2497 
Q 953 2441 691 2322 
L 691 4666 
z
" transform="scale(0.015625)"/>
       </defs>
       <use xlink:href="#DejaVuSans-31"/>
       <use xlink:href="#DejaVuSans-2e" x="63.623047"/>
       <use xlink:href="#DejaVuSans-35" x="95.410156"/>
      </g>
     </g>
    </g>
    <g id="ytick_3">
     <g id="line2d_9">
      <g>
       <use xlink:href="#m962d3b5bbd" x="54" y="179.52" style="stroke: #000000; stroke-width: 0.8"/>
      </g>
     </g>
     <g id="text_10">
      <!-- 2.0 -->
      <g transform="translate(31.096875 183.319219)scale(0.1 -0.1)">
       <use xlink:href="#DejaVuSans-32"/>
       <use xlink:href="#DejaVuSans-2e" x="63.623047"/>
       <use xlink:href="#DejaVuSans-30" x="95.410156"/>
      </g>
     </g>
    </g>
    <g id="ytick_4">
     <g id="line2d_10">
      <g>
       <use xlink:href="#m962d3b5bbd" x="54" y="143.28" style="stroke: #000000; stroke-width: 0.8"/>
      </g>
     </g>
     <g id="text_11">
      <!-- 2.5 -->
      <g transform="translate(31.096875 147.079219)scale(0.1 -0.1)">
       <use xlink:href="#DejaVuSans-32"/>
       <use xlink:href="#DejaVuSans-2e" x="63.623047"/>
       <use xlink:href="#DejaVuSans-35" x="95.410156"/>
      </g>
     </g>
    </g>
    <g id="ytick_5">
     <g id="line2d_11">
      <g>
       <use xlink:href="#m962d3b5bbd" x="54" y="107.04" style="stroke: #000000; stroke-width: 0.8"/>
      </g>
     </g>
     <g id="text_12">
      <!-- 3.0 -->
      <g transform="translate(31.096875 110.839219)scale(0.1 -0.1)">
       <defs>
        <path id="DejaVuSans-33" d="M 2597 2516 
Q 3050 2419 3304 2112 
Q 3559 1806 3559 1356 
Q 3559 666 3084 287 
Q 2609 -91 1734 -91 
Q 1441 -91 1130 -33 
Q 819 25 488 141 
L 488 750 
Q 750 597 1062 519 
Q 1375 441 1716 441 
Q 2309 441 2620 675 
Q 2931 909 2931 1356 
Q 2931 1769 2642 2001 
Q 2353 2234 1838 2234 
L 1294 2234 
L 1294 2753 
L 1863 2753 
Q 2328 2753 2575 2939 
Q 2822 3125 2822 3475 
Q 2822 3834 2567 4026 
Q 2313 4219 1838 4219 
Q 1578 4219 1281 4162 
Q 984 4106 628 3988 
L 628 4550 
Q 988 4650 1302 4700 
Q 1616 4750 1894 4750 
Q 2613 4750 3031 4423 
Q 3450 4097 3450 3541 
Q 3450 3153 3228 2886 
Q 3006 2619 2597 2516 
z
" transform="scale(0.015625)"/>
       </defs>
       <use xlink:href="#DejaVuSans-33"/>
       <use xlink:href="#DejaVuSans-2e" x="63.623047"/>
       <use xlink:href="#DejaVuSans-30" x="95.410156"/>
      </g>
     </g>
    </g>
    <g id="ytick_6">
     <g id="line2d_12">
      <g>
       <use xlink:href="#m962d3b5bbd" x="54" y="70.8" style="stroke: #000000; stroke-width: 0.8"/>
      </g>
     </g>
     <g id="text_13">
      <!-- 3.5 -->
      <g transform="translate(31.096875 74.599219)scale(0.1 -0.1)">
       <use xlink:href="#DejaVuSans-33"/>
       <use xlink:href="#DejaVuSans-2e" x="63.623047"/>
       <use xlink:href="#DejaVuSans-35" x="95.410156"/>
      </g>
     </g>
    </g>
    <g id="ytick_7">
     <g id="line2d_13">
      <g>
       <use xlink:href="#m962d3b5bbd" x="54" y="34.56" style="stroke: #000000; stroke-width: 0.8"/>
      </g>
     </g>
     <g id="text_14">
      <!-- 4.0 -->
      <g transform="translate(31.096875 38.359219)scale(0.1 -0.1)">
       <use xlink:href="#DejaVuSans-34"/>
       <use xlink:href="#DejaVuSans-2e" x="63.623047"/>
       <use xlink:href="#DejaVuSans-30" x="95.410156"/>
      </g>
     </g>
    </g>
    <g id="text_15">
     <!-- Cumulative error rate (%) -->
     <g transform="translate(25.017187 207.495625)rotate(-90)scale(0.1 -0.1)">
      <defs>
       <path id="DejaVuSans-43" d="M 4122 4306 
L 4122 3641 
Q 3803 3938 3442 4084 
Q 3081 4231 2675 4231 
Q 1875 4231 1450 3742 
Q 1025 3253 1025 2328 
Q 1025 1406 1450 917 
Q 1875 428 2675 428 
Q 3081 428 3442 575 
Q 3803 722 4122 1019 
L 4122 359 
Q 3791 134 3420 21 
Q 3050 -91 2638 -91 
Q 1578 -91 968 557 
Q 359 1206 359 2328 
Q 359 3453 968 4101 
Q 1578 4750 2638 4750 
Q 3056 4750 3426 4639 
Q 3797 4528 4122 4306 
z
" transform="scale(0.015625)"/>
       <path id="DejaVuSans-75" d="M 544 1381 
L 544 3500 
L 1119 3500 
L 1119 1403 
Q 1119 906 1312 657 
Q 1506 409 1894 409 
Q 2359 409 2629 706 
Q 2900 1003 2900 1516 
L 2900 3500 
L 3475 3500 
L 3475 0 
L 2900 0 
L 2900 538 
Q 2691 219 2414 64 
Q 2138 -91 1772 -91 
Q 1169 -91 856 284 
Q 544 659 544 1381 
z
M 1991 3584 
L 1991 3584 
z
" transform="scale(0.015625)"/>
       <path id="DejaVuSans-6d" d="M 3328 2828 
Q 3544 3216 3844 3400 
Q 4144 3584 4550 3584 
Q 5097 3584 5394 3201 
Q 5691 2819 5691 2113 
L 5691 0 
L 5113 0 
L 5113 2094 
Q 5113 2597 4934 2840 
Q 4756 3084 4391 3084 
Q 3944 3084 3684 2787 
Q 3425 2491 3425 1978 
L 3425 0 
L 2847 0 
L 2847 2094 
Q 2847 2600 2669 2842 
Q 2491 3084 2119 3084 
Q 1678 3084 1418 2786 
Q 1159 2488 1159 1978 
L 1159 0 
L 581 0 
L 581 3500 
L 1159 3500 
L 1159 2956 
Q 1356 3278 1631 3431 
Q 1906 3584 2284 3584 
Q 2666 3584 2933 3390 
Q 3200 3197 3328 2828 
z
" transform="scale(0.015625)"/>
       <path id="DejaVuSans-6c" d="M 603 4863 
L 1178 4863 
L 1178 0 
L 603 0 
L 603 4863 
z
" transform="scale(0.015625)"/>
       <path id="DejaVuSans-74" d="M 1172 4494 
L 1172 3500 
L 2356 3500 
L 2356 3053 
L 1172 3053 
L 1172 1153 
Q 1172 725 1289 603 
Q 1406 481 1766 481 
L 2356 481 
L 2356 0 
L 1766 0 
Q 1100 0 847 248 
Q 594 497 594 1153 
L 594 3053 
L 172 3053 
L 172 3500 
L 594 3500 
L 594 4494 
L 1172 4494 
z
" transform="scale(0.015625)"/>
       <path id="DejaVuSans-69" d="M 603 3500 
L 1178 3500 
L 1178 0 
L 603 0 
L 603 3500 
z
M 603 4863 
L 1178 4863 
L 1178 4134 
L 603 4134 
L 603 4863 
z
" transform="scale(0.015625)"/>
       <path id="DejaVuSans-76" d="M 191 3500 
L 800 3500 
L 1894 563 
L 2988 3500 
L 3597 3500 
L 2284 0 
L 1503 0 
L 191 3500 
z
" transform="scale(0.015625)"/>
       <path id="DejaVuSans-65" d="M 3597 1894 
L 3597 1613 
L 953 1613 
Q 991 1019 1311 708 
Q 1631 397 2203 397 
Q 2534 397 2845 478 
Q 3156 559 3463 722 
L 3463 178 
Q 3153 47 2828 -22 
Q 2503 -91 2169 -91 
Q 1331 -91 842 396 
Q 353 884 353 1716 
Q 353 2575 817 3079 
Q 1281 3584 2069 3584 
Q 2775 3584 3186 3129 
Q 3597 2675 3597 1894 
z
M 3022 2063 
Q 3016 2534 2758 2815 
Q 2500 3097 2075 3097 
Q 1594 3097 1305 2825 
Q 1016 2553 972 2059 
L 3022 2063 
z
" transform="scale(0.015625)"/>
       <path id="DejaVuSans-20" transform="scale(0.015625)"/>
       <path id="DejaVuSans-72" d="M 2631 2963 
Q 2534 3019 2420 3045 
Q 2306 3072 2169 3072 
Q 1681 3072 1420 2755 
Q 1159 2438 1159 1844 
L 1159 0 
L 581 0 
L 581 3500 
L 1159 3500 
L 1159 2956 
Q 1341 3275 1631 3429 
Q 1922 3584 2338 3584 
Q 2397 3584 2469 3576 
Q 2541 3569 2628 3553 
L 2631 2963 
z
" transform="scale(0.015625)"/>
       <path id="DejaVuSans-6f" d="M 1959 3097 
Q 1497 3097 1228 2736 
Q 959 2375 959 1747 
Q 959 1119 1226 758 
Q 1494 397 1959 397 
Q 2419 397 2687 759 
Q 2956 1122 2956 1747 
Q 2956 2369 2687 2733 
Q 2419 3097 1959 3097 
z
M 1959 3584 
Q 2709 3584 3137 3096 
Q 3566 2609 3566 1747 
Q 3566 888 3137 398 
Q 2709 -91 1959 -91 
Q 1206 -91 779 398 
Q 353 888 353 1747 
Q 353 2609 779 3096 
Q 1206 3584 1959 3584 
z
" transform="scale(0.015625)"/>
       <path id="DejaVuSans-28" d="M 1984 4856 
Q 1566 4138 1362 3434 
Q 1159 2731 1159 2009 
Q 1159 1288 1364 580 
Q 1569 -128 1984 -844 
L 1484 -844 
Q 1016 -109 783 600 
Q 550 1309 550 2009 
Q 550 2706 781 3412 
Q 1013 4119 1484 4856 
L 1984 4856 
z
" transform="scale(0.015625)"/>
       <path id="DejaVuSans-25" d="M 4653 2053 
Q 4381 2053 4226 1822 
Q 4072 1591 4072 1178 
Q 4072 772 4226 539 
Q 4381 306 4653 306 
Q 4919 306 5073 539 
Q 5228 772 5228 1178 
Q 5228 1588 5073 1820 
Q 4919 2053 4653 2053 
z
M 4653 2450 
Q 5147 2450 5437 2106 
Q 5728 1763 5728 1178 
Q 5728 594 5436 251 
Q 5144 -91 4653 -91 
Q 4153 -91 3862 251 
Q 3572 594 3572 1178 
Q 3572 1766 3864 2108 
Q 4156 2450 4653 2450 
z
M 1428 4353 
Q 1159 4353 1004 4120 
Q 850 3888 850 3481 
Q 850 3069 1003 2837 
Q 1156 2606 1428 2606 
Q 1700 2606 1854 2837 
Q 2009 3069 2009 3481 
Q 2009 3884 1853 4118 
Q 1697 4353 1428 4353 
z
M 4250 4750 
L 4750 4750 
L 1831 -91 
L 1331 -91 
L 4250 4750 
z
M 1428 4750 
Q 1922 4750 2215 4408 
Q 2509 4066 2509 3481 
Q 2509 2891 2217 2550 
Q 1925 2209 1428 2209 
Q 931 2209 642 2551 
Q 353 2894 353 3481 
Q 353 4063 643 4406 
Q 934 4750 1428 4750 
z
" transform="scale(0.015625)"/>
       <path id="DejaVuSans-29" d="M 513 4856 
L 1013 4856 
Q 1481 4119 1714 3412 
Q 1947 2706 1947 2009 
Q 1947 1309 1714 600 
Q 1481 -109 1013 -844 
L 513 -844 
Q 928 -128 1133 580 
Q 1338 1288 1338 2009 
Q 1338 2731 1133 3434 
Q 928 4138 513 4856 
z
" transform="scale(0.015625)"/>
      </defs>
      <use xlink:href="#DejaVuSans-43"/>
      <use xlink:href="#DejaVuSans-75" x="69.824219"/>
      <use xlink:href="#DejaVuSans-6d" x="133.203125"/>
      <use xlink:href="#DejaVuSans-75" x="230.615234"/>
      <use xlink:href="#DejaVuSans-6c" x="293.994141"/>
      <use xlink:href="#DejaVuSans-61" x="321.777344"/>
      <use xlink:href="#DejaVuSans-74" x="383.056641"/>
      <use xlink:href="#DejaVuSans-69" x="422.265625"/>
      <use xlink:href="#DejaVuSans-76" x="450.048828"/>
      <use xlink:href="#DejaVuSans-65" x="509.228516"/>
      <use xlink:href="#DejaVuSans-20" x="570.751953"/>
      <use xlink:href="#DejaVuSans-65" x="602.539062"/>
      <use xlink:href="#DejaVuSans-72" x="664.0625"/>
      <use xlink:href="#DejaVuSans-72" x="703.425781"/>
      <use xlink:href="#DejaVuSans-6f" x="742.289062"/>
      <use xlink:href="#DejaVuSans-72" x="803.470703"/>
      <use xlink:href="#DejaVuSans-20" x="844.583984"/>
      <use xlink:href="#DejaVuSans-72" x="876.371094"/>
      <use xlink:href="#DejaVuSans-61" x="917.484375"/>
      <use xlink:href="#DejaVuSans-74" x="978.763672"/>
      <use xlink:href="#DejaVuSans-65" x="1017.972656"/>
      <use xlink:href="#DejaVuSans-20" x="1079.496094"/>
      <use xlink:href="#DejaVuSans-28" x="1111.283203"/>
      <use xlink:href="#DejaVuSans-25" x="1150.296875"/>
      <use xlink:href="#DejaVuSans-29" x="1245.316406"/>
     </g>
    </g>
   </g>
   <g id="line2d_14">
    <path d="M 54 127.587195 
L 57.348 136.705617 
L 60.696 145.596846 
L 64.044 154.045998 
L 67.392 161.888455 
L 70.74 169.003773 
L 74.088 175.310036 
L 77.436 180.758654 
L 80.784 185.329568 
L 84.132 189.026857 
L 87.48 191.874723 
L 90.828 193.91383 
L 94.176 195.197986 
L 97.524 195.791153 
L 100.872 195.764757 
L 104.22 195.195287 
L 107.568 194.16217 
L 110.916 192.745904 
L 114.264 191.026426 
L 117.612 189.08171 
L 120.96 186.986575 
L 124.308 184.811693 
L 127.656 182.622771 
L 131.004 180.479913 
L 134.352 178.437126 
L 137.7 176.541985 
L 141.048 174.835409 
L 144.396 173.351573 
L 147.744 172.117919 
L 151.092 171.155264 
L 154.44 170.477993 
L 157.788 170.094332 
L 161.136 170.006681 
L 164.484 170.212002 
L 167.832 170.702261 
L 171.18 171.464899 
L 174.528 172.483339 
L 177.876 173.737514 
L 181.224 175.204407 
L 184.572 176.858601 
L 187.92 178.672828 
L 191.268 180.618516 
L 194.616 182.666318 
L 197.964 184.786634 
L 201.312 186.950102 
L 204.66 189.128072 
L 208.008 191.293038 
L 211.356 193.419051 
L 214.704 195.48208 
L 218.052 197.460344 
L 221.4 199.334592 
L 224.748 201.088346 
L 228.096 202.708092 
L 231.444 204.183425 
L 234.792 205.507143 
L 238.14 206.675296 
L 241.488 207.687182 
L 244.836 208.545295 
L 248.184 209.255223 
L 251.532 209.8255 
L 254.88 210.267416 
L 258.228 210.594774 
L 261.576 210.823617 
L 264.924 210.971905 
L 268.272 211.059169 
L 271.62 211.106121 
L 274.968 211.134243 
L 278.316 211.165354 
L 281.664 211.221153 
L 285.012 211.322755 
L 288.36 211.490213 
L 291.708 211.742042 
L 295.056 212.094748 
L 298.404 212.56237 
L 301.752 213.156035 
L 305.1 213.88355 
L 308.448 214.749016 
L 311.796 215.752496 
L 315.144 216.889732 
L 318.492 218.151923 
L 321.84 219.525571 
L 325.188 220.992415 
L 328.536 222.529454 
L 331.884 224.109072 
L 335.232 225.699278 
L 338.58 227.264074 
L 341.928 228.763958 
L 345.276 230.156581 
L 348.624 231.397567 
L 351.972 232.441507 
L 355.32 233.243154 
L 358.668 233.758808 
L 362.016 233.947939 
L 365.364 233.775028 
L 368.712 233.211673 
L 372.06 232.238949 
L 375.408 230.850064 
L 378.756 229.053299 
L 382.104 226.875281 
L 385.452 224.364575 
L 388.8 221.595641 
L 392.148 218.673151 
L 395.496 215.736697 
L 398.844 212.965919 
L 402.192 210.586039 
L 405.54 208.873863 
L 408.888 208.16424 
L 412.236 208.857014 
L 415.584 211.424482 
" clip-path="url(#p7b05fdb853)" style="fill: none; stroke: #ff0000; stroke-width: 1.5; stroke-linecap: square"/>
    <defs>
     <path id="m933f4decde" d="M -0 3 
L 3 -3 
L -3 -3 
z
" style="stroke: #ff0000; stroke-linejoin: miter"/>
    </defs>
    <g clip-path="url(#p7b05fdb853)">
     <use xlink:href="#m933f4decde" x="54" y="127.587195" style="fill: #ff0000; stroke: #ff0000; stroke-linejoin: miter"/>
     <use xlink:href="#m933f4decde" x="70.74" y="169.003773" style="fill: #ff0000; stroke: #ff0000; stroke-linejoin: miter"/>
     <use xlink:href="#m933f4decde" x="87.48" y="191.874723" style="fill: #ff0000; stroke: #ff0000; stroke-linejoin: miter"/>
     <use xlink:href="#m933f4decde" x="104.22" y="195.195287" style="fill: #ff0000; stroke: #ff0000; stroke-linejoin: miter"/>
     <use xlink:href="#m933f4decde" x="120.96" y="186.986575" style="fill: #ff0000; stroke: #ff0000; stroke-linejoin: miter"/>
     <use xlink:href="#m933f4decde" x="137.7" y="176.541985" style="fill: #ff0000; stroke: #ff0000; stroke-linejoin: miter"/>
     <use xlink:href="#m933f4decde" x="154.44" y="170.477993" style="fill: #ff0000; stroke: #ff0000; stroke-linejoin: miter"/>
     <use xlink:href="#m933f4decde" x="171.18" y="171.464899" style="fill: #ff0000; stroke: #ff0000; stroke-linejoin: miter"/>
     <use xlink:href="#m933f4decde" x="187.92" y="178.672828" style="fill: #ff0000; stroke: #ff0000; stroke-linejoin: miter"/>
     <use xlink:href="#m933f4decde" x="204.66" y="189.128072" style="fill: #ff0000; stroke: #ff0000; stroke-linejoin: miter"/>
     <use xlink:href="#m933f4decde" x="221.4" y="199.334592" style="fill: #ff0000; stroke: #ff0000; stroke-linejoin: miter"/>
     <use xlink:href="#m933f4decde" x="238.14" y="206.675296" style="fill: #ff0000; stroke: #ff0000; stroke-linejoin: miter"/>
     <use xlink:href="#m933f4decde" x="254.88" y="210.267416" style="fill: #ff0000; stroke: #ff0000; stroke-linejoin: miter"/>
     <use xlink:href="#m933f4decde" x="271.62" y="211.106121" style="fill: #ff0000; stroke: #ff0000; stroke-linejoin: miter"/>
     <use xlink:href="#m933f4decde" x="288.36" y="211.490213" style="fill: #ff0000; stroke: #ff0000; stroke-linejoin: miter"/>
     <use xlink:href="#m933f4decde" x="305.1" y="213.88355" style="fill: #ff0000; stroke: #ff0000; stroke-linejoin: miter"/>
     <use xlink:href="#m933f4decde" x="321.84" y="219.525571" style="fill: #ff0000; stroke: #ff0000; stroke-linejoin: miter"/>
     <use xlink:href="#m933f4decde" x="338.58" y="227.264074" style="fill: #ff0000; stroke: #ff0000; stroke-linejoin: miter"/>
     <use xlink:href="#m933f4decde" x="355.32" y="233.243154" style="fill: #ff0000; stroke: #ff0000; stroke-linejoin: miter"/>
     <use xlink:href="#m933f4decde" x="372.06" y="232.238949" style="fill: #ff0000; stroke: #ff0000; stroke-linejoin: miter"/>
     <use xlink:href="#m933f4decde" x="388.8" y="221.595641" style="fill: #ff0000; stroke: #ff0000; stroke-linejoin: miter"/>
     <use xlink:href="#m933f4decde" x="405.54" y="208.873863" style="fill: #ff0000; stroke: #ff0000; stroke-linejoin: miter"/>
    </g>
   </g>
   <g id="line2d_15">
    <path d="M 54 167.852995 
L 57.348 149.286 
L 60.696 134.668183 
L 64.044 123.298766 
L 67.392 114.57064 
L 70.74 107.961213 
L 74.088 103.023865 
L 77.436 99.380017 
L 80.784 96.711766 
L 84.132 94.755063 
L 87.48 93.29342 
L 90.828 92.152107 
L 94.176 91.192825 
L 97.524 90.308828 
L 100.872 89.420471 
L 104.22 88.47116 
L 107.568 87.423684 
L 110.916 86.256912 
L 114.264 84.962824 
L 117.612 83.543864 
L 120.96 82.010591 
L 124.308 80.379615 
L 127.656 78.671791 
L 131.004 76.910655 
L 134.352 75.121092 
L 137.7 73.328212 
L 141.048 71.556413 
L 144.396 69.82863 
L 147.744 68.165738 
L 151.092 66.586108 
L 154.44 65.105293 
L 157.788 63.73583 
L 161.136 62.487155 
L 164.484 61.365602 
L 167.832 60.374496 
L 171.18 59.514299 
L 174.528 58.782829 
L 177.876 58.175523 
L 181.224 57.685732 
L 184.572 57.305053 
L 187.92 57.023681 
L 191.268 56.830766 
L 194.616 56.714781 
L 197.964 56.663883 
L 201.312 56.66627 
L 204.66 56.710513 
L 208.008 56.785879 
L 211.356 56.882617 
L 214.704 56.992219 
L 218.052 57.107647 
L 221.4 57.22352 
L 224.748 57.336262 
L 228.096 57.444206 
L 231.444 57.547655 
L 234.792 57.648897 
L 238.14 57.752173 
L 241.488 57.863598 
L 244.836 57.99104 
L 248.184 58.14395 
L 251.532 58.333151 
L 254.88 58.570584 
L 258.228 58.86902 
L 261.576 59.241729 
L 264.924 59.702128 
L 268.272 60.263393 
L 271.62 60.938049 
L 274.968 61.737551 
L 278.316 62.671848 
L 281.664 63.748941 
L 285.012 64.974445 
L 288.36 66.351167 
L 291.708 67.878692 
L 295.056 69.553007 
L 298.404 71.366146 
L 301.752 73.3059 
L 305.1 75.355567 
L 308.448 77.493777 
L 311.796 79.694391 
L 315.144 81.9265 
L 318.492 84.154509 
L 321.84 86.338358 
L 325.188 88.433852 
L 328.536 90.393154 
L 331.884 92.165418 
L 335.232 93.69761 
L 338.58 94.935506 
L 341.928 95.82491 
L 345.276 96.313078 
L 348.624 96.35039 
L 351.972 95.892286 
L 355.32 94.901463 
L 358.668 93.350379 
L 362.016 91.224069 
L 365.364 88.523292 
L 368.712 85.268039 
L 372.06 81.501412 
L 375.408 77.293907 
L 378.756 72.748114 
L 382.104 68.003862 
L 385.452 63.243831 
L 388.8 58.699654 
L 392.148 54.658535 
L 395.496 51.47041 
L 398.844 49.555668 
L 402.192 49.41347 
L 405.54 51.630683 
L 408.888 56.891464 
L 412.236 65.987511 
L 415.584 79.829026 
L 418.932 99.456398 
" clip-path="url(#p7b05fdb853)" style="fill: none; stroke: #000000; stroke-width: 1.5; stroke-linecap: square"/>
    <defs>
     <path id="mb91addb6cf" d="M -3 3 
L 3 3 
L 3 -3 
L -3 -3 
z
" style="stroke: #000000; stroke-linejoin: miter"/>
    </defs>
    <g clip-path="url(#p7b05fdb853)">
     <use xlink:href="#mb91addb6cf" x="54" y="167.852995" style="stroke: #000000; stroke-linejoin: miter"/>
     <use xlink:href="#mb91addb6cf" x="70.74" y="107.961213" style="stroke: #000000; stroke-linejoin: miter"/>
     <use xlink:href="#mb91addb6cf" x="87.48" y="93.29342" style="stroke: #000000; stroke-linejoin: miter"/>
     <use xlink:href="#mb91addb6cf" x="104.22" y="88.47116" style="stroke: #000000; stroke-linejoin: miter"/>
     <use xlink:href="#mb91addb6cf" x="120.96" y="82.010591" style="stroke: #000000; stroke-linejoin: miter"/>
     <use xlink:href="#mb91addb6cf" x="137.7" y="73.328212" style="stroke: #000000; stroke-linejoin: miter"/>
     <use xlink:href="#mb91addb6cf" x="154.44" y="65.105293" style="stroke: #000000; stroke-linejoin: miter"/>
     <use xlink:href="#mb91addb6cf" x="171.18" y="59.514299" style="stroke: #000000; stroke-linejoin: miter"/>
     <use xlink:href="#mb91addb6cf" x="187.92" y="57.023681" style="stroke: #000000; stroke-linejoin: miter"/>
     <use xlink:href="#mb91addb6cf" x="204.66" y="56.710513" style="stroke: #000000; stroke-linejoin: miter"/>
     <use xlink:href="#mb91addb6cf" x="221.4" y="57.22352" style="stroke: #000000; stroke-linejoin: miter"/>
     <use xlink:href="#mb91addb6cf" x="238.14" y="57.752173" style="stroke: #000000; stroke-linejoin: miter"/>
     <use xlink:href="#mb91addb6cf" x="254.88" y="58.570584" style="stroke: #000000; stroke-linejoin: miter"/>
     <use xlink:href="#mb91addb6cf" x="271.62" y="60.938049" style="stroke: #000000; stroke-linejoin: miter"/>
     <use xlink:href="#mb91addb6cf" x="288.36" y="66.351167" style="stroke: #000000; stroke-linejoin: miter"/>
     <use xlink:href="#mb91addb6cf" x="305.1" y="75.355567" style="stroke: #000000; stroke-linejoin: miter"/>
     <use xlink:href="#mb91addb6cf" x="321.84" y="86.338358" style="stroke: #000000; stroke-linejoin: miter"/>
     <use xlink:href="#mb91addb6cf" x="338.58" y="94.935506" style="stroke: #000000; stroke-linejoin: miter"/>
     <use xlink:href="#mb91addb6cf" x="355.32" y="94.901463" style="stroke: #000000; stroke-linejoin: miter"/>
     <use xlink:href="#mb91addb6cf" x="372.06" y="81.501412" style="stroke: #000000; stroke-linejoin: miter"/>
     <use xlink:href="#mb91addb6cf" x="388.8" y="58.699654" style="stroke: #000000; stroke-linejoin: miter"/>
     <use xlink:href="#mb91addb6cf" x="405.54" y="51.630683" style="stroke: #000000; stroke-linejoin: miter"/>
    </g>
   </g>
   <g id="line2d_16">
    <path d="M 54 164.79989 
L 57.348 164.781394 
L 60.696 165.03839 
L 64.044 165.407645 
L 67.392 165.758469 
L 70.74 165.988977 
L 74.088 166.022611 
L 77.436 165.804937 
L 80.784 165.300671 
L 84.132 164.490959 
L 87.48 163.370868 
L 90.828 161.947102 
L 94.176 160.235916 
L 97.524 158.261226 
L 100.872 156.052904 
L 104.22 153.645244 
L 107.568 151.075598 
L 110.916 148.38316 
L 114.264 145.607902 
L 117.612 142.789643 
L 120.96 139.967252 
L 124.308 137.177964 
L 127.656 134.456814 
L 131.004 131.836169 
L 134.352 129.345367 
L 137.7 127.010429 
L 141.048 124.853868 
L 144.396 122.894562 
L 147.744 121.147701 
L 151.092 119.62479 
L 154.44 118.33371 
L 157.788 117.27883 
L 161.136 116.461156 
L 164.484 115.878518 
L 167.832 115.525799 
L 171.18 115.395174 
L 174.528 115.476384 
L 177.876 115.75702 
L 181.224 116.222825 
L 184.572 116.857997 
L 187.92 117.645504 
L 191.268 118.567391 
L 194.616 119.605094 
L 197.964 120.739737 
L 201.312 121.952428 
L 204.66 123.224539 
L 208.008 124.537968 
L 211.356 125.875389 
L 214.704 127.22048 
L 218.052 128.55813 
L 221.4 129.874619 
L 224.748 131.157782 
L 228.096 132.397136 
L 231.444 133.583989 
L 234.792 134.711515 
L 238.14 135.774807 
L 241.488 136.770896 
L 244.836 137.698742 
L 248.184 138.5592 
L 251.532 139.354953 
L 254.88 140.090422 
L 258.228 140.771644 
L 261.576 141.406132 
L 264.924 142.0027 
L 268.272 142.571277 
L 271.62 143.12269 
L 274.968 143.668434 
L 278.316 144.220423 
L 281.664 144.790725 
L 285.012 145.391289 
L 288.36 146.033659 
L 291.708 146.728688 
L 295.056 147.486243 
L 298.404 148.314916 
L 301.752 149.221739 
L 305.1 150.211908 
L 308.448 151.28852 
L 311.796 152.452331 
L 315.144 153.701532 
L 318.492 155.031557 
L 321.84 156.434922 
L 325.188 157.901108 
L 328.536 159.416475 
L 331.884 160.964243 
L 335.232 162.524517 
L 338.58 164.074381 
L 341.928 165.588057 
L 345.276 167.037147 
L 348.624 168.390949 
L 351.972 169.616874 
L 355.32 170.680951 
L 358.668 171.548446 
L 362.016 172.18459 
L 365.364 172.555436 
L 368.712 172.628832 
L 372.06 172.375554 
L 375.408 171.770569 
L 378.756 170.794467 
L 382.104 169.435055 
L 385.452 167.689128 
L 388.8 165.564425 
L 392.148 163.081789 
L 395.496 160.277522 
L 398.844 157.205967 
L 402.192 153.942314 
L 405.54 150.585645 
L 408.888 147.262233 
L 412.236 144.129094 
L 415.584 141.377827 
L 418.932 139.238724 
L 422.28 137.985189 
L 425.628 137.938463 
L 428.976 139.472669 
L 432.324 143.0202 
L 433 144.243228 
" clip-path="url(#p7b05fdb853)" style="fill: none; stroke-dasharray: 5.55,2.4; stroke-dashoffset: 0; stroke: #bf00bf; stroke-width: 1.5"/>
    <defs>
     <path id="m15c80d6ab1" d="M -3 0 
L 3 0 
M 0 3 
L 0 -3 
" style="stroke: #bf00bf"/>
    </defs>
    <g clip-path="url(#p7b05fdb853)">
     <use xlink:href="#m15c80d6ab1" x="54" y="164.79989" style="fill: #bf00bf; stroke: #bf00bf"/>
     <use xlink:href="#m15c80d6ab1" x="70.74" y="165.988977" style="fill: #bf00bf; stroke: #bf00bf"/>
     <use xlink:href="#m15c80d6ab1" x="87.48" y="163.370868" style="fill: #bf00bf; stroke: #bf00bf"/>
     <use xlink:href="#m15c80d6ab1" x="104.22" y="153.645244" style="fill: #bf00bf; stroke: #bf00bf"/>
     <use xlink:href="#m15c80d6ab1" x="120.96" y="139.967252" style="fill: #bf00bf; stroke: #bf00bf"/>
     <use xlink:href="#m15c80d6ab1" x="137.7" y="127.010429" style="fill: #bf00bf; stroke: #bf00bf"/>
     <use xlink:href="#m15c80d6ab1" x="154.44" y="118.33371" style="fill: #bf00bf; stroke: #bf00bf"/>
     <use xlink:href="#m15c80d6ab1" x="171.18" y="115.395174" style="fill: #bf00bf; stroke: #bf00bf"/>
     <use xlink:href="#m15c80d6ab1" x="187.92" y="117.645504" style="fill: #bf00bf; stroke: #bf00bf"/>
     <use xlink:href="#m15c80d6ab1" x="204.66" y="123.224539" style="fill: #bf00bf; stroke: #bf00bf"/>
     <use xlink:href="#m15c80d6ab1" x="221.4" y="129.874619" style="fill: #bf00bf; stroke: #bf00bf"/>
     <use xlink:href="#m15c80d6ab1" x="238.14" y="135.774807" style="fill: #bf00bf; stroke: #bf00bf"/>
     <use xlink:href="#m15c80d6ab1" x="254.88" y="140.090422" style="fill: #bf00bf; stroke: #bf00bf"/>
     <use xlink:href="#m15c80d6ab1" x="271.62" y="143.12269" style="fill: #bf00bf; stroke: #bf00bf"/>
     <use xlink:href="#m15c80d6ab1" x="288.36" y="146.033659" style="fill: #bf00bf; stroke: #bf00bf"/>
     <use xlink:href="#m15c80d6ab1" x="305.1" y="150.211908" style="fill: #bf00bf; stroke: #bf00bf"/>
     <use xlink:href="#m15c80d6ab1" x="321.84" y="156.434922" style="fill: #bf00bf; stroke: #bf00bf"/>
     <use xlink:href="#m15c80d6ab1" x="338.58" y="164.074381" style="fill: #bf00bf; stroke: #bf00bf"/>
     <use xlink:href="#m15c80d6ab1" x="355.32" y="170.680951" style="fill: #bf00bf; stroke: #bf00bf"/>
     <use xlink:href="#m15c80d6ab1" x="372.06" y="172.375554" style="fill: #bf00bf; stroke: #bf00bf"/>
     <use xlink:href="#m15c80d6ab1" x="388.8" y="165.564425" style="fill: #bf00bf; stroke: #bf00bf"/>
     <use xlink:href="#m15c80d6ab1" x="405.54" y="150.585645" style="fill: #bf00bf; stroke: #bf00bf"/>
     <use xlink:href="#m15c80d6ab1" x="422.28" y="137.985189" style="fill: #bf00bf; stroke: #bf00bf"/>
     <use xlink:href="#m15c80d6ab1" x="439.02" y="158.210891" style="fill: #bf00bf; stroke: #bf00bf"/>
    </g>
   </g>
   <g id="line2d_17">
    <path d="M 54 172.365639 
L 57.348 171.432032 
L 60.696 172.667881 
L 64.044 175.476329 
L 67.392 179.35054 
L 70.74 183.864977 
L 74.088 188.667222 
L 77.436 193.470336 
L 80.784 198.045715 
L 84.132 202.216446 
L 87.48 205.851126 
L 90.828 208.858134 
L 94.176 211.180329 
L 97.524 212.790163 
L 100.872 213.685188 
L 104.22 213.883936 
L 107.568 213.422159 
L 110.916 212.349408 
L 114.264 210.725938 
L 117.612 208.619917 
L 120.96 206.104929 
L 124.308 203.257755 
L 127.656 200.156404 
L 131.004 196.878401 
L 134.352 193.499297 
L 137.7 190.091403 
L 141.048 186.722713 
L 144.396 183.456032 
L 147.744 180.348268 
L 151.092 177.449888 
L 154.44 174.80453 
L 157.788 172.448747 
L 161.136 170.411877 
L 164.484 168.716036 
L 167.832 167.376206 
L 171.18 166.40042 
L 174.528 165.790029 
L 177.876 165.540045 
L 181.224 165.639546 
L 184.572 166.072133 
L 187.92 166.81644 
L 191.268 167.846669 
L 194.616 169.13317 
L 197.964 170.643029 
L 201.312 172.340678 
L 204.66 174.188511 
L 208.008 176.147498 
L 211.356 178.177796 
L 214.704 180.239351 
L 218.052 182.292477 
L 221.4 184.298417 
L 224.748 186.219881 
L 228.096 188.021544 
L 231.444 189.670518 
L 234.792 191.136778 
L 238.14 192.393554 
L 241.488 193.417667 
L 244.836 194.189831 
L 248.184 194.694896 
L 251.532 194.92204 
L 254.88 194.864914 
L 258.228 194.52173 
L 261.576 193.895287 
L 264.924 192.99296 
L 268.272 191.826614 
L 271.62 190.412475 
L 274.968 188.770949 
L 278.316 186.926379 
L 281.664 184.906756 
L 285.012 182.743386 
L 288.36 180.470498 
L 291.708 178.12482 
L 295.056 175.745102 
L 298.404 173.371612 
L 301.752 171.045587 
L 305.1 168.808662 
L 308.448 166.702268 
L 311.796 164.767011 
L 315.144 163.042033 
L 318.492 161.564365 
L 321.84 160.368275 
L 325.188 159.484612 
L 328.536 158.940171 
L 331.884 158.757057 
L 335.232 158.952087 
L 338.58 159.536209 
L 341.928 160.513973 
L 345.276 161.883034 
L 348.624 163.633725 
L 351.972 165.748683 
L 355.32 168.202561 
L 358.668 170.961814 
L 362.016 173.984583 
L 365.364 177.220694 
L 368.712 180.611754 
L 372.06 184.091394 
L 375.408 187.585642 
L 378.756 191.013448 
L 382.104 194.287375 
L 385.452 197.314469 
L 388.8 199.997315 
L 392.148 202.2353 
L 395.496 203.926095 
L 398.844 204.967364 
L 402.192 205.258729 
L 405.54 204.703986 
L 408.888 203.213608 
L 412.236 200.707536 
L 415.584 197.118283 
L 418.932 192.394358 
L 422.28 186.504044 
L 425.628 179.43952 
L 428.976 171.22138 
" clip-path="url(#p7b05fdb853)" style="fill: none; stroke-dasharray: 5.55,2.4; stroke-dashoffset: 0; stroke: #0000ff; stroke-width: 1.5"/>
    <defs>
     <path id="m2c88dfa370" d="M 0 3 
C 0.795609 3 1.55874 2.683901 2.12132 2.12132 
C 2.683901 1.55874 3 0.795609 3 0 
C 3 -0.795609 2.683901 -1.55874 2.12132 -2.12132 
C 1.55874 -2.683901 0.795609 -3 0 -3 
C -0.795609 -3 -1.55874 -2.683901 -2.12132 -2.12132 
C -2.683901 -1.55874 -3 -0.795609 -3 0 
C -3 0.795609 -2.683901 1.55874 -2.12132 2.12132 
C -1.55874 2.683901 -0.795609 3 0 3 
z
" style="stroke: #0000ff"/>
    </defs>
    <g clip-path="url(#p7b05fdb853)">
     <use xlink:href="#m2c88dfa370" x="54" y="172.365639" style="fill: #0000ff; stroke: #0000ff"/>
     <use xlink:href="#m2c88dfa370" x="70.74" y="183.864977" style="fill: #0000ff; stroke: #0000ff"/>
     <use xlink:href="#m2c88dfa370" x="87.48" y="205.851126" style="fill: #0000ff; stroke: #0000ff"/>
     <use xlink:href="#m2c88dfa370" x="104.22" y="213.883936" style="fill: #0000ff; stroke: #0000ff"/>
     <use xlink:href="#m2c88dfa370" x="120.96" y="206.104929" style="fill: #0000ff; stroke: #0000ff"/>
     <use xlink:href="#m2c88dfa370" x="137.7" y="190.091403" style="fill: #0000ff; stroke: #0000ff"/>
     <use xlink:href="#m2c88dfa370" x="154.44" y="174.80453" style="fill: #0000ff; stroke: #0000ff"/>
     <use xlink:href="#m2c88dfa370" x="171.18" y="166.40042" style="fill: #0000ff; stroke: #0000ff"/>
     <use xlink:href="#m2c88dfa370" x="187.92" y="166.81644" style="fill: #0000ff; stroke: #0000ff"/>
     <use xlink:href="#m2c88dfa370" x="204.66" y="174.188511" style="fill: #0000ff; stroke: #0000ff"/>
     <use xlink:href="#m2c88dfa370" x="221.4" y="184.298417" style="fill: #0000ff; stroke: #0000ff"/>
     <use xlink:href="#m2c88dfa370" x="238.14" y="192.393554" style="fill: #0000ff; stroke: #0000ff"/>
     <use xlink:href="#m2c88dfa370" x="254.88" y="194.864914" style="fill: #0000ff; stroke: #0000ff"/>
     <use xlink:href="#m2c88dfa370" x="271.62" y="190.412475" style="fill: #0000ff; stroke: #0000ff"/>
     <use xlink:href="#m2c88dfa370" x="288.36" y="180.470498" style="fill: #0000ff; stroke: #0000ff"/>
     <use xlink:href="#m2c88dfa370" x="305.1" y="168.808662" style="fill: #0000ff; stroke: #0000ff"/>
     <use xlink:href="#m2c88dfa370" x="321.84" y="160.368275" style="fill: #0000ff; stroke: #0000ff"/>
     <use xlink:href="#m2c88dfa370" x="338.58" y="159.536209" style="fill: #0000ff; stroke: #0000ff"/>
     <use xlink:href="#m2c88dfa370" x="355.32" y="168.202561" style="fill: #0000ff; stroke: #0000ff"/>
     <use xlink:href="#m2c88dfa370" x="372.06" y="184.091394" style="fill: #0000ff; stroke: #0000ff"/>
     <use xlink:href="#m2c88dfa370" x="388.8" y="199.997315" style="fill: #0000ff; stroke: #0000ff"/>
     <use xlink:href="#m2c88dfa370" x="405.54" y="204.703986" style="fill: #0000ff; stroke: #0000ff"/>
     <use xlink:href="#m2c88dfa370" x="422.28" y="186.504044" style="fill: #0000ff; stroke: #0000ff"/>
    </g>
   </g>
   <g id="line2d_18">
    <path d="M 54 169.995347 
L 57.348 170.891514 
L 60.696 173.211957 
L 64.044 176.543426 
L 67.392 180.53669 
L 70.74 184.900109 
L 74.088 189.393639 
L 77.436 193.823243 
L 80.784 198.035688 
L 84.132 201.913723 
L 87.48 205.371606 
L 90.828 208.350985 
L 94.176 210.817096 
L 97.524 212.755274 
L 100.872 214.167765 
L 104.22 215.070819 
L 107.568 215.492045 
L 110.916 215.468028 
L 114.264 215.042181 
L 117.612 214.262828 
L 120.96 213.1815 
L 124.308 211.851431 
L 127.656 210.326243 
L 131.004 208.658815 
L 134.352 206.900312 
L 137.7 205.099368 
L 141.048 203.301415 
L 144.396 201.548148 
L 147.744 199.877105 
L 151.092 198.321369 
L 154.44 196.909362 
L 157.788 195.664745 
L 161.136 194.606391 
L 164.484 193.748444 
L 167.832 193.100436 
L 171.18 192.667472 
L 174.528 192.45046 
L 177.876 192.44639 
L 181.224 192.648648 
L 184.572 193.047359 
L 187.92 193.629757 
L 191.268 194.380572 
L 194.616 195.282425 
L 197.964 196.316236 
L 201.312 197.461631 
L 204.66 198.697341 
L 208.008 200.001599 
L 211.356 201.352521 
L 214.704 202.728475 
L 218.052 204.108425 
L 221.4 205.472255 
L 224.748 206.801071 
L 228.096 208.077465 
L 231.444 209.285757 
L 234.792 210.412204 
L 238.14 211.445167 
L 241.488 212.375255 
L 244.836 213.195418 
L 248.184 213.901017 
L 251.532 214.489849 
L 254.88 214.962133 
L 258.228 215.320465 
L 261.576 215.569733 
L 264.924 215.716997 
L 268.272 215.771335 
L 271.62 215.743655 
L 274.968 215.646484 
L 278.316 215.493714 
L 281.664 215.300339 
L 285.012 215.082158 
L 288.36 214.855462 
L 291.708 214.636703 
L 295.056 214.442157 
L 298.404 214.287572 
L 301.752 214.187817 
L 305.1 214.156528 
L 308.448 214.205766 
L 311.796 214.345685 
L 315.144 214.584218 
L 318.492 214.926781 
L 321.84 215.376023 
L 325.188 215.931596 
L 328.536 216.589978 
L 331.884 217.34435 
L 335.232 218.184529 
L 338.58 219.096965 
L 341.928 220.064823 
L 345.276 221.068142 
L 348.624 222.084095 
L 351.972 223.087343 
L 355.32 224.050509 
L 358.668 224.944777 
L 362.016 225.740615 
L 365.364 226.408648 
L 368.712 226.92069 
L 372.06 227.250929 
L 375.408 227.377308 
L 378.756 227.283078 
L 382.104 226.958566 
L 385.452 226.403148 
L 388.8 225.627462 
L 392.148 224.655845 
L 395.496 223.529042 
L 398.844 222.307166 
L 402.192 221.07296 
L 405.54 219.935337 
L 408.888 219.033241 
L 412.236 218.539839 
L 415.584 218.667048 
L 418.932 219.670422 
L 422.28 221.854418 
L 425.628 225.578047 
L 428.976 231.260938 
" clip-path="url(#p7b05fdb853)" style="fill: none; stroke: #008000; stroke-width: 1.5; stroke-linecap: square"/>
    <defs>
     <path id="m5e9f22629f" d="M -3 3 
L 3 -3 
M -3 -3 
L 3 3 
" style="stroke: #008000"/>
    </defs>
    <g clip-path="url(#p7b05fdb853)">
     <use xlink:href="#m5e9f22629f" x="54" y="169.995347" style="fill: #008000; stroke: #008000"/>
     <use xlink:href="#m5e9f22629f" x="70.74" y="184.900109" style="fill: #008000; stroke: #008000"/>
     <use xlink:href="#m5e9f22629f" x="87.48" y="205.371606" style="fill: #008000; stroke: #008000"/>
     <use xlink:href="#m5e9f22629f" x="104.22" y="215.070819" style="fill: #008000; stroke: #008000"/>
     <use xlink:href="#m5e9f22629f" x="120.96" y="213.1815" style="fill: #008000; stroke: #008000"/>
     <use xlink:href="#m5e9f22629f" x="137.7" y="205.099368" style="fill: #008000; stroke: #008000"/>
     <use xlink:href="#m5e9f22629f" x="154.44" y="196.909362" style="fill: #008000; stroke: #008000"/>
     <use xlink:href="#m5e9f22629f" x="171.18" y="192.667472" style="fill: #008000; stroke: #008000"/>
     <use xlink:href="#m5e9f22629f" x="187.92" y="193.629757" style="fill: #008000; stroke: #008000"/>
     <use xlink:href="#m5e9f22629f" x="204.66" y="198.697341" style="fill: #008000; stroke: #008000"/>
     <use xlink:href="#m5e9f22629f" x="221.4" y="205.472255" style="fill: #008000; stroke: #008000"/>
     <use xlink:href="#m5e9f22629f" x="238.14" y="211.445167" style="fill: #008000; stroke: #008000"/>
     <use xlink:href="#m5e9f22629f" x="254.88" y="214.962133" style="fill: #008000; stroke: #008000"/>
     <use xlink:href="#m5e9f22629f" x="271.62" y="215.743655" style="fill: #008000; stroke: #008000"/>
     <use xlink:href="#m5e9f22629f" x="288.36" y="214.855462" style="fill: #008000; stroke: #008000"/>
     <use xlink:href="#m5e9f22629f" x="305.1" y="214.156528" style="fill: #008000; stroke: #008000"/>
     <use xlink:href="#m5e9f22629f" x="321.84" y="215.376023" style="fill: #008000; stroke: #008000"/>
     <use xlink:href="#m5e9f22629f" x="338.58" y="219.096965" style="fill: #008000; stroke: #008000"/>
     <use xlink:href="#m5e9f22629f" x="355.32" y="224.050509" style="fill: #008000; stroke: #008000"/>
     <use xlink:href="#m5e9f22629f" x="372.06" y="227.250929" style="fill: #008000; stroke: #008000"/>
     <use xlink:href="#m5e9f22629f" x="388.8" y="225.627462" style="fill: #008000; stroke: #008000"/>
     <use xlink:href="#m5e9f22629f" x="405.54" y="219.935337" style="fill: #008000; stroke: #008000"/>
     <use xlink:href="#m5e9f22629f" x="422.28" y="221.854418" style="fill: #008000; stroke: #008000"/>
    </g>
   </g>
   <g id="patch_3">
    <path d="M 54 252 
L 54 34.56 
" style="fill: none; stroke: #000000; stroke-width: 0.8; stroke-linejoin: miter; stroke-linecap: square"/>
   </g>
   <g id="patch_4">
    <path d="M 388.8 252 
L 388.8 34.56 
" style="fill: none; stroke: #000000; stroke-width: 0.8; stroke-linejoin: miter; stroke-linecap: square"/>
   </g>
   <g id="patch_5">
    <path d="M 54 252 
L 388.8 252 
" style="fill: none; stroke: #000000; stroke-width: 0.8; stroke-linejoin: miter; stroke-linecap: square"/>
   </g>
   <g id="patch_6">
    <path d="M 54 34.56 
L 388.8 34.56 
" style="fill: none; stroke: #000000; stroke-width: 0.8; stroke-linejoin: miter; stroke-linecap: square"/>
   </g>
   <g id="text_16">
    <!-- Experiment 1 with batch size 4000 -->
    <g transform="translate(116.80875 28.56)scale(0.12 -0.12)">
     <defs>
      <path id="DejaVuSans-45" d="M 628 4666 
L 3578 4666 
L 3578 4134 
L 1259 4134 
L 1259 2753 
L 3481 2753 
L 3481 2222 
L 1259 2222 
L 1259 531 
L 3634 531 
L 3634 0 
L 628 0 
L 628 4666 
z
" transform="scale(0.015625)"/>
      <path id="DejaVuSans-78" d="M 3513 3500 
L 2247 1797 
L 3578 0 
L 2900 0 
L 1881 1375 
L 863 0 
L 184 0 
L 1544 1831 
L 300 3500 
L 978 3500 
L 1906 2253 
L 2834 3500 
L 3513 3500 
z
" transform="scale(0.015625)"/>
      <path id="DejaVuSans-70" d="M 1159 525 
L 1159 -1331 
L 581 -1331 
L 581 3500 
L 1159 3500 
L 1159 2969 
Q 1341 3281 1617 3432 
Q 1894 3584 2278 3584 
Q 2916 3584 3314 3078 
Q 3713 2572 3713 1747 
Q 3713 922 3314 415 
Q 2916 -91 2278 -91 
Q 1894 -91 1617 61 
Q 1341 213 1159 525 
z
M 3116 1747 
Q 3116 2381 2855 2742 
Q 2594 3103 2138 3103 
Q 1681 3103 1420 2742 
Q 1159 2381 1159 1747 
Q 1159 1113 1420 752 
Q 1681 391 2138 391 
Q 2594 391 2855 752 
Q 3116 1113 3116 1747 
z
" transform="scale(0.015625)"/>
      <path id="DejaVuSans-6e" d="M 3513 2113 
L 3513 0 
L 2938 0 
L 2938 2094 
Q 2938 2591 2744 2837 
Q 2550 3084 2163 3084 
Q 1697 3084 1428 2787 
Q 1159 2491 1159 1978 
L 1159 0 
L 581 0 
L 581 3500 
L 1159 3500 
L 1159 2956 
Q 1366 3272 1645 3428 
Q 1925 3584 2291 3584 
Q 2894 3584 3203 3211 
Q 3513 2838 3513 2113 
z
" transform="scale(0.015625)"/>
      <path id="DejaVuSans-77" d="M 269 3500 
L 844 3500 
L 1563 769 
L 2278 3500 
L 2956 3500 
L 3675 769 
L 4391 3500 
L 4966 3500 
L 4050 0 
L 3372 0 
L 2619 2869 
L 1863 0 
L 1184 0 
L 269 3500 
z
" transform="scale(0.015625)"/>
      <path id="DejaVuSans-68" d="M 3513 2113 
L 3513 0 
L 2938 0 
L 2938 2094 
Q 2938 2591 2744 2837 
Q 2550 3084 2163 3084 
Q 1697 3084 1428 2787 
Q 1159 2491 1159 1978 
L 1159 0 
L 581 0 
L 581 4863 
L 1159 4863 
L 1159 2956 
Q 1366 3272 1645 3428 
Q 1925 3584 2291 3584 
Q 2894 3584 3203 3211 
Q 3513 2838 3513 2113 
z
" transform="scale(0.015625)"/>
      <path id="DejaVuSans-62" d="M 3116 1747 
Q 3116 2381 2855 2742 
Q 2594 3103 2138 3103 
Q 1681 3103 1420 2742 
Q 1159 2381 1159 1747 
Q 1159 1113 1420 752 
Q 1681 391 2138 391 
Q 2594 391 2855 752 
Q 3116 1113 3116 1747 
z
M 1159 2969 
Q 1341 3281 1617 3432 
Q 1894 3584 2278 3584 
Q 2916 3584 3314 3078 
Q 3713 2572 3713 1747 
Q 3713 922 3314 415 
Q 2916 -91 2278 -91 
Q 1894 -91 1617 61 
Q 1341 213 1159 525 
L 1159 0 
L 581 0 
L 581 4863 
L 1159 4863 
L 1159 2969 
z
" transform="scale(0.015625)"/>
      <path id="DejaVuSans-63" d="M 3122 3366 
L 3122 2828 
Q 2878 2963 2633 3030 
Q 2388 3097 2138 3097 
Q 1578 3097 1268 2742 
Q 959 2388 959 1747 
Q 959 1106 1268 751 
Q 1578 397 2138 397 
Q 2388 397 2633 464 
Q 2878 531 3122 666 
L 3122 134 
Q 2881 22 2623 -34 
Q 2366 -91 2075 -91 
Q 1284 -91 818 406 
Q 353 903 353 1747 
Q 353 2603 823 3093 
Q 1294 3584 2113 3584 
Q 2378 3584 2631 3529 
Q 2884 3475 3122 3366 
z
" transform="scale(0.015625)"/>
      <path id="DejaVuSans-7a" d="M 353 3500 
L 3084 3500 
L 3084 2975 
L 922 459 
L 3084 459 
L 3084 0 
L 275 0 
L 275 525 
L 2438 3041 
L 353 3041 
L 353 3500 
z
" transform="scale(0.015625)"/>
     </defs>
     <use xlink:href="#DejaVuSans-45"/>
     <use xlink:href="#DejaVuSans-78" x="63.183594"/>
     <use xlink:href="#DejaVuSans-70" x="122.363281"/>
     <use xlink:href="#DejaVuSans-65" x="185.839844"/>
     <use xlink:href="#DejaVuSans-72" x="247.363281"/>
     <use xlink:href="#DejaVuSans-69" x="288.476562"/>
     <use xlink:href="#DejaVuSans-6d" x="316.259766"/>
     <use xlink:href="#DejaVuSans-65" x="413.671875"/>
     <use xlink:href="#DejaVuSans-6e" x="475.195312"/>
     <use xlink:href="#DejaVuSans-74" x="538.574219"/>
     <use xlink:href="#DejaVuSans-20" x="577.783203"/>
     <use xlink:href="#DejaVuSans-31" x="609.570312"/>
     <use xlink:href="#DejaVuSans-20" x="673.193359"/>
     <use xlink:href="#DejaVuSans-77" x="704.980469"/>
     <use xlink:href="#DejaVuSans-69" x="786.767578"/>
     <use xlink:href="#DejaVuSans-74" x="814.550781"/>
     <use xlink:href="#DejaVuSans-68" x="853.759766"/>
     <use xlink:href="#DejaVuSans-20" x="917.138672"/>
     <use xlink:href="#DejaVuSans-62" x="948.925781"/>
     <use xlink:href="#DejaVuSans-61" x="1012.402344"/>
     <use xlink:href="#DejaVuSans-74" x="1073.681641"/>
     <use xlink:href="#DejaVuSans-63" x="1112.890625"/>
     <use xlink:href="#DejaVuSans-68" x="1167.871094"/>
     <use xlink:href="#DejaVuSans-20" x="1231.25"/>
     <use xlink:href="#DejaVuSans-73" x="1263.037109"/>
     <use xlink:href="#DejaVuSans-69" x="1315.136719"/>
     <use xlink:href="#DejaVuSans-7a" x="1342.919922"/>
     <use xlink:href="#DejaVuSans-65" x="1395.410156"/>
     <use xlink:href="#DejaVuSans-20" x="1456.933594"/>
     <use xlink:href="#DejaVuSans-34" x="1488.720703"/>
     <use xlink:href="#DejaVuSans-30" x="1552.34375"/>
     <use xlink:href="#DejaVuSans-30" x="1615.966797"/>
     <use xlink:href="#DejaVuSans-30" x="1679.589844"/>
    </g>
   </g>
   <g id="legend_1">
    <g id="patch_7">
     <path d="M 270.917188 115.950625 
L 381.8 115.950625 
Q 383.8 115.950625 383.8 113.950625 
L 383.8 41.56 
Q 383.8 39.56 381.8 39.56 
L 270.917188 39.56 
Q 268.917188 39.56 268.917188 41.56 
L 268.917188 113.950625 
Q 268.917188 115.950625 270.917188 115.950625 
z
" style="fill: #ffffff; opacity: 0.8; stroke: #cccccc; stroke-linejoin: miter"/>
    </g>
    <g id="line2d_19">
     <path d="M 272.917188 47.658437 
L 282.917188 47.658437 
L 292.917188 47.658437 
" style="fill: none; stroke: #ff0000; stroke-width: 1.5; stroke-linecap: square"/>
     <g>
      <use xlink:href="#m933f4decde" x="282.917188" y="47.658437" style="fill: #ff0000; stroke: #ff0000; stroke-linejoin: miter"/>
     </g>
    </g>
    <g id="text_17">
     <!-- PA -->
     <g transform="translate(300.917188 51.158437)scale(0.1 -0.1)">
      <defs>
       <path id="DejaVuSans-50" d="M 1259 4147 
L 1259 2394 
L 2053 2394 
Q 2494 2394 2734 2622 
Q 2975 2850 2975 3272 
Q 2975 3691 2734 3919 
Q 2494 4147 2053 4147 
L 1259 4147 
z
M 628 4666 
L 2053 4666 
Q 2838 4666 3239 4311 
Q 3641 3956 3641 3272 
Q 3641 2581 3239 2228 
Q 2838 1875 2053 1875 
L 1259 1875 
L 1259 0 
L 628 0 
L 628 4666 
z
" transform="scale(0.015625)"/>
       <path id="DejaVuSans-41" d="M 2188 4044 
L 1331 1722 
L 3047 1722 
L 2188 4044 
z
M 1831 4666 
L 2547 4666 
L 4325 0 
L 3669 0 
L 3244 1197 
L 1141 1197 
L 716 0 
L 50 0 
L 1831 4666 
z
" transform="scale(0.015625)"/>
      </defs>
      <use xlink:href="#DejaVuSans-50"/>
      <use xlink:href="#DejaVuSans-41" x="53.927734"/>
     </g>
    </g>
    <g id="line2d_20">
     <path d="M 272.917188 62.336562 
L 282.917188 62.336562 
L 292.917188 62.336562 
" style="fill: none; stroke: #000000; stroke-width: 1.5; stroke-linecap: square"/>
     <g>
      <use xlink:href="#mb91addb6cf" x="282.917188" y="62.336562" style="stroke: #000000; stroke-linejoin: miter"/>
     </g>
    </g>
    <g id="text_18">
     <!-- SVM-once -->
     <g transform="translate(300.917188 65.836562)scale(0.1 -0.1)">
      <defs>
       <path id="DejaVuSans-53" d="M 3425 4513 
L 3425 3897 
Q 3066 4069 2747 4153 
Q 2428 4238 2131 4238 
Q 1616 4238 1336 4038 
Q 1056 3838 1056 3469 
Q 1056 3159 1242 3001 
Q 1428 2844 1947 2747 
L 2328 2669 
Q 3034 2534 3370 2195 
Q 3706 1856 3706 1288 
Q 3706 609 3251 259 
Q 2797 -91 1919 -91 
Q 1588 -91 1214 -16 
Q 841 59 441 206 
L 441 856 
Q 825 641 1194 531 
Q 1563 422 1919 422 
Q 2459 422 2753 634 
Q 3047 847 3047 1241 
Q 3047 1584 2836 1778 
Q 2625 1972 2144 2069 
L 1759 2144 
Q 1053 2284 737 2584 
Q 422 2884 422 3419 
Q 422 4038 858 4394 
Q 1294 4750 2059 4750 
Q 2388 4750 2728 4690 
Q 3069 4631 3425 4513 
z
" transform="scale(0.015625)"/>
       <path id="DejaVuSans-56" d="M 1831 0 
L 50 4666 
L 709 4666 
L 2188 738 
L 3669 4666 
L 4325 4666 
L 2547 0 
L 1831 0 
z
" transform="scale(0.015625)"/>
       <path id="DejaVuSans-4d" d="M 628 4666 
L 1569 4666 
L 2759 1491 
L 3956 4666 
L 4897 4666 
L 4897 0 
L 4281 0 
L 4281 4097 
L 3078 897 
L 2444 897 
L 1241 4097 
L 1241 0 
L 628 0 
L 628 4666 
z
" transform="scale(0.015625)"/>
       <path id="DejaVuSans-2d" d="M 313 2009 
L 1997 2009 
L 1997 1497 
L 313 1497 
L 313 2009 
z
" transform="scale(0.015625)"/>
      </defs>
      <use xlink:href="#DejaVuSans-53"/>
      <use xlink:href="#DejaVuSans-56" x="63.476562"/>
      <use xlink:href="#DejaVuSans-4d" x="131.884766"/>
      <use xlink:href="#DejaVuSans-2d" x="218.164062"/>
      <use xlink:href="#DejaVuSans-6f" x="256.123047"/>
      <use xlink:href="#DejaVuSans-6e" x="317.304688"/>
      <use xlink:href="#DejaVuSans-63" x="380.683594"/>
      <use xlink:href="#DejaVuSans-65" x="435.664062"/>
     </g>
    </g>
    <g id="line2d_21">
     <path d="M 272.917188 77.014687 
L 282.917188 77.014687 
L 292.917188 77.014687 
" style="fill: none; stroke-dasharray: 5.55,2.4; stroke-dashoffset: 0; stroke: #bf00bf; stroke-width: 1.5"/>
     <g>
      <use xlink:href="#m15c80d6ab1" x="282.917188" y="77.014687" style="fill: #bf00bf; stroke: #bf00bf"/>
     </g>
    </g>
    <g id="text_19">
     <!-- SVM-daily -->
     <g transform="translate(300.917188 80.514687)scale(0.1 -0.1)">
      <defs>
       <path id="DejaVuSans-64" d="M 2906 2969 
L 2906 4863 
L 3481 4863 
L 3481 0 
L 2906 0 
L 2906 525 
Q 2725 213 2448 61 
Q 2172 -91 1784 -91 
Q 1150 -91 751 415 
Q 353 922 353 1747 
Q 353 2572 751 3078 
Q 1150 3584 1784 3584 
Q 2172 3584 2448 3432 
Q 2725 3281 2906 2969 
z
M 947 1747 
Q 947 1113 1208 752 
Q 1469 391 1925 391 
Q 2381 391 2643 752 
Q 2906 1113 2906 1747 
Q 2906 2381 2643 2742 
Q 2381 3103 1925 3103 
Q 1469 3103 1208 2742 
Q 947 2381 947 1747 
z
" transform="scale(0.015625)"/>
      </defs>
      <use xlink:href="#DejaVuSans-53"/>
      <use xlink:href="#DejaVuSans-56" x="63.476562"/>
      <use xlink:href="#DejaVuSans-4d" x="131.884766"/>
      <use xlink:href="#DejaVuSans-2d" x="218.164062"/>
      <use xlink:href="#DejaVuSans-64" x="254.248047"/>
      <use xlink:href="#DejaVuSans-61" x="317.724609"/>
      <use xlink:href="#DejaVuSans-69" x="379.003906"/>
      <use xlink:href="#DejaVuSans-6c" x="406.787109"/>
      <use xlink:href="#DejaVuSans-79" x="434.570312"/>
     </g>
    </g>
    <g id="line2d_22">
     <path d="M 272.917188 91.692813 
L 282.917188 91.692813 
L 292.917188 91.692813 
" style="fill: none; stroke-dasharray: 5.55,2.4; stroke-dashoffset: 0; stroke: #0000ff; stroke-width: 1.5"/>
     <g>
      <use xlink:href="#m2c88dfa370" x="282.917188" y="91.692813" style="fill: #0000ff; stroke: #0000ff"/>
     </g>
    </g>
    <g id="text_20">
     <!-- SVM-multi-once -->
     <g transform="translate(300.917188 95.192813)scale(0.1 -0.1)">
      <use xlink:href="#DejaVuSans-53"/>
      <use xlink:href="#DejaVuSans-56" x="63.476562"/>
      <use xlink:href="#DejaVuSans-4d" x="131.884766"/>
      <use xlink:href="#DejaVuSans-2d" x="218.164062"/>
      <use xlink:href="#DejaVuSans-6d" x="254.248047"/>
      <use xlink:href="#DejaVuSans-75" x="351.660156"/>
      <use xlink:href="#DejaVuSans-6c" x="415.039062"/>
      <use xlink:href="#DejaVuSans-74" x="442.822266"/>
      <use xlink:href="#DejaVuSans-69" x="482.03125"/>
      <use xlink:href="#DejaVuSans-2d" x="509.814453"/>
      <use xlink:href="#DejaVuSans-6f" x="547.773438"/>
      <use xlink:href="#DejaVuSans-6e" x="608.955078"/>
      <use xlink:href="#DejaVuSans-63" x="672.333984"/>
      <use xlink:href="#DejaVuSans-65" x="727.314453"/>
     </g>
    </g>
    <g id="line2d_23">
     <path d="M 272.917188 106.370937 
L 282.917188 106.370937 
L 292.917188 106.370937 
" style="fill: none; stroke: #008000; stroke-width: 1.5; stroke-linecap: square"/>
     <g>
      <use xlink:href="#m5e9f22629f" x="282.917188" y="106.370937" style="fill: #008000; stroke: #008000"/>
     </g>
    </g>
    <g id="text_21">
     <!-- SVM-multi -->
     <g transform="translate(300.917188 109.870937)scale(0.1 -0.1)">
      <use xlink:href="#DejaVuSans-53"/>
      <use xlink:href="#DejaVuSans-56" x="63.476562"/>
      <use xlink:href="#DejaVuSans-4d" x="131.884766"/>
      <use xlink:href="#DejaVuSans-2d" x="218.164062"/>
      <use xlink:href="#DejaVuSans-6d" x="254.248047"/>
      <use xlink:href="#DejaVuSans-75" x="351.660156"/>
      <use xlink:href="#DejaVuSans-6c" x="415.039062"/>
      <use xlink:href="#DejaVuSans-74" x="442.822266"/>
      <use xlink:href="#DejaVuSans-69" x="482.03125"/>
     </g>
    </g>
   </g>
  </g>
 </g>
 <defs>
  <clipPath id="p7b05fdb853">
   <rect x="54" y="34.56" width="334.8" height="217.44"/>
  </clipPath>
 </defs>
</svg>
