<?xml version="1.0" encoding="utf-8" standalone="no"?>
<!DOCTYPE svg PUBLIC "-//W3C//DTD SVG 1.1//EN"
  "http://www.w3.org/Graphics/SVG/1.1/DTD/svg11.dtd">
<svg xmlns:xlink="http://www.w3.org/1999/xlink" width="432pt" height="288pt" viewBox="0 0 432 288" xmlns="http://www.w3.org/2000/svg" version="1.1">
 <metadata>
  <rdf:RDF xmlns:dc="http://purl.org/dc/elements/1.1/" xmlns:cc="http://creativecommons.org/ns#" xmlns:rdf="http://www.w3.org/1999/02/22-rdf-syntax-ns#">
   <cc:Work>
    <dc:type rdf:resource="http://purl.org/dc/dcmitype/StillImage"/>
    <dc:date>2022-07-23T16:08:06.437243</dc:date>
    <dc:format>image/svg+xml</dc:format>
    <dc:creator>
     <cc:Agent>
      <dc:title>Matplotlib v3.5.1, https://matplotlib.org/</dc:title>
     </cc:Agent>
    </dc:creator>
   </cc:Work>
  </rdf:RDF>
 </metadata>
 <defs>
  <style type="text/css">*{stroke-linejoin: round; stroke-linecap: butt}</style>
 </defs>
 <g id="figure_1">
  <g id="patch_1">
   <path d="M 0 288 
L 432 288 
L 432 0 
L 0 0 
L 0 288 
z
" style="fill: none"/>
  </g>
  <g id="axes_1">
   <g id="patch_2">
    <path d="M 54 252 
L 388.8 252 
L 388.8 34.56 
L 54 34.56 
z
" style="fill: #ffffff"/>
   </g>
   <g id="matplotlib.axis_1">
    <g id="xtick_1">
     <g id="line2d_1">
      <defs>
       <path id="mb0fef2d091" d="M 0 0 
L 0 3.5 
" style="stroke: #000000; stroke-width: 0.8"/>
      </defs>
      <g>
       <use xlink:href="#mb0fef2d091" x="54" y="252" style="stroke: #000000; stroke-width: 0.8"/>
      </g>
     </g>
     <g id="text_1">
      <!-- 0 -->
      <g transform="translate(50.81875 266.598437)scale(0.1 -0.1)">
       <defs>
        <path id="DejaVuSans-30" d="M 2034 4250 
Q 1547 4250 1301 3770 
Q 1056 3291 1056 2328 
Q 1056 1369 1301 889 
Q 1547 409 2034 409 
Q 2525 409 2770 889 
Q 3016 1369 3016 2328 
Q 3016 3291 2770 3770 
Q 2525 4250 2034 4250 
z
M 2034 4750 
Q 2819 4750 3233 4129 
Q 3647 3509 3647 2328 
Q 3647 1150 3233 529 
Q 2819 -91 2034 -91 
Q 1250 -91 836 529 
Q 422 1150 422 2328 
Q 422 3509 836 4129 
Q 1250 4750 2034 4750 
z
" transform="scale(0.015625)"/>
       </defs>
       <use xlink:href="#DejaVuSans-30"/>
      </g>
     </g>
    </g>
    <g id="xtick_2">
     <g id="line2d_2">
      <g>
       <use xlink:href="#mb0fef2d091" x="120.96" y="252" style="stroke: #000000; stroke-width: 0.8"/>
      </g>
     </g>
     <g id="text_2">
      <!-- 20 -->
      <g transform="translate(114.5975 266.598437)scale(0.1 -0.1)">
       <defs>
        <path id="DejaVuSans-32" d="M 1228 531 
L 3431 531 
L 3431 0 
L 469 0 
L 469 531 
Q 828 903 1448 1529 
Q 2069 2156 2228 2338 
Q 2531 2678 2651 2914 
Q 2772 3150 2772 3378 
Q 2772 3750 2511 3984 
Q 2250 4219 1831 4219 
Q 1534 4219 1204 4116 
Q 875 4013 500 3803 
L 500 4441 
Q 881 4594 1212 4672 
Q 1544 4750 1819 4750 
Q 2544 4750 2975 4387 
Q 3406 4025 3406 3419 
Q 3406 3131 3298 2873 
Q 3191 2616 2906 2266 
Q 2828 2175 2409 1742 
Q 1991 1309 1228 531 
z
" transform="scale(0.015625)"/>
       </defs>
       <use xlink:href="#DejaVuSans-32"/>
       <use xlink:href="#DejaVuSans-30" x="63.623047"/>
      </g>
     </g>
    </g>
    <g id="xtick_3">
     <g id="line2d_3">
      <g>
       <use xlink:href="#mb0fef2d091" x="187.92" y="252" style="stroke: #000000; stroke-width: 0.8"/>
      </g>
     </g>
     <g id="text_3">
      <!-- 40 -->
      <g transform="translate(181.5575 266.598437)scale(0.1 -0.1)">
       <defs>
        <path id="DejaVuSans-34" d="M 2419 4116 
L 825 1625 
L 2419 1625 
L 2419 4116 
z
M 2253 4666 
L 3047 4666 
L 3047 1625 
L 3713 1625 
L 3713 1100 
L 3047 1100 
L 3047 0 
L 2419 0 
L 2419 1100 
L 313 1100 
L 313 1709 
L 2253 4666 
z
" transform="scale(0.015625)"/>
       </defs>
       <use xlink:href="#DejaVuSans-34"/>
       <use xlink:href="#DejaVuSans-30" x="63.623047"/>
      </g>
     </g>
    </g>
    <g id="xtick_4">
     <g id="line2d_4">
      <g>
       <use xlink:href="#mb0fef2d091" x="254.88" y="252" style="stroke: #000000; stroke-width: 0.8"/>
      </g>
     </g>
     <g id="text_4">
      <!-- 60 -->
      <g transform="translate(248.5175 266.598437)scale(0.1 -0.1)">
       <defs>
        <path id="DejaVuSans-36" d="M 2113 2584 
Q 1688 2584 1439 2293 
Q 1191 2003 1191 1497 
Q 1191 994 1439 701 
Q 1688 409 2113 409 
Q 2538 409 2786 701 
Q 3034 994 3034 1497 
Q 3034 2003 2786 2293 
Q 2538 2584 2113 2584 
z
M 3366 4563 
L 3366 3988 
Q 3128 4100 2886 4159 
Q 2644 4219 2406 4219 
Q 1781 4219 1451 3797 
Q 1122 3375 1075 2522 
Q 1259 2794 1537 2939 
Q 1816 3084 2150 3084 
Q 2853 3084 3261 2657 
Q 3669 2231 3669 1497 
Q 3669 778 3244 343 
Q 2819 -91 2113 -91 
Q 1303 -91 875 529 
Q 447 1150 447 2328 
Q 447 3434 972 4092 
Q 1497 4750 2381 4750 
Q 2619 4750 2861 4703 
Q 3103 4656 3366 4563 
z
" transform="scale(0.015625)"/>
       </defs>
       <use xlink:href="#DejaVuSans-36"/>
       <use xlink:href="#DejaVuSans-30" x="63.623047"/>
      </g>
     </g>
    </g>
    <g id="xtick_5">
     <g id="line2d_5">
      <g>
       <use xlink:href="#mb0fef2d091" x="321.84" y="252" style="stroke: #000000; stroke-width: 0.8"/>
      </g>
     </g>
     <g id="text_5">
      <!-- 80 -->
      <g transform="translate(315.4775 266.598437)scale(0.1 -0.1)">
       <defs>
        <path id="DejaVuSans-38" d="M 2034 2216 
Q 1584 2216 1326 1975 
Q 1069 1734 1069 1313 
Q 1069 891 1326 650 
Q 1584 409 2034 409 
Q 2484 409 2743 651 
Q 3003 894 3003 1313 
Q 3003 1734 2745 1975 
Q 2488 2216 2034 2216 
z
M 1403 2484 
Q 997 2584 770 2862 
Q 544 3141 544 3541 
Q 544 4100 942 4425 
Q 1341 4750 2034 4750 
Q 2731 4750 3128 4425 
Q 3525 4100 3525 3541 
Q 3525 3141 3298 2862 
Q 3072 2584 2669 2484 
Q 3125 2378 3379 2068 
Q 3634 1759 3634 1313 
Q 3634 634 3220 271 
Q 2806 -91 2034 -91 
Q 1263 -91 848 271 
Q 434 634 434 1313 
Q 434 1759 690 2068 
Q 947 2378 1403 2484 
z
M 1172 3481 
Q 1172 3119 1398 2916 
Q 1625 2713 2034 2713 
Q 2441 2713 2670 2916 
Q 2900 3119 2900 3481 
Q 2900 3844 2670 4047 
Q 2441 4250 2034 4250 
Q 1625 4250 1398 4047 
Q 1172 3844 1172 3481 
z
" transform="scale(0.015625)"/>
       </defs>
       <use xlink:href="#DejaVuSans-38"/>
       <use xlink:href="#DejaVuSans-30" x="63.623047"/>
      </g>
     </g>
    </g>
    <g id="xtick_6">
     <g id="line2d_6">
      <g>
       <use xlink:href="#mb0fef2d091" x="388.8" y="252" style="stroke: #000000; stroke-width: 0.8"/>
      </g>
     </g>
     <g id="text_6">
      <!-- 100 -->
      <g transform="translate(379.25625 266.598437)scale(0.1 -0.1)">
       <defs>
        <path id="DejaVuSans-31" d="M 794 531 
L 1825 531 
L 1825 4091 
L 703 3866 
L 703 4441 
L 1819 4666 
L 2450 4666 
L 2450 531 
L 3481 531 
L 3481 0 
L 794 0 
L 794 531 
z
" transform="scale(0.015625)"/>
       </defs>
       <use xlink:href="#DejaVuSans-31"/>
       <use xlink:href="#DejaVuSans-30" x="63.623047"/>
       <use xlink:href="#DejaVuSans-30" x="127.246094"/>
      </g>
     </g>
    </g>
    <g id="text_7">
     <!-- Days -->
     <g transform="translate(208.921875 280.276563)scale(0.1 -0.1)">
      <defs>
       <path id="DejaVuSans-44" d="M 1259 4147 
L 1259 519 
L 2022 519 
Q 2988 519 3436 956 
Q 3884 1394 3884 2338 
Q 3884 3275 3436 3711 
Q 2988 4147 2022 4147 
L 1259 4147 
z
M 628 4666 
L 1925 4666 
Q 3281 4666 3915 4102 
Q 4550 3538 4550 2338 
Q 4550 1131 3912 565 
Q 3275 0 1925 0 
L 628 0 
L 628 4666 
z
" transform="scale(0.015625)"/>
       <path id="DejaVuSans-61" d="M 2194 1759 
Q 1497 1759 1228 1600 
Q 959 1441 959 1056 
Q 959 750 1161 570 
Q 1363 391 1709 391 
Q 2188 391 2477 730 
Q 2766 1069 2766 1631 
L 2766 1759 
L 2194 1759 
z
M 3341 1997 
L 3341 0 
L 2766 0 
L 2766 531 
Q 2569 213 2275 61 
Q 1981 -91 1556 -91 
Q 1019 -91 701 211 
Q 384 513 384 1019 
Q 384 1609 779 1909 
Q 1175 2209 1959 2209 
L 2766 2209 
L 2766 2266 
Q 2766 2663 2505 2880 
Q 2244 3097 1772 3097 
Q 1472 3097 1187 3025 
Q 903 2953 641 2809 
L 641 3341 
Q 956 3463 1253 3523 
Q 1550 3584 1831 3584 
Q 2591 3584 2966 3190 
Q 3341 2797 3341 1997 
z
" transform="scale(0.015625)"/>
       <path id="DejaVuSans-79" d="M 2059 -325 
Q 1816 -950 1584 -1140 
Q 1353 -1331 966 -1331 
L 506 -1331 
L 506 -850 
L 844 -850 
Q 1081 -850 1212 -737 
Q 1344 -625 1503 -206 
L 1606 56 
L 191 3500 
L 800 3500 
L 1894 763 
L 2988 3500 
L 3597 3500 
L 2059 -325 
z
" transform="scale(0.015625)"/>
       <path id="DejaVuSans-73" d="M 2834 3397 
L 2834 2853 
Q 2591 2978 2328 3040 
Q 2066 3103 1784 3103 
Q 1356 3103 1142 2972 
Q 928 2841 928 2578 
Q 928 2378 1081 2264 
Q 1234 2150 1697 2047 
L 1894 2003 
Q 2506 1872 2764 1633 
Q 3022 1394 3022 966 
Q 3022 478 2636 193 
Q 2250 -91 1575 -91 
Q 1294 -91 989 -36 
Q 684 19 347 128 
L 347 722 
Q 666 556 975 473 
Q 1284 391 1588 391 
Q 1994 391 2212 530 
Q 2431 669 2431 922 
Q 2431 1156 2273 1281 
Q 2116 1406 1581 1522 
L 1381 1569 
Q 847 1681 609 1914 
Q 372 2147 372 2553 
Q 372 3047 722 3315 
Q 1072 3584 1716 3584 
Q 2034 3584 2315 3537 
Q 2597 3491 2834 3397 
z
" transform="scale(0.015625)"/>
      </defs>
      <use xlink:href="#DejaVuSans-44"/>
      <use xlink:href="#DejaVuSans-61" x="77.001953"/>
      <use xlink:href="#DejaVuSans-79" x="138.28125"/>
      <use xlink:href="#DejaVuSans-73" x="197.460938"/>
     </g>
    </g>
   </g>
   <g id="matplotlib.axis_2">
    <g id="ytick_1">
     <g id="line2d_7">
      <defs>
       <path id="md017428b55" d="M 0 0 
L -3.5 0 
" style="stroke: #000000; stroke-width: 0.8"/>
      </defs>
      <g>
       <use xlink:href="#md017428b55" x="54" y="252" style="stroke: #000000; stroke-width: 0.8"/>
      </g>
     </g>
     <g id="text_8">
      <!-- 1.0 -->
      <g transform="translate(31.096875 255.799219)scale(0.1 -0.1)">
       <defs>
        <path id="DejaVuSans-2e" d="M 684 794 
L 1344 794 
L 1344 0 
L 684 0 
L 684 794 
z
" transform="scale(0.015625)"/>
       </defs>
       <use xlink:href="#DejaVuSans-31"/>
       <use xlink:href="#DejaVuSans-2e" x="63.623047"/>
       <use xlink:href="#DejaVuSans-30" x="95.410156"/>
      </g>
     </g>
    </g>
    <g id="ytick_2">
     <g id="line2d_8">
      <g>
       <use xlink:href="#md017428b55" x="54" y="215.76" style="stroke: #000000; stroke-width: 0.8"/>
      </g>
     </g>
     <g id="text_9">
      <!-- 1.5 -->
      <g transform="translate(31.096875 219.559219)scale(0.1 -0.1)">
       <defs>
        <path id="DejaVuSans-35" d="M 691 4666 
L 3169 4666 
L 3169 4134 
L 1269 4134 
L 1269 2991 
Q 1406 3038 1543 3061 
Q 1681 3084 1819 3084 
Q 2600 3084 3056 2656 
Q 3513 2228 3513 1497 
Q 3513 744 3044 326 
Q 2575 -91 1722 -91 
Q 1428 -91 1123 -41 
Q 819 9 494 109 
L 494 744 
Q 775 591 1075 516 
Q 1375 441 1709 441 
Q 2250 441 2565 725 
Q 2881 1009 2881 1497 
Q 2881 1984 2565 2268 
Q 2250 2553 1709 2553 
Q 1456 2553 1204 2497 
Q 953 2441 691 2322 
L 691 4666 
z
" transform="scale(0.015625)"/>
       </defs>
       <use xlink:href="#DejaVuSans-31"/>
       <use xlink:href="#DejaVuSans-2e" x="63.623047"/>
       <use xlink:href="#DejaVuSans-35" x="95.410156"/>
      </g>
     </g>
    </g>
    <g id="ytick_3">
     <g id="line2d_9">
      <g>
       <use xlink:href="#md017428b55" x="54" y="179.52" style="stroke: #000000; stroke-width: 0.8"/>
      </g>
     </g>
     <g id="text_10">
      <!-- 2.0 -->
      <g transform="translate(31.096875 183.319219)scale(0.1 -0.1)">
       <use xlink:href="#DejaVuSans-32"/>
       <use xlink:href="#DejaVuSans-2e" x="63.623047"/>
       <use xlink:href="#DejaVuSans-30" x="95.410156"/>
      </g>
     </g>
    </g>
    <g id="ytick_4">
     <g id="line2d_10">
      <g>
       <use xlink:href="#md017428b55" x="54" y="143.28" style="stroke: #000000; stroke-width: 0.8"/>
      </g>
     </g>
     <g id="text_11">
      <!-- 2.5 -->
      <g transform="translate(31.096875 147.079219)scale(0.1 -0.1)">
       <use xlink:href="#DejaVuSans-32"/>
       <use xlink:href="#DejaVuSans-2e" x="63.623047"/>
       <use xlink:href="#DejaVuSans-35" x="95.410156"/>
      </g>
     </g>
    </g>
    <g id="ytick_5">
     <g id="line2d_11">
      <g>
       <use xlink:href="#md017428b55" x="54" y="107.04" style="stroke: #000000; stroke-width: 0.8"/>
      </g>
     </g>
     <g id="text_12">
      <!-- 3.0 -->
      <g transform="translate(31.096875 110.839219)scale(0.1 -0.1)">
       <defs>
        <path id="DejaVuSans-33" d="M 2597 2516 
Q 3050 2419 3304 2112 
Q 3559 1806 3559 1356 
Q 3559 666 3084 287 
Q 2609 -91 1734 -91 
Q 1441 -91 1130 -33 
Q 819 25 488 141 
L 488 750 
Q 750 597 1062 519 
Q 1375 441 1716 441 
Q 2309 441 2620 675 
Q 2931 909 2931 1356 
Q 2931 1769 2642 2001 
Q 2353 2234 1838 2234 
L 1294 2234 
L 1294 2753 
L 1863 2753 
Q 2328 2753 2575 2939 
Q 2822 3125 2822 3475 
Q 2822 3834 2567 4026 
Q 2313 4219 1838 4219 
Q 1578 4219 1281 4162 
Q 984 4106 628 3988 
L 628 4550 
Q 988 4650 1302 4700 
Q 1616 4750 1894 4750 
Q 2613 4750 3031 4423 
Q 3450 4097 3450 3541 
Q 3450 3153 3228 2886 
Q 3006 2619 2597 2516 
z
" transform="scale(0.015625)"/>
       </defs>
       <use xlink:href="#DejaVuSans-33"/>
       <use xlink:href="#DejaVuSans-2e" x="63.623047"/>
       <use xlink:href="#DejaVuSans-30" x="95.410156"/>
      </g>
     </g>
    </g>
    <g id="ytick_6">
     <g id="line2d_12">
      <g>
       <use xlink:href="#md017428b55" x="54" y="70.8" style="stroke: #000000; stroke-width: 0.8"/>
      </g>
     </g>
     <g id="text_13">
      <!-- 3.5 -->
      <g transform="translate(31.096875 74.599219)scale(0.1 -0.1)">
       <use xlink:href="#DejaVuSans-33"/>
       <use xlink:href="#DejaVuSans-2e" x="63.623047"/>
       <use xlink:href="#DejaVuSans-35" x="95.410156"/>
      </g>
     </g>
    </g>
    <g id="ytick_7">
     <g id="line2d_13">
      <g>
       <use xlink:href="#md017428b55" x="54" y="34.56" style="stroke: #000000; stroke-width: 0.8"/>
      </g>
     </g>
     <g id="text_14">
      <!-- 4.0 -->
      <g transform="translate(31.096875 38.359219)scale(0.1 -0.1)">
       <use xlink:href="#DejaVuSans-34"/>
       <use xlink:href="#DejaVuSans-2e" x="63.623047"/>
       <use xlink:href="#DejaVuSans-30" x="95.410156"/>
      </g>
     </g>
    </g>
    <g id="text_15">
     <!-- Cumulative error rate (%) -->
     <g transform="translate(25.017187 207.495625)rotate(-90)scale(0.1 -0.1)">
      <defs>
       <path id="DejaVuSans-43" d="M 4122 4306 
L 4122 3641 
Q 3803 3938 3442 4084 
Q 3081 4231 2675 4231 
Q 1875 4231 1450 3742 
Q 1025 3253 1025 2328 
Q 1025 1406 1450 917 
Q 1875 428 2675 428 
Q 3081 428 3442 575 
Q 3803 722 4122 1019 
L 4122 359 
Q 3791 134 3420 21 
Q 3050 -91 2638 -91 
Q 1578 -91 968 557 
Q 359 1206 359 2328 
Q 359 3453 968 4101 
Q 1578 4750 2638 4750 
Q 3056 4750 3426 4639 
Q 3797 4528 4122 4306 
z
" transform="scale(0.015625)"/>
       <path id="DejaVuSans-75" d="M 544 1381 
L 544 3500 
L 1119 3500 
L 1119 1403 
Q 1119 906 1312 657 
Q 1506 409 1894 409 
Q 2359 409 2629 706 
Q 2900 1003 2900 1516 
L 2900 3500 
L 3475 3500 
L 3475 0 
L 2900 0 
L 2900 538 
Q 2691 219 2414 64 
Q 2138 -91 1772 -91 
Q 1169 -91 856 284 
Q 544 659 544 1381 
z
M 1991 3584 
L 1991 3584 
z
" transform="scale(0.015625)"/>
       <path id="DejaVuSans-6d" d="M 3328 2828 
Q 3544 3216 3844 3400 
Q 4144 3584 4550 3584 
Q 5097 3584 5394 3201 
Q 5691 2819 5691 2113 
L 5691 0 
L 5113 0 
L 5113 2094 
Q 5113 2597 4934 2840 
Q 4756 3084 4391 3084 
Q 3944 3084 3684 2787 
Q 3425 2491 3425 1978 
L 3425 0 
L 2847 0 
L 2847 2094 
Q 2847 2600 2669 2842 
Q 2491 3084 2119 3084 
Q 1678 3084 1418 2786 
Q 1159 2488 1159 1978 
L 1159 0 
L 581 0 
L 581 3500 
L 1159 3500 
L 1159 2956 
Q 1356 3278 1631 3431 
Q 1906 3584 2284 3584 
Q 2666 3584 2933 3390 
Q 3200 3197 3328 2828 
z
" transform="scale(0.015625)"/>
       <path id="DejaVuSans-6c" d="M 603 4863 
L 1178 4863 
L 1178 0 
L 603 0 
L 603 4863 
z
" transform="scale(0.015625)"/>
       <path id="DejaVuSans-74" d="M 1172 4494 
L 1172 3500 
L 2356 3500 
L 2356 3053 
L 1172 3053 
L 1172 1153 
Q 1172 725 1289 603 
Q 1406 481 1766 481 
L 2356 481 
L 2356 0 
L 1766 0 
Q 1100 0 847 248 
Q 594 497 594 1153 
L 594 3053 
L 172 3053 
L 172 3500 
L 594 3500 
L 594 4494 
L 1172 4494 
z
" transform="scale(0.015625)"/>
       <path id="DejaVuSans-69" d="M 603 3500 
L 1178 3500 
L 1178 0 
L 603 0 
L 603 3500 
z
M 603 4863 
L 1178 4863 
L 1178 4134 
L 603 4134 
L 603 4863 
z
" transform="scale(0.015625)"/>
       <path id="DejaVuSans-76" d="M 191 3500 
L 800 3500 
L 1894 563 
L 2988 3500 
L 3597 3500 
L 2284 0 
L 1503 0 
L 191 3500 
z
" transform="scale(0.015625)"/>
       <path id="DejaVuSans-65" d="M 3597 1894 
L 3597 1613 
L 953 1613 
Q 991 1019 1311 708 
Q 1631 397 2203 397 
Q 2534 397 2845 478 
Q 3156 559 3463 722 
L 3463 178 
Q 3153 47 2828 -22 
Q 2503 -91 2169 -91 
Q 1331 -91 842 396 
Q 353 884 353 1716 
Q 353 2575 817 3079 
Q 1281 3584 2069 3584 
Q 2775 3584 3186 3129 
Q 3597 2675 3597 1894 
z
M 3022 2063 
Q 3016 2534 2758 2815 
Q 2500 3097 2075 3097 
Q 1594 3097 1305 2825 
Q 1016 2553 972 2059 
L 3022 2063 
z
" transform="scale(0.015625)"/>
       <path id="DejaVuSans-20" transform="scale(0.015625)"/>
       <path id="DejaVuSans-72" d="M 2631 2963 
Q 2534 3019 2420 3045 
Q 2306 3072 2169 3072 
Q 1681 3072 1420 2755 
Q 1159 2438 1159 1844 
L 1159 0 
L 581 0 
L 581 3500 
L 1159 3500 
L 1159 2956 
Q 1341 3275 1631 3429 
Q 1922 3584 2338 3584 
Q 2397 3584 2469 3576 
Q 2541 3569 2628 3553 
L 2631 2963 
z
" transform="scale(0.015625)"/>
       <path id="DejaVuSans-6f" d="M 1959 3097 
Q 1497 3097 1228 2736 
Q 959 2375 959 1747 
Q 959 1119 1226 758 
Q 1494 397 1959 397 
Q 2419 397 2687 759 
Q 2956 1122 2956 1747 
Q 2956 2369 2687 2733 
Q 2419 3097 1959 3097 
z
M 1959 3584 
Q 2709 3584 3137 3096 
Q 3566 2609 3566 1747 
Q 3566 888 3137 398 
Q 2709 -91 1959 -91 
Q 1206 -91 779 398 
Q 353 888 353 1747 
Q 353 2609 779 3096 
Q 1206 3584 1959 3584 
z
" transform="scale(0.015625)"/>
       <path id="DejaVuSans-28" d="M 1984 4856 
Q 1566 4138 1362 3434 
Q 1159 2731 1159 2009 
Q 1159 1288 1364 580 
Q 1569 -128 1984 -844 
L 1484 -844 
Q 1016 -109 783 600 
Q 550 1309 550 2009 
Q 550 2706 781 3412 
Q 1013 4119 1484 4856 
L 1984 4856 
z
" transform="scale(0.015625)"/>
       <path id="DejaVuSans-25" d="M 4653 2053 
Q 4381 2053 4226 1822 
Q 4072 1591 4072 1178 
Q 4072 772 4226 539 
Q 4381 306 4653 306 
Q 4919 306 5073 539 
Q 5228 772 5228 1178 
Q 5228 1588 5073 1820 
Q 4919 2053 4653 2053 
z
M 4653 2450 
Q 5147 2450 5437 2106 
Q 5728 1763 5728 1178 
Q 5728 594 5436 251 
Q 5144 -91 4653 -91 
Q 4153 -91 3862 251 
Q 3572 594 3572 1178 
Q 3572 1766 3864 2108 
Q 4156 2450 4653 2450 
z
M 1428 4353 
Q 1159 4353 1004 4120 
Q 850 3888 850 3481 
Q 850 3069 1003 2837 
Q 1156 2606 1428 2606 
Q 1700 2606 1854 2837 
Q 2009 3069 2009 3481 
Q 2009 3884 1853 4118 
Q 1697 4353 1428 4353 
z
M 4250 4750 
L 4750 4750 
L 1831 -91 
L 1331 -91 
L 4250 4750 
z
M 1428 4750 
Q 1922 4750 2215 4408 
Q 2509 4066 2509 3481 
Q 2509 2891 2217 2550 
Q 1925 2209 1428 2209 
Q 931 2209 642 2551 
Q 353 2894 353 3481 
Q 353 4063 643 4406 
Q 934 4750 1428 4750 
z
" transform="scale(0.015625)"/>
       <path id="DejaVuSans-29" d="M 513 4856 
L 1013 4856 
Q 1481 4119 1714 3412 
Q 1947 2706 1947 2009 
Q 1947 1309 1714 600 
Q 1481 -109 1013 -844 
L 513 -844 
Q 928 -128 1133 580 
Q 1338 1288 1338 2009 
Q 1338 2731 1133 3434 
Q 928 4138 513 4856 
z
" transform="scale(0.015625)"/>
      </defs>
      <use xlink:href="#DejaVuSans-43"/>
      <use xlink:href="#DejaVuSans-75" x="69.824219"/>
      <use xlink:href="#DejaVuSans-6d" x="133.203125"/>
      <use xlink:href="#DejaVuSans-75" x="230.615234"/>
      <use xlink:href="#DejaVuSans-6c" x="293.994141"/>
      <use xlink:href="#DejaVuSans-61" x="321.777344"/>
      <use xlink:href="#DejaVuSans-74" x="383.056641"/>
      <use xlink:href="#DejaVuSans-69" x="422.265625"/>
      <use xlink:href="#DejaVuSans-76" x="450.048828"/>
      <use xlink:href="#DejaVuSans-65" x="509.228516"/>
      <use xlink:href="#DejaVuSans-20" x="570.751953"/>
      <use xlink:href="#DejaVuSans-65" x="602.539062"/>
      <use xlink:href="#DejaVuSans-72" x="664.0625"/>
      <use xlink:href="#DejaVuSans-72" x="703.425781"/>
      <use xlink:href="#DejaVuSans-6f" x="742.289062"/>
      <use xlink:href="#DejaVuSans-72" x="803.470703"/>
      <use xlink:href="#DejaVuSans-20" x="844.583984"/>
      <use xlink:href="#DejaVuSans-72" x="876.371094"/>
      <use xlink:href="#DejaVuSans-61" x="917.484375"/>
      <use xlink:href="#DejaVuSans-74" x="978.763672"/>
      <use xlink:href="#DejaVuSans-65" x="1017.972656"/>
      <use xlink:href="#DejaVuSans-20" x="1079.496094"/>
      <use xlink:href="#DejaVuSans-28" x="1111.283203"/>
      <use xlink:href="#DejaVuSans-25" x="1150.296875"/>
      <use xlink:href="#DejaVuSans-29" x="1245.316406"/>
     </g>
    </g>
   </g>
   <g id="line2d_14">
    <path d="M 54 142.897297 
L 57.348 141.661133 
L 60.696 141.945147 
L 64.044 143.312631 
L 67.392 145.400124 
L 70.74 147.909391 
L 74.088 150.599964 
L 77.436 153.282253 
L 80.784 155.811173 
L 84.132 158.080281 
L 87.48 160.016396 
L 90.828 161.574665 
L 94.176 162.734078 
L 97.524 163.493385 
L 100.872 163.867407 
L 104.22 163.883714 
L 107.568 163.579658 
L 110.916 162.999723 
L 114.264 162.193198 
L 117.612 161.212125 
L 120.96 160.10953 
L 124.308 158.937901 
L 127.656 157.747902 
L 131.004 156.587306 
L 134.352 155.50013 
L 137.7 154.525954 
L 141.048 153.699414 
L 144.396 153.049846 
L 147.744 152.601074 
L 151.092 152.371323 
L 154.44 152.373244 
L 157.788 152.614047 
L 161.136 153.095709 
L 164.484 153.815273 
L 167.832 154.7652 
L 171.18 155.933781 
L 174.528 157.305592 
L 177.876 158.861981 
L 181.224 160.581583 
L 184.572 162.440846 
L 187.92 164.414567 
L 191.268 166.476431 
L 194.616 168.599536 
L 197.964 170.75691 
L 201.312 172.922003 
L 204.66 175.069155 
L 208.008 177.174035 
L 211.356 179.21404 
L 214.704 181.168655 
L 218.052 183.019774 
L 221.4 184.751967 
L 224.748 186.352707 
L 228.096 187.812534 
L 231.444 189.125178 
L 234.792 190.287618 
L 238.14 191.300098 
L 241.488 192.166077 
L 244.836 192.892133 
L 248.184 193.487811 
L 251.532 193.965423 
L 254.88 194.339792 
L 258.228 194.627962 
L 261.576 194.848848 
L 264.924 195.022864 
L 268.272 195.1715 
L 271.62 195.316882 
L 274.968 195.481291 
L 278.316 195.68668 
L 281.664 195.954159 
L 285.012 196.30349 
L 288.36 196.752566 
L 291.708 197.316914 
L 295.056 198.009202 
L 298.404 198.838776 
L 301.752 199.811234 
L 305.1 200.92804 
L 308.448 202.186193 
L 311.796 203.577967 
L 315.144 205.09072 
L 318.492 206.7068 
L 321.84 208.403544 
L 325.188 210.153401 
L 328.536 211.924171 
L 331.884 213.6794 
L 335.232 215.378917 
L 338.58 216.979552 
L 341.928 218.436038 
L 345.276 219.702114 
L 348.624 220.731852 
L 351.972 221.481213 
L 355.32 221.909868 
L 358.668 221.983278 
L 362.016 221.67508 
L 365.364 220.969769 
L 368.712 219.865718 
L 372.06 218.378549 
L 375.408 216.544865 
L 378.756 214.426388 
L 382.104 212.114498 
L 385.452 209.735217 
L 388.8 207.454644 
L 392.148 205.484879 
L 395.496 204.090448 
L 398.844 203.595264 
L 402.192 204.390131 
L 405.54 206.940845 
L 408.888 211.796888 
L 412.236 219.600759 
" clip-path="url(#p98e4e86969)" style="fill: none; stroke: #ff0000; stroke-width: 1.5; stroke-linecap: square"/>
    <defs>
     <path id="m9d7c18cc9c" d="M -0 3 
L 3 -3 
L -3 -3 
z
" style="stroke: #ff0000; stroke-linejoin: miter"/>
    </defs>
    <g clip-path="url(#p98e4e86969)">
     <use xlink:href="#m9d7c18cc9c" x="54" y="142.897297" style="fill: #ff0000; stroke: #ff0000; stroke-linejoin: miter"/>
     <use xlink:href="#m9d7c18cc9c" x="70.74" y="147.909391" style="fill: #ff0000; stroke: #ff0000; stroke-linejoin: miter"/>
     <use xlink:href="#m9d7c18cc9c" x="87.48" y="160.016396" style="fill: #ff0000; stroke: #ff0000; stroke-linejoin: miter"/>
     <use xlink:href="#m9d7c18cc9c" x="104.22" y="163.883714" style="fill: #ff0000; stroke: #ff0000; stroke-linejoin: miter"/>
     <use xlink:href="#m9d7c18cc9c" x="120.96" y="160.10953" style="fill: #ff0000; stroke: #ff0000; stroke-linejoin: miter"/>
     <use xlink:href="#m9d7c18cc9c" x="137.7" y="154.525954" style="fill: #ff0000; stroke: #ff0000; stroke-linejoin: miter"/>
     <use xlink:href="#m9d7c18cc9c" x="154.44" y="152.373244" style="fill: #ff0000; stroke: #ff0000; stroke-linejoin: miter"/>
     <use xlink:href="#m9d7c18cc9c" x="171.18" y="155.933781" style="fill: #ff0000; stroke: #ff0000; stroke-linejoin: miter"/>
     <use xlink:href="#m9d7c18cc9c" x="187.92" y="164.414567" style="fill: #ff0000; stroke: #ff0000; stroke-linejoin: miter"/>
     <use xlink:href="#m9d7c18cc9c" x="204.66" y="175.069155" style="fill: #ff0000; stroke: #ff0000; stroke-linejoin: miter"/>
     <use xlink:href="#m9d7c18cc9c" x="221.4" y="184.751967" style="fill: #ff0000; stroke: #ff0000; stroke-linejoin: miter"/>
     <use xlink:href="#m9d7c18cc9c" x="238.14" y="191.300098" style="fill: #ff0000; stroke: #ff0000; stroke-linejoin: miter"/>
     <use xlink:href="#m9d7c18cc9c" x="254.88" y="194.339792" style="fill: #ff0000; stroke: #ff0000; stroke-linejoin: miter"/>
     <use xlink:href="#m9d7c18cc9c" x="271.62" y="195.316882" style="fill: #ff0000; stroke: #ff0000; stroke-linejoin: miter"/>
     <use xlink:href="#m9d7c18cc9c" x="288.36" y="196.752566" style="fill: #ff0000; stroke: #ff0000; stroke-linejoin: miter"/>
     <use xlink:href="#m9d7c18cc9c" x="305.1" y="200.92804" style="fill: #ff0000; stroke: #ff0000; stroke-linejoin: miter"/>
     <use xlink:href="#m9d7c18cc9c" x="321.84" y="208.403544" style="fill: #ff0000; stroke: #ff0000; stroke-linejoin: miter"/>
     <use xlink:href="#m9d7c18cc9c" x="338.58" y="216.979552" style="fill: #ff0000; stroke: #ff0000; stroke-linejoin: miter"/>
     <use xlink:href="#m9d7c18cc9c" x="355.32" y="221.909868" style="fill: #ff0000; stroke: #ff0000; stroke-linejoin: miter"/>
     <use xlink:href="#m9d7c18cc9c" x="372.06" y="218.378549" style="fill: #ff0000; stroke: #ff0000; stroke-linejoin: miter"/>
     <use xlink:href="#m9d7c18cc9c" x="388.8" y="207.454644" style="fill: #ff0000; stroke: #ff0000; stroke-linejoin: miter"/>
     <use xlink:href="#m9d7c18cc9c" x="405.54" y="206.940845" style="fill: #ff0000; stroke: #ff0000; stroke-linejoin: miter"/>
    </g>
   </g>
   <g id="line2d_15">
    <path d="M 54 150.465903 
L 57.348 141.26533 
L 60.696 133.948892 
L 64.044 128.154303 
L 67.392 123.570488 
L 70.74 119.932439 
L 74.088 117.016416 
L 77.436 114.635499 
L 80.784 112.635457 
L 84.132 110.890928 
L 87.48 109.3019 
L 90.828 107.790468 
L 94.176 106.29786 
L 97.524 104.781722 
L 100.872 103.213636 
L 104.22 101.576882 
L 107.568 99.864398 
L 110.916 98.076958 
L 114.264 96.221542 
L 117.612 94.309877 
L 120.96 92.357158 
L 124.308 90.380926 
L 127.656 88.400092 
L 131.004 86.4341 
L 134.352 84.502218 
L 137.7 82.622952 
L 141.048 80.813562 
L 144.396 79.089683 
L 147.744 77.465037 
L 151.092 75.951226 
L 154.44 74.557603 
L 157.788 73.291206 
L 161.136 72.156758 
L 164.484 71.156709 
L 167.832 70.291337 
L 171.18 69.558876 
L 174.528 68.955681 
L 177.876 68.476425 
L 181.224 68.114307 
L 184.572 67.861284 
L 187.92 67.708308 
L 191.268 67.645573 
L 194.616 67.66276 
L 197.964 67.749284 
L 201.312 67.894528 
L 204.66 68.088072 
L 208.008 68.319909 
L 211.356 68.580639 
L 214.704 68.861653 
L 218.052 69.155287 
L 221.4 69.454963 
L 224.748 69.755294 
L 228.096 70.052172 
L 231.444 70.342828 
L 234.792 70.625857 
L 238.14 70.901224 
L 241.488 71.170236 
L 244.836 71.435489 
L 248.184 71.700783 
L 251.532 71.971015 
L 254.88 72.252044 
L 258.228 72.550532 
L 261.576 72.873762 
L 264.924 73.229435 
L 268.272 73.62545 
L 271.62 74.069666 
L 274.968 74.569657 
L 278.316 75.13245 
L 281.664 75.764262 
L 285.012 76.470233 
L 288.36 77.254162 
L 291.708 78.118252 
L 295.056 79.062859 
L 298.404 80.086269 
L 301.752 81.184483 
L 305.1 82.351045 
L 308.448 83.576891 
L 311.796 84.850242 
L 315.144 86.156549 
L 318.492 87.478485 
L 321.84 88.795999 
L 325.188 90.08644 
L 328.536 91.324759 
L 331.884 92.48379 
L 335.232 93.534629 
L 338.58 94.447115 
L 341.928 95.190415 
L 345.276 95.733737 
L 348.624 96.04717 
L 351.972 96.102664 
L 355.32 95.87516 
L 358.668 95.343879 
L 362.016 94.493789 
L 365.364 93.31725 
L 368.712 91.815852 
L 372.06 90.002467 
L 375.408 87.903511 
L 378.756 85.561445 
L 382.104 83.037512 
L 385.452 80.414743 
L 388.8 77.801215 
L 392.148 75.333615 
L 395.496 73.181084 
L 398.844 71.549385 
L 402.192 70.685391 
L 405.54 70.88192 
L 408.888 72.482928 
L 412.236 75.889064 
L 415.584 81.563635 
L 418.932 90.03895 
L 422.28 101.923107 
" clip-path="url(#p98e4e86969)" style="fill: none; stroke: #000000; stroke-width: 1.5; stroke-linecap: square"/>
    <defs>
     <path id="mf85c77a6d7" d="M -3 3 
L 3 3 
L 3 -3 
L -3 -3 
z
" style="stroke: #000000; stroke-linejoin: miter"/>
    </defs>
    <g clip-path="url(#p98e4e86969)">
     <use xlink:href="#mf85c77a6d7" x="54" y="150.465903" style="stroke: #000000; stroke-linejoin: miter"/>
     <use xlink:href="#mf85c77a6d7" x="70.74" y="119.932439" style="stroke: #000000; stroke-linejoin: miter"/>
     <use xlink:href="#mf85c77a6d7" x="87.48" y="109.3019" style="stroke: #000000; stroke-linejoin: miter"/>
     <use xlink:href="#mf85c77a6d7" x="104.22" y="101.576882" style="stroke: #000000; stroke-linejoin: miter"/>
     <use xlink:href="#mf85c77a6d7" x="120.96" y="92.357158" style="stroke: #000000; stroke-linejoin: miter"/>
     <use xlink:href="#mf85c77a6d7" x="137.7" y="82.622952" style="stroke: #000000; stroke-linejoin: miter"/>
     <use xlink:href="#mf85c77a6d7" x="154.44" y="74.557603" style="stroke: #000000; stroke-linejoin: miter"/>
     <use xlink:href="#mf85c77a6d7" x="171.18" y="69.558876" style="stroke: #000000; stroke-linejoin: miter"/>
     <use xlink:href="#mf85c77a6d7" x="187.92" y="67.708308" style="stroke: #000000; stroke-linejoin: miter"/>
     <use xlink:href="#mf85c77a6d7" x="204.66" y="68.088072" style="stroke: #000000; stroke-linejoin: miter"/>
     <use xlink:href="#mf85c77a6d7" x="221.4" y="69.454963" style="stroke: #000000; stroke-linejoin: miter"/>
     <use xlink:href="#mf85c77a6d7" x="238.14" y="70.901224" style="stroke: #000000; stroke-linejoin: miter"/>
     <use xlink:href="#mf85c77a6d7" x="254.88" y="72.252044" style="stroke: #000000; stroke-linejoin: miter"/>
     <use xlink:href="#mf85c77a6d7" x="271.62" y="74.069666" style="stroke: #000000; stroke-linejoin: miter"/>
     <use xlink:href="#mf85c77a6d7" x="288.36" y="77.254162" style="stroke: #000000; stroke-linejoin: miter"/>
     <use xlink:href="#mf85c77a6d7" x="305.1" y="82.351045" style="stroke: #000000; stroke-linejoin: miter"/>
     <use xlink:href="#mf85c77a6d7" x="321.84" y="88.795999" style="stroke: #000000; stroke-linejoin: miter"/>
     <use xlink:href="#mf85c77a6d7" x="338.58" y="94.447115" style="stroke: #000000; stroke-linejoin: miter"/>
     <use xlink:href="#mf85c77a6d7" x="355.32" y="95.87516" style="stroke: #000000; stroke-linejoin: miter"/>
     <use xlink:href="#mf85c77a6d7" x="372.06" y="90.002467" style="stroke: #000000; stroke-linejoin: miter"/>
     <use xlink:href="#mf85c77a6d7" x="388.8" y="77.801215" style="stroke: #000000; stroke-linejoin: miter"/>
     <use xlink:href="#mf85c77a6d7" x="405.54" y="70.88192" style="stroke: #000000; stroke-linejoin: miter"/>
     <use xlink:href="#mf85c77a6d7" x="422.28" y="101.923107" style="stroke: #000000; stroke-linejoin: miter"/>
    </g>
   </g>
   <g id="line2d_16">
    <path d="M 54 146.291585 
L 57.348 151.973044 
L 60.696 156.724197 
L 64.044 160.566813 
L 67.392 163.534259 
L 70.74 165.669489 
L 74.088 167.023209 
L 77.436 167.652191 
L 80.784 167.617755 
L 84.132 166.984393 
L 87.48 165.818529 
L 90.828 164.187421 
L 94.176 162.158178 
L 97.524 159.796902 
L 100.872 157.16794 
L 104.22 154.333237 
L 107.568 151.351791 
L 110.916 148.279201 
L 114.264 145.167297 
L 117.612 142.06385 
L 120.96 139.012356 
L 124.308 136.051895 
L 127.656 133.217038 
L 131.004 130.537827 
L 134.352 128.039797 
L 137.7 125.744046 
L 141.048 123.667355 
L 144.396 121.822335 
L 147.744 120.217615 
L 151.092 118.858054 
L 154.44 117.744982 
L 157.788 116.876459 
L 161.136 116.247549 
L 164.484 115.850612 
L 167.832 115.675601 
L 171.18 115.710371 
L 174.528 115.940985 
L 177.876 116.352022 
L 181.224 116.926889 
L 184.572 117.648118 
L 187.92 118.497662 
L 191.268 119.457176 
L 194.616 120.508296 
L 197.964 121.632888 
L 201.312 122.813298 
L 204.66 124.032573 
L 208.008 125.274664 
L 211.356 126.524621 
L 214.704 127.768747 
L 218.052 128.994748 
L 221.4 130.191845 
L 224.748 131.350877 
L 228.096 132.464368 
L 231.444 133.526574 
L 234.792 134.533506 
L 238.14 135.482929 
L 241.488 136.374335 
L 244.836 137.208892 
L 248.184 137.989375 
L 251.532 138.720063 
L 254.88 139.406629 
L 258.228 140.055997 
L 261.576 140.676187 
L 264.924 141.27614 
L 268.272 141.865524 
L 271.62 142.454531 
L 274.968 143.053657 
L 278.316 143.673472 
L 281.664 144.324382 
L 285.012 145.016387 
L 288.36 145.758831 
L 291.708 146.560157 
L 295.056 147.427662 
L 298.404 148.367252 
L 301.752 149.383217 
L 305.1 150.478007 
L 308.448 151.652031 
L 311.796 152.903473 
L 315.144 154.228128 
L 318.492 155.619272 
L 321.84 157.067559 
L 325.188 158.560956 
L 328.536 160.084718 
L 331.884 161.621409 
L 335.232 163.150973 
L 338.58 164.650863 
L 341.928 166.096225 
L 345.276 167.460156 
L 348.624 168.714029 
L 351.972 169.827896 
L 355.32 170.770977 
L 358.668 171.512236 
L 362.016 172.021055 
L 365.364 172.268013 
L 368.712 172.225765 
L 372.06 171.870049 
L 375.408 171.180809 
L 378.756 170.143445 
L 382.104 168.750213 
L 385.452 167.001752 
L 388.8 164.90878 
L 392.148 162.493942 
L 395.496 159.793824 
L 398.844 156.86115 
L 402.192 153.767162 
L 405.54 150.604189 
L 408.888 147.488422 
L 412.236 144.562898 
L 415.584 142.000704 
L 418.932 140.008412 
L 422.28 138.829747 
L 425.628 138.749508 
L 428.976 140.097742 
L 432.324 143.254187 
L 433 144.34427 
" clip-path="url(#p98e4e86969)" style="fill: none; stroke-dasharray: 5.55,2.4; stroke-dashoffset: 0; stroke: #bf00bf; stroke-width: 1.5"/>
    <defs>
     <path id="m9594a4f00d" d="M -3 0 
L 3 0 
M 0 3 
L 0 -3 
" style="stroke: #bf00bf"/>
    </defs>
    <g clip-path="url(#p98e4e86969)">
     <use xlink:href="#m9594a4f00d" x="54" y="146.291585" style="fill: #bf00bf; stroke: #bf00bf"/>
     <use xlink:href="#m9594a4f00d" x="70.74" y="165.669489" style="fill: #bf00bf; stroke: #bf00bf"/>
     <use xlink:href="#m9594a4f00d" x="87.48" y="165.818529" style="fill: #bf00bf; stroke: #bf00bf"/>
     <use xlink:href="#m9594a4f00d" x="104.22" y="154.333237" style="fill: #bf00bf; stroke: #bf00bf"/>
     <use xlink:href="#m9594a4f00d" x="120.96" y="139.012356" style="fill: #bf00bf; stroke: #bf00bf"/>
     <use xlink:href="#m9594a4f00d" x="137.7" y="125.744046" style="fill: #bf00bf; stroke: #bf00bf"/>
     <use xlink:href="#m9594a4f00d" x="154.44" y="117.744982" style="fill: #bf00bf; stroke: #bf00bf"/>
     <use xlink:href="#m9594a4f00d" x="171.18" y="115.710371" style="fill: #bf00bf; stroke: #bf00bf"/>
     <use xlink:href="#m9594a4f00d" x="187.92" y="118.497662" style="fill: #bf00bf; stroke: #bf00bf"/>
     <use xlink:href="#m9594a4f00d" x="204.66" y="124.032573" style="fill: #bf00bf; stroke: #bf00bf"/>
     <use xlink:href="#m9594a4f00d" x="221.4" y="130.191845" style="fill: #bf00bf; stroke: #bf00bf"/>
     <use xlink:href="#m9594a4f00d" x="238.14" y="135.482929" style="fill: #bf00bf; stroke: #bf00bf"/>
     <use xlink:href="#m9594a4f00d" x="254.88" y="139.406629" style="fill: #bf00bf; stroke: #bf00bf"/>
     <use xlink:href="#m9594a4f00d" x="271.62" y="142.454531" style="fill: #bf00bf; stroke: #bf00bf"/>
     <use xlink:href="#m9594a4f00d" x="288.36" y="145.758831" style="fill: #bf00bf; stroke: #bf00bf"/>
     <use xlink:href="#m9594a4f00d" x="305.1" y="150.478007" style="fill: #bf00bf; stroke: #bf00bf"/>
     <use xlink:href="#m9594a4f00d" x="321.84" y="157.067559" style="fill: #bf00bf; stroke: #bf00bf"/>
     <use xlink:href="#m9594a4f00d" x="338.58" y="164.650863" style="fill: #bf00bf; stroke: #bf00bf"/>
     <use xlink:href="#m9594a4f00d" x="355.32" y="170.770977" style="fill: #bf00bf; stroke: #bf00bf"/>
     <use xlink:href="#m9594a4f00d" x="372.06" y="171.870049" style="fill: #bf00bf; stroke: #bf00bf"/>
     <use xlink:href="#m9594a4f00d" x="388.8" y="164.90878" style="fill: #bf00bf; stroke: #bf00bf"/>
     <use xlink:href="#m9594a4f00d" x="405.54" y="150.604189" style="fill: #bf00bf; stroke: #bf00bf"/>
     <use xlink:href="#m9594a4f00d" x="422.28" y="138.829747" style="fill: #bf00bf; stroke: #bf00bf"/>
     <use xlink:href="#m9594a4f00d" x="439.02" y="156.787741" style="fill: #bf00bf; stroke: #bf00bf"/>
    </g>
   </g>
   <g id="line2d_17">
    <path d="M 54 158.447985 
L 57.348 163.692282 
L 60.696 169.751077 
L 64.044 176.241015 
L 67.392 182.842822 
L 70.74 189.294957 
L 74.088 195.387652 
L 77.436 200.957342 
L 80.784 205.881464 
L 84.132 210.073606 
L 87.48 213.478997 
L 90.828 216.070326 
L 94.176 217.84387 
L 97.524 218.815924 
L 100.872 219.019517 
L 104.22 218.501403 
L 107.568 217.319308 
L 110.916 215.539432 
L 114.264 213.234186 
L 117.612 210.480153 
L 120.96 207.356265 
L 124.308 203.942179 
L 127.656 200.316847 
L 131.004 196.557268 
L 134.352 192.737408 
L 137.7 188.92728 
L 141.048 185.192174 
L 144.396 181.59203 
L 147.744 178.180937 
L 151.092 175.006761 
L 154.44 172.110877 
L 157.788 169.528009 
L 161.136 167.286169 
L 164.484 165.406675 
L 167.832 163.904258 
L 171.18 162.78723 
L 174.528 162.057728 
L 177.876 161.712 
L 181.224 161.740758 
L 184.572 162.12956 
L 187.92 162.859237 
L 191.268 163.906344 
L 194.616 165.243646 
L 197.964 166.84061 
L 201.312 168.663921 
L 204.66 170.677998 
L 208.008 172.845523 
L 211.356 175.127958 
L 214.704 177.486065 
L 218.052 179.880407 
L 221.4 182.271848 
L 224.748 184.622021 
L 228.096 186.893785 
L 231.444 189.051654 
L 234.792 191.0622 
L 238.14 192.894423 
L 241.488 194.520096 
L 244.836 195.914066 
L 248.184 197.054527 
L 251.532 197.923251 
L 254.88 198.50578 
L 258.228 198.791579 
L 261.576 198.774143 
L 264.924 198.451071 
L 268.272 197.824086 
L 271.62 196.899022 
L 274.968 195.685763 
L 278.316 194.198144 
L 281.664 192.453801 
L 285.012 190.473997 
L 288.36 188.283389 
L 291.708 185.909774 
L 295.056 183.383784 
L 298.404 180.738559 
L 301.752 178.009375 
L 305.1 175.233253 
L 308.448 172.448532 
L 311.796 169.694422 
L 315.144 167.010533 
L 318.492 164.436387 
L 321.84 162.010913 
L 325.188 159.771936 
L 328.536 157.755655 
L 331.884 155.996117 
L 335.232 154.524703 
L 338.58 153.369609 
L 341.928 152.555347 
L 345.276 152.102264 
L 348.624 152.026079 
L 351.972 152.337455 
L 355.32 153.041606 
L 358.668 154.13794 
L 362.016 155.619757 
L 365.364 157.474002 
L 368.712 159.681077 
L 372.06 162.214723 
L 375.408 165.041989 
L 378.756 168.123271 
L 382.104 171.412457 
L 385.452 174.857172 
L 388.8 178.399129 
L 392.148 181.974606 
L 395.496 185.515048 
L 398.844 188.947807 
L 402.192 192.197035 
L 405.54 195.184729 
L 408.888 197.831949 
L 412.236 200.060211 
L 415.584 201.793072 
L 418.932 202.957914 
L 422.28 203.487942 
L 425.628 203.324397 
L 428.976 202.419015 
L 432.324 200.736727 
L 433 200.236368 
" clip-path="url(#p98e4e86969)" style="fill: none; stroke-dasharray: 5.55,2.4; stroke-dashoffset: 0; stroke: #0000ff; stroke-width: 1.5"/>
    <defs>
     <path id="m6d31747b83" d="M 0 3 
C 0.795609 3 1.55874 2.683901 2.12132 2.12132 
C 2.683901 1.55874 3 0.795609 3 0 
C 3 -0.795609 2.683901 -1.55874 2.12132 -2.12132 
C 1.55874 -2.683901 0.795609 -3 0 -3 
C -0.795609 -3 -1.55874 -2.683901 -2.12132 -2.12132 
C -2.683901 -1.55874 -3 -0.795609 -3 0 
C -3 0.795609 -2.683901 1.55874 -2.12132 2.12132 
C -1.55874 2.683901 -0.795609 3 0 3 
z
" style="stroke: #0000ff"/>
    </defs>
    <g clip-path="url(#p98e4e86969)">
     <use xlink:href="#m6d31747b83" x="54" y="158.447985" style="fill: #0000ff; stroke: #0000ff"/>
     <use xlink:href="#m6d31747b83" x="70.74" y="189.294957" style="fill: #0000ff; stroke: #0000ff"/>
     <use xlink:href="#m6d31747b83" x="87.48" y="213.478997" style="fill: #0000ff; stroke: #0000ff"/>
     <use xlink:href="#m6d31747b83" x="104.22" y="218.501403" style="fill: #0000ff; stroke: #0000ff"/>
     <use xlink:href="#m6d31747b83" x="120.96" y="207.356265" style="fill: #0000ff; stroke: #0000ff"/>
     <use xlink:href="#m6d31747b83" x="137.7" y="188.92728" style="fill: #0000ff; stroke: #0000ff"/>
     <use xlink:href="#m6d31747b83" x="154.44" y="172.110877" style="fill: #0000ff; stroke: #0000ff"/>
     <use xlink:href="#m6d31747b83" x="171.18" y="162.78723" style="fill: #0000ff; stroke: #0000ff"/>
     <use xlink:href="#m6d31747b83" x="187.92" y="162.859237" style="fill: #0000ff; stroke: #0000ff"/>
     <use xlink:href="#m6d31747b83" x="204.66" y="170.677998" style="fill: #0000ff; stroke: #0000ff"/>
     <use xlink:href="#m6d31747b83" x="221.4" y="182.271848" style="fill: #0000ff; stroke: #0000ff"/>
     <use xlink:href="#m6d31747b83" x="238.14" y="192.894423" style="fill: #0000ff; stroke: #0000ff"/>
     <use xlink:href="#m6d31747b83" x="254.88" y="198.50578" style="fill: #0000ff; stroke: #0000ff"/>
     <use xlink:href="#m6d31747b83" x="271.62" y="196.899022" style="fill: #0000ff; stroke: #0000ff"/>
     <use xlink:href="#m6d31747b83" x="288.36" y="188.283389" style="fill: #0000ff; stroke: #0000ff"/>
     <use xlink:href="#m6d31747b83" x="305.1" y="175.233253" style="fill: #0000ff; stroke: #0000ff"/>
     <use xlink:href="#m6d31747b83" x="321.84" y="162.010913" style="fill: #0000ff; stroke: #0000ff"/>
     <use xlink:href="#m6d31747b83" x="338.58" y="153.369609" style="fill: #0000ff; stroke: #0000ff"/>
     <use xlink:href="#m6d31747b83" x="355.32" y="153.041606" style="fill: #0000ff; stroke: #0000ff"/>
     <use xlink:href="#m6d31747b83" x="372.06" y="162.214723" style="fill: #0000ff; stroke: #0000ff"/>
     <use xlink:href="#m6d31747b83" x="388.8" y="178.399129" style="fill: #0000ff; stroke: #0000ff"/>
     <use xlink:href="#m6d31747b83" x="405.54" y="195.184729" style="fill: #0000ff; stroke: #0000ff"/>
     <use xlink:href="#m6d31747b83" x="422.28" y="203.487942" style="fill: #0000ff; stroke: #0000ff"/>
     <use xlink:href="#m6d31747b83" x="439.02" y="194.98514" style="fill: #0000ff; stroke: #0000ff"/>
    </g>
   </g>
   <g id="line2d_18">
    <path d="M 54 158.170806 
L 57.348 163.400041 
L 60.696 169.385581 
L 64.044 175.78269 
L 67.392 182.305238 
L 70.74 188.719665 
L 74.088 194.839333 
L 77.436 200.519272 
L 80.784 205.65129 
L 84.132 210.159432 
L 87.48 213.995785 
L 90.828 217.136602 
L 94.176 219.57873 
L 97.524 221.336344 
L 100.872 222.437951 
L 104.22 222.923664 
L 107.568 222.842739 
L 110.916 222.251334 
L 114.264 221.210519 
L 117.612 219.784483 
L 120.96 218.038955 
L 124.308 216.039815 
L 127.656 213.851887 
L 131.004 211.537894 
L 134.352 209.157584 
L 137.7 206.766989 
L 141.048 204.417839 
L 144.396 202.157086 
L 147.744 200.026556 
L 151.092 198.062709 
L 154.44 196.296493 
L 157.788 194.753295 
L 161.136 193.452966 
L 164.484 192.409928 
L 167.832 191.633338 
L 171.18 191.127316 
L 174.528 190.891224 
L 177.876 190.919978 
L 181.224 191.204413 
L 184.572 191.731664 
L 187.92 192.485575 
L 191.268 193.447131 
L 194.616 194.594895 
L 197.964 195.905454 
L 201.312 197.353871 
L 204.66 198.914127 
L 208.008 200.559562 
L 211.356 202.263301 
L 214.704 203.998664 
L 218.052 205.73956 
L 221.4 207.460856 
L 224.748 209.138722 
L 228.096 210.750949 
L 231.444 212.277233 
L 234.792 213.699431 
L 238.14 215.001778 
L 241.488 216.171072 
L 244.836 217.196823 
L 248.184 218.071356 
L 251.532 218.789886 
L 254.88 219.350546 
L 258.228 219.754378 
L 261.576 220.00529 
L 264.924 220.109964 
L 268.272 220.077739 
L 271.62 219.920447 
L 274.968 219.652223 
L 278.316 219.289271 
L 281.664 218.849612 
L 285.012 218.35279 
L 288.36 217.81956 
L 291.708 217.271549 
L 295.056 216.7309 
L 298.404 216.21989 
L 301.752 215.76055 
L 305.1 215.374259 
L 308.448 215.081345 
L 311.796 214.900682 
L 315.144 214.849291 
L 318.492 214.941952 
L 321.84 215.190829 
L 325.188 215.605121 
L 328.536 216.190739 
L 331.884 216.950008 
L 335.232 217.881427 
L 338.58 218.979459 
L 341.928 220.234383 
L 345.276 221.632213 
L 348.624 223.154677 
L 351.972 224.779284 
L 355.32 226.479468 
L 358.668 228.224838 
L 362.016 229.98152 
L 365.364 231.712628 
L 368.712 233.378844 
L 372.06 234.939139 
L 375.408 236.351637 
L 378.756 237.574628 
L 382.104 238.567757 
L 385.452 239.293373 
L 388.8 239.718079 
L 392.148 239.814475 
L 395.496 239.56311 
L 398.844 238.954661 
L 402.192 237.992348 
L 405.54 236.694592 
L 408.888 235.09794 
L 412.236 233.260266 
L 415.584 231.264253 
L 418.932 229.221189 
L 422.28 227.275066 
L 425.628 225.607027 
L 428.976 224.440148 
L 432.324 224.044583 
L 433 224.18562 
" clip-path="url(#p98e4e86969)" style="fill: none; stroke: #008000; stroke-width: 1.5; stroke-linecap: square"/>
    <defs>
     <path id="m38bca7b11c" d="M -3 3 
L 3 -3 
M -3 -3 
L 3 3 
" style="stroke: #008000"/>
    </defs>
    <g clip-path="url(#p98e4e86969)">
     <use xlink:href="#m38bca7b11c" x="54" y="158.170806" style="fill: #008000; stroke: #008000"/>
     <use xlink:href="#m38bca7b11c" x="70.74" y="188.719665" style="fill: #008000; stroke: #008000"/>
     <use xlink:href="#m38bca7b11c" x="87.48" y="213.995785" style="fill: #008000; stroke: #008000"/>
     <use xlink:href="#m38bca7b11c" x="104.22" y="222.923664" style="fill: #008000; stroke: #008000"/>
     <use xlink:href="#m38bca7b11c" x="120.96" y="218.038955" style="fill: #008000; stroke: #008000"/>
     <use xlink:href="#m38bca7b11c" x="137.7" y="206.766989" style="fill: #008000; stroke: #008000"/>
     <use xlink:href="#m38bca7b11c" x="154.44" y="196.296493" style="fill: #008000; stroke: #008000"/>
     <use xlink:href="#m38bca7b11c" x="171.18" y="191.127316" style="fill: #008000; stroke: #008000"/>
     <use xlink:href="#m38bca7b11c" x="187.92" y="192.485575" style="fill: #008000; stroke: #008000"/>
     <use xlink:href="#m38bca7b11c" x="204.66" y="198.914127" style="fill: #008000; stroke: #008000"/>
     <use xlink:href="#m38bca7b11c" x="221.4" y="207.460856" style="fill: #008000; stroke: #008000"/>
     <use xlink:href="#m38bca7b11c" x="238.14" y="215.001778" style="fill: #008000; stroke: #008000"/>
     <use xlink:href="#m38bca7b11c" x="254.88" y="219.350546" style="fill: #008000; stroke: #008000"/>
     <use xlink:href="#m38bca7b11c" x="271.62" y="219.920447" style="fill: #008000; stroke: #008000"/>
     <use xlink:href="#m38bca7b11c" x="288.36" y="217.81956" style="fill: #008000; stroke: #008000"/>
     <use xlink:href="#m38bca7b11c" x="305.1" y="215.374259" style="fill: #008000; stroke: #008000"/>
     <use xlink:href="#m38bca7b11c" x="321.84" y="215.190829" style="fill: #008000; stroke: #008000"/>
     <use xlink:href="#m38bca7b11c" x="338.58" y="218.979459" style="fill: #008000; stroke: #008000"/>
     <use xlink:href="#m38bca7b11c" x="355.32" y="226.479468" style="fill: #008000; stroke: #008000"/>
     <use xlink:href="#m38bca7b11c" x="372.06" y="234.939139" style="fill: #008000; stroke: #008000"/>
     <use xlink:href="#m38bca7b11c" x="388.8" y="239.718079" style="fill: #008000; stroke: #008000"/>
     <use xlink:href="#m38bca7b11c" x="405.54" y="236.694592" style="fill: #008000; stroke: #008000"/>
     <use xlink:href="#m38bca7b11c" x="422.28" y="227.275066" style="fill: #008000; stroke: #008000"/>
     <use xlink:href="#m38bca7b11c" x="439.02" y="226.916955" style="fill: #008000; stroke: #008000"/>
    </g>
   </g>
   <g id="patch_3">
    <path d="M 54 252 
L 54 34.56 
" style="fill: none; stroke: #000000; stroke-width: 0.8; stroke-linejoin: miter; stroke-linecap: square"/>
   </g>
   <g id="patch_4">
    <path d="M 388.8 252 
L 388.8 34.56 
" style="fill: none; stroke: #000000; stroke-width: 0.8; stroke-linejoin: miter; stroke-linecap: square"/>
   </g>
   <g id="patch_5">
    <path d="M 54 252 
L 388.8 252 
" style="fill: none; stroke: #000000; stroke-width: 0.8; stroke-linejoin: miter; stroke-linecap: square"/>
   </g>
   <g id="patch_6">
    <path d="M 54 34.56 
L 388.8 34.56 
" style="fill: none; stroke: #000000; stroke-width: 0.8; stroke-linejoin: miter; stroke-linecap: square"/>
   </g>
   <g id="text_16">
    <!-- Experiment 1 with batch size 50 -->
    <g transform="translate(124.44375 28.56)scale(0.12 -0.12)">
     <defs>
      <path id="DejaVuSans-45" d="M 628 4666 
L 3578 4666 
L 3578 4134 
L 1259 4134 
L 1259 2753 
L 3481 2753 
L 3481 2222 
L 1259 2222 
L 1259 531 
L 3634 531 
L 3634 0 
L 628 0 
L 628 4666 
z
" transform="scale(0.015625)"/>
      <path id="DejaVuSans-78" d="M 3513 3500 
L 2247 1797 
L 3578 0 
L 2900 0 
L 1881 1375 
L 863 0 
L 184 0 
L 1544 1831 
L 300 3500 
L 978 3500 
L 1906 2253 
L 2834 3500 
L 3513 3500 
z
" transform="scale(0.015625)"/>
      <path id="DejaVuSans-70" d="M 1159 525 
L 1159 -1331 
L 581 -1331 
L 581 3500 
L 1159 3500 
L 1159 2969 
Q 1341 3281 1617 3432 
Q 1894 3584 2278 3584 
Q 2916 3584 3314 3078 
Q 3713 2572 3713 1747 
Q 3713 922 3314 415 
Q 2916 -91 2278 -91 
Q 1894 -91 1617 61 
Q 1341 213 1159 525 
z
M 3116 1747 
Q 3116 2381 2855 2742 
Q 2594 3103 2138 3103 
Q 1681 3103 1420 2742 
Q 1159 2381 1159 1747 
Q 1159 1113 1420 752 
Q 1681 391 2138 391 
Q 2594 391 2855 752 
Q 3116 1113 3116 1747 
z
" transform="scale(0.015625)"/>
      <path id="DejaVuSans-6e" d="M 3513 2113 
L 3513 0 
L 2938 0 
L 2938 2094 
Q 2938 2591 2744 2837 
Q 2550 3084 2163 3084 
Q 1697 3084 1428 2787 
Q 1159 2491 1159 1978 
L 1159 0 
L 581 0 
L 581 3500 
L 1159 3500 
L 1159 2956 
Q 1366 3272 1645 3428 
Q 1925 3584 2291 3584 
Q 2894 3584 3203 3211 
Q 3513 2838 3513 2113 
z
" transform="scale(0.015625)"/>
      <path id="DejaVuSans-77" d="M 269 3500 
L 844 3500 
L 1563 769 
L 2278 3500 
L 2956 3500 
L 3675 769 
L 4391 3500 
L 4966 3500 
L 4050 0 
L 3372 0 
L 2619 2869 
L 1863 0 
L 1184 0 
L 269 3500 
z
" transform="scale(0.015625)"/>
      <path id="DejaVuSans-68" d="M 3513 2113 
L 3513 0 
L 2938 0 
L 2938 2094 
Q 2938 2591 2744 2837 
Q 2550 3084 2163 3084 
Q 1697 3084 1428 2787 
Q 1159 2491 1159 1978 
L 1159 0 
L 581 0 
L 581 4863 
L 1159 4863 
L 1159 2956 
Q 1366 3272 1645 3428 
Q 1925 3584 2291 3584 
Q 2894 3584 3203 3211 
Q 3513 2838 3513 2113 
z
" transform="scale(0.015625)"/>
      <path id="DejaVuSans-62" d="M 3116 1747 
Q 3116 2381 2855 2742 
Q 2594 3103 2138 3103 
Q 1681 3103 1420 2742 
Q 1159 2381 1159 1747 
Q 1159 1113 1420 752 
Q 1681 391 2138 391 
Q 2594 391 2855 752 
Q 3116 1113 3116 1747 
z
M 1159 2969 
Q 1341 3281 1617 3432 
Q 1894 3584 2278 3584 
Q 2916 3584 3314 3078 
Q 3713 2572 3713 1747 
Q 3713 922 3314 415 
Q 2916 -91 2278 -91 
Q 1894 -91 1617 61 
Q 1341 213 1159 525 
L 1159 0 
L 581 0 
L 581 4863 
L 1159 4863 
L 1159 2969 
z
" transform="scale(0.015625)"/>
      <path id="DejaVuSans-63" d="M 3122 3366 
L 3122 2828 
Q 2878 2963 2633 3030 
Q 2388 3097 2138 3097 
Q 1578 3097 1268 2742 
Q 959 2388 959 1747 
Q 959 1106 1268 751 
Q 1578 397 2138 397 
Q 2388 397 2633 464 
Q 2878 531 3122 666 
L 3122 134 
Q 2881 22 2623 -34 
Q 2366 -91 2075 -91 
Q 1284 -91 818 406 
Q 353 903 353 1747 
Q 353 2603 823 3093 
Q 1294 3584 2113 3584 
Q 2378 3584 2631 3529 
Q 2884 3475 3122 3366 
z
" transform="scale(0.015625)"/>
      <path id="DejaVuSans-7a" d="M 353 3500 
L 3084 3500 
L 3084 2975 
L 922 459 
L 3084 459 
L 3084 0 
L 275 0 
L 275 525 
L 2438 3041 
L 353 3041 
L 353 3500 
z
" transform="scale(0.015625)"/>
     </defs>
     <use xlink:href="#DejaVuSans-45"/>
     <use xlink:href="#DejaVuSans-78" x="63.183594"/>
     <use xlink:href="#DejaVuSans-70" x="122.363281"/>
     <use xlink:href="#DejaVuSans-65" x="185.839844"/>
     <use xlink:href="#DejaVuSans-72" x="247.363281"/>
     <use xlink:href="#DejaVuSans-69" x="288.476562"/>
     <use xlink:href="#DejaVuSans-6d" x="316.259766"/>
     <use xlink:href="#DejaVuSans-65" x="413.671875"/>
     <use xlink:href="#DejaVuSans-6e" x="475.195312"/>
     <use xlink:href="#DejaVuSans-74" x="538.574219"/>
     <use xlink:href="#DejaVuSans-20" x="577.783203"/>
     <use xlink:href="#DejaVuSans-31" x="609.570312"/>
     <use xlink:href="#DejaVuSans-20" x="673.193359"/>
     <use xlink:href="#DejaVuSans-77" x="704.980469"/>
     <use xlink:href="#DejaVuSans-69" x="786.767578"/>
     <use xlink:href="#DejaVuSans-74" x="814.550781"/>
     <use xlink:href="#DejaVuSans-68" x="853.759766"/>
     <use xlink:href="#DejaVuSans-20" x="917.138672"/>
     <use xlink:href="#DejaVuSans-62" x="948.925781"/>
     <use xlink:href="#DejaVuSans-61" x="1012.402344"/>
     <use xlink:href="#DejaVuSans-74" x="1073.681641"/>
     <use xlink:href="#DejaVuSans-63" x="1112.890625"/>
     <use xlink:href="#DejaVuSans-68" x="1167.871094"/>
     <use xlink:href="#DejaVuSans-20" x="1231.25"/>
     <use xlink:href="#DejaVuSans-73" x="1263.037109"/>
     <use xlink:href="#DejaVuSans-69" x="1315.136719"/>
     <use xlink:href="#DejaVuSans-7a" x="1342.919922"/>
     <use xlink:href="#DejaVuSans-65" x="1395.410156"/>
     <use xlink:href="#DejaVuSans-20" x="1456.933594"/>
     <use xlink:href="#DejaVuSans-35" x="1488.720703"/>
     <use xlink:href="#DejaVuSans-30" x="1552.34375"/>
    </g>
   </g>
   <g id="legend_1">
    <g id="patch_7">
     <path d="M 61 115.950625 
L 171.882812 115.950625 
Q 173.882812 115.950625 173.882812 113.950625 
L 173.882812 41.56 
Q 173.882812 39.56 171.882812 39.56 
L 61 39.56 
Q 59 39.56 59 41.56 
L 59 113.950625 
Q 59 115.950625 61 115.950625 
z
" style="fill: #ffffff; opacity: 0.8; stroke: #cccccc; stroke-linejoin: miter"/>
    </g>
    <g id="line2d_19">
     <path d="M 63 47.658437 
L 73 47.658437 
L 83 47.658437 
" style="fill: none; stroke: #ff0000; stroke-width: 1.5; stroke-linecap: square"/>
     <g>
      <use xlink:href="#m9d7c18cc9c" x="73" y="47.658437" style="fill: #ff0000; stroke: #ff0000; stroke-linejoin: miter"/>
     </g>
    </g>
    <g id="text_17">
     <!-- PA -->
     <g transform="translate(91 51.158437)scale(0.1 -0.1)">
      <defs>
       <path id="DejaVuSans-50" d="M 1259 4147 
L 1259 2394 
L 2053 2394 
Q 2494 2394 2734 2622 
Q 2975 2850 2975 3272 
Q 2975 3691 2734 3919 
Q 2494 4147 2053 4147 
L 1259 4147 
z
M 628 4666 
L 2053 4666 
Q 2838 4666 3239 4311 
Q 3641 3956 3641 3272 
Q 3641 2581 3239 2228 
Q 2838 1875 2053 1875 
L 1259 1875 
L 1259 0 
L 628 0 
L 628 4666 
z
" transform="scale(0.015625)"/>
       <path id="DejaVuSans-41" d="M 2188 4044 
L 1331 1722 
L 3047 1722 
L 2188 4044 
z
M 1831 4666 
L 2547 4666 
L 4325 0 
L 3669 0 
L 3244 1197 
L 1141 1197 
L 716 0 
L 50 0 
L 1831 4666 
z
" transform="scale(0.015625)"/>
      </defs>
      <use xlink:href="#DejaVuSans-50"/>
      <use xlink:href="#DejaVuSans-41" x="53.927734"/>
     </g>
    </g>
    <g id="line2d_20">
     <path d="M 63 62.336562 
L 73 62.336562 
L 83 62.336562 
" style="fill: none; stroke: #000000; stroke-width: 1.5; stroke-linecap: square"/>
     <g>
      <use xlink:href="#mf85c77a6d7" x="73" y="62.336562" style="stroke: #000000; stroke-linejoin: miter"/>
     </g>
    </g>
    <g id="text_18">
     <!-- SVM-once -->
     <g transform="translate(91 65.836562)scale(0.1 -0.1)">
      <defs>
       <path id="DejaVuSans-53" d="M 3425 4513 
L 3425 3897 
Q 3066 4069 2747 4153 
Q 2428 4238 2131 4238 
Q 1616 4238 1336 4038 
Q 1056 3838 1056 3469 
Q 1056 3159 1242 3001 
Q 1428 2844 1947 2747 
L 2328 2669 
Q 3034 2534 3370 2195 
Q 3706 1856 3706 1288 
Q 3706 609 3251 259 
Q 2797 -91 1919 -91 
Q 1588 -91 1214 -16 
Q 841 59 441 206 
L 441 856 
Q 825 641 1194 531 
Q 1563 422 1919 422 
Q 2459 422 2753 634 
Q 3047 847 3047 1241 
Q 3047 1584 2836 1778 
Q 2625 1972 2144 2069 
L 1759 2144 
Q 1053 2284 737 2584 
Q 422 2884 422 3419 
Q 422 4038 858 4394 
Q 1294 4750 2059 4750 
Q 2388 4750 2728 4690 
Q 3069 4631 3425 4513 
z
" transform="scale(0.015625)"/>
       <path id="DejaVuSans-56" d="M 1831 0 
L 50 4666 
L 709 4666 
L 2188 738 
L 3669 4666 
L 4325 4666 
L 2547 0 
L 1831 0 
z
" transform="scale(0.015625)"/>
       <path id="DejaVuSans-4d" d="M 628 4666 
L 1569 4666 
L 2759 1491 
L 3956 4666 
L 4897 4666 
L 4897 0 
L 4281 0 
L 4281 4097 
L 3078 897 
L 2444 897 
L 1241 4097 
L 1241 0 
L 628 0 
L 628 4666 
z
" transform="scale(0.015625)"/>
       <path id="DejaVuSans-2d" d="M 313 2009 
L 1997 2009 
L 1997 1497 
L 313 1497 
L 313 2009 
z
" transform="scale(0.015625)"/>
      </defs>
      <use xlink:href="#DejaVuSans-53"/>
      <use xlink:href="#DejaVuSans-56" x="63.476562"/>
      <use xlink:href="#DejaVuSans-4d" x="131.884766"/>
      <use xlink:href="#DejaVuSans-2d" x="218.164062"/>
      <use xlink:href="#DejaVuSans-6f" x="256.123047"/>
      <use xlink:href="#DejaVuSans-6e" x="317.304688"/>
      <use xlink:href="#DejaVuSans-63" x="380.683594"/>
      <use xlink:href="#DejaVuSans-65" x="435.664062"/>
     </g>
    </g>
    <g id="line2d_21">
     <path d="M 63 77.014687 
L 73 77.014687 
L 83 77.014687 
" style="fill: none; stroke-dasharray: 5.55,2.4; stroke-dashoffset: 0; stroke: #bf00bf; stroke-width: 1.5"/>
     <g>
      <use xlink:href="#m9594a4f00d" x="73" y="77.014687" style="fill: #bf00bf; stroke: #bf00bf"/>
     </g>
    </g>
    <g id="text_19">
     <!-- SVM-daily -->
     <g transform="translate(91 80.514687)scale(0.1 -0.1)">
      <defs>
       <path id="DejaVuSans-64" d="M 2906 2969 
L 2906 4863 
L 3481 4863 
L 3481 0 
L 2906 0 
L 2906 525 
Q 2725 213 2448 61 
Q 2172 -91 1784 -91 
Q 1150 -91 751 415 
Q 353 922 353 1747 
Q 353 2572 751 3078 
Q 1150 3584 1784 3584 
Q 2172 3584 2448 3432 
Q 2725 3281 2906 2969 
z
M 947 1747 
Q 947 1113 1208 752 
Q 1469 391 1925 391 
Q 2381 391 2643 752 
Q 2906 1113 2906 1747 
Q 2906 2381 2643 2742 
Q 2381 3103 1925 3103 
Q 1469 3103 1208 2742 
Q 947 2381 947 1747 
z
" transform="scale(0.015625)"/>
      </defs>
      <use xlink:href="#DejaVuSans-53"/>
      <use xlink:href="#DejaVuSans-56" x="63.476562"/>
      <use xlink:href="#DejaVuSans-4d" x="131.884766"/>
      <use xlink:href="#DejaVuSans-2d" x="218.164062"/>
      <use xlink:href="#DejaVuSans-64" x="254.248047"/>
      <use xlink:href="#DejaVuSans-61" x="317.724609"/>
      <use xlink:href="#DejaVuSans-69" x="379.003906"/>
      <use xlink:href="#DejaVuSans-6c" x="406.787109"/>
      <use xlink:href="#DejaVuSans-79" x="434.570312"/>
     </g>
    </g>
    <g id="line2d_22">
     <path d="M 63 91.692813 
L 73 91.692813 
L 83 91.692813 
" style="fill: none; stroke-dasharray: 5.55,2.4; stroke-dashoffset: 0; stroke: #0000ff; stroke-width: 1.5"/>
     <g>
      <use xlink:href="#m6d31747b83" x="73" y="91.692813" style="fill: #0000ff; stroke: #0000ff"/>
     </g>
    </g>
    <g id="text_20">
     <!-- SVM-multi-once -->
     <g transform="translate(91 95.192813)scale(0.1 -0.1)">
      <use xlink:href="#DejaVuSans-53"/>
      <use xlink:href="#DejaVuSans-56" x="63.476562"/>
      <use xlink:href="#DejaVuSans-4d" x="131.884766"/>
      <use xlink:href="#DejaVuSans-2d" x="218.164062"/>
      <use xlink:href="#DejaVuSans-6d" x="254.248047"/>
      <use xlink:href="#DejaVuSans-75" x="351.660156"/>
      <use xlink:href="#DejaVuSans-6c" x="415.039062"/>
      <use xlink:href="#DejaVuSans-74" x="442.822266"/>
      <use xlink:href="#DejaVuSans-69" x="482.03125"/>
      <use xlink:href="#DejaVuSans-2d" x="509.814453"/>
      <use xlink:href="#DejaVuSans-6f" x="547.773438"/>
      <use xlink:href="#DejaVuSans-6e" x="608.955078"/>
      <use xlink:href="#DejaVuSans-63" x="672.333984"/>
      <use xlink:href="#DejaVuSans-65" x="727.314453"/>
     </g>
    </g>
    <g id="line2d_23">
     <path d="M 63 106.370937 
L 73 106.370937 
L 83 106.370937 
" style="fill: none; stroke: #008000; stroke-width: 1.5; stroke-linecap: square"/>
     <g>
      <use xlink:href="#m38bca7b11c" x="73" y="106.370937" style="fill: #008000; stroke: #008000"/>
     </g>
    </g>
    <g id="text_21">
     <!-- SVM-multi -->
     <g transform="translate(91 109.870937)scale(0.1 -0.1)">
      <use xlink:href="#DejaVuSans-53"/>
      <use xlink:href="#DejaVuSans-56" x="63.476562"/>
      <use xlink:href="#DejaVuSans-4d" x="131.884766"/>
      <use xlink:href="#DejaVuSans-2d" x="218.164062"/>
      <use xlink:href="#DejaVuSans-6d" x="254.248047"/>
      <use xlink:href="#DejaVuSans-75" x="351.660156"/>
      <use xlink:href="#DejaVuSans-6c" x="415.039062"/>
      <use xlink:href="#DejaVuSans-74" x="442.822266"/>
      <use xlink:href="#DejaVuSans-69" x="482.03125"/>
     </g>
    </g>
   </g>
  </g>
 </g>
 <defs>
  <clipPath id="p98e4e86969">
   <rect x="54" y="34.56" width="334.8" height="217.44"/>
  </clipPath>
 </defs>
</svg>
